<svg version="1.1" id="Layer_1" xmlns="http://www.w3.org/2000/svg" xmlns:xlink="http://www.w3.org/1999/xlink" x="0px" y="0px"
	 width="100%" viewBox="0 0 1694 820" enable-background="new 0 0 1694 820" xml:space="preserve">
<path fill="none" opacity="1.000000" stroke="none" 
	d="
M1688.051270,821.000000 
	C1125.375977,821.000000 563.211670,821.000000 1.023660,821.000000 
	C1.023660,547.683594 1.023660,274.367157 1.023660,1.025371 
	C565.647400,1.025371 1130.294800,1.025371 1694.971069,1.025371 
	C1694.971069,274.312927 1694.971069,547.625854 1694.971069,821.000000 
	C1692.854126,821.000000 1690.708130,821.000000 1688.051270,821.000000 
M1240.215088,737.949646 
	C1014.019226,739.782959 787.824341,737.820801 562.059814,738.363098 
	C561.865845,734.012390 562.018311,730.218384 561.424561,726.544861 
	C560.999512,723.915405 545.554016,713.417908 542.852783,713.364868 
	C539.795959,713.304810 538.214600,715.556641 540.125000,717.824463 
	C542.312927,720.421631 544.966858,723.621338 547.947083,724.327332 
	C552.651001,725.441589 553.591553,729.144897 555.501038,732.199768 
	C555.961853,732.936951 554.893127,735.639099 553.897400,736.112976 
	C547.780640,739.023682 541.346191,739.941467 534.485046,738.221497 
	C534.647339,735.563416 534.969971,733.259033 534.894836,730.967712 
	C534.640564,723.213745 524.914368,715.683350 517.475464,717.630798 
	C515.978760,718.022583 514.239746,719.503479 513.733032,720.891418 
	C513.438477,721.697998 515.116394,723.865540 516.362793,724.452698 
	C518.560059,725.487793 521.252441,725.463135 523.465454,726.476257 
	C525.676086,727.488464 529.223022,729.255920 529.200623,730.644165 
	C529.163452,732.948059 527.051147,735.526001 525.201904,737.378601 
	C524.078613,738.504089 521.822266,738.847290 520.049744,738.919067 
	C509.096161,739.362183 498.136414,739.802307 487.176544,739.865417 
	C482.965729,739.889709 478.749207,738.920837 474.542969,738.405457 
	C476.263641,726.422852 476.146698,715.424622 469.198730,705.407043 
	C462.338409,695.515869 453.348358,690.311401 441.177002,692.056274 
	C439.176483,692.343018 437.451996,694.555359 435.599915,695.877686 
	C437.274933,696.938904 438.824219,698.487305 440.651398,698.958862 
	C444.342529,699.911560 448.189636,700.249695 451.963257,700.895020 
	C458.648773,702.038574 464.228821,705.481934 466.546722,711.700928 
	C468.501770,716.946472 468.805756,722.903137 469.247070,728.591064 
	C469.714539,734.616455 465.694458,738.889038 459.786377,738.903198 
	C427.954865,738.979614 396.122925,738.979126 364.291901,738.830994 
	C362.408539,738.822205 360.341583,737.565063 358.705414,736.402710 
	C357.013885,735.200989 343.619049,732.106140 341.831482,733.085632 
	C341.171265,733.447449 340.435333,734.200684 340.293091,734.890686 
	C339.471771,738.874756 336.512421,739.034851 333.375061,738.981689 
	C313.898926,738.651672 294.421753,737.994568 274.946808,738.053894 
	C218.138611,738.226929 161.331116,738.663513 104.524132,739.101624 
	C101.735405,739.123108 98.954338,740.139587 96.169708,740.692749 
	C96.184296,741.235718 96.198883,741.778687 96.213470,742.321655 
	C99.749802,744.841064 104.135895,744.740295 108.199013,744.866943 
	C125.670891,745.411560 143.153442,745.986694 160.630142,745.931641 
	C207.107559,745.785217 253.583939,745.313110 300.060822,744.984680 
	C308.518829,744.924927 316.978973,745.030212 325.435150,744.885620 
	C337.882965,744.672913 350.329254,744.017029 362.774170,744.066406 
	C383.725616,744.149475 404.674500,744.786804 425.626221,744.924683 
	C466.574554,745.194214 507.524048,745.386902 548.473145,745.407471 
	C580.089661,745.423401 611.706604,744.958923 643.322693,745.028137 
	C666.244446,745.078308 689.164490,745.842163 712.086548,745.923584 
	C726.563599,745.974976 741.042175,745.313416 755.521484,745.047485 
	C776.498779,744.662109 797.478210,744.010437 818.455200,744.064148 
	C874.265625,744.206970 930.075439,744.646423 985.885193,745.005981 
	C1032.195557,745.304321 1078.505371,745.840027 1124.816040,745.918091 
	C1153.626343,745.966675 1182.437866,745.384277 1211.248413,745.038025 
	C1236.893555,744.729736 1262.537109,744.279419 1288.182739,744.041260 
	C1303.936157,743.894958 1319.693115,743.926270 1335.446899,744.063232 
	C1357.398193,744.254028 1379.347656,744.660034 1401.298706,744.898560 
	C1436.442261,745.280457 1471.585693,745.737976 1506.730469,745.883301 
	C1522.040649,745.946594 1537.352661,745.173523 1552.666016,745.036865 
	C1570.830444,744.874756 1588.998657,745.105774 1607.162354,744.902405 
	C1611.729126,744.851318 1616.284546,743.791870 1620.845215,743.195801 
	C1620.853394,742.458679 1620.861572,741.721497 1620.869751,740.984375 
	C1618.786255,740.369141 1616.723022,739.307800 1614.616089,739.212891 
	C1602.981079,738.688354 1591.335815,738.114624 1579.693604,738.106079 
	C1566.717285,738.096619 1553.741211,738.701111 1540.763916,738.990173 
	C1524.953857,739.342346 1509.142822,739.877441 1493.331787,739.896240 
	C1480.037231,739.912109 1466.743042,739.092773 1453.446533,739.013611 
	C1428.615234,738.865784 1403.782471,738.986694 1378.950317,738.995544 
	C1377.335449,738.996094 1375.720703,738.995605 1374.105835,738.995605 
	C1391.309814,736.911316 1402.468750,726.302734 1404.073364,709.291077 
	C1404.759521,702.017395 1404.837646,694.673950 1404.900391,687.359741 
	C1404.926025,684.383484 1405.997559,682.863831 1408.391113,680.962219 
	C1412.435791,677.749023 1416.548096,673.934937 1418.888062,669.461365 
	C1421.088867,665.253906 1421.623047,659.895081 1421.853882,654.994080 
	C1422.362427,644.197571 1422.676880,633.343506 1418.562744,622.946716 
	C1417.688599,620.737671 1417.032471,618.432190 1420.258057,616.624023 
	C1430.139526,611.084839 1435.993896,597.874817 1434.813965,586.366638 
	C1433.207397,570.699646 1426.243408,558.393616 1413.674316,548.890076 
	C1406.388794,543.381531 1399.237305,537.555054 1392.792725,531.105164 
	C1380.801880,519.104614 1369.604492,506.311249 1357.612549,494.311981 
	C1351.390503,488.086182 1344.161621,483.171875 1335.211670,480.839508 
	C1319.297729,476.692444 1304.884277,480.412872 1290.946899,487.813660 
	C1279.387085,493.952026 1274.567993,503.888397 1275.107178,516.669067 
	C1275.322998,521.786621 1275.961670,526.888245 1276.120361,532.005981 
	C1276.601929,547.557190 1286.147461,559.213501 1293.198853,571.919189 
	C1294.616577,574.473816 1298.497314,576.536133 1298.464600,578.785034 
	C1298.429077,581.240112 1294.835693,583.467224 1293.380859,586.116577 
	C1290.795654,590.824585 1287.072876,592.158203 1281.861816,592.096130 
	C1262.198975,591.861877 1242.530273,591.883545 1222.866211,592.072510 
	C1209.755249,592.198486 1205.074219,597.843262 1207.912476,610.472839 
	C1211.995972,628.643860 1216.502197,646.721741 1221.010010,664.794067 
	C1222.034058,668.899414 1221.439697,671.936157 1218.470215,675.199646 
	C1205.552246,689.396606 1205.472290,709.204956 1213.928223,725.549866 
	C1215.921875,729.403503 1224.714478,734.256287 1227.932373,732.536133 
	C1234.479126,729.036560 1237.458008,735.117798 1242.067139,736.684448 
	C1241.659424,737.098938 1241.251587,737.513367 1240.215088,737.949646 
M372.897400,727.690735 
	C376.006134,725.883362 379.777405,724.684204 382.099579,722.154724 
	C389.113098,714.515076 395.576630,706.369324 402.208588,698.382751 
	C402.713379,697.774780 402.732605,696.781738 403.190552,696.113586 
	C405.029755,693.430298 406.640900,690.487854 408.924286,688.237915 
	C411.748535,685.455139 415.269623,683.395935 418.289703,680.792175 
	C425.314209,674.735962 433.218506,670.706909 442.629364,670.844543 
	C452.230804,670.984863 461.573395,672.888855 469.817871,678.072205 
	C475.553284,681.678101 480.807373,686.042480 486.457458,689.795532 
	C488.200623,690.953491 490.976807,692.246216 492.486938,691.606079 
	C494.107574,690.919189 495.029541,688.118530 495.805115,686.069397 
	C496.308289,684.740173 495.898438,683.092041 496.081238,681.609436 
	C496.515106,678.090637 497.058197,674.585327 497.651611,670.409973 
	C499.307861,671.364807 500.038269,671.688416 500.656769,672.158997 
	C503.656769,674.441895 506.298309,677.658752 509.671722,678.897156 
	C518.224609,682.037109 526.649597,678.416870 533.043396,670.132629 
	C534.137146,668.715515 536.071594,667.947205 537.617737,666.879211 
	C538.453796,668.392578 539.685547,669.816772 540.050415,671.436340 
	C541.072998,675.975281 541.628052,680.617432 542.567261,685.177734 
	C544.323792,693.707214 547.164673,695.536377 555.500244,693.202576 
	C557.291077,692.701111 558.733093,690.953613 560.335815,689.780151 
	C558.445923,688.870789 556.464355,687.046509 554.683472,687.225037 
	C549.515259,687.742981 548.676514,684.927246 547.923340,680.824402 
	C546.910522,675.307251 545.731934,669.683228 543.569641,664.549316 
	C540.876282,658.154419 536.897400,657.707886 532.040710,662.687744 
	C529.735291,665.051636 528.104919,668.063843 525.867188,670.506104 
	C521.225952,675.571472 513.362549,675.428101 508.787537,670.387207 
	C506.667145,668.050903 504.930847,665.044983 502.326019,663.562927 
	C499.891388,662.177673 496.005798,661.232422 493.740845,662.259399 
	C491.525848,663.263672 490.039856,666.840942 489.166473,669.585632 
	C488.157379,672.756653 488.167786,676.252136 487.617859,680.519775 
	C484.980957,679.171631 483.367371,678.450623 481.855286,677.557678 
	C463.744507,666.862976 444.766693,662.048523 424.055939,669.006104 
	C414.137939,672.337952 405.279999,678.121033 399.826935,686.588013 
	C396.256958,692.131042 392.830780,697.565125 388.369690,702.432068 
	C384.217834,706.961609 380.109680,711.579651 376.486969,716.528198 
	C374.145416,719.726746 371.625458,721.653137 367.734283,720.626770 
	C363.553986,719.524109 362.055603,716.130859 362.057343,712.200195 
	C362.060181,705.719788 361.951630,699.192627 362.660614,692.770264 
	C363.678741,683.547485 360.575317,676.351929 353.212402,671.080811 
	C345.044708,665.233643 334.550507,668.821045 331.554199,678.434753 
	C331.061188,680.016602 331.984985,682.040100 332.253998,683.859436 
	C333.730347,683.047180 335.423889,682.470520 336.627106,681.361877 
	C338.070953,680.031433 338.916199,678.056885 340.344727,676.703186 
	C342.671509,674.498352 345.479736,673.273987 348.446320,675.482605 
	C353.521423,679.260986 357.555145,683.454956 357.072540,690.726196 
	C356.568756,698.316284 356.881042,705.972351 357.071106,713.593628 
	C357.297150,722.655762 363.047638,727.980957 372.897400,727.690735 
M326.645325,710.974365 
	C321.849121,710.837158 319.107880,714.215027 322.075226,716.830627 
	C326.365479,720.612244 331.956482,722.968079 337.167206,725.584290 
	C337.733215,725.868530 339.866364,724.056885 340.459229,722.825745 
	C340.751587,722.218506 339.141937,719.741516 338.468323,719.772034 
	C332.306244,720.051697 329.871948,715.618652 326.645325,710.974365 
M563.418884,703.612854 
	C561.200867,699.409241 552.805237,696.686340 548.896606,698.902893 
	C545.800171,700.658813 545.563904,704.390625 548.438538,706.139771 
	C551.529663,708.020630 560.293762,706.928955 563.418884,703.612854 
M499.390625,712.964111 
	C496.083527,714.002625 492.588715,714.688416 489.580933,716.289368 
	C488.648743,716.785522 488.605499,719.871033 489.008545,721.568481 
	C489.210083,722.417297 491.374756,723.384460 492.577606,723.295715 
	C495.561462,723.075623 499.848236,716.926331 499.390625,712.964111 
M331.857086,697.509949 
	C331.084930,695.708313 330.750885,693.396179 329.415771,692.250549 
	C328.114197,691.133484 325.789062,691.209045 323.913269,690.761047 
	C323.705444,692.342651 322.890106,694.179688 323.423889,695.449524 
	C324.360443,697.677307 325.878235,699.814514 327.631256,701.488403 
	C328.709198,702.517700 330.676025,702.616150 332.243713,703.132568 
	C332.286957,701.432068 332.330200,699.731628 331.857086,697.509949 
M488.238312,705.930359 
	C489.995270,704.957703 491.996521,704.231201 493.368256,702.870239 
	C493.810242,702.431641 492.888275,699.422485 492.079071,699.158936 
	C490.186859,698.542725 487.689240,698.224365 485.985229,698.996277 
	C483.968567,699.909729 482.528442,702.096008 480.838440,703.730591 
	C483.022827,704.473022 485.207214,705.215454 488.238312,705.930359 
z"/>
<path fill="#2D1909" opacity="1.000000" stroke="none" 
	d="
M1240.529419,737.938721 
	C1241.251587,737.513367 1241.659424,737.098938 1242.067139,736.684448 
	C1237.458008,735.117798 1234.479126,729.036560 1227.932373,732.536133 
	C1224.714478,734.256287 1215.921875,729.403503 1213.928223,725.549866 
	C1205.472290,709.204956 1205.552246,689.396606 1218.470215,675.199646 
	C1221.439697,671.936157 1222.034058,668.899414 1221.010010,664.794067 
	C1216.502197,646.721741 1211.995972,628.643860 1207.912476,610.472839 
	C1205.074219,597.843262 1209.755249,592.198486 1222.866211,592.072510 
	C1242.530273,591.883545 1262.198975,591.861877 1281.861816,592.096130 
	C1287.072876,592.158203 1290.795654,590.824585 1293.380859,586.116577 
	C1294.835693,583.467224 1298.429077,581.240112 1298.464600,578.785034 
	C1298.497314,576.536133 1294.616577,574.473816 1293.198853,571.919189 
	C1286.147461,559.213501 1276.601929,547.557190 1276.120361,532.005981 
	C1275.961670,526.888245 1275.322998,521.786621 1275.107178,516.669067 
	C1274.567993,503.888397 1279.387085,493.952026 1290.946899,487.813660 
	C1304.884277,480.412872 1319.297729,476.692444 1335.211670,480.839508 
	C1344.161621,483.171875 1351.390503,488.086182 1357.612549,494.311981 
	C1369.604492,506.311249 1380.801880,519.104614 1392.792725,531.105164 
	C1399.237305,537.555054 1406.388794,543.381531 1413.674316,548.890076 
	C1426.243408,558.393616 1433.207397,570.699646 1434.813965,586.366638 
	C1435.993896,597.874817 1430.139526,611.084839 1420.258057,616.624023 
	C1417.032471,618.432190 1417.688599,620.737671 1418.562744,622.946716 
	C1422.676880,633.343506 1422.362427,644.197571 1421.853882,654.994080 
	C1421.623047,659.895081 1421.088867,665.253906 1418.888062,669.461365 
	C1416.548096,673.934937 1412.435791,677.749023 1408.391113,680.962219 
	C1405.997559,682.863831 1404.926025,684.383484 1404.900391,687.359741 
	C1404.837646,694.673950 1404.759521,702.017395 1404.073364,709.291077 
	C1402.468750,726.302734 1391.309814,736.911316 1374.105835,738.995605 
	C1375.720703,738.995605 1377.335449,738.996094 1378.950317,738.995544 
	C1403.782471,738.986694 1428.615234,738.865784 1453.446533,739.013611 
	C1466.743042,739.092773 1480.037231,739.912109 1493.331787,739.896240 
	C1509.142822,739.877441 1524.953857,739.342346 1540.763916,738.990173 
	C1553.741211,738.701111 1566.717285,738.096619 1579.693604,738.106079 
	C1591.335815,738.114624 1602.981079,738.688354 1614.616089,739.212891 
	C1616.723022,739.307800 1618.786255,740.369141 1620.869751,740.984375 
	C1620.861572,741.721497 1620.853394,742.458679 1620.845215,743.195801 
	C1616.284546,743.791870 1611.729126,744.851318 1607.162354,744.902405 
	C1588.998657,745.105774 1570.830444,744.874756 1552.666016,745.036865 
	C1537.352661,745.173523 1522.040649,745.946594 1506.730469,745.883301 
	C1471.585693,745.737976 1436.442261,745.280457 1401.298706,744.898560 
	C1379.347656,744.660034 1357.398193,744.254028 1335.446899,744.063232 
	C1319.693115,743.926270 1303.936157,743.894958 1288.182739,744.041260 
	C1262.537109,744.279419 1236.893555,744.729736 1211.248413,745.038025 
	C1182.437866,745.384277 1153.626343,745.966675 1124.816040,745.918091 
	C1078.505371,745.840027 1032.195557,745.304321 985.885193,745.005981 
	C930.075439,744.646423 874.265625,744.206970 818.455200,744.064148 
	C797.478210,744.010437 776.498779,744.662109 755.521484,745.047485 
	C741.042175,745.313416 726.563599,745.974976 712.086548,745.923584 
	C689.164490,745.842163 666.244446,745.078308 643.322693,745.028137 
	C611.706604,744.958923 580.089661,745.423401 548.473145,745.407471 
	C507.524048,745.386902 466.574554,745.194214 425.626221,744.924683 
	C404.674500,744.786804 383.725616,744.149475 362.774170,744.066406 
	C350.329254,744.017029 337.882965,744.672913 325.435150,744.885620 
	C316.978973,745.030212 308.518829,744.924927 300.060822,744.984680 
	C253.583939,745.313110 207.107559,745.785217 160.630142,745.931641 
	C143.153442,745.986694 125.670891,745.411560 108.199013,744.866943 
	C104.135895,744.740295 99.749802,744.841064 96.213470,742.321655 
	C96.198883,741.778687 96.184296,741.235718 96.169708,740.692749 
	C98.954338,740.139587 101.735405,739.123108 104.524132,739.101624 
	C161.331116,738.663513 218.138611,738.226929 274.946808,738.053894 
	C294.421753,737.994568 313.898926,738.651672 333.375061,738.981689 
	C336.512421,739.034851 339.471771,738.874756 340.293091,734.890686 
	C340.435333,734.200684 341.171265,733.447449 341.831482,733.085632 
	C343.619049,732.106140 357.013885,735.200989 358.705414,736.402710 
	C360.341583,737.565063 362.408539,738.822205 364.291901,738.830994 
	C396.122925,738.979126 427.954865,738.979614 459.786377,738.903198 
	C465.694458,738.889038 469.714539,734.616455 469.247070,728.591064 
	C468.805756,722.903137 468.501770,716.946472 466.546722,711.700928 
	C464.228821,705.481934 458.648773,702.038574 451.963257,700.895020 
	C448.189636,700.249695 444.342529,699.911560 440.651398,698.958862 
	C438.824219,698.487305 437.274933,696.938904 435.599915,695.877686 
	C437.451996,694.555359 439.176483,692.343018 441.177002,692.056274 
	C453.348358,690.311401 462.338409,695.515869 469.198730,705.407043 
	C476.146698,715.424622 476.263641,726.422852 474.542969,738.405457 
	C478.749207,738.920837 482.965729,739.889709 487.176544,739.865417 
	C498.136414,739.802307 509.096161,739.362183 520.049744,738.919067 
	C521.822266,738.847290 524.078613,738.504089 525.201904,737.378601 
	C527.051147,735.526001 529.163452,732.948059 529.200623,730.644165 
	C529.223022,729.255920 525.676086,727.488464 523.465454,726.476257 
	C521.252441,725.463135 518.560059,725.487793 516.362793,724.452698 
	C515.116394,723.865540 513.438477,721.697998 513.733032,720.891418 
	C514.239746,719.503479 515.978760,718.022583 517.475464,717.630798 
	C524.914368,715.683350 534.640564,723.213745 534.894836,730.967712 
	C534.969971,733.259033 534.647339,735.563416 534.485046,738.221497 
	C541.346191,739.941467 547.780640,739.023682 553.897400,736.112976 
	C554.893127,735.639099 555.961853,732.936951 555.501038,732.199768 
	C553.591553,729.144897 552.651001,725.441589 547.947083,724.327332 
	C544.966858,723.621338 542.312927,720.421631 540.125000,717.824463 
	C538.214600,715.556641 539.795959,713.304810 542.852783,713.364868 
	C545.554016,713.417908 560.999512,723.915405 561.424561,726.544861 
	C562.018311,730.218384 561.865845,734.012390 562.059814,738.363098 
	C787.824341,737.820801 1014.019226,739.782959 1240.529419,737.938721 
M1304.036011,681.969849 
	C1294.553223,681.969849 1285.070312,681.969849 1275.587524,681.969849 
	C1275.540039,682.422363 1275.492554,682.874817 1275.445068,683.327332 
	C1281.236450,685.804871 1286.994385,688.366882 1292.849487,690.683105 
	C1293.919067,691.106201 1295.783936,691.004883 1296.596802,690.325806 
	C1299.612915,687.806091 1302.342651,684.943726 1305.423462,682.145203 
	C1305.553589,681.944153 1305.683594,681.743164 1305.813721,681.542114 
	C1305.532349,681.679016 1305.250854,681.815979 1304.036011,681.969849 
M1309.167114,570.032776 
	C1308.790039,568.106873 1307.924194,566.129944 1308.119019,564.263733 
	C1309.068726,555.169678 1307.727539,547.441956 1298.158447,543.242920 
	C1296.498291,542.514465 1294.918335,540.145996 1294.602905,538.311340 
	C1294.384399,537.039368 1296.398560,535.383606 1297.375000,533.957825 
	C1293.990234,531.191956 1290.354614,528.523926 1287.128418,525.429016 
	C1285.918335,524.268005 1285.659790,522.115051 1284.967407,520.414307 
	C1286.796021,520.367920 1288.821411,519.793945 1290.411255,520.387329 
	C1293.507202,521.542908 1296.538452,523.086487 1299.281494,524.936523 
	C1312.199585,533.649231 1326.492798,533.710571 1341.043335,531.581360 
	C1344.764648,531.036865 1348.268066,529.098022 1351.918091,527.947449 
	C1356.195557,526.599060 1359.462036,528.229919 1361.689941,531.894958 
	C1364.078857,535.824646 1363.307983,543.482300 1360.364258,547.011230 
	C1354.232788,554.361206 1354.357422,556.708191 1360.026978,564.750488 
	C1363.704956,569.967834 1367.660645,573.135559 1374.629272,571.380554 
	C1377.243652,570.722168 1380.644287,571.619324 1383.256348,572.777222 
	C1398.169556,579.387878 1408.344360,590.497498 1413.843750,605.908203 
	C1414.469238,607.661072 1415.806763,609.159851 1416.814087,610.776550 
	C1418.643921,609.483582 1420.938965,608.543823 1422.230835,606.842346 
	C1433.890015,591.486023 1426.676025,567.669861 1415.449707,558.276733 
	C1406.401611,550.706055 1397.104492,543.342163 1388.773315,535.029175 
	C1378.659668,524.937744 1369.882690,513.502502 1359.721558,503.464264 
	C1348.921631,492.794830 1336.276611,484.856384 1320.090820,487.199768 
	C1312.910767,488.239258 1305.665894,490.152191 1298.997925,492.966187 
	C1294.125000,495.022644 1289.256714,498.486237 1285.970703,502.591003 
	C1280.551514,509.360687 1279.423218,517.175110 1282.698120,525.958252 
	C1287.448730,538.698914 1290.664551,552.006470 1295.262085,564.811218 
	C1299.110962,575.530396 1313.362915,582.962708 1323.988525,580.922058 
	C1330.625610,579.647400 1335.029541,575.131775 1339.766724,570.919495 
	C1340.971924,569.847900 1343.105469,569.820618 1344.812622,569.313538 
	C1344.710205,571.137329 1345.268921,573.395935 1344.400513,574.715820 
	C1337.731567,584.851990 1324.230835,589.943115 1312.745850,585.828247 
	C1306.751099,583.680481 1304.167725,586.552979 1300.241699,590.951599 
	C1310.876831,590.448303 1313.847412,596.396606 1315.202271,604.826416 
	C1316.597290,613.505554 1319.170166,621.994080 1321.190308,630.574829 
	C1321.907471,633.621277 1323.531616,634.343628 1326.278442,632.861511 
	C1334.019531,628.684387 1342.098145,628.310059 1350.485474,630.591309 
	C1356.494629,632.225830 1362.573730,633.603882 1368.949829,635.177307 
	C1369.182129,632.437439 1369.410156,630.009827 1369.588013,627.578613 
	C1369.782349,624.922913 1369.690430,622.217041 1370.194824,619.624817 
	C1370.469360,618.214355 1371.723145,616.994446 1372.535400,615.688660 
	C1373.647461,616.904114 1375.387939,617.957153 1375.752319,619.365967 
	C1376.790283,623.379517 1377.668335,627.519958 1377.853760,631.644409 
	C1378.041260,635.819763 1379.711182,638.369873 1383.303955,640.360596 
	C1385.872314,641.783691 1388.304443,643.781738 1390.149048,646.050354 
	C1391.142578,647.272278 1390.771484,649.603638 1391.016235,651.434326 
	C1389.179810,651.642761 1387.144165,652.447937 1385.554199,651.917664 
	C1383.252563,651.149963 1381.284546,649.397339 1379.153931,648.098389 
	C1376.272705,646.341858 1373.372192,644.617249 1370.480103,642.878906 
	C1370.034058,643.161987 1369.588135,643.445129 1369.142090,643.728271 
	C1369.338135,646.262634 1369.493164,648.801025 1369.738403,651.330688 
	C1370.307373,657.201965 1368.072754,660.932800 1362.913208,660.774231 
	C1350.870728,660.404053 1341.845703,665.735901 1334.094482,674.287781 
	C1332.715698,675.809082 1330.674561,676.816162 1328.795654,677.781006 
	C1324.290527,680.094604 1318.615234,681.212769 1315.351318,684.652954 
	C1306.311890,694.180481 1295.568115,700.615173 1283.942017,706.308411 
	C1275.812012,710.289551 1268.226685,711.901245 1259.584839,708.448364 
	C1253.118164,705.864685 1246.444702,703.509216 1239.645142,702.118164 
	C1230.144165,700.174561 1225.905762,704.646423 1227.194214,714.346191 
	C1227.426880,716.097595 1228.147583,717.898621 1229.062378,719.425476 
	C1233.439697,726.732849 1240.341431,730.714111 1248.284790,732.716431 
	C1254.065674,734.173584 1260.042358,735.089661 1265.987549,735.614624 
	C1283.900024,737.196289 1301.687500,735.901978 1318.727783,730.097717 
	C1331.466553,725.758606 1343.724121,720.006958 1356.195312,714.882874 
	C1357.273438,714.440002 1358.341553,713.639954 1359.424316,713.622131 
	C1360.913696,713.597595 1362.412842,714.161255 1363.907715,714.472961 
	C1363.284180,715.716858 1362.955566,717.317261 1361.974365,718.128784 
	C1360.070190,719.703857 1357.863647,720.957031 1355.665405,722.122620 
	C1352.306274,723.903625 1348.848022,725.497314 1345.431763,727.170410 
	C1345.500122,727.811584 1345.568604,728.452759 1345.636963,729.093872 
	C1355.693237,729.712708 1365.824585,731.393921 1375.787231,730.689209 
	C1389.129395,729.745422 1400.345337,721.935547 1399.088501,706.978760 
	C1398.716309,702.549805 1399.812256,698.011658 1399.632568,693.547791 
	C1399.502197,690.312317 1399.057861,686.753113 1397.569946,683.971375 
	C1392.977173,675.384216 1386.374268,668.873291 1376.683838,665.919922 
	C1375.170166,665.458557 1374.137573,663.419189 1372.882568,662.109497 
	C1374.770508,661.494202 1376.646729,660.444458 1378.550049,660.392334 
	C1380.272583,660.345276 1382.298340,661.004761 1383.715088,662.017517 
	C1388.801636,665.653442 1393.561646,669.754150 1398.717896,673.280090 
	C1400.458496,674.470398 1403.517212,675.557922 1405.098999,674.819458 
	C1410.167480,672.452942 1414.003174,668.761658 1415.187622,662.680969 
	C1417.719482,649.682617 1416.786621,636.921936 1413.904907,624.111023 
	C1409.649902,605.195740 1399.616577,590.502563 1382.276611,581.624390 
	C1376.052734,578.437683 1368.798218,577.323669 1362.148804,574.894836 
	C1349.875854,570.411804 1346.054443,552.782166 1354.915527,543.723511 
	C1356.587646,542.014038 1357.426270,538.264404 1356.862183,535.878967 
	C1356.009888,532.275330 1352.469360,532.906982 1349.745972,533.998108 
	C1338.354248,538.562195 1326.424072,539.079590 1314.390869,539.012207 
	C1312.658813,539.002502 1310.925659,539.193054 1310.297363,539.228516 
	C1311.281738,544.651794 1312.489014,549.544006 1312.995483,554.507751 
	C1313.746338,561.866699 1313.592896,561.875000 1320.891479,563.253479 
	C1322.020386,563.466675 1323.229492,564.398132 1323.912842,565.348755 
	C1324.260376,565.832092 1323.742920,567.731812 1323.236206,567.909973 
	C1318.864624,569.447327 1314.810669,572.863953 1309.167114,570.032776 
M1306.865723,606.690430 
	C1305.042725,599.291443 1304.774902,599.234924 1297.177734,598.973816 
	C1281.737183,598.443237 1266.307617,597.522217 1250.864258,597.168091 
	C1240.567993,596.931946 1230.214600,596.889343 1219.963623,597.714050 
	C1212.201782,598.338623 1210.778320,600.905273 1212.731934,608.425476 
	C1214.860840,616.620850 1217.863647,624.594666 1219.869873,632.815308 
	C1222.665771,644.270996 1224.687866,655.914490 1227.431885,667.384216 
	C1229.178589,674.685181 1231.229492,676.054321 1238.595093,675.971436 
	C1263.538574,675.690796 1288.481201,675.317932 1313.423950,674.974121 
	C1314.255005,674.962646 1315.319580,675.192200 1315.869751,674.774780 
	C1317.311890,673.680603 1319.617432,672.317627 1319.650269,671.013245 
	C1319.802856,664.946716 1320.198853,658.657776 1318.859863,652.826843 
	C1315.366455,637.614258 1311.010498,622.599792 1306.865723,606.690430 
M1267.499878,701.984192 
	C1274.273193,702.338928 1279.850220,699.708374 1285.032715,695.353577 
	C1264.745605,683.028687 1261.172363,682.008545 1238.699219,681.999756 
	C1238.033691,681.999512 1237.351929,682.094238 1236.705200,681.983704 
	C1232.202271,681.213684 1227.706543,680.401062 1222.123413,679.409424 
	C1214.066650,686.801514 1214.321289,717.917297 1224.170410,723.812073 
	C1223.465454,721.105835 1222.630981,718.782166 1222.300781,716.388916 
	C1221.962036,713.934814 1221.966187,711.405518 1222.083252,708.921509 
	C1222.427856,701.617981 1225.812988,697.674805 1232.803101,695.826355 
	C1239.826660,693.968994 1246.210327,696.110596 1252.718750,698.367981 
	C1257.220703,699.929443 1261.961792,700.800903 1267.499878,701.984192 
M1325.075562,646.312012 
	C1326.933228,645.166626 1328.733887,643.910400 1330.668457,642.914429 
	C1331.979004,642.239685 1333.477905,641.930786 1334.892578,641.458313 
	C1334.789673,642.981567 1335.052734,644.652222 1334.510254,645.998291 
	C1333.264648,649.088928 1331.626587,652.021423 1330.147827,655.018127 
	C1330.573120,655.307312 1330.998413,655.596436 1331.423706,655.885559 
	C1333.211792,654.315063 1334.806885,652.385559 1336.848755,651.286926 
	C1338.505859,650.395325 1340.699585,650.501282 1342.655273,650.164917 
	C1342.409180,651.977051 1342.339600,653.836853 1341.867188,655.588013 
	C1341.399292,657.322327 1340.525269,658.946960 1339.958740,660.308777 
	C1347.386841,658.342651 1354.358398,656.543091 1361.290283,654.602112 
	C1362.114380,654.371277 1363.023193,653.500793 1363.377686,652.699097 
	C1364.864258,649.336426 1360.848511,638.551025 1357.261597,637.973206 
	C1349.984619,636.800964 1342.486450,635.788269 1335.192627,636.305908 
	C1328.942749,636.749573 1325.195312,641.374329 1325.075562,646.312012 
M1336.499512,738.967896 
	C1342.357300,738.967896 1348.214966,738.967896 1354.616455,738.967896 
	C1340.952515,732.978516 1327.853394,729.958801 1314.668945,738.967712 
	C1321.681641,738.967712 1328.590698,738.967712 1336.499512,738.967896 
M1336.577759,664.017822 
	C1336.577759,664.017822 1336.496826,664.046753 1336.577759,664.017822 
M1227.018066,726.421936 
	C1227.018066,726.421936 1227.046997,726.502808 1227.018066,726.421936 
z"/>
<path fill="#2D1909" opacity="1.000000" stroke="none" 
	d="
M372.492981,727.748779 
	C363.047638,727.980957 357.297150,722.655762 357.071106,713.593628 
	C356.881042,705.972351 356.568756,698.316284 357.072540,690.726196 
	C357.555145,683.454956 353.521423,679.260986 348.446320,675.482605 
	C345.479736,673.273987 342.671509,674.498352 340.344727,676.703186 
	C338.916199,678.056885 338.070953,680.031433 336.627106,681.361877 
	C335.423889,682.470520 333.730347,683.047180 332.253967,683.859436 
	C331.984985,682.040100 331.061188,680.016602 331.554199,678.434753 
	C334.550507,668.821045 345.044708,665.233643 353.212402,671.080811 
	C360.575317,676.351929 363.678741,683.547485 362.660614,692.770264 
	C361.951630,699.192627 362.060181,705.719788 362.057343,712.200195 
	C362.055603,716.130859 363.553986,719.524109 367.734283,720.626770 
	C371.625458,721.653137 374.145416,719.726746 376.486969,716.528198 
	C380.109680,711.579651 384.217834,706.961609 388.369690,702.432068 
	C392.830780,697.565125 396.256958,692.131042 399.826935,686.588013 
	C405.279999,678.121033 414.137939,672.337952 424.055939,669.006104 
	C444.766693,662.048523 463.744507,666.862976 481.855286,677.557678 
	C483.367371,678.450623 484.980957,679.171631 487.617859,680.519775 
	C488.167786,676.252136 488.157379,672.756653 489.166473,669.585632 
	C490.039856,666.840942 491.525848,663.263672 493.740845,662.259399 
	C496.005798,661.232422 499.891388,662.177673 502.326019,663.562927 
	C504.930847,665.044983 506.667145,668.050903 508.787537,670.387207 
	C513.362549,675.428101 521.225952,675.571472 525.867188,670.506104 
	C528.104919,668.063843 529.735291,665.051636 532.040710,662.687744 
	C536.897400,657.707886 540.876282,658.154419 543.569641,664.549316 
	C545.731934,669.683228 546.910522,675.307251 547.923340,680.824402 
	C548.676514,684.927246 549.515259,687.742981 554.683472,687.225037 
	C556.464355,687.046509 558.445923,688.870789 560.335815,689.780151 
	C558.733093,690.953613 557.291077,692.701111 555.500244,693.202576 
	C547.164673,695.536377 544.323792,693.707214 542.567261,685.177734 
	C541.628052,680.617432 541.072998,675.975281 540.050415,671.436340 
	C539.685547,669.816772 538.453796,668.392578 537.617737,666.879150 
	C536.071594,667.947205 534.137146,668.715515 533.043396,670.132629 
	C526.649597,678.416870 518.224609,682.037109 509.671722,678.897156 
	C506.298309,677.658752 503.656769,674.441895 500.656769,672.158997 
	C500.038269,671.688416 499.307861,671.364807 497.651611,670.409973 
	C497.058197,674.585327 496.515106,678.090637 496.081238,681.609436 
	C495.898438,683.092041 496.308289,684.740173 495.805115,686.069397 
	C495.029541,688.118530 494.107574,690.919189 492.486938,691.606079 
	C490.976807,692.246216 488.200623,690.953491 486.457458,689.795532 
	C480.807373,686.042480 475.553284,681.678101 469.817871,678.072205 
	C461.573395,672.888855 452.230804,670.984863 442.629364,670.844543 
	C433.218506,670.706909 425.314209,674.735962 418.289703,680.792175 
	C415.269623,683.395935 411.748535,685.455139 408.924286,688.237915 
	C406.640900,690.487854 405.029755,693.430298 403.190552,696.113586 
	C402.732605,696.781738 402.713379,697.774780 402.208588,698.382751 
	C395.576630,706.369324 389.113098,714.515076 382.099579,722.154724 
	C379.777405,724.684204 376.006134,725.883362 372.492981,727.748779 
z"/>
<path fill="#2D1909" opacity="1.000000" stroke="none" 
	d="
M326.924622,711.183350 
	C329.871948,715.618652 332.306244,720.051697 338.468323,719.772034 
	C339.141937,719.741516 340.751587,722.218506 340.459229,722.825745 
	C339.866364,724.056885 337.733215,725.868530 337.167206,725.584290 
	C331.956482,722.968079 326.365479,720.612244 322.075226,716.830627 
	C319.107880,714.215027 321.849121,710.837158 326.924622,711.183350 
z"/>
<path fill="#2D1909" opacity="1.000000" stroke="none" 
	d="
M563.355103,703.951294 
	C560.293762,706.928955 551.529663,708.020630 548.438538,706.139771 
	C545.563904,704.390625 545.800171,700.658813 548.896606,698.902893 
	C552.805237,696.686340 561.200867,699.409241 563.355103,703.951294 
z"/>
<path fill="#2D1909" opacity="1.000000" stroke="none" 
	d="
M499.625031,713.186157 
	C499.848236,716.926331 495.561462,723.075623 492.577606,723.295715 
	C491.374756,723.384460 489.210083,722.417297 489.008545,721.568481 
	C488.605499,719.871033 488.648743,716.785522 489.580933,716.289368 
	C492.588715,714.688416 496.083527,714.002625 499.625031,713.186157 
z"/>
<path fill="#2D1909" opacity="1.000000" stroke="none" 
	d="
M332.115265,697.770508 
	C332.330200,699.731628 332.286957,701.432068 332.243713,703.132568 
	C330.676025,702.616150 328.709198,702.517700 327.631256,701.488403 
	C325.878235,699.814514 324.360443,697.677307 323.423889,695.449524 
	C322.890106,694.179688 323.705444,692.342651 323.913269,690.761047 
	C325.789062,691.209045 328.114197,691.133484 329.415771,692.250549 
	C330.750885,693.396179 331.084930,695.708313 332.115265,697.770508 
z"/>
<path fill="#2D1A0A" opacity="1.000000" stroke="none" 
	d="
M487.814941,705.944092 
	C485.207214,705.215454 483.022827,704.473022 480.838440,703.730591 
	C482.528442,702.096008 483.968567,699.909729 485.985229,698.996277 
	C487.689240,698.224365 490.186859,698.542725 492.079071,699.158936 
	C492.888275,699.422485 493.810242,702.431641 493.368256,702.870239 
	C491.996521,704.231201 489.995270,704.957703 487.814941,705.944092 
z"/>
<path fill="#000000" opacity="1.000000" stroke="none" 
	d="
M1309.427002,570.313293 
	C1314.810669,572.863953 1318.864624,569.447327 1323.236206,567.909973 
	C1323.742920,567.731812 1324.260376,565.832092 1323.912842,565.348755 
	C1323.229492,564.398132 1322.020386,563.466675 1320.891479,563.253479 
	C1313.592896,561.875000 1313.746338,561.866699 1312.995483,554.507751 
	C1312.489014,549.544006 1311.281738,544.651794 1310.297363,539.228516 
	C1310.925659,539.193054 1312.658813,539.002502 1314.390869,539.012207 
	C1326.424072,539.079590 1338.354248,538.562195 1349.745972,533.998108 
	C1352.469360,532.906982 1356.009888,532.275330 1356.862183,535.878967 
	C1357.426270,538.264404 1356.587646,542.014038 1354.915527,543.723511 
	C1346.054443,552.782166 1349.875854,570.411804 1362.148804,574.894836 
	C1368.798218,577.323669 1376.052734,578.437683 1382.276611,581.624390 
	C1399.616577,590.502563 1409.649902,605.195740 1413.904907,624.111023 
	C1416.786621,636.921936 1417.719482,649.682617 1415.187622,662.680969 
	C1414.003174,668.761658 1410.167480,672.452942 1405.098999,674.819458 
	C1403.517212,675.557922 1400.458496,674.470398 1398.717896,673.280090 
	C1393.561646,669.754150 1388.801636,665.653442 1383.715088,662.017517 
	C1382.298340,661.004761 1380.272583,660.345276 1378.550049,660.392334 
	C1376.646729,660.444458 1374.770508,661.494202 1372.882568,662.109497 
	C1374.137573,663.419189 1375.170166,665.458557 1376.683838,665.919922 
	C1386.374268,668.873291 1392.977173,675.384216 1397.569946,683.971375 
	C1399.057861,686.753113 1399.502197,690.312317 1399.632568,693.547791 
	C1399.812256,698.011658 1398.716309,702.549805 1399.088501,706.978760 
	C1400.345337,721.935547 1389.129395,729.745422 1375.787231,730.689209 
	C1365.824585,731.393921 1355.693237,729.712708 1345.636963,729.093872 
	C1345.568604,728.452759 1345.500122,727.811584 1345.431763,727.170410 
	C1348.848022,725.497314 1352.306274,723.903625 1355.665405,722.122620 
	C1357.863647,720.957031 1360.070190,719.703857 1361.974365,718.128784 
	C1362.955566,717.317261 1363.284180,715.716858 1363.907715,714.472961 
	C1362.412842,714.161255 1360.913696,713.597595 1359.424316,713.622131 
	C1358.341553,713.639954 1357.273438,714.440002 1356.195312,714.882874 
	C1343.724121,720.006958 1331.466553,725.758606 1318.727783,730.097717 
	C1301.687500,735.901978 1283.900024,737.196289 1265.987549,735.614624 
	C1260.042358,735.089661 1254.065674,734.173584 1248.284790,732.716431 
	C1240.341431,730.714111 1233.439697,726.732849 1229.062378,719.425476 
	C1228.147583,717.898621 1227.426880,716.097595 1227.194214,714.346191 
	C1225.905762,704.646423 1230.144165,700.174561 1239.645142,702.118164 
	C1246.444702,703.509216 1253.118164,705.864685 1259.584839,708.448364 
	C1268.226685,711.901245 1275.812012,710.289551 1283.942017,706.308411 
	C1295.568115,700.615173 1306.311890,694.180481 1315.351318,684.652954 
	C1318.615234,681.212769 1324.290527,680.094604 1328.795654,677.781006 
	C1330.674561,676.816162 1332.715698,675.809082 1334.094482,674.287781 
	C1341.845703,665.735901 1350.870728,660.404053 1362.913208,660.774231 
	C1368.072754,660.932800 1370.307373,657.201965 1369.738403,651.330688 
	C1369.493164,648.801025 1369.338135,646.262634 1369.142090,643.728271 
	C1369.588135,643.445129 1370.034058,643.161987 1370.480103,642.878906 
	C1373.372192,644.617249 1376.272705,646.341858 1379.153931,648.098389 
	C1381.284546,649.397339 1383.252563,651.149963 1385.554199,651.917664 
	C1387.144165,652.447937 1389.179810,651.642761 1391.016235,651.434326 
	C1390.771484,649.603638 1391.142578,647.272278 1390.149048,646.050354 
	C1388.304443,643.781738 1385.872314,641.783691 1383.303955,640.360596 
	C1379.711182,638.369873 1378.041260,635.819763 1377.853760,631.644409 
	C1377.668335,627.519958 1376.790283,623.379517 1375.752319,619.365967 
	C1375.387939,617.957153 1373.647461,616.904114 1372.535400,615.688599 
	C1371.723145,616.994446 1370.469360,618.214355 1370.194824,619.624817 
	C1369.690430,622.217041 1369.782349,624.922913 1369.588013,627.578613 
	C1369.410156,630.009827 1369.182129,632.437439 1368.949829,635.177307 
	C1362.573730,633.603882 1356.494629,632.225830 1350.485474,630.591309 
	C1342.098145,628.310059 1334.019531,628.684387 1326.278442,632.861511 
	C1323.531616,634.343628 1321.907471,633.621277 1321.190308,630.574829 
	C1319.170166,621.994080 1316.597290,613.505554 1315.202271,604.826416 
	C1313.847412,596.396606 1310.876831,590.448303 1300.241699,590.951599 
	C1304.167725,586.552979 1306.751099,583.680481 1312.745850,585.828247 
	C1324.230835,589.943115 1337.731567,584.851990 1344.400513,574.715820 
	C1345.268921,573.395935 1344.710205,571.137329 1344.812500,569.313538 
	C1343.105469,569.820618 1340.971924,569.847900 1339.766724,570.919495 
	C1335.029541,575.131775 1330.625610,579.647400 1323.988525,580.922058 
	C1313.362915,582.962708 1299.110962,575.530396 1295.262085,564.811218 
	C1290.664551,552.006470 1287.448730,538.698914 1282.698120,525.958252 
	C1279.423218,517.175110 1280.551514,509.360687 1285.970703,502.591003 
	C1289.256714,498.486237 1294.125000,495.022644 1298.997925,492.966187 
	C1305.665894,490.152191 1312.910767,488.239258 1320.090820,487.199768 
	C1336.276611,484.856384 1348.921631,492.794830 1359.721558,503.464264 
	C1369.882690,513.502502 1378.659668,524.937744 1388.773315,535.029175 
	C1397.104492,543.342163 1406.401611,550.706055 1415.449707,558.276733 
	C1426.676025,567.669861 1433.890015,591.486023 1422.230835,606.842346 
	C1420.938965,608.543823 1418.643921,609.483582 1416.814087,610.776489 
	C1415.806763,609.159851 1414.469238,607.661072 1413.843750,605.908203 
	C1408.344360,590.497498 1398.169556,579.387878 1383.256348,572.777222 
	C1380.644287,571.619324 1377.243652,570.722168 1374.629272,571.380554 
	C1367.660645,573.135559 1363.704956,569.967834 1360.026978,564.750488 
	C1354.357422,556.708191 1354.232788,554.361206 1360.364258,547.011230 
	C1363.307983,543.482300 1364.078857,535.824646 1361.689941,531.894958 
	C1359.462036,528.229919 1356.195557,526.599060 1351.918091,527.947449 
	C1348.268066,529.098022 1344.764648,531.036865 1341.043335,531.581360 
	C1326.492798,533.710571 1312.199585,533.649231 1299.281494,524.936523 
	C1296.538452,523.086487 1293.507202,521.542908 1290.411255,520.387329 
	C1288.821411,519.793945 1286.796021,520.367920 1284.967407,520.414307 
	C1285.659790,522.115051 1285.918335,524.268005 1287.128418,525.429016 
	C1290.354614,528.523926 1293.990234,531.191956 1297.375000,533.957825 
	C1296.398560,535.383606 1294.384399,537.039368 1294.602905,538.311340 
	C1294.918335,540.145996 1296.498291,542.514465 1298.158447,543.242920 
	C1307.727539,547.441956 1309.068726,555.169678 1308.119019,564.263733 
	C1307.924194,566.129944 1308.790039,568.106873 1309.427002,570.313293 
z"/>
<path fill="#000000" opacity="1.000000" stroke="none" 
	d="
M1306.932129,607.098389 
	C1311.010498,622.599792 1315.366455,637.614258 1318.859863,652.826843 
	C1320.198853,658.657776 1319.802856,664.946716 1319.650269,671.013245 
	C1319.617432,672.317627 1317.311890,673.680603 1315.869751,674.774780 
	C1315.319580,675.192200 1314.255005,674.962646 1313.423950,674.974121 
	C1288.481201,675.317932 1263.538574,675.690796 1238.595093,675.971436 
	C1231.229492,676.054321 1229.178589,674.685181 1227.431885,667.384216 
	C1224.687866,655.914490 1222.665771,644.270996 1219.869873,632.815308 
	C1217.863647,624.594666 1214.860840,616.620850 1212.731934,608.425476 
	C1210.778320,600.905273 1212.201782,598.338623 1219.963623,597.714050 
	C1230.214600,596.889343 1240.567993,596.931946 1250.864258,597.168091 
	C1266.307617,597.522217 1281.737183,598.443237 1297.177734,598.973816 
	C1304.774902,599.234924 1305.042725,599.291443 1306.932129,607.098389 
M1255.356934,631.744812 
	C1251.582153,637.604736 1251.370728,643.489685 1255.041260,649.520264 
	C1258.404419,655.045837 1263.034546,655.156738 1268.344238,652.945862 
	C1268.770996,652.768127 1269.332764,652.876160 1269.828125,652.908752 
	C1274.113647,653.190491 1277.508667,650.618225 1278.351440,647.278809 
	C1279.529907,642.610046 1278.983398,637.475342 1278.885742,632.545715 
	C1278.869873,631.749329 1277.453247,630.458252 1276.519897,630.286011 
	C1269.583130,629.005310 1262.584717,627.517822 1255.356934,631.744812 
M1264.262207,621.482971 
	C1264.871094,623.458496 1265.479858,625.434021 1266.088745,627.409485 
	C1268.559570,626.196106 1271.189087,625.206421 1273.405151,623.634033 
	C1274.076294,623.157715 1273.821289,619.930420 1273.620483,619.891907 
	C1271.246826,619.436829 1268.802124,619.231018 1266.378052,619.247498 
	C1265.797729,619.251404 1265.224731,620.315796 1264.262207,621.482971 
z"/>
<path fill="#000000" opacity="1.000000" stroke="none" 
	d="
M1267.047974,701.982422 
	C1261.961792,700.800903 1257.220703,699.929443 1252.718750,698.367981 
	C1246.210327,696.110596 1239.826660,693.968994 1232.803101,695.826355 
	C1225.812988,697.674805 1222.427856,701.617981 1222.083252,708.921509 
	C1221.966187,711.405518 1221.962036,713.934814 1222.300781,716.388916 
	C1222.630981,718.782166 1223.465454,721.105835 1224.170410,723.812073 
	C1214.321289,717.917297 1214.066650,686.801514 1222.123413,679.409424 
	C1227.706543,680.401062 1232.202271,681.213684 1236.705200,681.983704 
	C1237.351929,682.094238 1238.033691,681.999512 1238.699219,681.999756 
	C1261.172363,682.008545 1264.745605,683.028687 1285.032715,695.353577 
	C1279.850220,699.708374 1274.273193,702.338928 1267.047974,701.982422 
z"/>
<path fill="#000000" opacity="1.000000" stroke="none" 
	d="
M1324.996826,646.071411 
	C1325.195312,641.374329 1328.942749,636.749573 1335.192627,636.305908 
	C1342.486450,635.788269 1349.984619,636.800964 1357.261597,637.973206 
	C1360.848511,638.551025 1364.864258,649.336426 1363.377686,652.699097 
	C1363.023193,653.500793 1362.114380,654.371277 1361.290283,654.602112 
	C1354.358398,656.543091 1347.386841,658.342651 1339.958740,660.308777 
	C1340.525269,658.946960 1341.399292,657.322327 1341.867188,655.588013 
	C1342.339600,653.836853 1342.409180,651.977051 1342.655273,650.164917 
	C1340.699585,650.501282 1338.505859,650.395325 1336.848755,651.286926 
	C1334.806885,652.385559 1333.211792,654.315063 1331.423706,655.885559 
	C1330.998413,655.596436 1330.573120,655.307312 1330.147827,655.018127 
	C1331.626587,652.021423 1333.264648,649.088928 1334.510254,645.998291 
	C1335.052734,644.652222 1334.789673,642.981567 1334.892578,641.458252 
	C1333.477905,641.930786 1331.979004,642.239685 1330.668457,642.914429 
	C1328.733887,643.910400 1326.933228,645.166626 1324.996826,646.071411 
z"/>
<path fill="#000000" opacity="1.000000" stroke="none" 
	d="
M1305.179932,682.210083 
	C1302.342651,684.943726 1299.612915,687.806091 1296.596802,690.325806 
	C1295.783936,691.004883 1293.919067,691.106201 1292.849487,690.683105 
	C1286.994385,688.366882 1281.236450,685.804871 1275.445068,683.327332 
	C1275.492554,682.874817 1275.540039,682.422363 1275.587524,681.969849 
	C1285.070312,681.969849 1294.553223,681.969849 1304.555420,682.025574 
	C1305.074829,682.081299 1305.179932,682.210022 1305.179932,682.210083 
z"/>
<path fill="#000000" opacity="1.000000" stroke="none" 
	d="
M1335.999634,738.967773 
	C1328.590698,738.967712 1321.681641,738.967712 1314.668945,738.967712 
	C1327.853394,729.958801 1340.952515,732.978516 1354.616455,738.967896 
	C1348.214966,738.967896 1342.357300,738.967896 1335.999634,738.967773 
z"/>
<path fill="#000000" opacity="1.000000" stroke="none" 
	d="
M1305.022217,682.017090 
	C1305.250854,681.815979 1305.532349,681.679016 1305.813721,681.542114 
	C1305.683594,681.743164 1305.553589,681.944153 1305.301758,682.177612 
	C1305.179932,682.210022 1305.074829,682.081299 1305.022217,682.017090 
z"/>
<path fill="#000000" opacity="1.000000" stroke="none" 
	d="
M1336.537354,664.032288 
	C1336.496826,664.046753 1336.577759,664.017822 1336.537354,664.032288 
z"/>
<path fill="#000000" opacity="1.000000" stroke="none" 
	d="
M1227.032471,726.462402 
	C1227.046997,726.502808 1227.018066,726.421936 1227.032471,726.462402 
z"/>
<path fill="#2D1909" opacity="1.000000" stroke="none" 
	d="
M1255.600342,631.458496 
	C1262.584717,627.517822 1269.583130,629.005310 1276.519897,630.286011 
	C1277.453247,630.458252 1278.869873,631.749329 1278.885742,632.545715 
	C1278.983398,637.475342 1279.529907,642.610046 1278.351440,647.278809 
	C1277.508667,650.618225 1274.113647,653.190491 1269.828125,652.908752 
	C1269.332764,652.876160 1268.770996,652.768127 1268.344238,652.945862 
	C1263.034546,655.156738 1258.404419,655.045837 1255.041260,649.520264 
	C1251.370728,643.489685 1251.582153,637.604736 1255.600342,631.458496 
z"/>
<path fill="#2D1909" opacity="1.000000" stroke="none" 
	d="
M1264.455322,621.187744 
	C1265.224731,620.315796 1265.797729,619.251404 1266.378052,619.247498 
	C1268.802124,619.231018 1271.246826,619.436829 1273.620483,619.891907 
	C1273.821289,619.930420 1274.076294,623.157715 1273.405151,623.634033 
	C1271.189087,625.206421 1268.559570,626.196106 1266.088623,627.409485 
	C1265.479858,625.434021 1264.871094,623.458496 1264.455322,621.187744 
z"/>
</svg>