<svg version="1.1" id="Layer_1" xmlns="http://www.w3.org/2000/svg" xmlns:xlink="http://www.w3.org/1999/xlink" x="0px" y="0px"
	 width="100%" viewBox="0 0 1694 820" enable-background="new 0 0 1694 820" xml:space="preserve">
<path fill="none" opacity="1.000000" stroke="none" 
	d="
M1688.051270,821.000000 
	C1125.375977,821.000000 563.211670,821.000000 1.023660,821.000000 
	C1.023660,547.683594 1.023660,274.367157 1.023660,1.025371 
	C565.647400,1.025371 1130.294800,1.025371 1694.971069,1.025371 
	C1694.971069,274.312927 1694.971069,547.625854 1694.971069,821.000000 
	C1692.854126,821.000000 1690.708130,821.000000 1688.051270,821.000000 
M1164.500000,738.000000 
	C1125.194702,738.333557 1085.890015,738.819214 1046.583984,738.961182 
	C1000.091614,739.129150 953.597656,739.125427 907.105225,738.960144 
	C870.963013,738.831604 834.822083,738.339355 798.680542,738.012390 
	C760.873108,737.670349 723.064758,737.005920 685.258484,737.107239 
	C659.803101,737.175476 634.349426,738.285767 608.897766,739.028259 
	C603.056885,739.198547 598.196167,737.831543 594.435425,732.914185 
	C591.670837,729.299194 587.694214,727.990601 582.973450,728.007874 
	C579.087280,728.022034 575.144653,727.119995 571.323792,726.215454 
	C567.779297,725.376404 564.415466,723.750427 560.861023,722.990906 
	C559.652100,722.732605 557.340515,723.739685 556.922607,724.745850 
	C556.484619,725.800354 557.300476,728.310120 558.294373,728.851746 
	C561.424500,730.557495 564.797119,732.275208 568.257568,732.807678 
	C573.144897,733.559692 578.227417,732.967163 583.160767,733.527954 
	C585.570312,733.801819 587.831238,735.383240 590.159485,736.372803 
	C589.994934,737.025024 589.830383,737.677185 589.665833,738.329407 
	C587.791443,738.551453 585.918152,738.954773 584.042542,738.965454 
	C573.377075,739.026428 562.709656,738.891174 552.046021,739.043701 
	C547.851990,739.103699 544.351746,738.412048 541.281921,735.100037 
	C539.750183,733.447449 537.034363,732.524109 534.696350,732.051270 
	C525.067566,730.103882 515.372070,728.545837 506.719788,723.370911 
	C505.599884,722.700989 503.041718,722.704834 502.369263,723.469360 
	C501.582947,724.363342 501.676544,726.606079 502.188171,727.961914 
	C503.893463,732.481445 507.812531,733.496948 512.207764,734.022522 
	C519.344727,734.875854 526.432800,736.138306 533.541565,737.228149 
	C533.479004,737.775696 533.416443,738.323242 533.353943,738.870789 
	C522.446960,739.213989 511.540405,739.813049 500.633026,739.828552 
	C489.671478,739.844116 478.710632,739.180115 467.746429,739.011902 
	C462.696869,738.934387 457.944305,739.176880 454.313080,734.341003 
	C452.956177,732.534119 449.605896,732.200623 447.141724,731.254639 
	C444.140228,730.102295 441.114685,729.012512 438.770844,728.144348 
	C444.120850,721.575684 449.532745,715.807251 453.914490,709.340820 
	C460.095734,700.218689 455.850006,683.560486 446.244263,678.611877 
	C443.682495,677.292114 440.178284,677.801819 437.106750,677.471619 
	C438.556671,679.790771 439.622223,682.504761 441.525787,684.357849 
	C448.267731,690.921204 451.591064,701.393494 448.528961,707.795715 
	C445.951141,713.185303 442.489502,717.689026 436.760864,720.147461 
	C433.858093,721.393250 430.842865,722.764221 431.148132,726.860901 
	C431.453796,730.962646 434.131622,732.972717 437.557465,734.339478 
	C440.560883,735.537720 443.592621,736.664856 446.611816,737.823425 
	C437.301758,738.757568 428.213287,738.804626 419.126801,738.693726 
	C418.076660,738.680908 416.751831,738.048645 416.039886,737.263428 
	C411.862579,732.656372 405.596313,730.123047 403.104065,723.735718 
	C402.524048,722.249084 399.870270,721.571655 398.170624,720.521973 
	C397.857086,722.407349 396.778412,724.593018 397.377808,726.120056 
	C398.983154,730.210083 401.307678,734.017761 403.686859,738.591919 
	C401.395935,738.749756 399.641113,738.987549 397.888184,738.974243 
	C356.914307,738.663391 315.940277,738.024475 274.966919,738.065308 
	C218.160934,738.122009 161.355270,738.663208 104.550247,739.100464 
	C101.753983,739.121948 98.965324,740.131836 96.173126,740.681458 
	C96.166451,741.286316 96.159782,741.891174 96.153107,742.496033 
	C99.773026,744.683716 104.097267,744.754395 108.171783,744.875183 
	C125.810654,745.398376 143.458694,745.986511 161.101471,745.931519 
	C207.410629,745.787048 253.718735,745.313232 300.027374,744.985046 
	C308.485077,744.925110 316.944702,745.023560 325.400909,744.889893 
	C340.014374,744.658875 354.626526,744.032410 369.238068,744.067505 
	C388.188629,744.112976 407.137207,744.837463 426.088196,744.923889 
	C462.043060,745.087769 497.999023,745.020935 533.954529,745.021790 
	C570.410034,745.022705 606.866089,744.864441 643.320862,745.016907 
	C666.242249,745.112732 689.161133,745.842163 712.082397,745.923584 
	C726.558899,745.975037 741.036987,745.313477 755.515808,745.047485 
	C776.492371,744.662170 797.471069,744.012817 818.447327,744.065063 
	C870.422852,744.194519 922.397461,744.665771 974.372559,744.985229 
	C1030.680298,745.331238 1086.987915,745.848389 1143.296021,745.927673 
	C1177.271484,745.975525 1211.248535,745.384888 1245.223755,744.974670 
	C1259.870239,744.797852 1274.512695,744.137634 1289.158447,744.091187 
	C1302.263672,744.049622 1315.371216,744.782166 1328.476807,744.753357 
	C1345.929565,744.714966 1363.382080,744.022339 1380.833618,744.065247 
	C1400.645020,744.113892 1420.455322,744.673584 1440.266235,744.994446 
	C1460.743896,745.326050 1481.221313,745.856689 1501.699585,745.888306 
	C1518.010132,745.913574 1534.320312,745.178772 1550.632935,745.036865 
	C1569.463257,744.872986 1588.297485,745.101501 1607.127197,744.903625 
	C1611.702393,744.855591 1616.266968,743.804565 1620.836426,743.214722 
	C1620.849976,742.477478 1620.863525,741.740234 1620.877075,741.002991 
	C1618.803101,740.382568 1616.749512,739.311462 1614.651733,739.216431 
	C1603.017334,738.689453 1591.372314,738.109314 1579.730713,738.105103 
	C1566.254761,738.100281 1552.779053,738.690247 1539.302490,738.991699 
	C1523.992798,739.334167 1508.682373,739.880615 1493.371826,739.894958 
	C1480.077637,739.907410 1466.784180,739.092590 1453.488159,739.013489 
	C1428.657715,738.865845 1403.825684,738.986694 1378.994385,738.995605 
	C1377.348267,738.996216 1375.702026,738.995728 1374.055908,738.995728 
	C1391.585815,736.754150 1402.226562,726.520508 1404.104858,708.836975 
	C1404.858276,701.743042 1404.846191,694.554321 1404.904785,687.406494 
	C1404.928955,684.456604 1405.485229,682.496033 1408.448242,681.076233 
	C1414.455200,678.197815 1418.387207,673.145630 1420.229736,666.867920 
	C1421.385742,662.929138 1421.790283,658.676208 1421.912354,654.545837 
	C1422.226929,643.903442 1422.650269,633.224854 1418.578979,622.992981 
	C1417.706421,620.800415 1416.994751,618.476562 1420.213867,616.646973 
	C1430.534668,610.781067 1436.040283,597.445068 1434.699829,585.425964 
	C1432.961182,569.838501 1425.568970,558.067810 1413.347168,548.583862 
	C1404.952271,542.069519 1396.839355,535.082703 1389.298706,527.603027 
	C1378.794556,517.183838 1369.174561,505.877258 1358.759155,495.363617 
	C1342.447144,478.897736 1323.145264,474.858154 1301.471313,483.074890 
	C1289.672241,487.547974 1278.390991,493.093719 1276.004761,507.228302 
	C1275.119751,512.470642 1276.853149,518.120361 1276.229248,523.448120 
	C1274.506958,538.151550 1280.100830,550.498962 1287.575806,562.401978 
	C1289.958618,566.196411 1291.936523,570.341492 1294.829224,573.697266 
	C1299.365723,578.959839 1299.618164,578.724487 1295.132812,583.625854 
	C1294.462402,584.358398 1293.803223,585.157288 1293.366577,586.038269 
	C1290.991089,590.831848 1287.160034,592.168884 1281.923462,592.098450 
	C1263.095093,591.845154 1244.260986,591.969910 1225.429321,592.013672 
	C1208.904907,592.052002 1204.464111,597.944946 1208.477173,613.863098 
	C1212.827148,631.117126 1217.048950,648.406311 1221.003296,665.753845 
	C1221.551514,668.158447 1221.162231,671.799927 1219.657715,673.488708 
	C1206.636475,688.105835 1205.369141,704.320068 1212.154175,721.896240 
	C1215.339233,730.147095 1222.566406,733.740540 1231.160034,731.405884 
	C1232.015137,731.173645 1233.204712,731.236877 1233.941406,731.669678 
	C1236.886108,733.400085 1239.713013,735.330627 1243.840454,738.000000 
	C1216.748657,738.000000 1191.124390,738.000000 1164.500000,738.000000 
M535.271729,678.193420 
	C527.422607,677.611572 525.909851,676.584351 525.108765,671.292419 
	C523.816467,662.755981 521.594055,661.204956 513.545837,664.863708 
	C507.684662,667.528259 502.603882,671.908752 496.743927,674.577148 
	C493.401215,676.099182 488.911255,676.812988 485.448273,675.917297 
	C481.317017,674.848694 477.000824,672.357666 474.072052,669.250488 
	C468.969757,663.837524 464.856964,657.489624 460.350647,651.517639 
	C454.723358,644.059998 446.761841,640.011597 438.041473,638.363770 
	C422.764801,635.476868 401.926697,645.603149 395.634888,660.255066 
	C389.146576,675.364685 381.479584,690.110474 369.096527,701.524231 
	C366.896851,703.551697 363.199127,705.498047 360.596954,705.063477 
	C358.455536,704.705933 356.049469,701.015381 355.275360,698.360229 
	C353.371429,691.830261 352.417511,685.028564 350.935913,678.368530 
	C349.522644,672.015625 345.699829,667.745178 339.444672,665.710510 
	C325.203552,661.078003 307.634430,671.137878 305.629700,686.067566 
	C304.937805,691.220398 307.376373,696.930603 309.051910,702.172974 
	C309.499969,703.574768 312.406555,704.190857 314.184418,705.167725 
	C314.198303,703.244080 314.768463,701.110962 314.135651,699.430908 
	C310.083862,688.673279 311.257690,683.184814 319.279816,675.165222 
	C324.342377,670.104248 329.691193,668.309265 336.876373,670.682861 
	C343.775879,672.962097 345.865875,677.892212 346.912048,684.134827 
	C347.902161,690.042969 348.810486,695.987366 350.251556,701.792480 
	C352.914368,712.519348 360.718384,715.815735 370.353455,710.200745 
	C381.988068,703.420593 388.329407,692.346680 393.721100,680.520325 
	C396.599487,674.206787 399.268158,667.631836 403.209229,661.998901 
	C416.576019,642.893982 440.585846,640.903931 456.690704,657.310059 
	C462.036621,662.755920 466.441162,669.175232 472.052765,674.298828 
	C479.270782,680.889099 491.121613,685.575867 500.807465,678.675110 
	C504.722626,675.885681 509.074768,673.711853 513.213135,671.232910 
	C517.857788,668.450806 519.465332,669.080872 519.959290,674.439636 
	C520.406677,679.292664 522.871399,682.119202 527.436890,683.199280 
	C535.111755,685.015015 542.800903,686.056824 550.603760,683.679810 
	C555.223816,682.272400 556.252380,683.309143 555.678589,688.207886 
	C555.447266,690.183350 554.654358,692.452515 555.331909,694.083191 
	C556.166748,696.092346 558.134521,697.740234 559.906189,699.184021 
	C560.439453,699.618713 562.179871,699.135864 562.929260,698.530823 
	C563.382080,698.165161 563.034058,696.753357 562.973328,695.816345 
	C562.807739,693.262634 562.482605,690.712891 562.450623,688.158752 
	C562.421631,685.844421 563.004150,683.495850 562.777893,681.215820 
	C562.117615,674.560974 558.291199,672.462830 552.467896,675.776001 
	C547.256775,678.740967 541.943970,679.743408 535.271729,678.193420 
M325.236603,736.350403 
	C330.431488,739.405518 339.638611,737.947083 342.627502,733.388977 
	C343.342346,732.298828 343.541870,730.567200 343.289276,729.264221 
	C343.145966,728.524963 341.348175,727.352600 340.732300,727.576599 
	C335.179047,729.595581 328.498260,729.572998 325.236603,736.350403 
M321.903900,728.646667 
	C322.778809,727.081177 324.682373,725.117920 324.269562,724.050232 
	C323.747681,722.700378 321.253113,721.176025 319.761505,721.318542 
	C315.694702,721.707214 311.676666,722.819946 307.714355,723.916931 
	C306.874451,724.149475 305.633392,725.828430 305.836792,726.327637 
	C306.252533,727.347778 307.482269,728.660522 308.450287,728.723633 
	C312.669708,728.998535 316.915497,728.868530 321.903900,728.646667 
M570.025574,709.363220 
	C567.115845,707.899902 564.295532,705.586304 561.265442,705.267578 
	C559.192505,705.049500 555.650574,707.122498 554.853333,709.039612 
	C553.468811,712.368896 556.921570,712.781372 559.379639,713.134949 
	C561.661194,713.463074 564.094360,714.161377 566.221436,713.666931 
	C567.782959,713.303894 568.957764,711.277344 570.025574,709.363220 
M300.513580,709.811035 
	C300.588501,711.063660 300.251556,713.155457 300.807373,713.428223 
	C303.699829,714.847778 306.743439,716.223633 309.883453,716.793884 
	C312.579407,717.283630 315.949463,716.212280 315.236328,712.835327 
	C314.870453,711.102783 311.640564,709.264709 309.432220,708.815613 
	C306.808685,708.282043 303.891968,709.190125 300.513580,709.811035 
M492.362610,718.131897 
	C493.524628,717.583008 495.324860,717.311340 495.709900,716.424988 
	C496.415985,714.799561 497.048004,712.320129 496.275452,711.123962 
	C495.610077,710.093872 492.488464,709.525635 491.257416,710.206970 
	C488.171356,711.914734 482.918488,714.983398 483.237854,716.543396 
	C484.074371,720.629883 488.466675,718.630981 492.362610,718.131897 
M542.788574,719.146362 
	C541.568420,721.464233 541.681091,723.601440 544.549500,724.171570 
	C547.481323,724.754333 550.542847,724.713989 553.552002,724.812195 
	C553.754028,724.818787 554.353638,723.354065 554.159058,723.147522 
	C552.147766,721.011902 550.223511,718.658997 547.796692,717.121887 
	C546.921448,716.567566 544.755371,718.051392 542.788574,719.146362 
M482.770874,701.078003 
	C484.725861,702.212769 486.609253,704.042053 488.659393,704.253296 
	C490.183502,704.410339 491.923737,702.469910 493.567688,701.463745 
	C492.539032,699.973083 491.234131,697.096619 490.530640,697.236877 
	C487.797821,697.781616 485.256042,699.284973 482.770874,701.078003 
z"/>
<path fill="#2D1909" opacity="1.000000" stroke="none" 
	d="
M1165.000000,738.000000 
	C1191.124390,738.000000 1216.748657,738.000000 1243.840454,738.000000 
	C1239.713013,735.330627 1236.886108,733.400085 1233.941406,731.669678 
	C1233.204712,731.236877 1232.015137,731.173645 1231.160034,731.405884 
	C1222.566406,733.740540 1215.339233,730.147095 1212.154175,721.896240 
	C1205.369141,704.320068 1206.636475,688.105835 1219.657715,673.488708 
	C1221.162231,671.799927 1221.551514,668.158447 1221.003296,665.753845 
	C1217.048950,648.406311 1212.827148,631.117126 1208.477173,613.863098 
	C1204.464111,597.944946 1208.904907,592.052002 1225.429321,592.013672 
	C1244.260986,591.969910 1263.095093,591.845154 1281.923462,592.098450 
	C1287.160034,592.168884 1290.991089,590.831848 1293.366577,586.038269 
	C1293.803223,585.157288 1294.462402,584.358398 1295.132812,583.625854 
	C1299.618164,578.724487 1299.365723,578.959839 1294.829224,573.697266 
	C1291.936523,570.341492 1289.958618,566.196411 1287.575806,562.401978 
	C1280.100830,550.498962 1274.506958,538.151550 1276.229248,523.448120 
	C1276.853149,518.120361 1275.119751,512.470642 1276.004761,507.228302 
	C1278.390991,493.093719 1289.672241,487.547974 1301.471313,483.074890 
	C1323.145264,474.858154 1342.447144,478.897736 1358.759155,495.363617 
	C1369.174561,505.877258 1378.794556,517.183838 1389.298706,527.603027 
	C1396.839355,535.082703 1404.952271,542.069519 1413.347168,548.583862 
	C1425.568970,558.067810 1432.961182,569.838501 1434.699829,585.425964 
	C1436.040283,597.445068 1430.534668,610.781067 1420.213867,616.646973 
	C1416.994751,618.476562 1417.706421,620.800415 1418.578979,622.992981 
	C1422.650269,633.224854 1422.226929,643.903442 1421.912354,654.545837 
	C1421.790283,658.676208 1421.385742,662.929138 1420.229736,666.867920 
	C1418.387207,673.145630 1414.455200,678.197815 1408.448242,681.076233 
	C1405.485229,682.496033 1404.928955,684.456604 1404.904785,687.406494 
	C1404.846191,694.554321 1404.858276,701.743042 1404.104858,708.836975 
	C1402.226562,726.520508 1391.585815,736.754150 1374.055908,738.995728 
	C1375.702026,738.995728 1377.348267,738.996216 1378.994385,738.995605 
	C1403.825684,738.986694 1428.657715,738.865845 1453.488159,739.013489 
	C1466.784180,739.092590 1480.077637,739.907410 1493.371826,739.894958 
	C1508.682373,739.880615 1523.992798,739.334167 1539.302490,738.991699 
	C1552.779053,738.690247 1566.254761,738.100281 1579.730713,738.105103 
	C1591.372314,738.109314 1603.017334,738.689453 1614.651733,739.216431 
	C1616.749512,739.311462 1618.803101,740.382568 1620.877075,741.002991 
	C1620.863525,741.740234 1620.849976,742.477478 1620.836426,743.214722 
	C1616.266968,743.804565 1611.702393,744.855591 1607.127197,744.903625 
	C1588.297485,745.101501 1569.463257,744.872986 1550.632935,745.036865 
	C1534.320312,745.178772 1518.010132,745.913574 1501.699585,745.888306 
	C1481.221313,745.856689 1460.743896,745.326050 1440.266235,744.994446 
	C1420.455322,744.673584 1400.645020,744.113892 1380.833618,744.065247 
	C1363.382080,744.022339 1345.929565,744.714966 1328.476807,744.753357 
	C1315.371216,744.782166 1302.263672,744.049622 1289.158447,744.091187 
	C1274.512695,744.137634 1259.870239,744.797852 1245.223755,744.974670 
	C1211.248535,745.384888 1177.271484,745.975525 1143.296021,745.927673 
	C1086.987915,745.848389 1030.680298,745.331238 974.372559,744.985229 
	C922.397461,744.665771 870.422852,744.194519 818.447327,744.065063 
	C797.471069,744.012817 776.492371,744.662170 755.515808,745.047485 
	C741.036987,745.313477 726.558899,745.975037 712.082397,745.923584 
	C689.161133,745.842163 666.242249,745.112732 643.320862,745.016907 
	C606.866089,744.864441 570.410034,745.022705 533.954529,745.021790 
	C497.999023,745.020935 462.043060,745.087769 426.088196,744.923889 
	C407.137207,744.837463 388.188629,744.112976 369.238068,744.067505 
	C354.626526,744.032410 340.014374,744.658875 325.400909,744.889893 
	C316.944702,745.023560 308.485077,744.925110 300.027374,744.985046 
	C253.718735,745.313232 207.410629,745.787048 161.101471,745.931519 
	C143.458694,745.986511 125.810654,745.398376 108.171783,744.875183 
	C104.097267,744.754395 99.773026,744.683716 96.153107,742.496033 
	C96.159782,741.891174 96.166451,741.286316 96.173126,740.681458 
	C98.965324,740.131836 101.753983,739.121948 104.550247,739.100464 
	C161.355270,738.663208 218.160934,738.122009 274.966919,738.065308 
	C315.940277,738.024475 356.914307,738.663391 397.888184,738.974243 
	C399.641113,738.987549 401.395935,738.749756 403.686859,738.591919 
	C401.307678,734.017761 398.983154,730.210083 397.377808,726.120056 
	C396.778412,724.593018 397.857086,722.407349 398.170624,720.521973 
	C399.870270,721.571655 402.524048,722.249084 403.104065,723.735718 
	C405.596313,730.123047 411.862579,732.656372 416.039886,737.263428 
	C416.751831,738.048645 418.076660,738.680908 419.126801,738.693726 
	C428.213287,738.804626 437.301758,738.757568 446.611816,737.823425 
	C443.592621,736.664856 440.560883,735.537720 437.557465,734.339478 
	C434.131622,732.972717 431.453796,730.962646 431.148132,726.860901 
	C430.842865,722.764221 433.858093,721.393250 436.760864,720.147461 
	C442.489502,717.689026 445.951141,713.185303 448.528961,707.795715 
	C451.591064,701.393494 448.267731,690.921204 441.525787,684.357849 
	C439.622223,682.504761 438.556671,679.790771 437.106750,677.471619 
	C440.178284,677.801819 443.682495,677.292114 446.244263,678.611877 
	C455.850006,683.560486 460.095734,700.218689 453.914490,709.340820 
	C449.532745,715.807251 444.120850,721.575684 438.770844,728.144348 
	C441.114685,729.012512 444.140228,730.102295 447.141724,731.254639 
	C449.605896,732.200623 452.956177,732.534119 454.313080,734.341003 
	C457.944305,739.176880 462.696869,738.934387 467.746429,739.011902 
	C478.710632,739.180115 489.671478,739.844116 500.633026,739.828552 
	C511.540405,739.813049 522.446960,739.213989 533.353943,738.870789 
	C533.416443,738.323242 533.479004,737.775696 533.541565,737.228149 
	C526.432800,736.138306 519.344727,734.875854 512.207764,734.022522 
	C507.812531,733.496948 503.893463,732.481445 502.188171,727.961914 
	C501.676544,726.606079 501.582947,724.363342 502.369263,723.469360 
	C503.041718,722.704834 505.599884,722.700989 506.719788,723.370911 
	C515.372070,728.545837 525.067566,730.103882 534.696350,732.051270 
	C537.034363,732.524109 539.750183,733.447449 541.281921,735.100037 
	C544.351746,738.412048 547.851990,739.103699 552.046021,739.043701 
	C562.709656,738.891174 573.377075,739.026428 584.042542,738.965454 
	C585.918152,738.954773 587.791443,738.551453 589.665833,738.329407 
	C589.830383,737.677185 589.994934,737.025024 590.159485,736.372803 
	C587.831238,735.383240 585.570312,733.801819 583.160767,733.527954 
	C578.227417,732.967163 573.144897,733.559692 568.257568,732.807678 
	C564.797119,732.275208 561.424500,730.557495 558.294373,728.851746 
	C557.300476,728.310120 556.484619,725.800354 556.922607,724.745850 
	C557.340515,723.739685 559.652100,722.732605 560.861023,722.990906 
	C564.415466,723.750427 567.779297,725.376404 571.323792,726.215454 
	C575.144653,727.119995 579.087280,728.022034 582.973450,728.007874 
	C587.694214,727.990601 591.670837,729.299194 594.435425,732.914185 
	C598.196167,737.831543 603.056885,739.198547 608.897766,739.028259 
	C634.349426,738.285767 659.803101,737.175476 685.258484,737.107239 
	C723.064758,737.005920 760.873108,737.670349 798.680542,738.012390 
	C834.822083,738.339355 870.963013,738.831604 907.105225,738.960144 
	C953.597656,739.125427 1000.091614,739.129150 1046.583984,738.961182 
	C1085.890015,738.819214 1125.194702,738.333557 1165.000000,738.000000 
M1304.035889,681.969849 
	C1294.553101,681.969849 1285.070312,681.969849 1275.587524,681.969849 
	C1275.540649,682.422607 1275.493774,682.875366 1275.446899,683.328125 
	C1281.237549,685.805481 1286.994873,688.367249 1292.849365,690.683167 
	C1293.918945,691.106323 1295.783813,691.004761 1296.596680,690.325745 
	C1299.612915,687.806091 1302.343018,684.943909 1305.423828,682.145447 
	C1305.553711,681.944275 1305.683594,681.743164 1305.813477,681.541931 
	C1305.532104,681.678894 1305.250732,681.815796 1304.035889,681.969849 
M1293.517090,495.994110 
	C1285.890747,499.917999 1281.762695,506.408478 1281.210327,514.714233 
	C1280.937866,518.811951 1281.975342,523.158325 1283.181152,527.162964 
	C1287.011230,539.883240 1290.736206,552.668640 1295.380249,565.100708 
	C1299.927246,577.272217 1316.168335,584.572754 1327.575928,579.699829 
	C1332.149292,577.746155 1335.755981,573.597717 1339.964844,570.682373 
	C1341.262207,569.783752 1343.096069,569.659729 1344.684204,569.181030 
	C1344.660400,570.999023 1345.327759,573.250366 1344.502808,574.565979 
	C1338.207520,584.604980 1324.318237,589.974670 1312.930542,585.857239 
	C1306.916626,583.682861 1304.219849,586.355286 1300.629883,590.405457 
	C1301.928467,590.689148 1302.683838,590.898010 1303.453247,591.015381 
	C1310.683594,592.117859 1312.678711,594.083313 1314.322021,601.244629 
	C1316.442505,610.485596 1318.711304,619.692444 1320.896729,628.918640 
	C1322.171631,634.301270 1322.579712,634.522217 1327.455444,632.270752 
	C1333.672852,629.399658 1340.090088,628.261536 1346.873657,629.886719 
	C1354.081055,631.613586 1361.306763,633.265198 1369.005493,635.062012 
	C1369.359009,630.086914 1369.506470,625.158752 1370.167847,620.300659 
	C1370.389893,618.669067 1371.920288,617.215698 1372.852661,615.680847 
	C1373.876587,617.003967 1375.474609,618.194580 1375.816284,619.675171 
	C1376.824097,624.040894 1376.983276,628.618652 1378.175171,632.919250 
	C1378.854126,635.368958 1380.602539,637.727356 1382.411377,639.604614 
	C1384.457520,641.728149 1387.491699,642.946106 1389.365967,645.172485 
	C1390.610840,646.651428 1390.575195,649.208435 1391.112793,651.282959 
	C1388.848999,651.348877 1386.254028,652.154175 1384.393066,651.320679 
	C1380.941528,649.774658 1377.964844,647.195679 1374.696045,645.201538 
	C1373.272705,644.333252 1371.615967,643.847168 1369.979492,643.151062 
	C1369.539795,644.300110 1369.193359,644.766357 1369.220093,645.210327 
	C1369.348633,647.360168 1369.588135,649.502991 1369.768433,651.650024 
	C1370.253540,657.424561 1367.906616,660.953369 1362.591919,660.807190 
	C1350.955811,660.487244 1342.151611,665.560547 1334.568481,673.803162 
	C1332.966064,675.544922 1330.628540,676.697510 1328.475220,677.826904 
	C1324.132202,680.104858 1318.622314,681.183472 1315.478271,684.528381 
	C1306.361816,694.226929 1295.480957,700.773376 1283.651123,706.451965 
	C1275.856079,710.193787 1268.555786,711.917053 1260.225708,708.666138 
	C1253.578003,706.071838 1246.777954,703.580078 1239.818237,702.141907 
	C1230.023804,700.117981 1225.360962,705.290344 1227.285767,715.162781 
	C1227.594482,716.746338 1228.370728,718.313843 1229.231689,719.702026 
	C1233.719482,726.937012 1240.645020,730.832764 1248.599243,732.800171 
	C1254.065552,734.152283 1259.712524,734.939270 1265.326782,735.496521 
	C1283.413208,737.291870 1301.263306,735.692383 1318.583618,730.200745 
	C1326.170166,727.795227 1333.362305,724.150940 1340.748535,721.105652 
	C1346.751343,718.630676 1352.726196,716.070374 1358.829102,713.868469 
	C1360.255493,713.353821 1362.149658,714.135620 1363.828613,714.320923 
	C1363.012329,715.783325 1362.427612,717.463684 1361.314331,718.646667 
	C1360.208740,719.821533 1358.629883,720.609924 1357.155762,721.367859 
	C1353.266357,723.367554 1349.321167,725.258911 1345.254395,727.264221 
	C1355.485352,731.335754 1365.874268,731.968445 1376.115234,730.770935 
	C1389.554810,729.199402 1400.312256,721.805908 1399.042603,707.151855 
	C1398.756470,703.849976 1398.613403,700.397949 1399.243164,697.179016 
	C1401.589600,685.184448 1394.453369,677.773926 1386.574707,670.998840 
	C1383.657593,668.490356 1379.397461,667.594177 1375.910156,665.671814 
	C1374.646118,664.975098 1373.849731,663.429932 1372.839966,662.271912 
	C1374.354980,661.564880 1375.874756,660.278992 1377.384033,660.291260 
	C1379.463623,660.308044 1381.869507,660.819397 1383.547852,661.973572 
	C1388.696533,665.514404 1393.448730,669.632751 1398.606445,673.158875 
	C1400.369507,674.364197 1403.390137,675.603271 1404.949341,674.889465 
	C1410.029297,672.563904 1414.025757,668.937561 1415.135864,662.839966 
	C1417.341553,650.724182 1416.881714,638.837097 1414.399170,626.726868 
	C1410.673584,608.552246 1402.374146,593.654846 1386.288208,583.943542 
	C1381.723755,581.187927 1376.408203,579.347229 1371.196289,578.070129 
	C1363.267334,576.127441 1356.161987,573.162170 1352.480713,565.484375 
	C1347.955933,556.047180 1347.721069,549.709045 1354.539185,544.275391 
	C1357.496948,541.918213 1358.818237,539.053284 1356.900513,535.547241 
	C1354.925781,531.937378 1351.680786,533.150269 1348.946777,534.242493 
	C1338.667603,538.348694 1327.914673,538.973083 1317.052246,538.995728 
	C1314.460449,539.001160 1311.868774,538.996521 1308.805908,538.996521 
	C1310.324585,542.153870 1311.844849,544.411682 1312.484741,546.896240 
	C1313.136597,549.427368 1312.901245,552.183044 1313.091675,554.837769 
	C1313.602905,561.961487 1313.795410,562.054565 1320.728760,563.257507 
	C1321.957886,563.470825 1322.995361,564.788391 1324.121338,565.596008 
	C1323.310791,566.700134 1322.722900,568.193359 1321.636475,568.815186 
	C1320.089600,569.700317 1318.169678,569.924194 1316.421021,570.468262 
	C1309.746582,572.544617 1307.583008,571.240540 1308.152710,564.197266 
	C1308.893921,555.030151 1307.599854,547.397217 1298.097778,543.218445 
	C1296.517822,542.523621 1294.763794,540.367981 1294.634033,538.762512 
	C1294.508179,537.207397 1296.372314,535.491333 1297.231201,534.063965 
	C1293.414673,530.739075 1289.454224,527.447754 1285.730835,523.907166 
	C1285.012207,523.223816 1284.655762,521.152893 1285.155151,520.466980 
	C1285.698608,519.720825 1287.657715,519.295349 1288.610352,519.684143 
	C1292.145142,521.126831 1295.784912,522.575745 1298.908081,524.717896 
	C1311.615967,533.433960 1325.739380,533.660156 1340.132568,531.756836 
	C1344.180176,531.221619 1348.005615,529.132080 1351.986938,527.934814 
	C1356.512085,526.574097 1359.843994,528.400208 1361.942505,532.403503 
	C1364.269775,536.843445 1363.084961,544.049316 1359.635498,547.795227 
	C1354.863892,552.976929 1354.510498,555.276062 1357.595947,561.060974 
	C1362.179077,569.653992 1366.259155,572.084595 1372.697388,571.701965 
	C1376.656128,571.466675 1381.070801,571.929871 1384.650635,573.508301 
	C1399.144287,579.899048 1408.485352,591.200073 1413.868652,605.976379 
	C1414.501709,607.714111 1415.863159,609.186584 1416.886963,610.781982 
	C1418.707275,609.467834 1420.984619,608.498413 1422.276733,606.785706 
	C1433.916870,591.357178 1426.524292,567.583496 1415.407104,558.212402 
	C1404.989624,549.431030 1394.519775,540.641541 1384.828491,531.089172 
	C1375.843140,522.232727 1368.463989,511.719971 1359.307617,503.069244 
	C1338.596191,483.501831 1320.139282,481.977875 1293.517090,495.994110 
M1218.546143,597.849609 
	C1212.451050,599.338867 1210.944580,601.252075 1212.490479,607.392090 
	C1214.394653,614.954712 1217.268677,622.276672 1219.101196,629.853088 
	C1222.069092,642.122314 1224.352661,654.556213 1227.269165,666.838867 
	C1229.139893,674.717590 1231.094360,676.063110 1239.022705,675.973450 
	C1263.797119,675.693298 1288.570557,675.319702 1313.344360,674.976318 
	C1314.175171,674.964722 1315.229736,675.194885 1315.791870,674.782898 
	C1317.252441,673.712280 1319.614502,672.366577 1319.637451,671.094727 
	C1319.750488,664.865723 1320.105469,658.422546 1318.738647,652.428162 
	C1315.269165,637.212646 1310.781616,622.232422 1306.993286,607.085083 
	C1305.105957,599.538208 1304.921387,599.238098 1297.095215,598.971863 
	C1281.656250,598.446899 1266.228760,597.498169 1250.786987,597.170776 
	C1240.331177,596.949036 1229.859375,597.488586 1218.546143,597.849609 
M1258.912476,700.800903 
	C1268.476318,703.495483 1277.167847,702.078491 1284.950439,695.474609 
	C1269.427979,685.012146 1259.746582,682.000122 1241.900024,681.999756 
	C1239.902588,681.999756 1237.865112,682.252747 1235.916138,681.945435 
	C1231.700195,681.280579 1227.529541,680.328186 1222.301514,679.286377 
	C1213.913818,686.304077 1213.950073,716.545288 1224.420044,724.273682 
	C1223.721924,721.856689 1223.213989,720.185913 1222.756836,718.501343 
	C1218.392212,702.420898 1227.675537,692.367676 1243.971802,695.837585 
	C1248.808350,696.867432 1253.422363,698.941956 1258.912476,700.800903 
M1326.131348,646.937622 
	C1327.251831,645.962463 1328.272217,644.826172 1329.517578,644.051636 
	C1331.188965,643.012085 1333.034302,642.252136 1334.805054,641.372192 
	C1334.511597,643.326172 1334.498779,645.378235 1333.858521,647.211060 
	C1332.908447,649.929993 1331.513916,652.493713 1330.308716,655.123535 
	C1330.723511,655.331116 1331.138306,655.538696 1331.553101,655.746277 
	C1333.690308,653.984314 1335.680542,651.978699 1338.026611,650.562622 
	C1339.207886,649.849487 1341.035278,650.206421 1342.570435,650.079407 
	C1342.547729,651.602539 1342.853638,653.226501 1342.424316,654.624878 
	C1341.793823,656.679321 1340.638062,658.572571 1339.706055,660.534424 
	C1343.927734,659.769958 1347.079590,657.922119 1350.475830,656.844788 
	C1354.086792,655.699280 1357.944336,655.348389 1361.657227,654.490417 
	C1362.328247,654.335327 1363.041138,653.508240 1363.358643,652.818359 
	C1365.162964,648.899048 1360.289185,638.373047 1355.981201,637.388794 
	C1351.621582,636.392639 1347.154541,635.703918 1342.697021,635.340210 
	C1337.023560,634.877197 1331.830811,636.540955 1327.440552,640.258179 
	C1325.368286,642.012939 1323.344971,643.936340 1326.131348,646.937622 
M1316.645996,737.310364 
	C1315.983521,737.619812 1315.321045,737.929260 1313.883423,738.600830 
	C1327.899658,738.600830 1340.961670,738.600830 1355.349121,738.600830 
	C1352.742310,737.881104 1351.434204,737.619690 1350.198242,737.163025 
	C1339.567139,733.235046 1328.939575,730.745483 1318.236328,736.934448 
	C1317.963257,737.092407 1317.593750,737.083862 1316.645996,737.310364 
M1336.521362,663.926208 
	C1336.521362,663.926208 1336.586426,663.982422 1336.521362,663.926208 
M1226.934326,726.404968 
	C1226.934326,726.404968 1227.020142,726.409119 1226.934326,726.404968 
z"/>
<path fill="#2D1909" opacity="1.000000" stroke="none" 
	d="
M535.710571,678.256470 
	C541.943970,679.743408 547.256775,678.740967 552.467896,675.776001 
	C558.291199,672.462830 562.117615,674.560974 562.777893,681.215820 
	C563.004150,683.495850 562.421631,685.844421 562.450623,688.158752 
	C562.482605,690.712891 562.807739,693.262634 562.973328,695.816345 
	C563.034058,696.753357 563.382080,698.165161 562.929260,698.530823 
	C562.179871,699.135864 560.439453,699.618713 559.906189,699.184021 
	C558.134521,697.740234 556.166748,696.092346 555.331909,694.083191 
	C554.654358,692.452515 555.447266,690.183350 555.678589,688.207886 
	C556.252380,683.309143 555.223816,682.272400 550.603760,683.679810 
	C542.800903,686.056824 535.111755,685.015015 527.436890,683.199280 
	C522.871399,682.119202 520.406677,679.292664 519.959290,674.439636 
	C519.465332,669.080872 517.857788,668.450806 513.213135,671.232910 
	C509.074768,673.711853 504.722626,675.885681 500.807465,678.675110 
	C491.121613,685.575867 479.270782,680.889099 472.052765,674.298828 
	C466.441162,669.175232 462.036621,662.755920 456.690704,657.310059 
	C440.585846,640.903931 416.576019,642.893982 403.209229,661.998901 
	C399.268158,667.631836 396.599487,674.206787 393.721100,680.520325 
	C388.329407,692.346680 381.988068,703.420593 370.353455,710.200745 
	C360.718384,715.815735 352.914368,712.519348 350.251556,701.792480 
	C348.810486,695.987366 347.902161,690.042969 346.912048,684.134827 
	C345.865875,677.892212 343.775879,672.962097 336.876373,670.682861 
	C329.691193,668.309265 324.342377,670.104248 319.279816,675.165222 
	C311.257690,683.184814 310.083862,688.673279 314.135651,699.430908 
	C314.768463,701.110962 314.198303,703.244080 314.184418,705.167725 
	C312.406555,704.190857 309.499969,703.574768 309.051910,702.172974 
	C307.376373,696.930603 304.937805,691.220398 305.629700,686.067566 
	C307.634430,671.137878 325.203552,661.078003 339.444672,665.710510 
	C345.699829,667.745178 349.522644,672.015625 350.935913,678.368530 
	C352.417511,685.028564 353.371429,691.830261 355.275360,698.360229 
	C356.049469,701.015381 358.455536,704.705933 360.596954,705.063477 
	C363.199127,705.498047 366.896851,703.551697 369.096527,701.524231 
	C381.479584,690.110474 389.146576,675.364685 395.634888,660.255066 
	C401.926697,645.603149 422.764801,635.476868 438.041473,638.363770 
	C446.761841,640.011597 454.723358,644.059998 460.350647,651.517639 
	C464.856964,657.489624 468.969757,663.837524 474.072052,669.250488 
	C477.000824,672.357666 481.317017,674.848694 485.448273,675.917297 
	C488.911255,676.812988 493.401215,676.099182 496.743927,674.577148 
	C502.603882,671.908752 507.684662,667.528259 513.545837,664.863708 
	C521.594055,661.204956 523.816467,662.755981 525.108765,671.292419 
	C525.909851,676.584351 527.422607,677.611572 535.710571,678.256470 
z"/>
<path fill="#2D1909" opacity="1.000000" stroke="none" 
	d="
M325.173553,736.041748 
	C328.498260,729.572998 335.179047,729.595581 340.732300,727.576599 
	C341.348175,727.352600 343.145966,728.524963 343.289276,729.264221 
	C343.541870,730.567200 343.342346,732.298828 342.627502,733.388977 
	C339.638611,737.947083 330.431488,739.405518 325.173553,736.041748 
z"/>
<path fill="#2D1909" opacity="1.000000" stroke="none" 
	d="
M321.527832,728.766113 
	C316.915497,728.868530 312.669708,728.998535 308.450287,728.723633 
	C307.482269,728.660522 306.252533,727.347778 305.836792,726.327637 
	C305.633392,725.828430 306.874451,724.149475 307.714355,723.916931 
	C311.676666,722.819946 315.694702,721.707214 319.761505,721.318542 
	C321.253113,721.176025 323.747681,722.700378 324.269562,724.050232 
	C324.682373,725.117920 322.778809,727.081177 321.527832,728.766113 
z"/>
<path fill="#2D1909" opacity="1.000000" stroke="none" 
	d="
M570.165222,709.677734 
	C568.957764,711.277344 567.782959,713.303894 566.221436,713.666931 
	C564.094360,714.161377 561.661194,713.463074 559.379639,713.134949 
	C556.921570,712.781372 553.468811,712.368896 554.853333,709.039612 
	C555.650574,707.122498 559.192505,705.049500 561.265442,705.267578 
	C564.295532,705.586304 567.115845,707.899902 570.165222,709.677734 
z"/>
<path fill="#2D1909" opacity="1.000000" stroke="none" 
	d="
M300.807922,709.642273 
	C303.891968,709.190125 306.808685,708.282043 309.432220,708.815613 
	C311.640564,709.264709 314.870453,711.102783 315.236328,712.835327 
	C315.949463,716.212280 312.579407,717.283630 309.883453,716.793884 
	C306.743439,716.223633 303.699829,714.847778 300.807373,713.428223 
	C300.251556,713.155457 300.588501,711.063660 300.807922,709.642273 
z"/>
<path fill="#2D1909" opacity="1.000000" stroke="none" 
	d="
M491.972534,718.219116 
	C488.466675,718.630981 484.074371,720.629883 483.237854,716.543396 
	C482.918488,714.983398 488.171356,711.914734 491.257416,710.206970 
	C492.488464,709.525635 495.610077,710.093872 496.275452,711.123962 
	C497.048004,712.320129 496.415985,714.799561 495.709900,716.424988 
	C495.324860,717.311340 493.524628,717.583008 491.972534,718.219116 
z"/>
<path fill="#2D1909" opacity="1.000000" stroke="none" 
	d="
M542.983521,718.875732 
	C544.755371,718.051392 546.921448,716.567566 547.796692,717.121887 
	C550.223511,718.658997 552.147766,721.011902 554.159058,723.147522 
	C554.353638,723.354065 553.754028,724.818787 553.552002,724.812195 
	C550.542847,724.713989 547.481323,724.754333 544.549500,724.171570 
	C541.681091,723.601440 541.568420,721.464233 542.983521,718.875732 
z"/>
<path fill="#2D1909" opacity="1.000000" stroke="none" 
	d="
M482.707031,700.754761 
	C485.256042,699.284973 487.797821,697.781616 490.530640,697.236877 
	C491.234131,697.096619 492.539032,699.973083 493.567688,701.463745 
	C491.923737,702.469910 490.183502,704.410339 488.659393,704.253296 
	C486.609253,704.042053 484.725861,702.212769 482.707031,700.754761 
z"/>
<path fill="#000000" opacity="1.000000" stroke="none" 
	d="
M1293.848999,495.838074 
	C1320.139282,481.977875 1338.596191,483.501831 1359.307617,503.069244 
	C1368.463989,511.719971 1375.843140,522.232727 1384.828491,531.089172 
	C1394.519775,540.641541 1404.989624,549.431030 1415.407104,558.212402 
	C1426.524292,567.583496 1433.916870,591.357178 1422.276733,606.785706 
	C1420.984619,608.498413 1418.707275,609.467834 1416.886963,610.781982 
	C1415.863159,609.186584 1414.501709,607.714111 1413.868652,605.976379 
	C1408.485352,591.200073 1399.144287,579.899048 1384.650635,573.508301 
	C1381.070801,571.929871 1376.656128,571.466675 1372.697388,571.701965 
	C1366.259155,572.084595 1362.179077,569.653992 1357.595947,561.060974 
	C1354.510498,555.276062 1354.863892,552.976929 1359.635498,547.795227 
	C1363.084961,544.049316 1364.269775,536.843445 1361.942505,532.403503 
	C1359.843994,528.400208 1356.512085,526.574097 1351.986938,527.934814 
	C1348.005615,529.132080 1344.180176,531.221619 1340.132568,531.756836 
	C1325.739380,533.660156 1311.615967,533.433960 1298.908081,524.717896 
	C1295.784912,522.575745 1292.145142,521.126831 1288.610352,519.684143 
	C1287.657715,519.295349 1285.698608,519.720825 1285.155151,520.466980 
	C1284.655762,521.152893 1285.012207,523.223816 1285.730835,523.907166 
	C1289.454224,527.447754 1293.414673,530.739075 1297.231201,534.063965 
	C1296.372314,535.491333 1294.508179,537.207397 1294.634033,538.762512 
	C1294.763794,540.367981 1296.517822,542.523621 1298.097778,543.218445 
	C1307.599854,547.397217 1308.893921,555.030151 1308.152710,564.197266 
	C1307.583008,571.240540 1309.746582,572.544617 1316.421021,570.468262 
	C1318.169678,569.924194 1320.089600,569.700317 1321.636475,568.815186 
	C1322.722900,568.193359 1323.310791,566.700134 1324.121338,565.596008 
	C1322.995361,564.788391 1321.957886,563.470825 1320.728760,563.257507 
	C1313.795410,562.054565 1313.602905,561.961487 1313.091675,554.837769 
	C1312.901245,552.183044 1313.136597,549.427368 1312.484741,546.896240 
	C1311.844849,544.411682 1310.324585,542.153870 1308.805908,538.996521 
	C1311.868774,538.996521 1314.460449,539.001160 1317.052246,538.995728 
	C1327.914673,538.973083 1338.667603,538.348694 1348.946777,534.242493 
	C1351.680786,533.150269 1354.925781,531.937378 1356.900513,535.547241 
	C1358.818237,539.053284 1357.496948,541.918213 1354.539185,544.275391 
	C1347.721069,549.709045 1347.955933,556.047180 1352.480713,565.484375 
	C1356.161987,573.162170 1363.267334,576.127441 1371.196289,578.070129 
	C1376.408203,579.347229 1381.723755,581.187927 1386.288208,583.943542 
	C1402.374146,593.654846 1410.673584,608.552246 1414.399170,626.726868 
	C1416.881714,638.837097 1417.341553,650.724182 1415.135864,662.839966 
	C1414.025757,668.937561 1410.029297,672.563904 1404.949341,674.889465 
	C1403.390137,675.603271 1400.369507,674.364197 1398.606445,673.158875 
	C1393.448730,669.632751 1388.696533,665.514404 1383.547852,661.973572 
	C1381.869507,660.819397 1379.463623,660.308044 1377.384033,660.291260 
	C1375.874756,660.278992 1374.354980,661.564880 1372.839966,662.271912 
	C1373.849731,663.429932 1374.646118,664.975098 1375.910156,665.671814 
	C1379.397461,667.594177 1383.657593,668.490356 1386.574707,670.998840 
	C1394.453369,677.773926 1401.589600,685.184448 1399.243164,697.179016 
	C1398.613403,700.397949 1398.756470,703.849976 1399.042603,707.151855 
	C1400.312256,721.805908 1389.554810,729.199402 1376.115234,730.770935 
	C1365.874268,731.968445 1355.485352,731.335754 1345.254395,727.264221 
	C1349.321167,725.258911 1353.266357,723.367554 1357.155762,721.367859 
	C1358.629883,720.609924 1360.208740,719.821533 1361.314331,718.646667 
	C1362.427612,717.463684 1363.012329,715.783325 1363.828613,714.320923 
	C1362.149658,714.135620 1360.255493,713.353821 1358.829102,713.868469 
	C1352.726196,716.070374 1346.751343,718.630676 1340.748535,721.105652 
	C1333.362305,724.150940 1326.170166,727.795227 1318.583618,730.200745 
	C1301.263306,735.692383 1283.413208,737.291870 1265.326782,735.496521 
	C1259.712524,734.939270 1254.065552,734.152283 1248.599243,732.800171 
	C1240.645020,730.832764 1233.719482,726.937012 1229.231689,719.702026 
	C1228.370728,718.313843 1227.594482,716.746338 1227.285767,715.162781 
	C1225.360962,705.290344 1230.023804,700.117981 1239.818237,702.141907 
	C1246.777954,703.580078 1253.578003,706.071838 1260.225708,708.666138 
	C1268.555786,711.917053 1275.856079,710.193787 1283.651123,706.451965 
	C1295.480957,700.773376 1306.361816,694.226929 1315.478271,684.528381 
	C1318.622314,681.183472 1324.132202,680.104858 1328.475220,677.826904 
	C1330.628540,676.697510 1332.966064,675.544922 1334.568481,673.803162 
	C1342.151611,665.560547 1350.955811,660.487244 1362.591919,660.807190 
	C1367.906616,660.953369 1370.253540,657.424561 1369.768433,651.650024 
	C1369.588135,649.502991 1369.348633,647.360168 1369.220093,645.210327 
	C1369.193359,644.766357 1369.539795,644.300110 1369.979492,643.151062 
	C1371.615967,643.847168 1373.272705,644.333252 1374.696045,645.201538 
	C1377.964844,647.195679 1380.941528,649.774658 1384.393066,651.320679 
	C1386.254028,652.154175 1388.848999,651.348877 1391.112793,651.282959 
	C1390.575195,649.208435 1390.610840,646.651428 1389.365967,645.172485 
	C1387.491699,642.946106 1384.457520,641.728149 1382.411377,639.604614 
	C1380.602539,637.727356 1378.854126,635.368958 1378.175171,632.919250 
	C1376.983276,628.618652 1376.824097,624.040894 1375.816284,619.675171 
	C1375.474609,618.194580 1373.876587,617.003967 1372.852661,615.680847 
	C1371.920288,617.215698 1370.389893,618.669067 1370.167847,620.300659 
	C1369.506470,625.158752 1369.359009,630.086914 1369.005493,635.062012 
	C1361.306763,633.265198 1354.081055,631.613586 1346.873657,629.886719 
	C1340.090088,628.261536 1333.672852,629.399658 1327.455444,632.270752 
	C1322.579712,634.522217 1322.171631,634.301270 1320.896729,628.918640 
	C1318.711304,619.692444 1316.442505,610.485596 1314.322021,601.244629 
	C1312.678711,594.083313 1310.683594,592.117859 1303.453247,591.015381 
	C1302.683838,590.898010 1301.928467,590.689148 1300.629883,590.405457 
	C1304.219849,586.355286 1306.916626,583.682861 1312.930542,585.857239 
	C1324.318237,589.974670 1338.207520,584.604980 1344.502808,574.565979 
	C1345.327759,573.250366 1344.660400,570.999023 1344.684204,569.181030 
	C1343.096069,569.659729 1341.262207,569.783752 1339.964844,570.682373 
	C1335.755981,573.597717 1332.149292,577.746155 1327.575928,579.699829 
	C1316.168335,584.572754 1299.927246,577.272217 1295.380249,565.100708 
	C1290.736206,552.668640 1287.011230,539.883240 1283.181152,527.162964 
	C1281.975342,523.158325 1280.937866,518.811951 1281.210327,514.714233 
	C1281.762695,506.408478 1285.890747,499.917999 1293.848999,495.838074 
z"/>
<path fill="#000000" opacity="1.000000" stroke="none" 
	d="
M1218.970459,597.768677 
	C1229.859375,597.488586 1240.331177,596.949036 1250.786987,597.170776 
	C1266.228760,597.498169 1281.656250,598.446899 1297.095215,598.971863 
	C1304.921387,599.238098 1305.105957,599.538208 1306.993286,607.085083 
	C1310.781616,622.232422 1315.269165,637.212646 1318.738647,652.428162 
	C1320.105469,658.422546 1319.750488,664.865723 1319.637451,671.094727 
	C1319.614502,672.366577 1317.252441,673.712280 1315.791870,674.782898 
	C1315.229736,675.194885 1314.175171,674.964722 1313.344360,674.976318 
	C1288.570557,675.319702 1263.797119,675.693298 1239.022705,675.973450 
	C1231.094360,676.063110 1229.139893,674.717590 1227.269165,666.838867 
	C1224.352661,654.556213 1222.069092,642.122314 1219.101196,629.853088 
	C1217.268677,622.276672 1214.394653,614.954712 1212.490479,607.392090 
	C1210.944580,601.252075 1212.451050,599.338867 1218.970459,597.768677 
M1271.463623,652.831482 
	C1279.005737,650.169006 1280.828613,645.983948 1277.441406,639.107727 
	C1281.134888,633.659119 1279.244019,629.722900 1272.557129,629.189819 
	C1270.094482,628.993530 1267.560669,629.500610 1265.125122,629.183044 
	C1256.850098,628.104309 1252.966187,631.278198 1252.436523,640.998840 
	C1251.931396,650.267883 1258.261597,655.059387 1267.259888,653.067566 
	C1268.376099,652.820374 1269.572144,652.934326 1271.463623,652.831482 
M1264.646118,620.891235 
	C1265.064087,623.030579 1265.482056,625.169861 1265.900024,627.309204 
	C1268.174683,626.435669 1270.726440,625.935425 1272.610962,624.536377 
	C1273.603027,623.799866 1273.429077,621.492920 1273.781738,619.895081 
	C1271.377075,619.612793 1268.976685,619.255310 1266.563843,619.113037 
	C1266.091675,619.085205 1265.570435,619.891663 1264.646118,620.891235 
z"/>
<path fill="#000000" opacity="1.000000" stroke="none" 
	d="
M1258.525391,700.669312 
	C1253.422363,698.941956 1248.808350,696.867432 1243.971802,695.837585 
	C1227.675537,692.367676 1218.392212,702.420898 1222.756836,718.501343 
	C1223.213989,720.185913 1223.721924,721.856689 1224.420044,724.273682 
	C1213.950073,716.545288 1213.913818,686.304077 1222.301514,679.286377 
	C1227.529541,680.328186 1231.700195,681.280579 1235.916138,681.945435 
	C1237.865112,682.252747 1239.902588,681.999756 1241.900024,681.999756 
	C1259.746582,682.000122 1269.427979,685.012146 1284.950439,695.474609 
	C1277.167847,702.078491 1268.476318,703.495483 1258.525391,700.669312 
z"/>
<path fill="#000000" opacity="1.000000" stroke="none" 
	d="
M1325.907471,646.931274 
	C1323.344971,643.936340 1325.368286,642.012939 1327.440552,640.258179 
	C1331.830811,636.540955 1337.023560,634.877197 1342.697021,635.340210 
	C1347.154541,635.703918 1351.621582,636.392639 1355.981201,637.388794 
	C1360.289185,638.373047 1365.162964,648.899048 1363.358643,652.818359 
	C1363.041138,653.508240 1362.328247,654.335327 1361.657227,654.490417 
	C1357.944336,655.348389 1354.086792,655.699280 1350.475830,656.844788 
	C1347.079590,657.922119 1343.927734,659.769958 1339.706055,660.534424 
	C1340.638062,658.572571 1341.793823,656.679321 1342.424316,654.624878 
	C1342.853638,653.226501 1342.547729,651.602539 1342.570435,650.079407 
	C1341.035278,650.206421 1339.207886,649.849487 1338.026611,650.562622 
	C1335.680542,651.978699 1333.690308,653.984314 1331.553101,655.746277 
	C1331.138306,655.538696 1330.723511,655.331116 1330.308716,655.123535 
	C1331.513916,652.493713 1332.908447,649.929993 1333.858521,647.211060 
	C1334.498779,645.378235 1334.511597,643.326172 1334.805054,641.372192 
	C1333.034302,642.252136 1331.188965,643.012085 1329.517578,644.051636 
	C1328.272217,644.826172 1327.251831,645.962463 1325.907471,646.931274 
z"/>
<path fill="#000000" opacity="1.000000" stroke="none" 
	d="
M1305.180420,682.210327 
	C1302.343018,684.943909 1299.612915,687.806091 1296.596680,690.325745 
	C1295.783813,691.004761 1293.918945,691.106323 1292.849365,690.683167 
	C1286.994873,688.367249 1281.237549,685.805481 1275.446899,683.328125 
	C1275.493774,682.875366 1275.540649,682.422607 1275.587524,681.969849 
	C1285.070312,681.969849 1294.553101,681.969849 1304.555420,682.025635 
	C1305.075073,682.081482 1305.180420,682.210327 1305.180420,682.210327 
z"/>
<path fill="#000000" opacity="1.000000" stroke="none" 
	d="
M1316.957642,737.231689 
	C1317.593750,737.083862 1317.963257,737.092407 1318.236328,736.934448 
	C1328.939575,730.745483 1339.567139,733.235046 1350.198242,737.163025 
	C1351.434204,737.619690 1352.742310,737.881104 1355.349121,738.600830 
	C1340.961670,738.600830 1327.899658,738.600830 1313.883423,738.600830 
	C1315.321045,737.929260 1315.983521,737.619812 1316.957642,737.231689 
z"/>
<path fill="#000000" opacity="1.000000" stroke="none" 
	d="
M1305.022217,682.017090 
	C1305.250732,681.815796 1305.532104,681.678894 1305.813477,681.541992 
	C1305.683594,681.743164 1305.553711,681.944275 1305.302124,682.177856 
	C1305.180420,682.210327 1305.075073,682.081482 1305.022217,682.017090 
z"/>
<path fill="#000000" opacity="1.000000" stroke="none" 
	d="
M1336.553955,663.954346 
	C1336.586426,663.982422 1336.521362,663.926208 1336.553955,663.954346 
z"/>
<path fill="#000000" opacity="1.000000" stroke="none" 
	d="
M1226.977295,726.407043 
	C1227.020142,726.409119 1226.934326,726.404968 1226.977295,726.407043 
z"/>
<path fill="#2D1909" opacity="1.000000" stroke="none" 
	d="
M1271.097412,652.856201 
	C1269.572144,652.934326 1268.376099,652.820374 1267.259888,653.067566 
	C1258.261597,655.059387 1251.931396,650.267883 1252.436523,640.998840 
	C1252.966187,631.278198 1256.850098,628.104309 1265.125122,629.183044 
	C1267.560669,629.500610 1270.094482,628.993530 1272.557129,629.189819 
	C1279.244019,629.722900 1281.134888,633.659119 1277.441406,639.107727 
	C1280.828613,645.983948 1279.005737,650.169006 1271.097412,652.856201 
z"/>
<path fill="#2D1909" opacity="1.000000" stroke="none" 
	d="
M1264.858887,620.602295 
	C1265.570435,619.891663 1266.091675,619.085205 1266.563843,619.113037 
	C1268.976685,619.255310 1271.377075,619.612793 1273.781738,619.895081 
	C1273.429077,621.492920 1273.603027,623.799866 1272.610962,624.536377 
	C1270.726440,625.935425 1268.174683,626.435669 1265.900024,627.309204 
	C1265.482056,625.169861 1265.064087,623.030579 1264.858887,620.602295 
z"/>
</svg>