<svg version="1.1" id="Layer_1" xmlns="http://www.w3.org/2000/svg" xmlns:xlink="http://www.w3.org/1999/xlink" x="0px" y="0px"
	 width="100%" viewBox="0 0 1694 820" enable-background="new 0 0 1694 820" xml:space="preserve">
<path fill="none" opacity="1.000000" stroke="none" 
	d="
M1688.051270,821.000000 
	C1125.375977,821.000000 563.211670,821.000000 1.023660,821.000000 
	C1.023660,547.683594 1.023660,274.367157 1.023660,1.025371 
	C565.647400,1.025371 1130.294800,1.025371 1694.971069,1.025371 
	C1694.971069,274.312927 1694.971069,547.625854 1694.971069,821.000000 
	C1692.854126,821.000000 1690.708130,821.000000 1688.051270,821.000000 
M1123.500000,738.000610 
	C1096.360718,738.333801 1069.222046,738.781311 1042.081787,738.965942 
	C1018.088501,739.129150 994.092834,739.094421 970.098938,738.980347 
	C912.793274,738.707825 855.487671,738.381714 798.182678,737.989563 
	C761.375183,737.737732 724.567871,737.003113 687.762207,737.106506 
	C662.973877,737.176147 638.190002,738.396973 613.400940,738.962524 
	C605.284729,739.147766 597.156372,738.976013 589.038879,738.762695 
	C587.510376,738.722534 585.931702,737.859436 584.505371,737.125000 
	C577.166016,733.346191 569.953247,729.305054 562.482910,725.811768 
	C561.059082,725.145996 558.675964,726.531494 556.735474,726.970642 
	C557.303650,728.892883 557.295532,731.532043 558.579285,732.563965 
	C560.362427,733.997375 563.093689,734.302185 565.457703,734.949036 
	C568.345886,735.739258 571.274048,736.383423 574.184937,737.090698 
	C574.101929,737.538086 574.018982,737.985413 573.936035,738.432800 
	C563.576782,738.432800 553.217529,738.448059 542.858643,738.392639 
	C542.270874,738.389465 541.648926,737.860168 541.105957,737.484558 
	C534.446899,732.878906 525.555603,732.482605 519.755676,726.051086 
	C518.969910,725.179749 516.165039,726.129395 514.295044,726.235840 
	C514.411682,728.071472 513.821228,730.603638 514.796448,731.593567 
	C516.660522,733.486084 519.312073,734.748474 521.832825,735.804443 
	C524.000000,736.712341 526.440063,736.968933 528.759460,737.513550 
	C528.702820,737.961914 528.646240,738.410339 528.589600,738.858765 
	C519.866943,739.228699 511.142456,739.944214 502.421936,739.898926 
	C482.293732,739.794373 462.167389,739.321838 442.040375,738.995056 
	C440.208191,738.965332 437.879883,739.606567 436.645111,738.725952 
	C433.854797,736.736084 431.604645,733.988770 429.134766,731.549561 
	C431.170807,730.421936 433.180634,729.243408 435.248566,728.177734 
	C439.175049,726.154236 444.063080,725.069824 446.909637,722.048340 
	C456.038757,712.358093 456.434479,700.668213 451.257172,689.076782 
	C449.267181,684.621399 445.054565,681.086853 441.528137,677.449341 
	C440.805206,676.703613 438.624603,677.371033 437.115906,677.387085 
	C437.164062,678.773132 436.796539,680.358032 437.345184,681.504578 
	C438.559845,684.042725 440.588074,686.215149 441.651520,688.797302 
	C444.155548,694.877502 447.278625,700.949341 448.315735,707.323181 
	C449.546326,714.886414 442.499146,720.791626 431.465576,723.166565 
	C420.736908,725.475830 419.497345,727.601624 423.259644,737.179382 
	C423.359833,737.434448 423.157837,737.808228 423.004639,738.607117 
	C415.925751,739.008423 408.460968,741.162476 403.916229,732.631348 
	C403.002136,730.915466 401.584167,729.155579 399.940765,728.220032 
	C397.903748,727.060425 395.390015,726.738281 393.082184,726.054443 
	C393.201538,728.511902 392.699371,731.245667 393.631073,733.342041 
	C394.419189,735.115540 396.867523,736.151184 398.581116,737.513367 
	C398.236572,737.858582 397.891998,738.203796 397.547455,738.549011 
	C379.595642,738.549011 361.643829,738.549011 342.485870,738.549011 
	C346.011780,736.205261 348.644104,734.727661 350.920074,732.823975 
	C352.004303,731.917114 352.410553,730.199585 353.123871,728.849243 
	C351.660034,728.487732 350.131195,727.664734 348.745850,727.860046 
	C345.797546,728.275635 342.919464,729.203491 340.020447,729.951782 
	C334.835083,731.290039 333.936371,734.079285 337.559631,738.993103 
	C335.445282,738.993103 333.641235,739.020020 331.838165,738.988953 
	C312.862885,738.661865 293.886749,737.995117 274.912750,738.053589 
	C218.107559,738.228699 161.303040,738.663696 104.499084,739.102783 
	C101.717598,739.124268 98.943840,740.146729 96.166489,740.703125 
	C96.183235,741.251343 96.199989,741.799622 96.216736,742.347839 
	C99.775322,744.818481 104.152863,744.743408 108.223068,744.869324 
	C125.694191,745.409973 143.175735,745.986755 160.651520,745.931641 
	C207.126495,745.785095 253.600418,745.313049 300.074860,744.984497 
	C308.532410,744.924744 316.992096,745.029541 325.447815,744.885010 
	C337.894958,744.672302 350.340607,744.016602 362.784851,744.066101 
	C383.735199,744.149353 404.683075,744.819031 425.633545,744.916382 
	C461.754333,745.084229 497.876282,745.018250 533.997742,745.020752 
	C570.452576,745.023315 606.908020,744.864868 643.362122,745.017578 
	C666.283142,745.113586 689.201538,745.842651 712.122437,745.923706 
	C726.598694,745.974915 741.076538,745.312317 755.555054,745.046387 
	C776.531250,744.661133 797.509583,744.010437 818.485474,744.064209 
	C873.959656,744.206421 929.433167,744.647888 984.906677,745.005676 
	C1031.547974,745.306458 1078.188477,745.839050 1124.830078,745.918091 
	C1153.638916,745.966919 1182.448975,745.384033 1211.258057,745.037781 
	C1236.901855,744.729553 1262.543945,744.279358 1288.188232,744.041199 
	C1303.940796,743.894958 1319.697021,743.926086 1335.449951,744.063049 
	C1357.400146,744.253845 1379.348389,744.659973 1401.298340,744.898560 
	C1436.439941,745.280457 1471.581665,745.738098 1506.724487,745.883362 
	C1522.033936,745.946655 1537.344971,745.173462 1552.657593,745.036865 
	C1570.821045,744.874817 1588.988281,745.105530 1607.151001,744.902832 
	C1611.720459,744.851868 1616.278809,743.796204 1620.842285,743.202271 
	C1620.852173,742.465088 1620.862061,741.727905 1620.871948,740.990723 
	C1618.791870,740.373779 1616.731934,739.309143 1614.628296,739.214172 
	C1602.994019,738.688782 1591.349121,738.112793 1579.707764,738.105713 
	C1566.565430,738.097778 1553.423218,738.697449 1540.280151,738.990723 
	C1524.637573,739.339722 1508.994019,739.878418 1493.350464,739.895691 
	C1480.056519,739.910400 1466.763184,739.092773 1453.467407,739.013672 
	C1428.637329,738.865845 1403.805908,738.986694 1378.974976,738.995605 
	C1377.348877,738.996216 1375.722778,738.995667 1374.096802,738.995667 
	C1387.572021,738.695190 1405.225708,723.992615 1404.269775,709.316650 
	C1403.796509,702.053589 1404.832520,694.702515 1404.902832,687.388550 
	C1404.931274,684.429382 1405.515625,682.485596 1408.463989,681.068665 
	C1414.468140,678.183167 1418.395508,673.129089 1420.235596,666.851624 
	C1421.390259,662.912598 1421.791626,658.659241 1421.912598,654.528809 
	C1422.224487,643.886536 1422.649170,633.207886 1418.573608,622.977295 
	C1417.698730,620.780579 1417.008667,618.463013 1420.228394,616.639282 
	C1430.524658,610.807617 1436.038086,597.424805 1434.697266,585.410400 
	C1432.957520,569.821045 1425.364746,558.279175 1413.377319,548.527344 
	C1401.653931,538.990112 1390.607544,528.572571 1379.733276,518.056152 
	C1372.337891,510.904022 1366.012817,502.655396 1358.749756,495.354156 
	C1342.402710,478.921631 1323.130981,474.860199 1301.459229,483.078705 
	C1289.659546,487.553467 1278.384766,493.106384 1276.001709,507.239777 
	C1275.117676,512.482361 1276.853271,518.132019 1276.229248,523.459595 
	C1274.507080,538.164001 1280.090454,550.521484 1287.594238,562.403198 
	C1290.155518,566.459045 1292.539795,570.696228 1295.610840,574.340027 
	C1298.434692,577.690613 1300.570557,580.288513 1295.493774,583.316772 
	C1294.565063,583.870728 1293.877930,585.027710 1293.367188,586.050110 
	C1290.974121,590.839966 1287.145630,592.168152 1281.913330,592.098083 
	C1263.085327,591.846069 1244.251587,591.969849 1225.420288,592.013855 
	C1208.900757,592.052429 1204.463745,597.948120 1208.479492,613.871277 
	C1212.830566,631.124634 1217.050903,648.413818 1221.004761,665.761169 
	C1221.552612,668.164795 1221.158081,671.804749 1219.653076,673.494568 
	C1206.633057,688.112915 1205.372803,704.328247 1212.156372,721.902283 
	C1215.338867,730.146729 1222.561157,733.732605 1231.165527,731.403564 
	C1232.020386,731.172119 1233.209351,731.239319 1233.946411,731.672607 
	C1236.890015,733.403015 1239.716187,735.332825 1243.840332,738.000366 
	C1203.081055,738.000366 1163.790527,738.000366 1123.500000,738.000610 
M437.048401,647.161682 
	C444.100433,649.039246 449.297699,653.549744 454.146362,658.763733 
	C461.275208,666.429749 468.538452,673.982544 476.034424,681.285889 
	C477.617065,682.827881 480.417664,683.690613 482.716217,683.820679 
	C489.780945,684.220459 493.629272,679.007080 497.745209,674.405701 
	C500.355377,671.487671 503.019379,668.617737 506.367035,664.950928 
	C506.702454,667.427124 507.000702,668.677063 507.018188,669.930908 
	C507.077789,674.201111 509.414429,676.753357 513.426208,676.735107 
	C522.458008,676.694153 531.769958,678.951843 540.325500,673.904846 
	C543.515747,672.022888 545.072754,673.473999 544.924927,676.883606 
	C544.744934,681.032715 544.250061,685.168945 544.100586,689.318359 
	C543.925110,694.190369 546.837769,696.690125 551.281982,697.360229 
	C552.667664,697.569214 554.235168,696.571838 555.719421,696.126587 
	C555.122620,694.772461 554.894897,692.805359 553.858459,692.181152 
	C550.957520,690.433960 550.428894,688.281921 550.746216,685.072266 
	C551.200806,680.473877 551.338013,675.767822 550.895935,671.176514 
	C550.361450,665.626831 547.779968,664.281494 542.671448,666.733704 
	C535.537598,670.158142 528.414978,672.810120 520.213745,672.082092 
	C513.683899,671.502502 513.763000,671.642395 513.488220,664.832153 
	C513.380737,662.170654 511.999725,658.597168 509.990051,657.271301 
	C508.289429,656.149414 504.779144,657.425354 502.200317,658.123047 
	C500.879974,658.480286 499.692047,659.757812 498.709564,660.856628 
	C494.942383,665.070007 491.140961,669.266479 487.619812,673.682556 
	C483.498566,678.851196 482.543701,679.043213 477.983704,674.486389 
	C469.854858,666.363159 461.797424,658.167053 453.584045,650.130249 
	C443.865295,640.620422 426.804810,638.168518 414.437897,643.702881 
	C404.246704,648.263550 397.707764,656.185608 392.769470,665.631226 
	C386.293396,678.018127 380.367310,690.692871 373.870026,703.068115 
	C372.483795,705.708496 369.875580,707.874756 367.435211,709.743469 
	C365.324585,711.359741 363.537476,710.196777 363.207581,707.632751 
	C362.384521,701.235718 361.552277,694.830872 361.059265,688.403442 
	C360.728851,684.095581 360.920074,679.743103 360.972687,675.411682 
	C361.035400,670.245361 358.421814,666.996521 353.851379,665.026733 
	C343.351868,660.501709 330.317688,663.024963 322.459808,671.126282 
	C317.725006,676.007751 316.230988,690.069153 320.065338,695.660339 
	C320.865875,696.827637 322.592499,697.359802 323.892365,698.184631 
	C324.482697,696.779541 325.541992,695.380310 325.559662,693.968079 
	C325.590515,691.499390 324.998260,689.020142 324.636963,686.549744 
	C323.383148,677.976990 330.344025,668.048157 338.870819,668.357849 
	C353.652618,668.894592 357.635345,667.857971 355.414246,685.261902 
	C354.353638,693.572510 354.626312,702.162476 355.273285,710.550415 
	C355.892548,718.578979 365.117493,722.449158 370.325439,716.747437 
	C376.876312,709.575439 382.932251,701.704163 387.821045,693.328674 
	C393.057434,684.357727 396.475220,674.345276 401.068634,664.974548 
	C408.944855,648.906921 418.440491,644.199829 437.048401,647.161682 
M334.296295,719.907715 
	C331.174988,718.797119 328.118561,717.172302 324.908234,716.767212 
	C322.952911,716.520447 320.760376,718.153870 318.674377,718.942749 
	C320.095276,720.710876 321.233765,723.559937 322.996307,724.020508 
	C326.584137,724.957886 330.570587,725.102417 334.276154,724.639709 
	C337.639343,724.219727 337.922729,722.145691 334.296295,719.907715 
M556.502197,710.142273 
	C557.158508,710.230286 557.867249,710.519653 558.460388,710.365173 
	C559.768738,710.024414 561.018860,709.459900 562.292725,708.986633 
	C561.693726,707.903015 561.360168,706.419983 560.445129,705.812012 
	C557.859680,704.094116 555.162598,702.339355 552.250793,701.406860 
	C550.862488,700.962219 548.326416,701.894714 547.376221,703.067200 
	C546.747070,703.843567 547.501709,706.951538 548.533569,707.609497 
	C550.620972,708.940491 553.318298,709.315186 556.502197,710.142273 
M493.691010,716.383301 
	C495.051666,714.011108 494.579071,711.594543 491.865082,711.640869 
	C488.184387,711.703674 484.477936,712.844910 480.887878,713.886597 
	C479.937958,714.162170 478.580383,716.045776 478.809387,716.704590 
	C479.208252,717.852356 480.556732,719.138000 481.750061,719.456909 
	C485.920746,720.571289 489.922302,720.104736 493.691010,716.383301 
M319.416443,708.588379 
	C319.997528,708.896484 320.550110,709.383789 321.164642,709.481567 
	C323.745789,709.892334 326.345490,710.186646 328.938354,710.523682 
	C327.737915,707.995972 326.834198,705.260803 325.253296,702.998962 
	C323.679688,700.747498 321.310303,699.169067 318.478210,701.375000 
	C315.378235,703.789673 317.341614,705.991943 319.416443,708.588379 
M484.038727,696.449707 
	C483.222931,696.471130 482.280426,696.234314 481.614441,696.561035 
	C479.383820,697.655396 477.251953,698.950989 475.082275,700.169495 
	C477.308899,701.562195 479.396362,703.637207 481.806732,704.128662 
	C483.687073,704.512146 486.889191,703.546814 487.873688,702.083862 
	C489.722626,699.336243 487.125671,697.750549 484.038727,696.449707 
M542.247131,717.679810 
	C540.497925,718.288025 538.276001,718.466858 537.182556,719.670654 
	C536.558777,720.357422 537.431763,723.874573 538.225403,724.109680 
	C540.890381,724.899109 543.822510,724.786743 546.652405,725.019531 
	C545.768433,722.980042 544.919373,720.924072 543.970642,718.915161 
	C543.784058,718.520203 543.212524,718.307068 542.247131,717.679810 
z"/>
<path fill="#2D1909" opacity="1.000000" stroke="none" 
	d="
M1124.000000,738.000488 
	C1163.790527,738.000366 1203.081055,738.000366 1243.840332,738.000366 
	C1239.716187,735.332825 1236.890015,733.403015 1233.946411,731.672607 
	C1233.209351,731.239319 1232.020386,731.172119 1231.165527,731.403564 
	C1222.561157,733.732605 1215.338867,730.146729 1212.156372,721.902283 
	C1205.372803,704.328247 1206.633057,688.112915 1219.653076,673.494568 
	C1221.158081,671.804749 1221.552612,668.164795 1221.004761,665.761169 
	C1217.050903,648.413818 1212.830566,631.124634 1208.479492,613.871277 
	C1204.463745,597.948120 1208.900757,592.052429 1225.420288,592.013855 
	C1244.251587,591.969849 1263.085327,591.846069 1281.913330,592.098083 
	C1287.145630,592.168152 1290.974121,590.839966 1293.367188,586.050110 
	C1293.877930,585.027710 1294.565063,583.870728 1295.493774,583.316772 
	C1300.570557,580.288513 1298.434692,577.690613 1295.610840,574.340027 
	C1292.539795,570.696228 1290.155518,566.459045 1287.594238,562.403198 
	C1280.090454,550.521484 1274.507080,538.164001 1276.229248,523.459595 
	C1276.853271,518.132019 1275.117676,512.482361 1276.001709,507.239777 
	C1278.384766,493.106384 1289.659546,487.553467 1301.459229,483.078705 
	C1323.130981,474.860199 1342.402710,478.921631 1358.749756,495.354156 
	C1366.012817,502.655396 1372.337891,510.904022 1379.733276,518.056152 
	C1390.607544,528.572571 1401.653931,538.990112 1413.377319,548.527344 
	C1425.364746,558.279175 1432.957520,569.821045 1434.697266,585.410400 
	C1436.038086,597.424805 1430.524658,610.807617 1420.228394,616.639282 
	C1417.008667,618.463013 1417.698730,620.780579 1418.573608,622.977295 
	C1422.649170,633.207886 1422.224487,643.886536 1421.912598,654.528809 
	C1421.791626,658.659241 1421.390259,662.912598 1420.235596,666.851624 
	C1418.395508,673.129089 1414.468140,678.183167 1408.463989,681.068665 
	C1405.515625,682.485596 1404.931274,684.429382 1404.902832,687.388550 
	C1404.832520,694.702515 1403.796509,702.053589 1404.269775,709.316650 
	C1405.225708,723.992615 1387.572021,738.695190 1374.096802,738.995667 
	C1375.722778,738.995667 1377.348877,738.996216 1378.974976,738.995605 
	C1403.805908,738.986694 1428.637329,738.865845 1453.467407,739.013672 
	C1466.763184,739.092773 1480.056519,739.910400 1493.350464,739.895691 
	C1508.994019,739.878418 1524.637573,739.339722 1540.280151,738.990723 
	C1553.423218,738.697449 1566.565430,738.097778 1579.707764,738.105713 
	C1591.349121,738.112793 1602.994019,738.688782 1614.628296,739.214172 
	C1616.731934,739.309143 1618.791870,740.373779 1620.871948,740.990723 
	C1620.862061,741.727905 1620.852173,742.465088 1620.842285,743.202271 
	C1616.278809,743.796204 1611.720459,744.851868 1607.151001,744.902832 
	C1588.988281,745.105530 1570.821045,744.874817 1552.657593,745.036865 
	C1537.344971,745.173462 1522.033936,745.946655 1506.724487,745.883362 
	C1471.581665,745.738098 1436.439941,745.280457 1401.298340,744.898560 
	C1379.348389,744.659973 1357.400146,744.253845 1335.449951,744.063049 
	C1319.697021,743.926086 1303.940796,743.894958 1288.188232,744.041199 
	C1262.543945,744.279358 1236.901855,744.729553 1211.258057,745.037781 
	C1182.448975,745.384033 1153.638916,745.966919 1124.830078,745.918091 
	C1078.188477,745.839050 1031.547974,745.306458 984.906677,745.005676 
	C929.433167,744.647888 873.959656,744.206421 818.485474,744.064209 
	C797.509583,744.010437 776.531250,744.661133 755.555054,745.046387 
	C741.076538,745.312317 726.598694,745.974915 712.122437,745.923706 
	C689.201538,745.842651 666.283142,745.113586 643.362122,745.017578 
	C606.908020,744.864868 570.452576,745.023315 533.997742,745.020752 
	C497.876282,745.018250 461.754333,745.084229 425.633545,744.916382 
	C404.683075,744.819031 383.735199,744.149353 362.784851,744.066101 
	C350.340607,744.016602 337.894958,744.672302 325.447815,744.885010 
	C316.992096,745.029541 308.532410,744.924744 300.074860,744.984497 
	C253.600418,745.313049 207.126495,745.785095 160.651520,745.931641 
	C143.175735,745.986755 125.694191,745.409973 108.223068,744.869324 
	C104.152863,744.743408 99.775322,744.818481 96.216736,742.347839 
	C96.199989,741.799622 96.183235,741.251343 96.166489,740.703125 
	C98.943840,740.146729 101.717598,739.124268 104.499084,739.102783 
	C161.303040,738.663696 218.107559,738.228699 274.912750,738.053589 
	C293.886749,737.995117 312.862885,738.661865 331.838165,738.988953 
	C333.641235,739.020020 335.445282,738.993103 337.559631,738.993103 
	C333.936371,734.079285 334.835083,731.290039 340.020447,729.951782 
	C342.919464,729.203491 345.797546,728.275635 348.745850,727.860046 
	C350.131195,727.664734 351.660034,728.487732 353.123901,728.849243 
	C352.410553,730.199585 352.004303,731.917114 350.920074,732.823975 
	C348.644104,734.727661 346.011780,736.205261 342.485870,738.549011 
	C361.643829,738.549011 379.595642,738.549011 397.547455,738.549011 
	C397.891998,738.203796 398.236572,737.858582 398.581116,737.513367 
	C396.867523,736.151184 394.419189,735.115540 393.631073,733.342041 
	C392.699371,731.245667 393.201538,728.511902 393.082184,726.054443 
	C395.390015,726.738281 397.903748,727.060425 399.940765,728.220032 
	C401.584167,729.155579 403.002136,730.915466 403.916229,732.631348 
	C408.460968,741.162476 415.925751,739.008423 423.004639,738.607117 
	C423.157837,737.808228 423.359833,737.434448 423.259644,737.179382 
	C419.497345,727.601624 420.736908,725.475830 431.465576,723.166565 
	C442.499146,720.791626 449.546326,714.886414 448.315735,707.323181 
	C447.278625,700.949341 444.155548,694.877502 441.651520,688.797302 
	C440.588074,686.215149 438.559845,684.042725 437.345184,681.504578 
	C436.796539,680.358032 437.164062,678.773132 437.115906,677.387085 
	C438.624603,677.371033 440.805206,676.703613 441.528137,677.449341 
	C445.054565,681.086853 449.267181,684.621399 451.257172,689.076782 
	C456.434479,700.668213 456.038757,712.358093 446.909637,722.048340 
	C444.063080,725.069824 439.175049,726.154236 435.248566,728.177734 
	C433.180634,729.243408 431.170807,730.421936 429.134766,731.549561 
	C431.604645,733.988770 433.854797,736.736084 436.645111,738.725952 
	C437.879883,739.606567 440.208191,738.965332 442.040375,738.995056 
	C462.167389,739.321838 482.293732,739.794373 502.421936,739.898926 
	C511.142456,739.944214 519.866943,739.228699 528.589600,738.858765 
	C528.646240,738.410339 528.702820,737.961914 528.759460,737.513550 
	C526.440063,736.968933 524.000000,736.712341 521.832825,735.804443 
	C519.312073,734.748474 516.660522,733.486084 514.796448,731.593567 
	C513.821228,730.603638 514.411682,728.071472 514.295044,726.235840 
	C516.165039,726.129395 518.969910,725.179749 519.755676,726.051086 
	C525.555603,732.482605 534.446899,732.878906 541.105957,737.484558 
	C541.648926,737.860168 542.270874,738.389465 542.858643,738.392639 
	C553.217529,738.448059 563.576782,738.432800 573.936035,738.432800 
	C574.018982,737.985413 574.101929,737.538086 574.184937,737.090698 
	C571.274048,736.383423 568.345886,735.739258 565.457703,734.949036 
	C563.093689,734.302185 560.362427,733.997375 558.579285,732.563965 
	C557.295532,731.532043 557.303650,728.892883 556.735474,726.970642 
	C558.675964,726.531494 561.059082,725.145996 562.482910,725.811768 
	C569.953247,729.305054 577.166016,733.346191 584.505371,737.125000 
	C585.931702,737.859436 587.510376,738.722534 589.038879,738.762695 
	C597.156372,738.976013 605.284729,739.147766 613.400940,738.962524 
	C638.190002,738.396973 662.973877,737.176147 687.762207,737.106506 
	C724.567871,737.003113 761.375183,737.737732 798.182678,737.989563 
	C855.487671,738.381714 912.793274,738.707825 970.098938,738.980347 
	C994.092834,739.094421 1018.088501,739.129150 1042.081787,738.965942 
	C1069.222046,738.781311 1096.360718,738.333801 1124.000000,738.000488 
M1304.036011,681.969727 
	C1294.553101,681.969727 1285.070190,681.969727 1275.587402,681.969727 
	C1275.539917,682.422241 1275.492432,682.874756 1275.445068,683.327271 
	C1281.236328,685.804871 1286.994263,688.367004 1292.849365,690.683167 
	C1293.918945,691.106384 1295.783813,691.004883 1296.596802,690.325806 
	C1299.613037,687.806152 1302.342896,684.943848 1305.423828,682.145386 
	C1305.553711,681.944275 1305.683716,681.743164 1305.813599,681.541992 
	C1305.532227,681.678894 1305.250854,681.815735 1304.036011,681.969727 
M1354.142212,631.280090 
	C1357.801636,632.366455 1361.512817,633.306946 1365.104004,634.585205 
	C1367.983398,635.610107 1369.422852,635.598755 1369.329102,631.817810 
	C1369.226685,627.682068 1369.636230,623.501892 1370.225830,619.398987 
	C1370.417603,618.065247 1371.877197,616.913818 1372.756714,615.678894 
	C1373.779785,616.806702 1375.412354,617.792297 1375.714600,619.088257 
	C1376.733032,623.453003 1377.570068,627.905762 1377.912231,632.368103 
	C1378.185181,635.923950 1379.639648,638.133118 1382.630615,639.963623 
	C1385.433228,641.678894 1388.152100,643.768738 1390.285767,646.232422 
	C1391.255005,647.351624 1391.353027,650.096802 1390.637939,651.479797 
	C1390.201660,652.323608 1387.118164,652.677490 1385.829468,652.035461 
	C1382.125122,650.190186 1378.764771,647.666626 1375.195435,645.532959 
	C1373.604126,644.581665 1371.836060,643.925903 1368.979248,642.588867 
	C1369.311890,646.417664 1369.531250,648.984131 1369.758545,651.549927 
	C1370.271729,657.340759 1367.946533,660.949707 1362.693604,660.796936 
	C1350.850708,660.452698 1341.953613,665.692932 1334.289673,674.084656 
	C1332.802246,675.713257 1330.597778,676.771790 1328.579712,677.813171 
	C1324.221924,680.062073 1318.682861,681.115112 1315.561768,684.461609 
	C1306.355957,694.331970 1295.220459,700.820740 1283.303833,706.629272 
	C1275.675537,710.347656 1268.472046,711.819702 1260.329834,708.701599 
	C1253.511963,706.090576 1246.551270,703.585022 1239.431396,702.097961 
	C1230.274414,700.185547 1226.314819,704.190247 1227.155884,713.562195 
	C1227.341064,715.626465 1228.123657,717.805664 1229.196899,719.592224 
	C1233.580933,726.890503 1240.539917,730.786072 1248.488770,732.771667 
	C1253.950562,734.135986 1259.600830,734.898926 1265.213623,735.476013 
	C1283.301636,737.335510 1301.252197,735.984192 1318.449219,730.180786 
	C1331.825684,725.666687 1344.636353,719.489014 1357.785522,714.270386 
	C1359.516235,713.583496 1361.763916,714.199707 1363.772217,714.212463 
	C1362.729980,715.871033 1362.070801,718.146667 1360.575317,719.074768 
	C1355.697510,722.101868 1350.514526,724.637268 1345.436035,727.368774 
	C1355.710571,731.395203 1366.481689,732.250183 1376.973145,730.665894 
	C1390.937622,728.557251 1400.040039,721.423035 1399.039062,707.281189 
	C1398.793091,703.806091 1398.883057,700.265320 1399.237183,696.797485 
	C1400.354614,685.853577 1393.503296,673.701843 1383.316895,668.994446 
	C1380.747559,667.807190 1378.039185,666.887085 1375.576172,665.517883 
	C1374.429565,664.880493 1373.716187,663.463440 1372.806519,662.399841 
	C1374.121948,661.646362 1375.430542,660.292542 1376.754517,660.277283 
	C1378.841919,660.253174 1381.296509,660.598083 1382.967163,661.721436 
	C1388.286621,665.298584 1393.211304,669.461060 1398.515747,673.062805 
	C1400.302246,674.275757 1403.288086,675.640503 1404.828735,674.945984 
	C1409.916870,672.652710 1413.970581,669.060974 1415.107178,662.972961 
	C1417.400024,650.693054 1416.842651,638.644775 1414.337524,626.370544 
	C1410.577393,607.947205 1401.790649,593.177002 1385.599854,583.433472 
	C1381.182739,580.775269 1375.914673,579.281921 1370.847168,578.011230 
	C1362.939209,576.028320 1355.886353,572.909607 1352.306152,565.175964 
	C1348.339233,556.606995 1347.248901,549.586792 1355.174927,543.700195 
	C1357.853760,541.710693 1358.599609,538.765442 1356.986450,535.666626 
	C1355.224976,532.282898 1352.237305,532.973022 1349.564331,534.051819 
	C1338.334473,538.583923 1326.566040,539.056641 1314.702393,539.011780 
	C1312.834717,539.004700 1310.966431,539.198853 1310.185059,539.241089 
	C1311.221313,544.487793 1312.164673,549.081665 1313.023560,553.691162 
	C1313.449585,555.977234 1313.450439,558.382080 1314.174316,560.556519 
	C1314.542114,561.661499 1315.971680,562.911865 1317.120972,563.155701 
	C1319.662964,563.695129 1323.605469,561.841431 1323.791748,565.956848 
	C1323.850342,567.252686 1319.735962,568.745605 1317.517334,570.125488 
	C1317.244995,570.294861 1316.882568,570.316956 1316.564575,570.415649 
	C1309.759521,572.526611 1307.548218,571.281311 1308.164551,564.352844 
	C1309.003052,554.924805 1307.179443,547.668701 1297.877563,542.924255 
	C1292.774292,540.321289 1293.190308,537.779602 1297.455811,534.131531 
	C1293.788452,531.050171 1289.984741,528.078003 1286.492065,524.776917 
	C1285.502441,523.841431 1285.420166,521.945923 1284.921631,520.490723 
	C1286.584106,520.343689 1288.463013,519.629089 1289.865479,520.163879 
	C1293.112061,521.401611 1296.328003,522.948242 1299.203247,524.891968 
	C1312.114014,533.620117 1326.405762,533.684692 1340.954834,531.602600 
	C1344.675415,531.070190 1348.158569,529.042053 1351.833130,527.987305 
	C1357.244141,526.434021 1361.975342,529.512085 1362.772339,535.087891 
	C1363.533081,540.408752 1362.638672,545.038452 1358.533203,549.282288 
	C1356.689209,551.188477 1356.118408,555.276001 1356.535767,558.145996 
	C1356.931396,560.866211 1359.330811,563.316040 1360.925659,565.836304 
	C1363.997070,570.689880 1367.981689,572.736084 1374.034302,571.472290 
	C1377.016968,570.849548 1380.711426,571.703186 1383.616455,572.964844 
	C1398.839600,579.576355 1408.696533,591.177795 1414.110596,606.771484 
	C1415.850098,611.781616 1417.741089,612.055664 1421.260620,608.105652 
	C1422.137573,607.121460 1422.844482,605.970337 1423.535034,604.838196 
	C1430.112427,594.055603 1428.986694,583.016724 1424.876709,571.736084 
	C1421.424561,562.260803 1413.937012,556.159607 1406.451538,550.553711 
	C1390.821411,538.848328 1378.458374,524.103149 1365.682983,509.642303 
	C1350.988770,493.009460 1334.010864,481.924377 1310.379883,488.961884 
	C1307.031982,489.958923 1303.615234,490.842834 1300.424805,492.227386 
	C1289.989014,496.756104 1281.503174,503.201782 1281.058594,515.780457 
	C1280.924316,519.579590 1282.040283,523.540466 1283.175903,527.245667 
	C1287.068359,539.947083 1290.753418,552.744263 1295.412842,565.169189 
	C1299.967041,577.313538 1316.277344,584.582458 1327.645264,579.678284 
	C1332.214111,577.707336 1335.811035,573.552490 1340.019531,570.636047 
	C1341.300293,569.748535 1343.146851,569.677673 1344.734253,569.232727 
	C1344.679932,571.052856 1345.304443,573.306702 1344.463013,574.624084 
	C1338.137451,584.526306 1324.560547,589.835632 1313.333618,585.995605 
	C1307.425049,583.974731 1304.178223,585.764160 1300.456909,591.001465 
	C1311.730591,590.159912 1313.896484,597.230225 1315.334229,605.699158 
	C1316.750732,614.042175 1319.189331,622.211609 1321.175781,630.458069 
	C1321.769043,632.920715 1322.907837,634.659180 1325.695435,633.077271 
	C1334.611084,628.017883 1343.888672,628.676941 1354.142212,631.280090 
M1223.998779,653.475098 
	C1225.182373,658.314392 1226.205078,663.200195 1227.588257,667.981750 
	C1229.537231,674.719604 1231.292603,676.045227 1238.216187,675.968140 
	C1263.323486,675.688477 1288.429932,675.315735 1313.536499,674.970886 
	C1314.367065,674.959473 1315.444336,675.182556 1315.978394,674.757812 
	C1317.394165,673.632141 1319.612305,672.254150 1319.668823,670.899719 
	C1319.908081,665.160828 1320.394409,659.181641 1319.119141,653.677551 
	C1315.371338,637.501099 1310.642578,621.554260 1306.705444,605.418091 
	C1305.520142,600.559631 1303.132812,598.896545 1298.398560,598.957581 
	C1288.583984,599.084167 1278.760254,599.053711 1268.949585,598.765930 
	C1254.174194,598.332520 1239.410034,597.272278 1224.635132,597.140015 
	C1212.334595,597.029907 1210.424072,599.901550 1213.405762,611.617004 
	C1216.885498,625.290100 1220.413208,638.950989 1223.998779,653.475098 
M1284.602051,695.123535 
	C1270.592529,686.856567 1256.336670,679.449463 1239.196045,681.984253 
	C1238.382446,682.104553 1237.515869,682.115356 1236.707275,681.979492 
	C1232.204712,681.222839 1227.712524,680.405090 1222.120239,679.413879 
	C1214.050903,686.784302 1214.279907,717.655640 1224.253784,723.921631 
	C1223.704834,721.932983 1223.286865,720.391174 1222.853394,718.853760 
	C1218.256958,702.548462 1227.546997,692.344238 1244.065186,695.852051 
	C1248.735962,696.843994 1253.177368,698.893250 1257.748535,700.382263 
	C1267.600586,703.591553 1276.712891,702.553406 1284.602051,695.123535 
M1328.227905,645.278198 
	C1328.698120,644.807983 1329.089111,644.179565 1329.653320,643.896973 
	C1331.382568,643.030945 1333.178223,642.297607 1334.948120,641.512695 
	C1334.576294,643.477539 1334.456543,645.535645 1333.772461,647.384949 
	C1332.793457,650.031677 1331.401978,652.525818 1330.186646,655.085083 
	C1330.595581,655.348450 1331.004517,655.611816 1331.413452,655.875183 
	C1333.366089,654.212341 1335.137817,652.224976 1337.334717,651.000183 
	C1338.810791,650.177246 1340.888672,650.433655 1342.697388,650.207153 
	C1342.516479,651.880737 1342.554199,653.616821 1342.097778,655.211548 
	C1341.564575,657.074402 1340.599976,658.813965 1339.934204,660.349487 
	C1347.432739,658.352295 1354.400146,656.542969 1361.326904,654.589966 
	C1362.145386,654.359131 1363.051880,653.470398 1363.389038,652.665344 
	C1365.109863,648.555481 1360.205811,638.151062 1355.842285,637.381836 
	C1350.158569,636.379822 1344.269409,635.234741 1338.622070,635.769836 
	C1334.487183,636.161560 1330.405273,638.850098 1326.705200,641.163513 
	C1325.385742,641.988403 1325.258911,644.720703 1324.587646,646.582336 
	C1325.033081,646.780273 1325.478516,646.978271 1325.923950,647.176270 
	C1326.553955,646.684204 1327.184082,646.192078 1328.227905,645.278198 
M1353.962646,738.274109 
	C1350.950439,737.356201 1347.792725,736.757690 1344.951904,735.463562 
	C1334.230103,730.579102 1324.463501,733.916504 1314.458130,738.622620 
	C1327.853271,738.622620 1340.925293,738.622620 1353.962646,738.274109 
M1336.578003,664.017944 
	C1336.578003,664.017944 1336.496948,664.047058 1336.578003,664.017944 
M1227.017944,726.421936 
	C1227.017944,726.421936 1227.047119,726.502808 1227.017944,726.421936 
z"/>
<path fill="#2D1909" opacity="1.000000" stroke="none" 
	d="
M436.634521,647.101074 
	C418.440491,644.199829 408.944855,648.906921 401.068634,664.974548 
	C396.475220,674.345276 393.057434,684.357727 387.821045,693.328674 
	C382.932251,701.704163 376.876312,709.575439 370.325439,716.747437 
	C365.117493,722.449158 355.892548,718.578979 355.273285,710.550415 
	C354.626312,702.162476 354.353638,693.572510 355.414246,685.261902 
	C357.635345,667.857971 353.652618,668.894592 338.870819,668.357849 
	C330.344025,668.048157 323.383148,677.976990 324.636963,686.549744 
	C324.998260,689.020142 325.590515,691.499390 325.559662,693.968079 
	C325.541992,695.380310 324.482697,696.779541 323.892365,698.184631 
	C322.592499,697.359802 320.865875,696.827637 320.065338,695.660339 
	C316.230988,690.069153 317.725006,676.007751 322.459808,671.126282 
	C330.317688,663.024963 343.351868,660.501709 353.851379,665.026733 
	C358.421814,666.996521 361.035400,670.245361 360.972687,675.411682 
	C360.920074,679.743103 360.728851,684.095581 361.059265,688.403442 
	C361.552277,694.830872 362.384521,701.235718 363.207581,707.632751 
	C363.537476,710.196777 365.324585,711.359741 367.435211,709.743469 
	C369.875580,707.874756 372.483795,705.708496 373.870026,703.068115 
	C380.367310,690.692871 386.293396,678.018127 392.769470,665.631226 
	C397.707764,656.185608 404.246704,648.263550 414.437897,643.702881 
	C426.804810,638.168518 443.865295,640.620422 453.584045,650.130249 
	C461.797424,658.167053 469.854858,666.363159 477.983704,674.486389 
	C482.543701,679.043213 483.498566,678.851196 487.619812,673.682556 
	C491.140961,669.266479 494.942383,665.070007 498.709564,660.856628 
	C499.692047,659.757812 500.879974,658.480286 502.200317,658.123047 
	C504.779144,657.425354 508.289429,656.149414 509.990051,657.271301 
	C511.999725,658.597168 513.380737,662.170654 513.488220,664.832153 
	C513.763000,671.642395 513.683899,671.502502 520.213745,672.082092 
	C528.414978,672.810120 535.537598,670.158142 542.671448,666.733704 
	C547.779968,664.281494 550.361450,665.626831 550.895935,671.176514 
	C551.338013,675.767822 551.200806,680.473877 550.746216,685.072266 
	C550.428894,688.281921 550.957520,690.433960 553.858459,692.181152 
	C554.894897,692.805359 555.122620,694.772461 555.719421,696.126587 
	C554.235168,696.571838 552.667664,697.569214 551.281982,697.360229 
	C546.837769,696.690125 543.925110,694.190369 544.100586,689.318359 
	C544.250061,685.168945 544.744934,681.032715 544.924927,676.883606 
	C545.072754,673.473999 543.515747,672.022888 540.325500,673.904846 
	C531.769958,678.951843 522.458008,676.694153 513.426208,676.735107 
	C509.414429,676.753357 507.077789,674.201111 507.018188,669.930908 
	C507.000702,668.677063 506.702454,667.427124 506.367035,664.950928 
	C503.019379,668.617737 500.355377,671.487671 497.745209,674.405701 
	C493.629272,679.007080 489.780945,684.220459 482.716217,683.820679 
	C480.417664,683.690613 477.617065,682.827881 476.034424,681.285889 
	C468.538452,673.982544 461.275208,666.429749 454.146362,658.763733 
	C449.297699,653.549744 444.100433,649.039246 436.634521,647.101074 
z"/>
<path fill="#2D1909" opacity="1.000000" stroke="none" 
	d="
M334.624268,720.027344 
	C337.922729,722.145691 337.639343,724.219727 334.276154,724.639709 
	C330.570587,725.102417 326.584137,724.957886 322.996307,724.020508 
	C321.233765,723.559937 320.095276,720.710876 318.674377,718.942749 
	C320.760376,718.153870 322.952911,716.520447 324.908234,716.767212 
	C328.118561,717.172302 331.174988,718.797119 334.624268,720.027344 
z"/>
<path fill="#2D1909" opacity="1.000000" stroke="none" 
	d="
M556.133179,710.113281 
	C553.318298,709.315186 550.620972,708.940491 548.533569,707.609497 
	C547.501709,706.951538 546.747070,703.843567 547.376221,703.067200 
	C548.326416,701.894714 550.862488,700.962219 552.250793,701.406860 
	C555.162598,702.339355 557.859680,704.094116 560.445129,705.812012 
	C561.360168,706.419983 561.693726,707.903015 562.292725,708.986633 
	C561.018860,709.459900 559.768738,710.024414 558.460388,710.365173 
	C557.867249,710.519653 557.158508,710.230286 556.133179,710.113281 
z"/>
<path fill="#2D1909" opacity="1.000000" stroke="none" 
	d="
M493.459473,716.650391 
	C489.922302,720.104736 485.920746,720.571289 481.750061,719.456909 
	C480.556732,719.138000 479.208252,717.852356 478.809387,716.704590 
	C478.580383,716.045776 479.937958,714.162170 480.887878,713.886597 
	C484.477936,712.844910 488.184387,711.703674 491.865082,711.640869 
	C494.579071,711.594543 495.051666,714.011108 493.459473,716.650391 
z"/>
<path fill="#2D1909" opacity="1.000000" stroke="none" 
	d="
M319.186035,708.370361 
	C317.341614,705.991943 315.378235,703.789673 318.478210,701.375000 
	C321.310303,699.169067 323.679688,700.747498 325.253296,702.998962 
	C326.834198,705.260803 327.737915,707.995972 328.938354,710.523682 
	C326.345490,710.186646 323.745789,709.892334 321.164642,709.481567 
	C320.550110,709.383789 319.997528,708.896484 319.186035,708.370361 
z"/>
<path fill="#2D1909" opacity="1.000000" stroke="none" 
	d="
M484.392212,696.553894 
	C487.125671,697.750549 489.722626,699.336243 487.873688,702.083862 
	C486.889191,703.546814 483.687073,704.512146 481.806732,704.128662 
	C479.396362,703.637207 477.308899,701.562195 475.082275,700.169495 
	C477.251953,698.950989 479.383820,697.655396 481.614441,696.561035 
	C482.280426,696.234314 483.222931,696.471130 484.392212,696.553894 
z"/>
<path fill="#2D1909" opacity="1.000000" stroke="none" 
	d="
M542.532837,717.844971 
	C543.212524,718.307068 543.784058,718.520203 543.970642,718.915161 
	C544.919373,720.924072 545.768433,722.980042 546.652405,725.019531 
	C543.822510,724.786743 540.890381,724.899109 538.225403,724.109680 
	C537.431763,723.874573 536.558777,720.357422 537.182556,719.670654 
	C538.276001,718.466858 540.497925,718.288025 542.532837,717.844971 
z"/>
<path fill="#000000" opacity="1.000000" stroke="none" 
	d="
M1353.727295,631.203308 
	C1343.888672,628.676941 1334.611084,628.017883 1325.695435,633.077271 
	C1322.907837,634.659180 1321.769043,632.920715 1321.175781,630.458069 
	C1319.189331,622.211609 1316.750732,614.042175 1315.334229,605.699158 
	C1313.896484,597.230225 1311.730591,590.159912 1300.456909,591.001465 
	C1304.178223,585.764160 1307.425049,583.974731 1313.333618,585.995605 
	C1324.560547,589.835632 1338.137451,584.526306 1344.463013,574.624084 
	C1345.304443,573.306702 1344.679932,571.052856 1344.734253,569.232788 
	C1343.146851,569.677673 1341.300293,569.748535 1340.019531,570.636047 
	C1335.811035,573.552490 1332.214111,577.707336 1327.645264,579.678284 
	C1316.277344,584.582458 1299.967041,577.313538 1295.412842,565.169189 
	C1290.753418,552.744263 1287.068359,539.947083 1283.175903,527.245667 
	C1282.040283,523.540466 1280.924316,519.579590 1281.058594,515.780457 
	C1281.503174,503.201782 1289.989014,496.756104 1300.424805,492.227386 
	C1303.615234,490.842834 1307.031982,489.958923 1310.379883,488.961884 
	C1334.010864,481.924377 1350.988770,493.009460 1365.682983,509.642303 
	C1378.458374,524.103149 1390.821411,538.848328 1406.451538,550.553711 
	C1413.937012,556.159607 1421.424561,562.260803 1424.876709,571.736084 
	C1428.986694,583.016724 1430.112427,594.055603 1423.535034,604.838196 
	C1422.844482,605.970337 1422.137573,607.121460 1421.260620,608.105652 
	C1417.741089,612.055664 1415.850098,611.781616 1414.110596,606.771484 
	C1408.696533,591.177795 1398.839600,579.576355 1383.616455,572.964844 
	C1380.711426,571.703186 1377.016968,570.849548 1374.034302,571.472290 
	C1367.981689,572.736084 1363.997070,570.689880 1360.925659,565.836304 
	C1359.330811,563.316040 1356.931396,560.866211 1356.535767,558.145996 
	C1356.118408,555.276001 1356.689209,551.188477 1358.533203,549.282288 
	C1362.638672,545.038452 1363.533081,540.408752 1362.772339,535.087891 
	C1361.975342,529.512085 1357.244141,526.434021 1351.833130,527.987305 
	C1348.158569,529.042053 1344.675415,531.070190 1340.954834,531.602600 
	C1326.405762,533.684692 1312.114014,533.620117 1299.203247,524.891968 
	C1296.328003,522.948242 1293.112061,521.401611 1289.865479,520.163879 
	C1288.463013,519.629089 1286.584106,520.343689 1284.921631,520.490723 
	C1285.420166,521.945923 1285.502441,523.841431 1286.492065,524.776917 
	C1289.984741,528.078003 1293.788452,531.050171 1297.455811,534.131531 
	C1293.190308,537.779602 1292.774292,540.321289 1297.877563,542.924255 
	C1307.179443,547.668701 1309.003052,554.924805 1308.164551,564.352844 
	C1307.548218,571.281311 1309.759521,572.526611 1316.564575,570.415649 
	C1316.882568,570.316956 1317.244995,570.294861 1317.517334,570.125488 
	C1319.735962,568.745605 1323.850342,567.252686 1323.791748,565.956848 
	C1323.605469,561.841431 1319.662964,563.695129 1317.120972,563.155701 
	C1315.971680,562.911865 1314.542114,561.661499 1314.174316,560.556519 
	C1313.450439,558.382080 1313.449585,555.977234 1313.023560,553.691162 
	C1312.164673,549.081665 1311.221313,544.487793 1310.185059,539.241089 
	C1310.966431,539.198853 1312.834717,539.004700 1314.702393,539.011780 
	C1326.566040,539.056641 1338.334473,538.583923 1349.564331,534.051819 
	C1352.237305,532.973022 1355.224976,532.282898 1356.986450,535.666626 
	C1358.599609,538.765442 1357.853760,541.710693 1355.174927,543.700195 
	C1347.248901,549.586792 1348.339233,556.606995 1352.306152,565.175964 
	C1355.886353,572.909607 1362.939209,576.028320 1370.847168,578.011230 
	C1375.914673,579.281921 1381.182739,580.775269 1385.599854,583.433472 
	C1401.790649,593.177002 1410.577393,607.947205 1414.337524,626.370544 
	C1416.842651,638.644775 1417.400024,650.693054 1415.107178,662.972961 
	C1413.970581,669.060974 1409.916870,672.652710 1404.828735,674.945984 
	C1403.288086,675.640503 1400.302246,674.275757 1398.515747,673.062805 
	C1393.211304,669.461060 1388.286621,665.298584 1382.967163,661.721436 
	C1381.296509,660.598083 1378.841919,660.253174 1376.754517,660.277283 
	C1375.430542,660.292542 1374.121948,661.646362 1372.806519,662.399841 
	C1373.716187,663.463440 1374.429565,664.880493 1375.576172,665.517883 
	C1378.039185,666.887085 1380.747559,667.807190 1383.316895,668.994446 
	C1393.503296,673.701843 1400.354614,685.853577 1399.237183,696.797485 
	C1398.883057,700.265320 1398.793091,703.806091 1399.039062,707.281189 
	C1400.040039,721.423035 1390.937622,728.557251 1376.973145,730.665894 
	C1366.481689,732.250183 1355.710571,731.395203 1345.436035,727.368774 
	C1350.514526,724.637268 1355.697510,722.101868 1360.575317,719.074768 
	C1362.070801,718.146667 1362.729980,715.871033 1363.772217,714.212463 
	C1361.763916,714.199707 1359.516235,713.583496 1357.785522,714.270386 
	C1344.636353,719.489014 1331.825684,725.666687 1318.449219,730.180786 
	C1301.252197,735.984192 1283.301636,737.335510 1265.213623,735.476013 
	C1259.600830,734.898926 1253.950562,734.135986 1248.488770,732.771667 
	C1240.539917,730.786072 1233.580933,726.890503 1229.196899,719.592224 
	C1228.123657,717.805664 1227.341064,715.626465 1227.155884,713.562195 
	C1226.314819,704.190247 1230.274414,700.185547 1239.431396,702.097961 
	C1246.551270,703.585022 1253.511963,706.090576 1260.329834,708.701599 
	C1268.472046,711.819702 1275.675537,710.347656 1283.303833,706.629272 
	C1295.220459,700.820740 1306.355957,694.331970 1315.561768,684.461609 
	C1318.682861,681.115112 1324.221924,680.062073 1328.579712,677.813171 
	C1330.597778,676.771790 1332.802246,675.713257 1334.289673,674.084656 
	C1341.953613,665.692932 1350.850708,660.452698 1362.693604,660.796936 
	C1367.946533,660.949707 1370.271729,657.340759 1369.758545,651.549927 
	C1369.531250,648.984131 1369.311890,646.417664 1368.979248,642.588867 
	C1371.836060,643.925903 1373.604126,644.581665 1375.195435,645.532959 
	C1378.764771,647.666626 1382.125122,650.190186 1385.829468,652.035461 
	C1387.118164,652.677490 1390.201660,652.323608 1390.637939,651.479797 
	C1391.353027,650.096802 1391.255005,647.351624 1390.285767,646.232422 
	C1388.152100,643.768738 1385.433228,641.678894 1382.630615,639.963623 
	C1379.639648,638.133118 1378.185181,635.923950 1377.912231,632.368103 
	C1377.570068,627.905762 1376.733032,623.453003 1375.714600,619.088257 
	C1375.412354,617.792297 1373.779785,616.806702 1372.756836,615.678955 
	C1371.877197,616.913818 1370.417603,618.065247 1370.225830,619.398987 
	C1369.636230,623.501892 1369.226685,627.682068 1369.329102,631.817810 
	C1369.422852,635.598755 1367.983398,635.610107 1365.104004,634.585205 
	C1361.512817,633.306946 1357.801636,632.366455 1353.727295,631.203308 
z"/>
<path fill="#000000" opacity="1.000000" stroke="none" 
	d="
M1223.959473,653.046143 
	C1220.413208,638.950989 1216.885498,625.290100 1213.405762,611.617004 
	C1210.424072,599.901550 1212.334595,597.029907 1224.635132,597.140015 
	C1239.410034,597.272278 1254.174194,598.332520 1268.949585,598.765930 
	C1278.760254,599.053711 1288.583984,599.084167 1298.398560,598.957581 
	C1303.132812,598.896545 1305.520142,600.559631 1306.705444,605.418091 
	C1310.642578,621.554260 1315.371338,637.501099 1319.119141,653.677551 
	C1320.394409,659.181641 1319.908081,665.160828 1319.668823,670.899719 
	C1319.612305,672.254150 1317.394165,673.632141 1315.978394,674.757812 
	C1315.444336,675.182556 1314.367065,674.959473 1313.536499,674.970886 
	C1288.429932,675.315735 1263.323486,675.688477 1238.216187,675.968140 
	C1231.292603,676.045227 1229.537231,674.719604 1227.588257,667.981750 
	C1226.205078,663.200195 1225.182373,658.314392 1223.959473,653.046143 
M1257.738037,629.883850 
	C1252.334229,634.206665 1250.862671,641.258545 1254.014771,647.726807 
	C1256.887817,653.622437 1259.500366,654.660034 1267.267334,653.054932 
	C1268.068970,652.889282 1268.917969,652.959351 1269.743774,652.902588 
	C1277.786499,652.350098 1281.295776,646.138000 1277.405762,639.344055 
	C1281.130371,633.524048 1279.214966,629.487488 1272.308350,629.197449 
	C1267.704102,629.004028 1263.074219,629.421143 1257.738037,629.883850 
M1270.309204,618.207947 
	C1269.339722,618.346436 1267.923828,618.131775 1267.483154,618.688782 
	C1266.091064,620.448059 1264.644775,622.392090 1264.123413,624.489380 
	C1263.941040,625.222595 1267.015991,627.773071 1267.521240,627.499023 
	C1269.964233,626.173645 1272.133057,624.260193 1274.079834,622.246643 
	C1274.251099,622.069580 1272.113403,619.660034 1270.309204,618.207947 
z"/>
<path fill="#000000" opacity="1.000000" stroke="none" 
	d="
M1284.670044,695.328003 
	C1276.712891,702.553406 1267.600586,703.591553 1257.748535,700.382263 
	C1253.177368,698.893250 1248.735962,696.843994 1244.065186,695.852051 
	C1227.546997,692.344238 1218.256958,702.548462 1222.853394,718.853760 
	C1223.286865,720.391174 1223.704834,721.932983 1224.253784,723.921631 
	C1214.279907,717.655640 1214.050903,686.784302 1222.120239,679.413879 
	C1227.712524,680.405090 1232.204712,681.222839 1236.707275,681.979492 
	C1237.515869,682.115356 1238.382446,682.104553 1239.196045,681.984253 
	C1256.336670,679.449463 1270.592529,686.856567 1284.670044,695.328003 
z"/>
<path fill="#000000" opacity="1.000000" stroke="none" 
	d="
M1328.020996,645.489136 
	C1327.184082,646.192078 1326.553955,646.684204 1325.923950,647.176270 
	C1325.478516,646.978271 1325.033081,646.780273 1324.587646,646.582336 
	C1325.258911,644.720703 1325.385742,641.988403 1326.705200,641.163513 
	C1330.405273,638.850098 1334.487183,636.161560 1338.622070,635.769836 
	C1344.269409,635.234741 1350.158569,636.379822 1355.842285,637.381836 
	C1360.205811,638.151062 1365.109863,648.555481 1363.389038,652.665344 
	C1363.051880,653.470398 1362.145386,654.359131 1361.326904,654.589966 
	C1354.400146,656.542969 1347.432739,658.352295 1339.934204,660.349487 
	C1340.599976,658.813965 1341.564575,657.074402 1342.097778,655.211548 
	C1342.554199,653.616821 1342.516479,651.880737 1342.697388,650.207153 
	C1340.888672,650.433655 1338.810791,650.177246 1337.334717,651.000183 
	C1335.137817,652.224976 1333.366089,654.212341 1331.413452,655.875183 
	C1331.004517,655.611816 1330.595581,655.348450 1330.186646,655.085083 
	C1331.401978,652.525818 1332.793457,650.031677 1333.772461,647.384949 
	C1334.456543,645.535645 1334.576294,643.477539 1334.948120,641.512695 
	C1333.178223,642.297607 1331.382568,643.030945 1329.653320,643.896973 
	C1329.089111,644.179565 1328.698120,644.807983 1328.020996,645.489136 
z"/>
<path fill="#000000" opacity="1.000000" stroke="none" 
	d="
M1305.180420,682.210266 
	C1302.342896,684.943848 1299.613037,687.806152 1296.596802,690.325806 
	C1295.783813,691.004883 1293.918945,691.106384 1292.849365,690.683167 
	C1286.994263,688.367004 1281.236328,685.804871 1275.445068,683.327271 
	C1275.492432,682.874756 1275.539917,682.422241 1275.587402,681.969727 
	C1285.070190,681.969727 1294.553101,681.969727 1304.555420,682.025635 
	C1305.074951,682.081482 1305.180420,682.210266 1305.180420,682.210266 
z"/>
<path fill="#000000" opacity="1.000000" stroke="none" 
	d="
M1353.979980,738.448364 
	C1340.925293,738.622620 1327.853271,738.622620 1314.458130,738.622620 
	C1324.463501,733.916504 1334.230103,730.579102 1344.951904,735.463562 
	C1347.792725,736.757690 1350.950439,737.356201 1353.979980,738.448364 
z"/>
<path fill="#000000" opacity="1.000000" stroke="none" 
	d="
M1305.022217,682.017090 
	C1305.250854,681.815735 1305.532227,681.678894 1305.813599,681.541992 
	C1305.683716,681.743164 1305.553711,681.944275 1305.302124,682.177856 
	C1305.180420,682.210266 1305.074951,682.081482 1305.022217,682.017090 
z"/>
<path fill="#000000" opacity="1.000000" stroke="none" 
	d="
M1336.537476,664.032471 
	C1336.496948,664.047058 1336.578003,664.017944 1336.537476,664.032471 
z"/>
<path fill="#000000" opacity="1.000000" stroke="none" 
	d="
M1227.032471,726.462402 
	C1227.047119,726.502808 1227.017944,726.421936 1227.032471,726.462402 
z"/>
<path fill="#2D1909" opacity="1.000000" stroke="none" 
	d="
M1258.096924,629.724426 
	C1263.074219,629.421143 1267.704102,629.004028 1272.308350,629.197449 
	C1279.214966,629.487488 1281.130371,633.524048 1277.405762,639.344055 
	C1281.295776,646.138000 1277.786499,652.350098 1269.743774,652.902588 
	C1268.917969,652.959351 1268.068970,652.889282 1267.267334,653.054932 
	C1259.500366,654.660034 1256.887817,653.622437 1254.014771,647.726807 
	C1250.862671,641.258545 1252.334229,634.206665 1258.096924,629.724426 
z"/>
<path fill="#2D1909" opacity="1.000000" stroke="none" 
	d="
M1270.678711,618.247681 
	C1272.113403,619.660034 1274.251099,622.069580 1274.079834,622.246643 
	C1272.133057,624.260193 1269.964233,626.173645 1267.521240,627.499023 
	C1267.015991,627.773071 1263.941040,625.222595 1264.123413,624.489380 
	C1264.644775,622.392090 1266.091064,620.448059 1267.483154,618.688782 
	C1267.923828,618.131775 1269.339722,618.346436 1270.678711,618.247681 
z"/>
</svg>