<svg version="1.1" id="Layer_1" xmlns="http://www.w3.org/2000/svg" xmlns:xlink="http://www.w3.org/1999/xlink" x="0px" y="0px"
	 width="100%" viewBox="0 0 1694 820" enable-background="new 0 0 1694 820" xml:space="preserve">
<path fill="none" opacity="1.000000" stroke="none" 
	d="
M1688.051270,821.000000 
	C1125.375977,821.000000 563.211670,821.000000 1.023660,821.000000 
	C1.023660,547.683594 1.023660,274.367157 1.023660,1.025371 
	C565.647400,1.025371 1130.294800,1.025371 1694.971069,1.025371 
	C1694.971069,274.312927 1694.971069,547.625854 1694.971069,821.000000 
	C1692.854126,821.000000 1690.708130,821.000000 1688.051270,821.000000 
M1377.004883,737.986206 
	C1390.298096,737.080444 1403.115967,724.574524 1403.964233,711.418457 
	C1404.488403,703.287842 1404.535889,695.126526 1405.053223,686.995361 
	C1405.163574,685.260071 1405.912964,682.679993 1407.161987,682.040894 
	C1418.483154,676.248047 1421.761963,666.277283 1421.961182,654.630554 
	C1422.143188,643.986084 1422.662476,633.308777 1418.603882,623.072388 
	C1417.742554,620.899658 1416.976440,618.602844 1420.131836,616.676636 
	C1431.361694,609.821289 1435.600220,599.226196 1434.711792,586.510437 
	C1433.614746,570.807251 1426.367920,558.474304 1413.775635,548.981750 
	C1406.746460,543.682800 1399.800537,538.127686 1393.596924,531.909851 
	C1381.379883,519.664795 1369.937134,506.646973 1357.712769,494.409576 
	C1351.372314,488.062256 1344.010986,483.097992 1334.860962,480.765106 
	C1318.900879,476.695892 1304.484985,480.463257 1290.658569,488.028900 
	C1278.120605,494.889618 1272.835693,507.085144 1275.893311,520.931763 
	C1276.174561,522.205688 1276.315186,523.574707 1276.185425,524.865784 
	C1274.239258,544.229614 1284.860352,558.917786 1294.833130,573.611511 
	C1298.631104,579.207153 1299.478760,578.622498 1294.858398,583.934204 
	C1294.314575,584.559509 1293.766357,585.225952 1293.413574,585.965576 
	C1290.987549,591.050964 1286.869385,592.163391 1281.510742,592.098389 
	C1261.848999,591.859680 1242.180420,591.864746 1222.518066,592.090576 
	C1209.751221,592.237244 1205.101318,597.958252 1207.882812,610.322998 
	C1212.006714,628.654907 1216.734863,646.850647 1220.885986,665.176819 
	C1221.470581,667.758057 1221.262573,671.653381 1219.700317,673.407837 
	C1206.524658,688.203857 1205.353516,704.576294 1212.302490,722.278809 
	C1215.419312,730.218689 1222.885742,733.797729 1231.082764,731.448669 
	C1231.938477,731.203491 1233.137207,731.202332 1233.863403,731.625549 
	C1236.827271,733.352722 1239.669067,735.288757 1243.340332,737.653076 
	C1240.964233,737.794617 1239.524658,737.948242 1238.084351,737.956360 
	C1174.946289,738.312622 1111.808472,738.735168 1048.670044,738.972229 
	C1008.177612,739.124207 967.683594,739.129272 927.191223,738.964844 
	C884.216797,738.790344 841.243225,738.358582 798.269653,738.000000 
	C761.462280,737.692871 724.654663,737.025696 687.848450,737.106323 
	C665.726624,737.154785 643.610413,738.491089 621.485291,738.922852 
	C612.352783,739.101135 603.204163,738.229309 594.061768,738.199707 
	C586.585144,738.175476 579.106506,738.685608 571.629272,738.972961 
	C568.335938,739.099548 566.438110,737.846191 565.690002,734.348938 
	C565.111877,731.646362 563.935852,728.903076 562.347839,726.657043 
	C561.567444,725.553162 558.940186,724.761353 557.715881,725.249939 
	C556.537170,725.720215 555.250000,728.179321 555.494019,729.488037 
	C556.017700,732.297058 557.496887,734.927979 558.671753,737.847717 
	C558.163879,738.139709 557.618774,738.724182 557.068970,738.728638 
	C548.242737,738.800293 539.410706,738.946289 530.595947,738.629395 
	C529.463928,738.588684 528.179199,736.180359 527.391113,734.649475 
	C526.011414,731.969421 525.393494,728.801636 523.648804,726.432983 
	C522.018494,724.219543 518.806213,721.997375 516.577087,724.939209 
	C515.482483,726.383789 516.866577,729.949768 517.569946,732.430603 
	C518.063904,734.172852 519.302612,735.703979 520.208801,737.329346 
	C518.306641,738.172607 516.471069,739.282654 514.482300,739.778564 
	C512.746582,740.211487 510.836884,740.024841 509.006561,739.988098 
	C492.878662,739.663879 476.748322,739.405273 460.626312,738.889404 
	C457.422211,738.786804 452.482178,740.798767 451.640503,736.347412 
	C451.230286,734.177856 455.228058,731.180359 457.219818,728.549561 
	C459.366882,725.713684 462.861389,723.108704 463.413025,719.986877 
	C466.245758,703.955444 459.621368,693.875183 444.532776,687.389465 
	C443.274872,686.848694 441.336365,687.891357 439.714081,688.198425 
	C440.158813,689.667969 440.159729,691.603638 441.126862,692.524475 
	C444.852783,696.072144 448.924347,699.253418 452.799469,702.648438 
	C459.947571,708.910583 461.991455,718.850464 453.879547,724.300903 
	C451.128204,726.149597 448.224609,727.848083 445.207092,729.208130 
	C439.072021,731.973389 438.903412,732.105408 441.203827,738.995056 
	C438.701569,738.995056 436.421234,739.007385 434.140991,738.993286 
	C379.002350,738.653320 323.863861,738.291321 268.725037,737.981506 
	C254.726807,737.902832 240.727097,737.910339 226.729065,738.013184 
	C186.422058,738.309448 146.115189,738.640991 105.809540,739.075867 
	C102.587265,739.110657 99.374718,740.046021 96.157646,740.562866 
	C96.152534,741.431396 96.147430,742.299988 96.142319,743.168579 
	C100.231537,743.764771 104.311028,744.792786 108.411606,744.885193 
	C130.551651,745.384277 152.696960,745.927185 174.840363,745.923706 
	C198.817184,745.919983 222.792969,745.201843 246.770889,745.034363 
	C272.726105,744.853088 298.683838,745.042236 324.639313,744.882507 
	C337.752991,744.801880 350.865112,744.020752 363.976135,744.066345 
	C384.593292,744.138062 405.208038,744.823669 425.825348,744.920349 
	C461.779755,745.088928 497.735352,745.024658 533.690430,745.025513 
	C570.145569,745.026306 606.601196,744.859436 643.055603,745.012390 
	C666.643372,745.111328 690.228455,745.835144 713.816162,745.927307 
	C727.792358,745.981873 741.770203,745.292358 755.749207,745.044739 
	C778.058594,744.649475 800.370361,744.014404 822.679688,744.066467 
	C873.321472,744.184692 923.962219,744.671997 974.603516,744.986145 
	C1031.077271,745.336548 1087.550903,745.700073 1144.025146,745.976501 
	C1164.022217,746.074341 1184.023438,746.145386 1204.017212,745.848877 
	C1232.476074,745.426941 1260.927612,744.490662 1289.386719,744.106079 
	C1302.320312,743.931335 1315.265137,744.777161 1328.204102,744.754883 
	C1344.156738,744.727417 1360.108643,744.078552 1376.060791,744.075806 
	C1388.038818,744.073730 1400.015869,744.910767 1411.994873,744.950500 
	C1449.449463,745.074890 1486.904785,744.998840 1524.359741,744.999390 
	C1550.524048,744.999756 1576.688477,745.048096 1602.852417,744.951538 
	C1607.495483,744.934387 1612.147217,744.409546 1616.772217,743.908569 
	C1618.187256,743.755249 1619.526367,742.899536 1620.900269,742.365540 
	C1620.882568,741.906372 1620.864990,741.447266 1620.847290,740.988159 
	C1619.204956,740.425964 1617.579956,739.436890 1615.917603,739.369690 
	C1603.286377,738.859192 1590.649780,738.350647 1578.010742,738.210205 
	C1570.536987,738.127075 1563.058228,738.852661 1555.577759,738.975220 
	C1531.603027,739.368164 1507.627197,739.804077 1483.650513,739.907349 
	C1472.024048,739.957458 1460.396118,739.086792 1448.766479,739.013916 
	C1425.602905,738.868713 1402.437622,738.986938 1379.273071,738.996033 
	C1377.503052,738.996765 1375.733154,738.996094 1373.963135,738.996094 
	C1373.956543,738.733093 1373.949951,738.470093 1373.943359,738.207031 
	C1374.736938,738.138245 1375.530640,738.069458 1377.004883,737.986206 
M525.818604,670.513123 
	C520.740845,671.575439 515.642456,673.459473 510.594635,673.332458 
	C508.281158,673.274231 506.306091,668.917969 503.741272,667.140381 
	C501.145538,665.341553 498.009857,663.330872 495.112762,663.334045 
	C493.406006,663.335876 491.146057,666.833923 490.138550,669.189026 
	C488.852997,672.194092 488.755585,675.685425 487.798462,678.862366 
	C487.312622,680.475098 486.309540,682.761597 485.091919,683.092224 
	C483.858398,683.427063 481.659424,682.083984 480.594177,680.858154 
	C473.211456,672.362244 465.005768,665.321045 454.327454,660.881897 
	C443.036957,656.188232 431.724365,655.881042 420.975922,660.292969 
	C402.006500,668.079407 388.430908,682.291931 378.417603,700.050354 
	C376.220886,703.946106 373.744507,707.741516 370.927002,711.200317 
	C369.870483,712.497314 367.201630,713.590759 365.773468,713.147644 
	C364.472504,712.743958 363.647888,710.210144 363.010193,708.469727 
	C362.573730,707.278625 362.803741,705.838501 362.760406,704.508911 
	C362.478882,695.866943 362.220001,687.224182 361.920776,678.582886 
	C361.752930,673.736572 359.325470,670.774536 354.452209,670.098572 
	C351.160919,669.641968 347.849304,669.120728 344.538452,669.056458 
	C334.961945,668.870422 325.789795,674.877502 322.286316,683.752136 
	C321.404541,685.985657 321.256470,688.605286 321.262939,691.046143 
	C321.265594,692.042114 322.483002,693.734741 323.315521,693.845154 
	C324.277893,693.972778 325.609009,692.875854 326.432007,691.988037 
	C327.048553,691.322937 327.132690,690.152832 327.422516,689.198059 
	C330.822144,677.997803 338.203247,673.284363 349.925812,674.835022 
	C357.001892,675.771057 357.212677,676.593262 356.374878,683.907593 
	C355.416290,692.276367 355.122742,700.731445 354.797729,709.158936 
	C354.598389,714.329346 357.701324,717.636169 362.257050,719.284912 
	C367.071014,721.027283 371.690887,719.748962 375.120667,716.128052 
	C377.939606,713.152100 380.660980,709.766174 382.321259,706.066284 
	C388.800415,691.627991 399.403900,680.767822 411.636047,671.313232 
	C425.757812,660.397949 440.846069,659.853638 455.457031,670.123413 
	C462.911041,675.362732 469.391174,681.976624 476.775635,687.328857 
	C485.653168,693.763123 492.579254,690.541626 494.197693,679.922302 
	C494.710999,676.554260 495.693970,673.257812 496.676544,668.998657 
	C498.490570,670.627930 499.357269,671.047791 499.639984,671.715088 
	C502.862488,679.321228 509.162750,679.461853 515.989075,678.740601 
	C522.020691,678.103394 527.732178,677.314453 531.846558,671.894043 
	C534.034058,669.012268 536.297119,669.529968 537.330383,673.443787 
	C538.689514,678.591797 540.157532,683.724487 541.893677,688.755127 
	C543.208618,692.565308 548.196777,695.299133 551.940796,694.430725 
	C553.076294,694.167358 554.244934,693.172913 554.918274,692.185913 
	C555.221375,691.741577 554.547302,689.894775 553.975098,689.702881 
	C548.310059,687.803284 549.027527,682.375793 547.455200,678.247070 
	C545.860840,674.060547 544.548340,669.760315 542.815674,665.634460 
	C540.808350,660.854736 536.802979,659.776611 532.792236,663.054443 
	C530.371277,665.033203 528.463257,667.639465 525.818604,670.513123 
M330.852539,724.919617 
	C331.517456,724.924011 332.260071,725.122925 332.831909,724.894409 
	C334.240204,724.331665 335.570068,723.572510 336.931488,722.892334 
	C335.864868,721.827942 334.953033,720.504883 333.698639,719.754395 
	C331.282135,718.308716 328.778412,716.623108 326.106476,716.118042 
	C324.147186,715.747681 321.861816,717.102173 319.721741,717.687927 
	C320.724457,719.700684 321.234192,722.470764 322.858765,723.528259 
	C324.749725,724.759216 327.616608,724.491089 330.852539,724.919617 
M334.956116,732.257141 
	C334.724762,736.466553 337.009644,738.774536 341.198425,737.611755 
	C344.645142,736.654785 347.846222,734.686707 350.997803,732.889099 
	C351.710907,732.482422 352.285858,730.723145 351.984528,729.955444 
	C351.672913,729.161682 350.097717,728.214050 349.281677,728.375671 
	C344.619385,729.299377 340.018677,730.533752 334.956116,732.257141 
M327.837891,711.553528 
	C331.671173,711.716003 332.440918,710.038635 330.341888,707.045593 
	C328.822693,704.879395 327.160919,702.758423 325.263367,700.927551 
	C323.360382,699.091309 320.525208,696.805176 318.607849,699.855835 
	C317.602722,701.455078 318.533844,705.334351 319.943756,707.108582 
	C321.560730,709.143433 324.676910,709.986816 327.837891,711.553528 
M553.817017,697.643738 
	C552.661865,698.968750 550.288208,700.857300 550.589539,701.508789 
	C551.366150,703.188110 553.196045,705.228394 554.842834,705.464111 
	C557.499512,705.844421 560.386414,705.056152 563.090942,704.406860 
	C563.956482,704.199097 565.089722,702.888000 565.119751,702.046753 
	C565.149414,701.216736 564.091797,699.838745 563.242920,699.579407 
	C560.417297,698.716370 557.471069,698.247864 553.817017,697.643738 
M489.328918,714.705688 
	C488.191376,716.526917 487.053864,718.348145 485.916351,720.169373 
	C488.182159,720.528381 490.462585,721.225220 492.708649,721.128113 
	C494.216888,721.062866 496.219543,720.250000 497.022339,719.092773 
	C498.059387,717.597839 498.120087,715.425659 498.601227,713.545105 
	C496.907715,713.269348 495.200989,712.724792 493.525055,712.807129 
	C492.296509,712.867371 491.108368,713.750244 489.328918,714.705688 
M550.202820,719.209961 
	C549.143799,717.530762 548.436462,715.282654 546.919250,714.344482 
	C545.602234,713.530151 543.156982,713.730835 541.633423,714.419312 
	C540.926453,714.738770 540.521790,718.040405 541.202271,718.670715 
	C543.031067,720.364746 545.447144,721.528992 547.806091,722.455688 
	C548.260010,722.634033 549.515015,720.773315 550.202820,719.209961 
M491.539764,699.717896 
	C490.446594,699.331726 489.194305,698.405396 488.293121,698.670776 
	C486.362823,699.239563 484.613953,700.424011 482.790741,701.356323 
	C483.504242,702.660095 484.030151,704.885925 484.970001,705.077148 
	C486.973053,705.484680 489.358948,705.229065 491.237091,704.425293 
	C491.976074,704.109131 491.777283,701.601624 491.539764,699.717896 
z"/>
<path fill="#2D1909" opacity="1.000000" stroke="none" 
	d="
M1376.664551,737.993408 
	C1375.530640,738.069458 1374.736938,738.138245 1373.943359,738.207031 
	C1373.949951,738.470093 1373.956543,738.733093 1373.963135,738.996094 
	C1375.733154,738.996094 1377.503052,738.996765 1379.273071,738.996033 
	C1402.437622,738.986938 1425.602905,738.868713 1448.766479,739.013916 
	C1460.396118,739.086792 1472.024048,739.957458 1483.650513,739.907349 
	C1507.627197,739.804077 1531.603027,739.368164 1555.577759,738.975220 
	C1563.058228,738.852661 1570.536987,738.127075 1578.010742,738.210205 
	C1590.649780,738.350647 1603.286377,738.859192 1615.917603,739.369690 
	C1617.579956,739.436890 1619.204956,740.425964 1620.847290,740.988159 
	C1620.864990,741.447266 1620.882568,741.906372 1620.900269,742.365540 
	C1619.526367,742.899536 1618.187256,743.755249 1616.772217,743.908569 
	C1612.147217,744.409546 1607.495483,744.934387 1602.852417,744.951538 
	C1576.688477,745.048096 1550.524048,744.999756 1524.359741,744.999390 
	C1486.904785,744.998840 1449.449463,745.074890 1411.994873,744.950500 
	C1400.015869,744.910767 1388.038818,744.073730 1376.060791,744.075806 
	C1360.108643,744.078552 1344.156738,744.727417 1328.204102,744.754883 
	C1315.265137,744.777161 1302.320312,743.931335 1289.386719,744.106079 
	C1260.927612,744.490662 1232.476074,745.426941 1204.017212,745.848877 
	C1184.023438,746.145386 1164.022217,746.074341 1144.025146,745.976501 
	C1087.550903,745.700073 1031.077271,745.336548 974.603516,744.986145 
	C923.962219,744.671997 873.321472,744.184692 822.679688,744.066467 
	C800.370361,744.014404 778.058594,744.649475 755.749207,745.044739 
	C741.770203,745.292358 727.792358,745.981873 713.816162,745.927307 
	C690.228455,745.835144 666.643372,745.111328 643.055603,745.012390 
	C606.601196,744.859436 570.145569,745.026306 533.690430,745.025513 
	C497.735352,745.024658 461.779755,745.088928 425.825348,744.920349 
	C405.208038,744.823669 384.593292,744.138062 363.976135,744.066345 
	C350.865112,744.020752 337.752991,744.801880 324.639313,744.882507 
	C298.683838,745.042236 272.726105,744.853088 246.770889,745.034363 
	C222.792969,745.201843 198.817184,745.919983 174.840363,745.923706 
	C152.696960,745.927185 130.551651,745.384277 108.411606,744.885193 
	C104.311028,744.792786 100.231537,743.764771 96.142319,743.168579 
	C96.147430,742.299988 96.152534,741.431396 96.157646,740.562866 
	C99.374718,740.046021 102.587265,739.110657 105.809540,739.075867 
	C146.115189,738.640991 186.422058,738.309448 226.729065,738.013184 
	C240.727097,737.910339 254.726807,737.902832 268.725037,737.981506 
	C323.863861,738.291321 379.002350,738.653320 434.140991,738.993286 
	C436.421234,739.007385 438.701569,738.995056 441.203827,738.995056 
	C438.903412,732.105408 439.072021,731.973389 445.207092,729.208130 
	C448.224609,727.848083 451.128204,726.149597 453.879547,724.300903 
	C461.991455,718.850464 459.947571,708.910583 452.799469,702.648438 
	C448.924347,699.253418 444.852783,696.072144 441.126862,692.524475 
	C440.159729,691.603638 440.158813,689.667969 439.714081,688.198364 
	C441.336365,687.891357 443.274872,686.848694 444.532776,687.389465 
	C459.621368,693.875183 466.245758,703.955444 463.413025,719.986877 
	C462.861389,723.108704 459.366882,725.713684 457.219818,728.549561 
	C455.228058,731.180359 451.230286,734.177856 451.640503,736.347412 
	C452.482178,740.798767 457.422211,738.786804 460.626312,738.889404 
	C476.748322,739.405273 492.878662,739.663879 509.006561,739.988098 
	C510.836884,740.024841 512.746582,740.211487 514.482300,739.778564 
	C516.471069,739.282654 518.306641,738.172607 520.208801,737.329346 
	C519.302612,735.703979 518.063904,734.172852 517.569946,732.430603 
	C516.866577,729.949768 515.482483,726.383789 516.577087,724.939209 
	C518.806213,721.997375 522.018494,724.219543 523.648804,726.432983 
	C525.393494,728.801636 526.011414,731.969421 527.391113,734.649475 
	C528.179199,736.180359 529.463928,738.588684 530.595947,738.629395 
	C539.410706,738.946289 548.242737,738.800293 557.068970,738.728638 
	C557.618774,738.724182 558.163879,738.139709 558.671753,737.847717 
	C557.496887,734.927979 556.017700,732.297058 555.494019,729.488037 
	C555.250000,728.179321 556.537170,725.720215 557.715881,725.249939 
	C558.940186,724.761353 561.567444,725.553162 562.347839,726.657043 
	C563.935852,728.903076 565.111877,731.646362 565.690002,734.348938 
	C566.438110,737.846191 568.335938,739.099548 571.629272,738.972961 
	C579.106506,738.685608 586.585144,738.175476 594.061768,738.199707 
	C603.204163,738.229309 612.352783,739.101135 621.485291,738.922852 
	C643.610413,738.491089 665.726624,737.154785 687.848450,737.106323 
	C724.654663,737.025696 761.462280,737.692871 798.269653,738.000000 
	C841.243225,738.358582 884.216797,738.790344 927.191223,738.964844 
	C967.683594,739.129272 1008.177612,739.124207 1048.670044,738.972229 
	C1111.808472,738.735168 1174.946289,738.312622 1238.084351,737.956360 
	C1239.524658,737.948242 1240.964233,737.794617 1243.340332,737.653076 
	C1239.669067,735.288757 1236.827271,733.352722 1233.863403,731.625549 
	C1233.137207,731.202332 1231.938477,731.203491 1231.082764,731.448669 
	C1222.885742,733.797729 1215.419312,730.218689 1212.302490,722.278809 
	C1205.353516,704.576294 1206.524658,688.203857 1219.700317,673.407837 
	C1221.262573,671.653381 1221.470581,667.758057 1220.885986,665.176819 
	C1216.734863,646.850647 1212.006714,628.654907 1207.882812,610.322998 
	C1205.101318,597.958252 1209.751221,592.237244 1222.518066,592.090576 
	C1242.180420,591.864746 1261.848999,591.859680 1281.510742,592.098389 
	C1286.869385,592.163391 1290.987549,591.050964 1293.413574,585.965576 
	C1293.766357,585.225952 1294.314575,584.559509 1294.858398,583.934204 
	C1299.478760,578.622498 1298.631104,579.207153 1294.833130,573.611511 
	C1284.860352,558.917786 1274.239258,544.229614 1276.185425,524.865784 
	C1276.315186,523.574707 1276.174561,522.205688 1275.893311,520.931763 
	C1272.835693,507.085144 1278.120605,494.889618 1290.658569,488.028900 
	C1304.484985,480.463257 1318.900879,476.695892 1334.860962,480.765106 
	C1344.010986,483.097992 1351.372314,488.062256 1357.712769,494.409576 
	C1369.937134,506.646973 1381.379883,519.664795 1393.596924,531.909851 
	C1399.800537,538.127686 1406.746460,543.682800 1413.775635,548.981750 
	C1426.367920,558.474304 1433.614746,570.807251 1434.711792,586.510437 
	C1435.600220,599.226196 1431.361694,609.821289 1420.131836,616.676636 
	C1416.976440,618.602844 1417.742554,620.899658 1418.603882,623.072388 
	C1422.662476,633.308777 1422.143188,643.986084 1421.961182,654.630554 
	C1421.761963,666.277283 1418.483154,676.248047 1407.161987,682.040894 
	C1405.912964,682.679993 1405.163574,685.260071 1405.053223,686.995361 
	C1404.535889,695.126526 1404.488403,703.287842 1403.964233,711.418457 
	C1403.115967,724.574524 1390.298096,737.080444 1376.664551,737.993408 
M1304.036011,681.969727 
	C1294.553101,681.969727 1285.070190,681.969727 1275.587402,681.969727 
	C1275.539917,682.422241 1275.492432,682.874695 1275.444946,683.327209 
	C1281.236328,685.804871 1286.994141,688.367004 1292.849365,690.683228 
	C1293.918945,691.106384 1295.783813,691.004883 1296.596802,690.325806 
	C1299.613037,687.806152 1302.342896,684.943909 1305.423950,682.145386 
	C1305.553833,681.944275 1305.683716,681.743164 1305.813721,681.541992 
	C1305.532227,681.678833 1305.250854,681.815735 1304.036011,681.969727 
M1412.593872,619.905762 
	C1408.528809,602.866577 1398.194092,590.623962 1383.300781,581.997070 
	C1380.463623,580.353760 1377.264160,579.252258 1374.122681,578.238770 
	C1370.050415,576.924805 1365.742920,576.280823 1361.757812,574.766418 
	C1349.831787,570.233887 1345.988037,552.404236 1355.003540,543.931763 
	C1357.616211,541.476440 1358.701416,538.736511 1356.870483,535.478638 
	C1355.005493,532.160278 1351.980469,533.062317 1349.352173,534.116211 
	C1338.438354,538.492249 1327.009277,539.035889 1315.479736,538.997070 
	C1313.404053,538.990051 1311.328369,538.996033 1310.290527,538.996033 
	C1311.302124,544.743530 1312.346313,549.806091 1313.047363,554.915649 
	C1313.694946,559.635559 1313.604736,564.622192 1320.838623,563.315308 
	C1321.767090,563.147583 1323.030884,564.835571 1324.139282,565.664001 
	C1323.300537,566.753052 1322.677979,568.244507 1321.572998,568.838501 
	C1319.848633,569.765259 1317.791016,570.064331 1315.885254,570.662842 
	C1310.103271,572.478943 1307.650146,571.107849 1308.170654,565.129150 
	C1309.033447,555.218079 1307.268555,547.389832 1297.326172,542.448975 
	C1292.697998,540.148987 1293.268677,537.510071 1297.636597,534.295593 
	C1293.846436,531.093811 1289.936279,528.018372 1286.347168,524.605225 
	C1285.401001,523.705322 1285.446655,521.762390 1285.036865,520.298401 
	C1286.575317,520.182129 1288.317627,519.545288 1289.612061,520.052124 
	C1292.852661,521.320862 1296.114258,522.781555 1298.970581,524.743347 
	C1311.668335,533.464966 1325.808716,533.640137 1340.195312,531.744690 
	C1344.242432,531.211426 1348.063965,529.105225 1352.048950,527.922302 
	C1356.580444,526.577087 1359.899170,528.444946 1361.968628,532.459961 
	C1364.275146,536.934998 1363.066040,544.083374 1359.593018,547.839966 
	C1354.861084,552.958252 1354.511475,555.317139 1357.625488,561.114136 
	C1362.251221,569.724731 1366.268433,572.337158 1372.754883,571.610046 
	C1375.652588,571.285217 1379.005859,570.962830 1381.530396,572.064514 
	C1393.024902,577.080505 1403.147217,583.971619 1408.986206,595.636414 
	C1411.069702,599.799011 1412.901733,604.095398 1414.678711,608.400879 
	C1415.841187,611.217407 1417.522827,611.577087 1419.607544,609.658508 
	C1421.054077,608.327332 1422.333496,606.732361 1423.380127,605.062622 
	C1430.091431,594.356689 1429.037231,583.295044 1424.982056,571.987366 
	C1421.515991,562.322632 1413.893921,556.129150 1406.271729,550.413391 
	C1390.649414,538.698242 1378.332520,523.909851 1365.541382,509.463531 
	C1350.817383,492.834351 1333.749268,481.898071 1310.155518,489.011139 
	C1306.810669,490.019531 1303.382935,490.883575 1300.205566,492.292664 
	C1289.806885,496.904205 1281.399780,503.432465 1281.027100,516.008301 
	C1280.919189,519.648621 1282.033447,523.429749 1283.123047,526.982056 
	C1287.018921,539.682190 1290.701416,552.475952 1295.309326,564.921509 
	C1299.833008,577.139587 1315.914429,584.535095 1327.390991,579.756836 
	C1331.974976,577.848267 1335.586548,573.685547 1339.828735,570.828064 
	C1341.211182,569.896912 1343.189453,569.850403 1344.895386,569.399231 
	C1344.741089,571.225769 1345.227905,573.486938 1344.330933,574.809937 
	C1337.326904,585.140686 1324.093750,589.546509 1312.081787,585.854004 
	C1306.369019,584.097900 1304.864868,584.746338 1301.374390,590.470398 
	C1312.080078,592.672607 1312.733032,593.518250 1315.041504,604.461914 
	C1316.860229,613.084106 1319.130737,621.610107 1321.099121,630.202026 
	C1321.832275,633.402100 1323.257690,634.367249 1326.405518,632.860107 
	C1328.927734,631.652466 1331.680054,630.109070 1334.321411,630.125610 
	C1341.218628,630.168884 1348.157715,630.652100 1354.988770,631.610901 
	C1359.615356,632.260315 1364.087280,634.012329 1368.967041,635.365112 
	C1369.215210,632.340881 1369.435791,629.905334 1369.609375,627.466492 
	C1369.798462,624.810181 1369.693237,622.100769 1370.209839,619.512939 
	C1370.486328,618.127258 1371.800781,616.948669 1372.646973,615.676697 
	C1373.699829,616.769287 1375.389404,617.711304 1375.690186,618.981873 
	C1376.722290,623.343018 1377.555176,627.796631 1377.906982,632.258850 
	C1378.184570,635.781616 1379.510498,638.073059 1382.535889,639.909668 
	C1385.345093,641.614990 1388.069214,643.695557 1390.218994,646.147461 
	C1391.213257,647.281494 1391.374878,649.980896 1390.711426,651.414001 
	C1390.325195,652.248413 1387.354370,652.573425 1385.910889,652.074219 
	C1383.609009,651.278259 1381.618652,649.591125 1379.482422,648.304260 
	C1376.463623,646.485718 1373.432129,644.688721 1370.406006,642.882507 
	C1369.975708,643.181702 1369.545288,643.480835 1369.114990,643.780029 
	C1369.324829,646.334045 1369.512085,648.890137 1369.748901,651.441650 
	C1370.288574,657.254456 1367.994995,660.933960 1362.801880,660.787231 
	C1350.975708,660.453003 1342.031372,665.595215 1334.368164,674.010437 
	C1332.878418,675.646484 1330.703979,676.754150 1328.684570,677.793091 
	C1324.324463,680.036194 1318.777466,681.058350 1315.642212,684.391785 
	C1306.406860,694.210815 1295.352173,700.815491 1283.397095,706.578369 
	C1275.775391,710.252380 1268.587646,711.859741 1260.431152,708.735535 
	C1253.612427,706.123718 1246.657104,703.595886 1239.537109,702.111084 
	C1230.205322,700.165100 1226.120972,704.396729 1227.169189,713.954773 
	C1227.378418,715.863037 1228.134888,717.851746 1229.129272,719.509216 
	C1233.510742,726.811951 1240.440796,730.749573 1248.386719,732.744019 
	C1254.007812,734.155029 1259.821167,734.990234 1265.600220,735.546936 
	C1283.516724,737.272766 1301.308228,735.952576 1318.353516,730.224121 
	C1331.420776,725.832581 1343.930664,719.797668 1356.779297,714.723877 
	C1358.850708,713.906006 1361.397339,714.291138 1363.724243,714.120117 
	C1362.316040,716.075012 1361.307617,718.658936 1359.419556,719.858704 
	C1354.988037,722.674500 1350.135986,724.828186 1345.308960,727.324951 
	C1356.001831,731.481750 1367.148315,732.515808 1377.848022,730.531799 
	C1392.258911,727.859741 1399.836182,721.130676 1399.069946,706.883118 
	C1398.830444,702.428955 1399.830566,697.911926 1399.642456,693.449829 
	C1399.506104,690.217957 1399.000977,686.681946 1397.519287,683.886292 
	C1393.036743,675.429016 1386.521851,669.072388 1377.063721,666.055054 
	C1375.416260,665.529419 1374.279785,663.402100 1372.907227,662.014587 
	C1374.983154,661.464905 1377.046143,660.559631 1379.139404,660.483032 
	C1380.690552,660.426208 1382.517700,661.117065 1383.812256,662.045715 
	C1388.761597,665.596191 1393.437256,669.533997 1398.448364,672.989014 
	C1400.235840,674.221558 1403.209717,675.668945 1404.738159,674.988403 
	C1409.833374,672.719543 1413.863770,669.135803 1415.096802,663.074524 
	C1418.017090,648.718262 1416.878174,634.635193 1412.593872,619.905762 
M1288.554199,674.995422 
	C1297.051147,674.984924 1305.548218,674.983276 1314.045166,674.959045 
	C1316.906494,674.950867 1319.783936,674.423950 1319.776001,670.888916 
	C1319.762329,664.806580 1320.161621,658.522522 1318.820312,652.683105 
	C1315.322388,637.454956 1310.817139,622.461243 1307.032104,607.294617 
	C1305.074097,599.449585 1304.999390,599.238770 1296.791748,598.966980 
	C1281.501099,598.460754 1266.222534,597.540710 1250.929688,597.166138 
	C1240.784546,596.917542 1230.581421,596.789062 1220.482666,597.592285 
	C1212.134888,598.256165 1210.727417,600.793213 1212.842285,608.895386 
	C1214.941162,616.935974 1217.904785,624.756836 1219.871826,632.824524 
	C1222.667969,644.292847 1224.696045,655.947571 1227.446411,667.428223 
	C1229.190308,674.707214 1231.238037,676.075073 1238.657715,675.965332 
	C1254.964233,675.724182 1271.268555,675.328308 1288.554199,674.995422 
M1226.586792,680.475891 
	C1224.345337,677.482605 1222.343506,677.852356 1220.614624,680.951294 
	C1219.809326,682.394836 1218.981201,683.851990 1218.406494,685.393555 
	C1214.416138,696.096985 1216.183838,706.666382 1219.420654,717.129883 
	C1220.174927,719.568359 1221.563599,721.810547 1222.660278,724.143127 
	C1223.173340,723.913452 1223.686401,723.683838 1224.199341,723.454224 
	C1223.654297,721.599182 1223.036621,719.761963 1222.575562,717.886230 
	C1218.722900,702.213684 1227.895752,692.442322 1243.634155,695.774292 
	C1248.635376,696.833130 1253.389526,699.025330 1258.295898,700.574585 
	C1268.026855,703.647400 1276.922241,702.178223 1285.287476,695.280029 
	C1271.943237,688.718445 1259.876465,680.030518 1244.010986,681.839294 
	C1238.524902,682.464783 1232.827026,681.232971 1226.586792,680.475891 
M1344.425293,659.694641 
	C1349.268311,658.129089 1354.165161,656.706848 1358.926147,654.922424 
	C1360.658691,654.273132 1363.201050,652.956177 1363.433594,651.609009 
	C1364.610596,644.788574 1359.322388,637.937744 1352.373535,636.626953 
	C1349.604370,636.104492 1346.811279,635.621765 1344.006958,635.388611 
	C1337.826050,634.874756 1332.122437,636.228271 1327.312012,640.358459 
	C1325.228638,642.147339 1323.480347,644.124451 1326.594482,648.273010 
	C1328.084473,646.290894 1329.164307,644.345703 1330.732788,642.949219 
	C1331.753174,642.040649 1333.485229,641.931396 1334.898438,641.464111 
	C1334.793213,642.986023 1335.052612,644.655151 1334.509521,646.000244 
	C1333.262939,649.087952 1331.625244,652.017883 1330.146240,655.011841 
	C1330.518555,655.257996 1330.890747,655.504089 1331.262939,655.750244 
	C1333.815308,653.807922 1336.266479,651.702576 1338.979004,650.018433 
	C1339.839844,649.484009 1341.830322,649.620239 1342.512329,650.274536 
	C1343.171509,650.906860 1343.201050,652.743713 1342.817261,653.801086 
	C1341.999878,656.052612 1340.735474,658.141785 1339.070312,661.461853 
	C1341.499146,660.719910 1342.662354,660.364502 1344.425293,659.694641 
M1344.447144,738.967957 
	C1347.662354,738.967957 1350.877686,738.967957 1354.633789,738.967957 
	C1340.965454,733.029236 1327.867676,729.906250 1314.696167,738.967773 
	C1324.337158,738.967773 1333.901001,738.967773 1344.447144,738.967957 
M1336.517090,664.065552 
	C1336.517090,664.065552 1336.451782,664.009094 1336.517090,664.065552 
M1227.065552,726.482666 
	C1227.065552,726.482666 1227.009033,726.547974 1227.065552,726.482666 
z"/>
<path fill="#2D1909" opacity="1.000000" stroke="none" 
	d="
M526.071655,670.238464 
	C528.463257,667.639465 530.371277,665.033203 532.792236,663.054443 
	C536.802979,659.776611 540.808350,660.854736 542.815674,665.634460 
	C544.548340,669.760315 545.860840,674.060547 547.455200,678.247070 
	C549.027527,682.375793 548.310059,687.803284 553.975098,689.702881 
	C554.547302,689.894775 555.221375,691.741577 554.918274,692.185913 
	C554.244934,693.172913 553.076294,694.167358 551.940796,694.430725 
	C548.196777,695.299133 543.208618,692.565308 541.893677,688.755127 
	C540.157532,683.724487 538.689514,678.591797 537.330383,673.443787 
	C536.297119,669.529968 534.034058,669.012268 531.846558,671.894043 
	C527.732178,677.314453 522.020691,678.103394 515.989075,678.740601 
	C509.162750,679.461853 502.862488,679.321228 499.639984,671.715088 
	C499.357269,671.047791 498.490570,670.627930 496.676544,668.998657 
	C495.693970,673.257812 494.710999,676.554260 494.197693,679.922302 
	C492.579254,690.541626 485.653168,693.763123 476.775635,687.328857 
	C469.391174,681.976624 462.911041,675.362732 455.457031,670.123413 
	C440.846069,659.853638 425.757812,660.397949 411.636047,671.313232 
	C399.403900,680.767822 388.800415,691.627991 382.321259,706.066284 
	C380.660980,709.766174 377.939606,713.152100 375.120667,716.128052 
	C371.690887,719.748962 367.071014,721.027283 362.257050,719.284912 
	C357.701324,717.636169 354.598389,714.329346 354.797729,709.158936 
	C355.122742,700.731445 355.416290,692.276367 356.374878,683.907593 
	C357.212677,676.593262 357.001892,675.771057 349.925812,674.835022 
	C338.203247,673.284363 330.822144,677.997803 327.422516,689.198059 
	C327.132690,690.152832 327.048553,691.322937 326.432007,691.988037 
	C325.609009,692.875854 324.277893,693.972778 323.315521,693.845154 
	C322.483002,693.734741 321.265594,692.042114 321.262939,691.046143 
	C321.256470,688.605286 321.404541,685.985657 322.286316,683.752136 
	C325.789795,674.877502 334.961945,668.870422 344.538452,669.056458 
	C347.849304,669.120728 351.160919,669.641968 354.452209,670.098572 
	C359.325470,670.774536 361.752930,673.736572 361.920776,678.582886 
	C362.220001,687.224182 362.478882,695.866943 362.760406,704.508911 
	C362.803741,705.838501 362.573730,707.278625 363.010193,708.469727 
	C363.647888,710.210144 364.472504,712.743958 365.773468,713.147644 
	C367.201630,713.590759 369.870483,712.497314 370.927002,711.200317 
	C373.744507,707.741516 376.220886,703.946106 378.417603,700.050354 
	C388.430908,682.291931 402.006500,668.079407 420.975922,660.292969 
	C431.724365,655.881042 443.036957,656.188232 454.327454,660.881897 
	C465.005768,665.321045 473.211456,672.362244 480.594177,680.858154 
	C481.659424,682.083984 483.858398,683.427063 485.091919,683.092224 
	C486.309540,682.761597 487.312622,680.475098 487.798462,678.862366 
	C488.755585,675.685425 488.852997,672.194092 490.138550,669.189026 
	C491.146057,666.833923 493.406006,663.335876 495.112762,663.334045 
	C498.009857,663.330872 501.145538,665.341553 503.741272,667.140381 
	C506.306091,668.917969 508.281158,673.274231 510.594635,673.332458 
	C515.642456,673.459473 520.740845,671.575439 526.071655,670.238464 
z"/>
<path fill="#2D1909" opacity="1.000000" stroke="none" 
	d="
M330.456238,724.896545 
	C327.616608,724.491089 324.749725,724.759216 322.858765,723.528259 
	C321.234192,722.470764 320.724457,719.700684 319.721741,717.687866 
	C321.861816,717.102173 324.147186,715.747681 326.106476,716.118042 
	C328.778412,716.623108 331.282135,718.308716 333.698639,719.754395 
	C334.953033,720.504883 335.864868,721.827942 336.931488,722.892334 
	C335.570068,723.572510 334.240204,724.331665 332.831909,724.894409 
	C332.260071,725.122925 331.517456,724.924011 330.456238,724.896545 
z"/>
<path fill="#2D1909" opacity="1.000000" stroke="none" 
	d="
M335.176575,731.959839 
	C340.018677,730.533752 344.619385,729.299377 349.281677,728.375671 
	C350.097717,728.214050 351.672913,729.161682 351.984528,729.955444 
	C352.285858,730.723145 351.710907,732.482422 350.997803,732.889099 
	C347.846222,734.686707 344.645142,736.654785 341.198425,737.611755 
	C337.009644,738.774536 334.724762,736.466553 335.176575,731.959839 
z"/>
<path fill="#2D1909" opacity="1.000000" stroke="none" 
	d="
M327.489868,711.450684 
	C324.676910,709.986816 321.560730,709.143433 319.943756,707.108582 
	C318.533844,705.334351 317.602722,701.455078 318.607849,699.855835 
	C320.525208,696.805176 323.360382,699.091309 325.263367,700.927551 
	C327.160919,702.758423 328.822693,704.879395 330.341888,707.045593 
	C332.440918,710.038635 331.671173,711.716003 327.489868,711.450684 
z"/>
<path fill="#2D1909" opacity="1.000000" stroke="none" 
	d="
M554.194092,697.635986 
	C557.471069,698.247864 560.417297,698.716370 563.242920,699.579407 
	C564.091797,699.838745 565.149414,701.216736 565.119751,702.046753 
	C565.089722,702.888000 563.956482,704.199097 563.090942,704.406860 
	C560.386414,705.056152 557.499512,705.844421 554.842834,705.464111 
	C553.196045,705.228394 551.366150,703.188110 550.589539,701.508789 
	C550.288208,700.857300 552.661865,698.968750 554.194092,697.635986 
z"/>
<path fill="#2D1909" opacity="1.000000" stroke="none" 
	d="
M489.615570,714.486084 
	C491.108368,713.750244 492.296509,712.867371 493.525055,712.807129 
	C495.200989,712.724792 496.907715,713.269348 498.601227,713.545105 
	C498.120087,715.425659 498.059387,717.597839 497.022339,719.092773 
	C496.219543,720.250000 494.216888,721.062866 492.708649,721.128113 
	C490.462585,721.225220 488.182159,720.528381 485.916351,720.169373 
	C487.053864,718.348145 488.191376,716.526917 489.615570,714.486084 
z"/>
<path fill="#2D1909" opacity="1.000000" stroke="none" 
	d="
M550.301636,719.531616 
	C549.515015,720.773315 548.260010,722.634033 547.806091,722.455688 
	C545.447144,721.528992 543.031067,720.364746 541.202271,718.670715 
	C540.521790,718.040405 540.926453,714.738770 541.633423,714.419312 
	C543.156982,713.730835 545.602234,713.530151 546.919250,714.344482 
	C548.436462,715.282654 549.143799,717.530762 550.301636,719.531616 
z"/>
<path fill="#2D1909" opacity="1.000000" stroke="none" 
	d="
M491.772644,699.904907 
	C491.777283,701.601624 491.976074,704.109131 491.237091,704.425293 
	C489.358948,705.229065 486.973053,705.484680 484.970001,705.077148 
	C484.030151,704.885925 483.504242,702.660095 482.790771,701.356323 
	C484.613953,700.424011 486.362823,699.239563 488.293121,698.670776 
	C489.194305,698.405396 490.446594,699.331726 491.772644,699.904907 
z"/>
<path fill="#000000" opacity="1.000000" stroke="none" 
	d="
M1412.734985,620.289062 
	C1416.878174,634.635193 1418.017090,648.718262 1415.096802,663.074524 
	C1413.863770,669.135803 1409.833374,672.719543 1404.738159,674.988403 
	C1403.209717,675.668945 1400.235840,674.221558 1398.448364,672.989014 
	C1393.437256,669.533997 1388.761597,665.596191 1383.812256,662.045715 
	C1382.517700,661.117065 1380.690552,660.426208 1379.139404,660.483032 
	C1377.046143,660.559631 1374.983154,661.464905 1372.907227,662.014587 
	C1374.279785,663.402100 1375.416260,665.529419 1377.063721,666.055054 
	C1386.521851,669.072388 1393.036743,675.429016 1397.519287,683.886292 
	C1399.000977,686.681946 1399.506104,690.217957 1399.642456,693.449829 
	C1399.830566,697.911926 1398.830444,702.428955 1399.069946,706.883118 
	C1399.836182,721.130676 1392.258911,727.859741 1377.848022,730.531799 
	C1367.148315,732.515808 1356.001831,731.481750 1345.308960,727.324951 
	C1350.135986,724.828186 1354.988037,722.674500 1359.419556,719.858704 
	C1361.307617,718.658936 1362.316040,716.075012 1363.724243,714.120117 
	C1361.397339,714.291138 1358.850708,713.906006 1356.779297,714.723877 
	C1343.930664,719.797668 1331.420776,725.832581 1318.353516,730.224121 
	C1301.308228,735.952576 1283.516724,737.272766 1265.600220,735.546936 
	C1259.821167,734.990234 1254.007812,734.155029 1248.386719,732.744019 
	C1240.440796,730.749573 1233.510742,726.811951 1229.129272,719.509216 
	C1228.134888,717.851746 1227.378418,715.863037 1227.169189,713.954773 
	C1226.120972,704.396729 1230.205322,700.165100 1239.537109,702.111084 
	C1246.657104,703.595886 1253.612427,706.123718 1260.431152,708.735535 
	C1268.587646,711.859741 1275.775391,710.252380 1283.397095,706.578369 
	C1295.352173,700.815491 1306.406860,694.210815 1315.642212,684.391785 
	C1318.777466,681.058350 1324.324463,680.036194 1328.684570,677.793091 
	C1330.703979,676.754150 1332.878418,675.646484 1334.368164,674.010437 
	C1342.031372,665.595215 1350.975708,660.453003 1362.801880,660.787231 
	C1367.994995,660.933960 1370.288574,657.254456 1369.748901,651.441650 
	C1369.512085,648.890137 1369.324829,646.334045 1369.114990,643.780029 
	C1369.545288,643.480835 1369.975708,643.181702 1370.406006,642.882507 
	C1373.432129,644.688721 1376.463623,646.485718 1379.482422,648.304260 
	C1381.618652,649.591125 1383.609009,651.278259 1385.910889,652.074219 
	C1387.354370,652.573425 1390.325195,652.248413 1390.711426,651.414001 
	C1391.374878,649.980896 1391.213257,647.281494 1390.218994,646.147461 
	C1388.069214,643.695557 1385.345093,641.614990 1382.535889,639.909668 
	C1379.510498,638.073059 1378.184570,635.781616 1377.906982,632.258850 
	C1377.555176,627.796631 1376.722290,623.343018 1375.690186,618.981873 
	C1375.389404,617.711304 1373.699829,616.769287 1372.646973,615.676636 
	C1371.800781,616.948669 1370.486328,618.127258 1370.209839,619.512939 
	C1369.693237,622.100769 1369.798462,624.810181 1369.609375,627.466492 
	C1369.435791,629.905334 1369.215210,632.340881 1368.967041,635.365112 
	C1364.087280,634.012329 1359.615356,632.260315 1354.988770,631.610901 
	C1348.157715,630.652100 1341.218628,630.168884 1334.321411,630.125610 
	C1331.680054,630.109070 1328.927734,631.652466 1326.405518,632.860107 
	C1323.257690,634.367249 1321.832275,633.402100 1321.099121,630.202026 
	C1319.130737,621.610107 1316.860229,613.084106 1315.041504,604.461914 
	C1312.733032,593.518250 1312.080078,592.672607 1301.374390,590.470398 
	C1304.864868,584.746338 1306.369019,584.097900 1312.081787,585.854004 
	C1324.093750,589.546509 1337.326904,585.140686 1344.330933,574.809937 
	C1345.227905,573.486938 1344.741089,571.225769 1344.895264,569.399292 
	C1343.189453,569.850403 1341.211182,569.896912 1339.828735,570.828064 
	C1335.586548,573.685547 1331.974976,577.848267 1327.390991,579.756836 
	C1315.914429,584.535095 1299.833008,577.139587 1295.309326,564.921509 
	C1290.701416,552.475952 1287.018921,539.682190 1283.123047,526.982056 
	C1282.033447,523.429749 1280.919189,519.648621 1281.027100,516.008301 
	C1281.399780,503.432465 1289.806885,496.904205 1300.205566,492.292664 
	C1303.382935,490.883575 1306.810669,490.019531 1310.155518,489.011139 
	C1333.749268,481.898071 1350.817383,492.834351 1365.541382,509.463531 
	C1378.332520,523.909851 1390.649414,538.698242 1406.271729,550.413391 
	C1413.893921,556.129150 1421.515991,562.322632 1424.982056,571.987366 
	C1429.037231,583.295044 1430.091431,594.356689 1423.380127,605.062622 
	C1422.333496,606.732361 1421.054077,608.327332 1419.607544,609.658508 
	C1417.522827,611.577087 1415.841187,611.217407 1414.678711,608.400879 
	C1412.901733,604.095398 1411.069702,599.799011 1408.986206,595.636414 
	C1403.147217,583.971619 1393.024902,577.080505 1381.530396,572.064514 
	C1379.005859,570.962830 1375.652588,571.285217 1372.754883,571.610046 
	C1366.268433,572.337158 1362.251221,569.724731 1357.625488,561.114136 
	C1354.511475,555.317139 1354.861084,552.958252 1359.593018,547.839966 
	C1363.066040,544.083374 1364.275146,536.934998 1361.968628,532.459961 
	C1359.899170,528.444946 1356.580444,526.577087 1352.048950,527.922302 
	C1348.063965,529.105225 1344.242432,531.211426 1340.195312,531.744690 
	C1325.808716,533.640137 1311.668335,533.464966 1298.970581,524.743347 
	C1296.114258,522.781555 1292.852661,521.320862 1289.612061,520.052124 
	C1288.317627,519.545288 1286.575317,520.182129 1285.036865,520.298401 
	C1285.446655,521.762390 1285.401001,523.705322 1286.347168,524.605225 
	C1289.936279,528.018372 1293.846436,531.093811 1297.636597,534.295593 
	C1293.268677,537.510071 1292.697998,540.148987 1297.326172,542.448975 
	C1307.268555,547.389832 1309.033447,555.218079 1308.170654,565.129150 
	C1307.650146,571.107849 1310.103271,572.478943 1315.885254,570.662842 
	C1317.791016,570.064331 1319.848633,569.765259 1321.572998,568.838501 
	C1322.677979,568.244507 1323.300537,566.753052 1324.139282,565.663940 
	C1323.030884,564.835571 1321.767090,563.147583 1320.838623,563.315308 
	C1313.604736,564.622192 1313.694946,559.635559 1313.047363,554.915649 
	C1312.346313,549.806091 1311.302124,544.743530 1310.290527,538.996033 
	C1311.328369,538.996033 1313.404053,538.990051 1315.479736,538.997070 
	C1327.009277,539.035889 1338.438354,538.492249 1349.352173,534.116211 
	C1351.980469,533.062317 1355.005493,532.160278 1356.870483,535.478638 
	C1358.701416,538.736511 1357.616211,541.476440 1355.003540,543.931763 
	C1345.988037,552.404236 1349.831787,570.233887 1361.757812,574.766418 
	C1365.742920,576.280823 1370.050415,576.924805 1374.122681,578.238770 
	C1377.264160,579.252258 1380.463623,580.353760 1383.300781,581.997070 
	C1398.194092,590.623962 1408.528809,602.866577 1412.734985,620.289062 
z"/>
<path fill="#000000" opacity="1.000000" stroke="none" 
	d="
M1288.063965,674.995483 
	C1271.268555,675.328308 1254.964233,675.724182 1238.657715,675.965332 
	C1231.238037,676.075073 1229.190308,674.707214 1227.446411,667.428223 
	C1224.696045,655.947571 1222.667969,644.292847 1219.871826,632.824524 
	C1217.904785,624.756836 1214.941162,616.935974 1212.842285,608.895386 
	C1210.727417,600.793213 1212.134888,598.256165 1220.482666,597.592285 
	C1230.581421,596.789062 1240.784546,596.917542 1250.929688,597.166138 
	C1266.222534,597.540710 1281.501099,598.460754 1296.791748,598.966980 
	C1304.999390,599.238770 1305.074097,599.449585 1307.032104,607.294617 
	C1310.817139,622.461243 1315.322388,637.454956 1318.820312,652.683105 
	C1320.161621,658.522522 1319.762329,664.806580 1319.776001,670.888916 
	C1319.783936,674.423950 1316.906494,674.950867 1314.045166,674.959045 
	C1305.548218,674.983276 1297.051147,674.984924 1288.063965,674.995483 
M1278.573975,637.494141 
	C1278.608032,635.650879 1279.351318,633.384949 1278.549683,632.039856 
	C1275.581055,627.058411 1257.610962,627.914734 1254.598022,632.969482 
	C1250.893921,639.183777 1252.302002,648.393799 1257.588013,652.527222 
	C1261.306519,655.434937 1272.537354,654.007324 1276.395752,650.009033 
	C1279.030273,647.279114 1281.451172,644.415894 1277.863281,640.562439 
	C1277.472900,640.143188 1278.035645,638.836548 1278.573975,637.494141 
M1266.746094,618.950134 
	C1263.680054,621.043762 1262.291870,623.858948 1265.228027,626.695068 
	C1267.899170,629.275269 1270.544556,627.203064 1272.342896,624.947021 
	C1273.321411,623.719482 1273.491577,621.847656 1274.026245,620.266357 
	C1271.820679,619.718262 1269.615234,619.170105 1266.746094,618.950134 
z"/>
<path fill="#000000" opacity="1.000000" stroke="none" 
	d="
M1226.906372,680.662720 
	C1232.827026,681.232971 1238.524902,682.464783 1244.010986,681.839294 
	C1259.876465,680.030518 1271.943237,688.718445 1285.287476,695.280029 
	C1276.922241,702.178223 1268.026855,703.647400 1258.295898,700.574585 
	C1253.389526,699.025330 1248.635376,696.833130 1243.634155,695.774292 
	C1227.895752,692.442322 1218.722900,702.213684 1222.575562,717.886230 
	C1223.036621,719.761963 1223.654297,721.599182 1224.199341,723.454224 
	C1223.686401,723.683838 1223.173340,723.913452 1222.660278,724.143127 
	C1221.563599,721.810547 1220.174927,719.568359 1219.420654,717.129883 
	C1216.183838,706.666382 1214.416138,696.096985 1218.406494,685.393555 
	C1218.981201,683.851990 1219.809326,682.394836 1220.614624,680.951294 
	C1222.343506,677.852356 1224.345337,677.482605 1226.906372,680.662720 
z"/>
<path fill="#000000" opacity="1.000000" stroke="none" 
	d="
M1344.125488,659.851868 
	C1342.662354,660.364502 1341.499146,660.719910 1339.070312,661.461853 
	C1340.735474,658.141785 1341.999878,656.052612 1342.817261,653.801086 
	C1343.201050,652.743713 1343.171509,650.906860 1342.512329,650.274536 
	C1341.830322,649.620239 1339.839844,649.484009 1338.979004,650.018433 
	C1336.266479,651.702576 1333.815308,653.807922 1331.262939,655.750244 
	C1330.890747,655.504089 1330.518555,655.257996 1330.146240,655.011841 
	C1331.625244,652.017883 1333.262939,649.087952 1334.509521,646.000244 
	C1335.052612,644.655151 1334.793213,642.986023 1334.898438,641.464111 
	C1333.485229,641.931396 1331.753174,642.040649 1330.732788,642.949219 
	C1329.164307,644.345703 1328.084473,646.290894 1326.594482,648.273010 
	C1323.480347,644.124451 1325.228638,642.147339 1327.312012,640.358459 
	C1332.122437,636.228271 1337.826050,634.874756 1344.006958,635.388611 
	C1346.811279,635.621765 1349.604370,636.104492 1352.373535,636.626953 
	C1359.322388,637.937744 1364.610596,644.788574 1363.433594,651.609009 
	C1363.201050,652.956177 1360.658691,654.273132 1358.926147,654.922424 
	C1354.165161,656.706848 1349.268311,658.129089 1344.125488,659.851868 
z"/>
<path fill="#000000" opacity="1.000000" stroke="none" 
	d="
M1305.180420,682.210327 
	C1302.342896,684.943909 1299.613037,687.806152 1296.596802,690.325806 
	C1295.783813,691.004883 1293.918945,691.106384 1292.849365,690.683228 
	C1286.994141,688.367004 1281.236328,685.804871 1275.444946,683.327209 
	C1275.492432,682.874695 1275.539917,682.422241 1275.587402,681.969727 
	C1285.070190,681.969727 1294.553101,681.969727 1304.555420,682.025635 
	C1305.074951,682.081482 1305.180420,682.210327 1305.180420,682.210327 
z"/>
<path fill="#000000" opacity="1.000000" stroke="none" 
	d="
M1343.956055,738.967896 
	C1333.901001,738.967773 1324.337158,738.967773 1314.696167,738.967773 
	C1327.867676,729.906250 1340.965454,733.029236 1354.633789,738.967957 
	C1350.877686,738.967957 1347.662354,738.967957 1343.956055,738.967896 
z"/>
<path fill="#000000" opacity="1.000000" stroke="none" 
	d="
M1305.022217,682.017090 
	C1305.250854,681.815735 1305.532227,681.678833 1305.813721,681.541992 
	C1305.683716,681.743164 1305.553833,681.944275 1305.302246,682.177856 
	C1305.180420,682.210327 1305.074951,682.081482 1305.022217,682.017090 
z"/>
<path fill="#000000" opacity="1.000000" stroke="none" 
	d="
M1336.484375,664.037354 
	C1336.451782,664.009094 1336.517090,664.065552 1336.484375,664.037354 
z"/>
<path fill="#000000" opacity="1.000000" stroke="none" 
	d="
M1227.037354,726.515320 
	C1227.009033,726.547974 1227.065552,726.482666 1227.037354,726.515320 
z"/>
<path fill="#2D1909" opacity="1.000000" stroke="none" 
	d="
M1278.365112,637.717896 
	C1278.035645,638.836548 1277.472900,640.143188 1277.863281,640.562439 
	C1281.451172,644.415894 1279.030273,647.279114 1276.395752,650.009033 
	C1272.537354,654.007324 1261.306519,655.434937 1257.588013,652.527222 
	C1252.302002,648.393799 1250.893921,639.183777 1254.598022,632.969482 
	C1257.610962,627.914734 1275.581055,627.058411 1278.549683,632.039856 
	C1279.351318,633.384949 1278.608032,635.650879 1278.365112,637.717896 
z"/>
<path fill="#2D1909" opacity="1.000000" stroke="none" 
	d="
M1267.077881,618.786072 
	C1269.615234,619.170105 1271.820679,619.718262 1274.026245,620.266357 
	C1273.491577,621.847656 1273.321411,623.719482 1272.342896,624.947021 
	C1270.544556,627.203064 1267.899170,629.275269 1265.228027,626.695068 
	C1262.291870,623.858948 1263.680054,621.043762 1267.077881,618.786072 
z"/>
</svg>