<svg version="1.1" id="Layer_1" xmlns="http://www.w3.org/2000/svg" xmlns:xlink="http://www.w3.org/1999/xlink" x="0px" y="0px"
	 width="100%" viewBox="0 0 1694 820" enable-background="new 0 0 1694 820" xml:space="preserve">
<path fill="none" opacity="1.000000" stroke="none" 
	d="
M1688.051270,821.000000 
	C1125.375977,821.000000 563.211670,821.000000 1.023660,821.000000 
	C1.023660,547.683594 1.023660,274.367157 1.023660,1.025371 
	C565.647400,1.025371 1130.294800,1.025371 1694.971069,1.025371 
	C1694.971069,274.312927 1694.971069,547.625854 1694.971069,821.000000 
	C1692.854126,821.000000 1690.708130,821.000000 1688.051270,821.000000 
M1377.004883,737.986206 
	C1390.297852,737.080078 1403.116577,724.573181 1403.964844,711.417419 
	C1404.489136,703.286865 1404.536133,695.125488 1405.053345,686.994324 
	C1405.163696,685.259216 1405.913696,682.679626 1407.162842,682.040466 
	C1418.484375,676.247559 1421.761597,666.276001 1421.961060,654.629578 
	C1422.143311,643.985107 1422.662109,633.307800 1418.603760,623.071411 
	C1417.742188,620.898621 1416.977295,618.602234 1420.132446,616.676025 
	C1431.361816,609.820312 1435.600586,599.225525 1434.711670,586.509583 
	C1433.613770,570.806702 1426.367432,558.473511 1413.775024,548.981140 
	C1406.745728,543.682251 1399.799805,538.127136 1393.596191,531.909302 
	C1381.379150,519.664368 1369.936401,506.646362 1357.712158,494.409027 
	C1351.371704,488.061798 1344.010498,483.097595 1334.860229,480.764923 
	C1318.899902,476.696106 1304.484131,480.463593 1290.657959,488.029388 
	C1278.120361,494.890106 1272.835938,507.085449 1275.893555,520.932556 
	C1276.174805,522.206421 1276.315186,523.575378 1276.185425,524.866455 
	C1274.239746,544.230164 1284.860474,558.918396 1294.833618,573.612061 
	C1298.631104,579.206909 1299.478638,578.622192 1294.858032,583.934631 
	C1294.314087,584.559937 1293.765991,585.226440 1293.413208,585.966064 
	C1290.987427,591.051941 1286.868408,592.163391 1281.510010,592.098328 
	C1261.848267,591.859741 1242.179810,591.864685 1222.517456,592.090576 
	C1209.751099,592.237244 1205.101196,597.958435 1207.882812,610.323547 
	C1212.006714,628.655457 1216.734863,646.851196 1220.885742,665.177368 
	C1221.470337,667.758545 1221.262207,671.653809 1219.699951,673.408264 
	C1206.524170,688.204407 1205.354126,704.576904 1212.302734,722.279175 
	C1215.419067,730.218628 1222.885620,733.797180 1231.083252,731.448547 
	C1231.938843,731.203430 1233.137573,731.202515 1233.863770,731.625854 
	C1236.827271,733.353333 1239.668823,735.289734 1243.339966,737.654663 
	C1240.962158,737.795471 1239.522095,737.948364 1238.081299,737.956360 
	C1173.776733,738.312378 1109.472412,738.691711 1045.167603,738.982300 
	C1020.507019,739.093750 995.845032,739.095825 971.184387,738.979858 
	C913.378418,738.708008 855.572510,738.380066 797.767212,737.986145 
	C761.292786,737.737610 724.818726,737.021484 688.345886,737.106384 
	C666.057373,737.158264 643.774536,738.489807 621.482788,738.923218 
	C612.350281,739.100891 603.201782,738.229553 594.059387,738.199890 
	C586.582764,738.175659 579.104126,738.685547 571.626892,738.972961 
	C568.332214,739.099670 566.437500,737.842407 565.689453,734.346558 
	C565.111206,731.644104 563.934814,728.900879 562.346436,726.655273 
	C561.565979,725.551880 558.937744,724.761475 557.713806,725.250671 
	C556.535339,725.721802 555.249695,728.181335 555.494080,729.490417 
	C556.018372,732.299133 557.498169,734.929382 558.673523,737.848450 
	C558.162231,738.141479 557.616821,738.724731 557.066650,738.729126 
	C548.240417,738.800476 539.408325,738.946228 530.593567,738.629150 
	C529.462341,738.588440 528.179260,736.178284 527.391113,734.647278 
	C526.011414,731.967163 525.392334,728.799683 523.647156,726.431396 
	C522.016296,724.218384 518.803528,721.996826 516.575500,724.940674 
	C515.481567,726.386108 516.867798,729.950989 517.571472,732.431946 
	C518.065613,734.174072 519.302551,735.705627 520.207825,737.331238 
	C518.305359,738.173950 516.469238,739.283203 514.480286,739.778870 
	C512.744385,740.211426 510.834808,740.024780 509.004486,739.988037 
	C492.876617,739.663879 476.746246,739.405273 460.624268,738.889282 
	C457.420471,738.786743 452.479828,740.798889 451.639923,736.345642 
	C451.230560,734.175171 455.229370,731.179199 457.221375,728.548279 
	C459.368469,725.712524 462.862000,723.106873 463.413483,719.984924 
	C466.245972,703.950195 459.615417,693.871399 444.530945,687.388855 
	C443.273407,686.848389 441.335052,687.892212 439.713013,688.200012 
	C440.158539,689.669495 440.160614,691.604736 441.128143,692.525940 
	C444.854279,696.073364 448.926453,699.253967 452.801056,702.649475 
	C459.947845,708.912415 461.991791,718.850769 453.878113,724.302246 
	C451.126740,726.150818 448.222931,727.849060 445.205414,729.208984 
	C439.073486,731.972534 438.904999,732.104370 441.202026,738.995056 
	C438.700287,738.995056 436.419647,739.007324 434.139099,738.993225 
	C379.000519,738.653259 323.862061,738.291199 268.723297,737.981445 
	C254.725082,737.902832 240.725388,737.910400 226.727371,738.013245 
	C186.420395,738.309448 146.113571,738.640930 105.807953,739.075989 
	C102.586151,739.110779 99.374069,740.046692 96.157463,740.563782 
	C96.152565,741.432129 96.147659,742.300537 96.142761,743.168884 
	C100.232353,743.764954 104.312225,744.792786 108.413177,744.885193 
	C130.553192,745.384216 152.698486,745.927124 174.841873,745.923767 
	C198.818665,745.920105 222.794449,745.201904 246.772339,745.034363 
	C272.727509,744.853027 298.685242,745.042297 324.640686,744.882568 
	C337.754364,744.801941 350.866455,744.020752 363.977478,744.066345 
	C384.594604,744.138062 405.209351,744.823608 425.826630,744.920288 
	C461.781036,745.088867 497.736572,745.024597 533.691650,745.025452 
	C570.146729,745.026306 606.602356,744.859497 643.056702,745.012512 
	C666.644409,745.111511 690.229553,745.835266 713.817200,745.927368 
	C727.793396,745.981934 741.771240,745.292419 755.750183,745.044739 
	C778.059570,744.649414 800.371338,744.014404 822.680664,744.066467 
	C873.322388,744.184692 923.963135,744.671997 974.604370,744.986145 
	C1031.078003,745.336548 1087.551758,745.700134 1144.025879,745.976501 
	C1164.022827,746.074341 1184.024170,746.145325 1204.017822,745.848816 
	C1232.476685,745.426819 1260.928101,744.490662 1289.387207,744.106079 
	C1302.320801,743.931335 1315.265625,744.777161 1328.204590,744.754883 
	C1344.157227,744.727417 1360.109131,744.078613 1376.061279,744.075867 
	C1388.039307,744.073792 1400.016357,744.910706 1411.995361,744.950439 
	C1449.449951,745.074829 1486.905029,744.998840 1524.359985,744.999390 
	C1550.524292,744.999756 1576.688721,745.048157 1602.852661,744.951538 
	C1607.495728,744.934387 1612.147461,744.409302 1616.772461,743.908447 
	C1618.187500,743.755188 1619.526489,742.899475 1620.900269,742.365479 
	C1620.876343,741.904114 1620.852295,741.442810 1620.828247,740.981445 
	C1619.192261,740.421509 1617.573364,739.436035 1615.917480,739.369141 
	C1603.286133,738.859436 1590.649536,738.350586 1578.010620,738.210144 
	C1570.536865,738.127075 1563.058105,738.852661 1555.577637,738.975220 
	C1531.602905,739.368164 1507.627075,739.804016 1483.650391,739.907288 
	C1472.023926,739.957336 1460.395996,739.086792 1448.766357,739.013916 
	C1425.602783,738.868713 1402.437622,738.986938 1379.273071,738.996033 
	C1377.503052,738.996765 1375.733154,738.996094 1373.963135,738.996094 
	C1373.956543,738.733093 1373.949951,738.470093 1373.943359,738.207031 
	C1374.736938,738.138245 1375.530640,738.069458 1377.004883,737.986206 
M525.818604,670.513123 
	C520.740845,671.575439 515.642456,673.459473 510.594635,673.332458 
	C508.281158,673.274231 506.306091,668.917969 503.741272,667.140381 
	C501.145538,665.341553 498.009857,663.330872 495.112762,663.334045 
	C493.406006,663.335876 491.146057,666.833923 490.138550,669.189026 
	C488.852997,672.194092 488.755585,675.685425 487.798462,678.862366 
	C487.312622,680.475098 486.309540,682.761597 485.091919,683.092224 
	C483.858398,683.427063 481.659424,682.083984 480.594177,680.858154 
	C473.211456,672.362244 465.005768,665.321045 454.327454,660.881897 
	C443.036957,656.188232 431.724365,655.881042 420.975922,660.292969 
	C402.006500,668.079407 388.430908,682.291931 378.417603,700.050354 
	C376.220886,703.946106 373.744507,707.741516 370.927002,711.200317 
	C369.870483,712.497314 367.201630,713.590759 365.773468,713.147644 
	C364.472504,712.743958 363.647888,710.210144 363.010193,708.469727 
	C362.573730,707.278625 362.803741,705.838501 362.760406,704.508911 
	C362.478882,695.866943 362.220001,687.224182 361.920776,678.582886 
	C361.752930,673.736572 359.325470,670.774536 354.452209,670.098572 
	C351.160919,669.641968 347.849304,669.120728 344.538452,669.056458 
	C334.961945,668.870422 325.789795,674.877502 322.286316,683.752136 
	C321.404541,685.985657 321.256470,688.605286 321.262939,691.046143 
	C321.265594,692.042114 322.483002,693.734741 323.315521,693.845154 
	C324.277893,693.972778 325.609009,692.875854 326.432007,691.988037 
	C327.048553,691.322937 327.132690,690.152832 327.422516,689.198059 
	C330.822144,677.997803 338.203247,673.284363 349.925812,674.835022 
	C357.001892,675.771057 357.212677,676.593262 356.374878,683.907593 
	C355.416290,692.276367 355.122742,700.731445 354.797729,709.158936 
	C354.598389,714.329346 357.701324,717.636169 362.257050,719.284912 
	C367.071014,721.027283 371.690887,719.748962 375.120667,716.128052 
	C377.939606,713.152100 380.660980,709.766174 382.321259,706.066284 
	C388.800415,691.627991 399.403900,680.767822 411.636047,671.313232 
	C425.757812,660.397949 440.846069,659.853638 455.457031,670.123413 
	C462.911041,675.362732 469.391174,681.976624 476.775635,687.328857 
	C485.653168,693.763123 492.579254,690.541626 494.197693,679.922302 
	C494.710999,676.554260 495.693970,673.257812 496.676544,668.998657 
	C498.490570,670.627930 499.357269,671.047791 499.639984,671.715088 
	C502.862488,679.321228 509.162750,679.461853 515.989075,678.740601 
	C522.020691,678.103394 527.732178,677.314453 531.846558,671.894043 
	C534.034058,669.012268 536.297119,669.529968 537.330383,673.443787 
	C538.689514,678.591797 540.157532,683.724487 541.893677,688.755127 
	C543.208618,692.565308 548.196777,695.299133 551.940796,694.430725 
	C553.076294,694.167358 554.244934,693.172913 554.918274,692.185913 
	C555.221375,691.741577 554.547302,689.894775 553.975098,689.702881 
	C548.310059,687.803284 549.027527,682.375793 547.455200,678.247070 
	C545.860840,674.060547 544.548340,669.760315 542.815674,665.634460 
	C540.808350,660.854736 536.802979,659.776611 532.792236,663.054443 
	C530.371277,665.033203 528.463257,667.639465 525.818604,670.513123 
M330.852539,724.919617 
	C331.517426,724.924072 332.260010,725.122803 332.831818,724.894287 
	C334.240173,724.331665 335.570038,723.572510 336.931458,722.892395 
	C335.864899,721.828064 334.953125,720.504883 333.698700,719.754578 
	C331.282043,718.309143 328.778198,716.623962 326.106232,716.119019 
	C324.146942,715.748657 321.861725,717.102661 319.721741,717.688110 
	C320.724457,719.700806 321.234253,722.470825 322.858765,723.528320 
	C324.749817,724.759216 327.616608,724.491089 330.852539,724.919617 
M334.956116,732.257141 
	C334.724762,736.466553 337.009644,738.774536 341.198425,737.611755 
	C344.645142,736.654785 347.846222,734.686707 350.997803,732.889099 
	C351.710907,732.482422 352.285858,730.723145 351.984528,729.955444 
	C351.672913,729.161682 350.097717,728.214050 349.281677,728.375671 
	C344.619385,729.299377 340.018677,730.533752 334.956116,732.257141 
M327.837921,711.553101 
	C331.671753,711.716003 332.440674,710.038269 330.341797,707.045471 
	C328.822571,704.879211 327.160828,702.758240 325.263275,700.927429 
	C323.360291,699.091248 320.525146,696.805176 318.607849,699.855835 
	C317.602722,701.455139 318.533783,705.334412 319.943665,707.108582 
	C321.560699,709.143311 324.676941,709.986633 327.837921,711.553101 
M553.817017,697.643738 
	C552.661926,698.968750 550.288330,700.857178 550.589661,701.508850 
	C551.366089,703.188171 553.196167,705.228333 554.842896,705.464050 
	C557.499634,705.844238 560.386475,705.056152 563.091125,704.406921 
	C563.956604,704.199158 565.089844,702.888000 565.119812,702.046692 
	C565.149475,701.216614 564.091858,699.838684 563.242981,699.579407 
	C560.417297,698.716309 557.471130,698.247864 553.817017,697.643738 
M489.328949,714.705505 
	C488.191406,716.526794 487.053833,718.348022 485.916290,720.169312 
	C488.182068,720.528320 490.462463,721.225220 492.708557,721.128174 
	C494.216797,721.062988 496.219421,720.250061 497.022217,719.092834 
	C498.059265,717.597900 498.120056,715.425659 498.601257,713.545105 
	C496.907745,713.269348 495.201050,712.724792 493.525116,712.807068 
	C492.296539,712.867371 491.108368,713.750244 489.328949,714.705505 
M550.202820,719.209961 
	C549.143799,717.530762 548.436462,715.282654 546.919250,714.344482 
	C545.602234,713.530151 543.156982,713.730835 541.633423,714.419312 
	C540.926453,714.738770 540.521790,718.040405 541.202271,718.670715 
	C543.031067,720.364746 545.447144,721.528992 547.806091,722.455688 
	C548.260010,722.634033 549.515015,720.773315 550.202820,719.209961 
M491.539764,699.717896 
	C490.446594,699.331726 489.194305,698.405396 488.293121,698.670776 
	C486.362823,699.239563 484.613953,700.424011 482.790741,701.356323 
	C483.504242,702.660095 484.030151,704.885925 484.970001,705.077148 
	C486.973053,705.484680 489.358948,705.229065 491.237091,704.425293 
	C491.976074,704.109131 491.777283,701.601624 491.539764,699.717896 
z"/>
<path fill="#000000" opacity="1.000000" stroke="none" 
	d="
M1376.664551,737.993408 
	C1375.530640,738.069458 1374.736938,738.138245 1373.943359,738.207031 
	C1373.949951,738.470093 1373.956543,738.733093 1373.963135,738.996094 
	C1375.733154,738.996094 1377.503052,738.996765 1379.273071,738.996033 
	C1402.437622,738.986938 1425.602783,738.868713 1448.766357,739.013916 
	C1460.395996,739.086792 1472.023926,739.957336 1483.650391,739.907288 
	C1507.627075,739.804016 1531.602905,739.368164 1555.577637,738.975220 
	C1563.058105,738.852661 1570.536865,738.127075 1578.010620,738.210144 
	C1590.649536,738.350586 1603.286133,738.859436 1615.917480,739.369141 
	C1617.573364,739.436035 1619.192261,740.421509 1620.828247,740.981445 
	C1620.852295,741.442810 1620.876343,741.904114 1620.900269,742.365479 
	C1619.526489,742.899475 1618.187500,743.755188 1616.772461,743.908447 
	C1612.147461,744.409302 1607.495728,744.934387 1602.852661,744.951538 
	C1576.688721,745.048157 1550.524292,744.999756 1524.359985,744.999390 
	C1486.905029,744.998840 1449.449951,745.074829 1411.995361,744.950439 
	C1400.016357,744.910706 1388.039307,744.073792 1376.061279,744.075867 
	C1360.109131,744.078613 1344.157227,744.727417 1328.204590,744.754883 
	C1315.265625,744.777161 1302.320801,743.931335 1289.387207,744.106079 
	C1260.928101,744.490662 1232.476685,745.426819 1204.017822,745.848816 
	C1184.024170,746.145325 1164.022827,746.074341 1144.025879,745.976501 
	C1087.551758,745.700134 1031.078003,745.336548 974.604370,744.986145 
	C923.963135,744.671997 873.322388,744.184692 822.680664,744.066467 
	C800.371338,744.014404 778.059570,744.649414 755.750183,745.044739 
	C741.771240,745.292419 727.793396,745.981934 713.817200,745.927368 
	C690.229553,745.835266 666.644409,745.111511 643.056702,745.012512 
	C606.602356,744.859497 570.146729,745.026306 533.691650,745.025452 
	C497.736572,745.024597 461.781036,745.088867 425.826630,744.920288 
	C405.209351,744.823608 384.594604,744.138062 363.977478,744.066345 
	C350.866455,744.020752 337.754364,744.801941 324.640686,744.882568 
	C298.685242,745.042297 272.727509,744.853027 246.772339,745.034363 
	C222.794449,745.201904 198.818665,745.920105 174.841873,745.923767 
	C152.698486,745.927124 130.553192,745.384216 108.413177,744.885193 
	C104.312225,744.792786 100.232353,743.764954 96.142761,743.168884 
	C96.147659,742.300537 96.152565,741.432129 96.157463,740.563782 
	C99.374069,740.046692 102.586151,739.110779 105.807953,739.075989 
	C146.113571,738.640930 186.420395,738.309448 226.727371,738.013245 
	C240.725388,737.910400 254.725082,737.902832 268.723297,737.981445 
	C323.862061,738.291199 379.000519,738.653259 434.139099,738.993225 
	C436.419647,739.007324 438.700287,738.995056 441.202026,738.995056 
	C438.904999,732.104370 439.073486,731.972534 445.205414,729.208984 
	C448.222931,727.849060 451.126740,726.150818 453.878113,724.302246 
	C461.991791,718.850769 459.947845,708.912415 452.801056,702.649475 
	C448.926453,699.253967 444.854279,696.073364 441.128143,692.525940 
	C440.160614,691.604736 440.158539,689.669495 439.713013,688.200012 
	C441.335052,687.892212 443.273407,686.848389 444.530945,687.388855 
	C459.615417,693.871399 466.245972,703.950195 463.413483,719.984924 
	C462.862000,723.106873 459.368469,725.712524 457.221375,728.548279 
	C455.229370,731.179199 451.230560,734.175171 451.639923,736.345642 
	C452.479828,740.798889 457.420471,738.786743 460.624268,738.889282 
	C476.746246,739.405273 492.876617,739.663879 509.004486,739.988037 
	C510.834808,740.024780 512.744385,740.211426 514.480286,739.778870 
	C516.469238,739.283203 518.305359,738.173950 520.207825,737.331177 
	C519.302551,735.705627 518.065613,734.174072 517.571472,732.431946 
	C516.867798,729.950989 515.481567,726.386108 516.575500,724.940674 
	C518.803528,721.996826 522.016296,724.218384 523.647156,726.431396 
	C525.392334,728.799683 526.011414,731.967163 527.391113,734.647278 
	C528.179260,736.178284 529.462341,738.588440 530.593567,738.629150 
	C539.408325,738.946228 548.240417,738.800476 557.066650,738.729126 
	C557.616821,738.724731 558.162231,738.141479 558.673523,737.848450 
	C557.498169,734.929382 556.018372,732.299133 555.494080,729.490417 
	C555.249695,728.181335 556.535339,725.721802 557.713806,725.250671 
	C558.937744,724.761475 561.565979,725.551880 562.346436,726.655273 
	C563.934814,728.900879 565.111206,731.644104 565.689453,734.346558 
	C566.437500,737.842407 568.332214,739.099670 571.626892,738.972961 
	C579.104126,738.685547 586.582764,738.175659 594.059387,738.199890 
	C603.201782,738.229553 612.350281,739.100891 621.482788,738.923218 
	C643.774536,738.489807 666.057373,737.158264 688.345886,737.106384 
	C724.818726,737.021484 761.292786,737.737610 797.767212,737.986145 
	C855.572510,738.380066 913.378418,738.708008 971.184387,738.979858 
	C995.845032,739.095825 1020.507019,739.093750 1045.167603,738.982300 
	C1109.472412,738.691711 1173.776733,738.312378 1238.081299,737.956360 
	C1239.522095,737.948364 1240.962158,737.795471 1243.339966,737.654663 
	C1239.668823,735.289734 1236.827271,733.353333 1233.863770,731.625854 
	C1233.137573,731.202515 1231.938843,731.203430 1231.083252,731.448547 
	C1222.885620,733.797180 1215.419067,730.218628 1212.302734,722.279175 
	C1205.354126,704.576904 1206.524170,688.204407 1219.699951,673.408264 
	C1221.262207,671.653809 1221.470337,667.758545 1220.885742,665.177368 
	C1216.734863,646.851196 1212.006714,628.655457 1207.882812,610.323547 
	C1205.101196,597.958435 1209.751099,592.237244 1222.517456,592.090576 
	C1242.179810,591.864685 1261.848267,591.859741 1281.510010,592.098328 
	C1286.868408,592.163391 1290.987427,591.051941 1293.413208,585.966064 
	C1293.765991,585.226440 1294.314087,584.559937 1294.858032,583.934631 
	C1299.478638,578.622192 1298.631104,579.206909 1294.833618,573.612061 
	C1284.860474,558.918396 1274.239746,544.230164 1276.185425,524.866455 
	C1276.315186,523.575378 1276.174805,522.206421 1275.893555,520.932556 
	C1272.835938,507.085449 1278.120361,494.890106 1290.657959,488.029388 
	C1304.484131,480.463593 1318.899902,476.696106 1334.860229,480.764923 
	C1344.010498,483.097595 1351.371704,488.061798 1357.712158,494.409027 
	C1369.936401,506.646362 1381.379150,519.664368 1393.596191,531.909302 
	C1399.799805,538.127136 1406.745728,543.682251 1413.775024,548.981140 
	C1426.367432,558.473511 1433.613770,570.806702 1434.711670,586.509583 
	C1435.600586,599.225525 1431.361816,609.820312 1420.132446,616.676025 
	C1416.977295,618.602234 1417.742188,620.898621 1418.603760,623.071411 
	C1422.662109,633.307800 1422.143311,643.985107 1421.961060,654.629578 
	C1421.761597,666.276001 1418.484375,676.247559 1407.162842,682.040466 
	C1405.913696,682.679626 1405.163696,685.259216 1405.053345,686.994324 
	C1404.536133,695.125488 1404.489136,703.286865 1403.964844,711.417419 
	C1403.116577,724.573181 1390.297852,737.080078 1376.664551,737.993408 
M1304.036011,681.969727 
	C1294.553101,681.969727 1285.070190,681.969727 1275.587402,681.969727 
	C1275.539917,682.422241 1275.492432,682.874695 1275.444946,683.327209 
	C1281.236328,685.804871 1286.994141,688.367004 1292.849365,690.683228 
	C1293.918945,691.106384 1295.783813,691.004883 1296.596802,690.325806 
	C1299.613037,687.806152 1302.342896,684.943909 1305.423950,682.145386 
	C1305.553833,681.944275 1305.683716,681.743164 1305.813721,681.541992 
	C1305.532227,681.678833 1305.250854,681.815735 1304.036011,681.969727 
M1412.593872,619.905762 
	C1408.528687,602.866455 1398.193848,590.623779 1383.300415,581.996887 
	C1380.463379,580.353516 1377.263672,579.252258 1374.122314,578.238708 
	C1370.050049,576.924683 1365.742432,576.280762 1361.757446,574.766296 
	C1349.831421,570.233582 1345.988281,552.404419 1355.003784,543.931396 
	C1357.616455,541.475891 1358.701294,538.736145 1356.870117,535.478333 
	C1355.004883,532.160034 1351.979980,533.062500 1349.351685,534.116394 
	C1338.437866,538.492615 1327.008789,539.035889 1315.479248,538.997070 
	C1313.403687,538.990051 1311.328003,538.996033 1310.291382,538.996033 
	C1311.302734,544.744019 1312.346558,549.806580 1313.047485,554.916138 
	C1313.694946,559.636047 1313.605591,564.622437 1320.839111,563.315308 
	C1321.767334,563.147583 1323.031006,564.835999 1324.139282,565.664551 
	C1323.300293,566.753479 1322.677490,568.244629 1321.572388,568.838501 
	C1319.847778,569.765137 1317.790527,570.064575 1315.884644,570.663208 
	C1310.103394,572.479004 1307.650269,571.107422 1308.170654,565.128540 
	C1309.033325,555.217346 1307.267456,547.389526 1297.325684,542.448730 
	C1292.698242,540.148987 1293.269043,537.510254 1297.853882,534.134888 
	C1295.021851,532.007996 1291.930786,530.226257 1289.571777,527.747925 
	C1287.613159,525.690125 1286.515991,522.812378 1285.037231,520.297852 
	C1287.783569,520.744141 1290.774536,520.645020 1293.227539,521.745300 
	C1299.122314,524.389465 1304.464355,528.875122 1310.571533,530.308777 
	C1323.208618,533.275269 1336.042480,534.635010 1348.767090,529.087891 
	C1357.951294,525.084167 1363.545288,529.288330 1362.772827,539.287537 
	C1362.518433,542.581360 1360.558105,546.152222 1358.392212,548.785706 
	C1355.696777,552.062744 1354.840820,555.198181 1356.618652,558.826721 
	C1357.997803,561.641235 1359.836182,564.250061 1361.636963,566.834351 
	C1364.457886,570.882690 1368.087769,572.662842 1373.262573,571.552673 
	C1375.892090,570.988525 1379.141602,570.997253 1381.536499,572.051514 
	C1393.015747,577.104675 1403.147705,583.972351 1408.986572,595.637207 
	C1411.070190,599.799866 1412.902222,604.096313 1414.679321,608.401733 
	C1415.842163,611.219238 1417.524536,611.575928 1419.608398,609.657837 
	C1421.054688,608.326538 1422.333984,606.731567 1423.380615,605.061768 
	C1430.091675,594.355652 1429.037354,583.293945 1424.981689,571.986450 
	C1421.515503,562.321777 1413.892944,556.128906 1406.270874,550.412781 
	C1390.649170,538.697083 1378.331299,523.909607 1365.540527,509.462860 
	C1350.816895,492.833221 1333.748047,481.897858 1310.154419,489.011444 
	C1306.809570,490.019958 1303.381592,490.883850 1300.204224,492.292969 
	C1289.805542,496.904846 1281.399292,503.434021 1281.026733,516.009583 
	C1280.918945,519.649902 1282.033691,523.431030 1283.123291,526.983398 
	C1287.019165,539.683472 1290.701782,552.477234 1295.309814,564.922791 
	C1299.833618,577.140442 1315.916382,584.535339 1327.392334,579.756470 
	C1331.976318,577.847534 1335.587646,573.684570 1339.829834,570.827087 
	C1341.211914,569.896118 1343.190430,569.850769 1344.896118,569.400330 
	C1344.741333,571.226868 1345.227295,573.488037 1344.330078,574.811096 
	C1337.323364,585.142029 1324.092163,589.546509 1312.080322,585.853638 
	C1306.371216,584.098389 1304.857300,584.751526 1301.375488,590.471375 
	C1312.075195,592.669373 1312.733276,593.520447 1315.041626,604.463501 
	C1316.860474,613.085632 1319.131104,621.611572 1321.099609,630.203491 
	C1321.833252,633.405273 1323.260742,634.365662 1326.406860,632.859375 
	C1328.929077,631.651794 1331.681641,630.108704 1334.322998,630.125366 
	C1341.220215,630.168762 1348.159302,630.652344 1354.990356,631.611328 
	C1359.616699,632.260803 1364.088257,634.012878 1368.966553,635.365356 
	C1369.214966,632.339417 1369.435913,629.903809 1369.609619,627.464844 
	C1369.798706,624.808533 1369.693115,622.098999 1370.209839,619.511230 
	C1370.486572,618.125916 1371.802002,616.948120 1372.648682,615.676636 
	C1373.701172,616.769836 1375.390015,617.712402 1375.690796,618.983459 
	C1376.722656,623.344666 1377.555786,627.798279 1377.907104,632.260559 
	C1378.184692,635.783936 1379.512451,638.074097 1382.537354,639.910583 
	C1385.346436,641.616089 1388.070557,643.696716 1390.219849,646.148804 
	C1391.213867,647.282593 1391.374390,649.982727 1390.710205,651.414978 
	C1390.323120,652.249573 1387.353027,652.573120 1385.909302,652.073669 
	C1383.607422,651.277344 1381.617188,649.590149 1379.480957,648.303284 
	C1376.462402,646.484985 1373.430786,644.688416 1370.089722,642.694458 
	C1369.556030,644.278259 1369.149536,644.899841 1369.180542,645.498779 
	C1369.283569,647.484863 1369.552490,649.461975 1369.742920,651.443970 
	C1370.300659,657.255005 1367.994385,660.934204 1362.800049,660.787415 
	C1350.973633,660.453003 1342.029907,665.596863 1334.366699,674.011597 
	C1332.877075,675.647522 1330.702148,676.754395 1328.682739,677.793396 
	C1324.322632,680.036682 1318.775879,681.059387 1315.640869,684.393005 
	C1306.406006,694.213074 1295.349854,700.815308 1283.395508,706.579163 
	C1275.773804,710.254028 1268.585449,711.858826 1260.429321,708.734863 
	C1253.610596,706.123108 1246.655151,703.595520 1239.535034,702.110840 
	C1230.202759,700.164978 1226.120361,704.395325 1227.169189,713.954224 
	C1227.378540,715.862488 1228.134644,717.851318 1229.128906,719.508789 
	C1233.510254,726.811646 1240.440430,730.749451 1248.386230,732.744019 
	C1254.007324,734.155029 1259.820679,734.990173 1265.599731,735.546875 
	C1283.516235,737.272827 1301.307861,735.952576 1318.353149,730.224121 
	C1331.420410,725.832581 1343.930176,719.797791 1356.778931,714.723999 
	C1358.850464,713.906006 1361.397095,714.290894 1363.724243,714.119873 
	C1362.316162,716.074768 1361.307739,718.658569 1359.419678,719.858276 
	C1354.988281,722.674133 1350.136108,724.827942 1345.308716,727.325012 
	C1356.001831,731.481689 1367.148071,732.515747 1377.847656,730.531921 
	C1392.258301,727.860107 1399.836182,721.130798 1399.069702,706.883362 
	C1398.830200,702.429199 1399.830688,697.912109 1399.642456,693.450012 
	C1399.506104,690.218140 1399.000977,686.682129 1397.519287,683.886536 
	C1393.036743,675.429321 1386.522095,669.072327 1377.063843,666.054993 
	C1375.416382,665.529480 1374.279785,663.402222 1372.907227,662.014771 
	C1374.983154,661.465027 1377.046021,660.559753 1379.139282,660.483093 
	C1380.690430,660.426208 1382.517578,661.117004 1383.812256,662.045715 
	C1388.761475,665.596130 1393.437134,669.534058 1398.448120,672.989014 
	C1400.235840,674.221497 1403.209595,675.668945 1404.738037,674.988464 
	C1409.833252,672.719727 1413.863770,669.135925 1415.096802,663.074585 
	C1418.017090,648.718323 1416.878174,634.635193 1412.593872,619.905762 
M1288.554199,674.995422 
	C1297.051147,674.984924 1305.548218,674.983276 1314.045166,674.959045 
	C1316.906494,674.950867 1319.783936,674.423950 1319.776001,670.888916 
	C1319.762329,664.806580 1320.161621,658.522522 1318.820312,652.683105 
	C1315.322388,637.454956 1310.817139,622.461243 1307.032104,607.294617 
	C1305.074097,599.449585 1304.999390,599.238770 1296.791748,598.966980 
	C1281.501099,598.460754 1266.222534,597.540710 1250.929688,597.166138 
	C1240.784546,596.917542 1230.581421,596.789062 1220.482666,597.592285 
	C1212.134888,598.256165 1210.727417,600.793213 1212.842285,608.895386 
	C1214.941162,616.935974 1217.904785,624.756836 1219.871826,632.824524 
	C1222.667969,644.292847 1224.696045,655.947571 1227.446411,667.428223 
	C1229.190308,674.707214 1231.238037,676.075073 1238.657715,675.965332 
	C1254.964233,675.724182 1271.268555,675.328308 1288.554199,674.995422 
M1226.586792,680.475891 
	C1224.345337,677.482605 1222.343506,677.852356 1220.614624,680.951294 
	C1219.809326,682.394836 1218.981079,683.851929 1218.406372,685.393555 
	C1214.416138,696.097046 1216.183960,706.666443 1219.420654,717.130005 
	C1220.175049,719.568420 1221.563721,721.810547 1222.660400,724.143005 
	C1223.171387,723.907593 1223.682373,723.672180 1224.193359,723.436707 
	C1223.650269,721.587463 1223.035034,719.755920 1222.575317,717.886169 
	C1218.722534,702.213684 1227.895630,692.442261 1243.634399,695.774353 
	C1248.635620,696.833191 1253.389771,699.025391 1258.296143,700.574707 
	C1268.026978,703.647461 1276.922241,702.177673 1285.287842,695.280334 
	C1271.943359,688.718384 1259.876587,680.030518 1244.010986,681.839294 
	C1238.524902,682.464661 1232.827026,681.232971 1226.586792,680.475891 
M1344.425293,659.694641 
	C1349.268311,658.129089 1354.165161,656.706787 1358.926147,654.922302 
	C1360.658691,654.272949 1363.201294,652.956177 1363.433716,651.609009 
	C1364.610718,644.788513 1359.322266,637.937622 1352.373535,636.626831 
	C1349.604126,636.104492 1346.811279,635.622192 1344.006836,635.388428 
	C1337.825317,634.873230 1332.123291,636.232422 1327.312256,640.358826 
	C1325.228149,642.146301 1323.479858,644.124451 1326.894897,648.673157 
	C1328.304321,646.498840 1329.242798,644.441406 1330.745605,642.954163 
	C1331.693237,642.016296 1333.485107,641.931458 1334.898315,641.464050 
	C1334.793213,642.985962 1335.052490,644.655029 1334.509399,646.000122 
	C1333.262817,649.087891 1331.625122,652.017700 1330.146240,655.011658 
	C1330.518555,655.257874 1330.890869,655.504150 1331.263062,655.750366 
	C1333.815430,653.808044 1336.266724,651.702881 1338.979126,650.018616 
	C1339.839966,649.484131 1341.830322,649.620239 1342.512329,650.274536 
	C1343.171509,650.906860 1343.201294,652.743774 1342.817383,653.801147 
	C1342.000244,656.052673 1340.735596,658.141846 1339.070557,661.461792 
	C1341.499146,660.719910 1342.662354,660.364502 1344.425293,659.694641 
M1344.447144,738.967957 
	C1347.662476,738.967957 1350.877686,738.967957 1354.642334,738.967957 
	C1340.965454,733.037781 1327.867554,729.901428 1315.146240,738.658752 
	C1315.027710,738.588379 1315.282715,738.871765 1315.539185,738.873108 
	C1324.847656,738.920959 1334.156250,738.942566 1344.447144,738.967957 
M1336.517090,664.065552 
	C1336.517090,664.065552 1336.451782,664.009094 1336.517090,664.065552 
M1227.065552,726.482666 
	C1227.065552,726.482666 1227.009033,726.547974 1227.065552,726.482666 
z"/>
<path fill="#000000" opacity="1.000000" stroke="none" 
	d="
M526.071655,670.238464 
	C528.463257,667.639465 530.371277,665.033203 532.792236,663.054443 
	C536.802979,659.776611 540.808350,660.854736 542.815674,665.634460 
	C544.548340,669.760315 545.860840,674.060547 547.455200,678.247070 
	C549.027527,682.375793 548.310059,687.803284 553.975098,689.702881 
	C554.547302,689.894775 555.221375,691.741577 554.918274,692.185913 
	C554.244934,693.172913 553.076294,694.167358 551.940796,694.430725 
	C548.196777,695.299133 543.208618,692.565308 541.893677,688.755127 
	C540.157532,683.724487 538.689514,678.591797 537.330383,673.443787 
	C536.297119,669.529968 534.034058,669.012268 531.846558,671.894043 
	C527.732178,677.314453 522.020691,678.103394 515.989075,678.740601 
	C509.162750,679.461853 502.862488,679.321228 499.639984,671.715088 
	C499.357269,671.047791 498.490570,670.627930 496.676544,668.998657 
	C495.693970,673.257812 494.710999,676.554260 494.197693,679.922302 
	C492.579254,690.541626 485.653168,693.763123 476.775635,687.328857 
	C469.391174,681.976624 462.911041,675.362732 455.457031,670.123413 
	C440.846069,659.853638 425.757812,660.397949 411.636047,671.313232 
	C399.403900,680.767822 388.800415,691.627991 382.321259,706.066284 
	C380.660980,709.766174 377.939606,713.152100 375.120667,716.128052 
	C371.690887,719.748962 367.071014,721.027283 362.257050,719.284912 
	C357.701324,717.636169 354.598389,714.329346 354.797729,709.158936 
	C355.122742,700.731445 355.416290,692.276367 356.374878,683.907593 
	C357.212677,676.593262 357.001892,675.771057 349.925812,674.835022 
	C338.203247,673.284363 330.822144,677.997803 327.422516,689.198059 
	C327.132690,690.152832 327.048553,691.322937 326.432007,691.988037 
	C325.609009,692.875854 324.277893,693.972778 323.315521,693.845154 
	C322.483002,693.734741 321.265594,692.042114 321.262939,691.046143 
	C321.256470,688.605286 321.404541,685.985657 322.286316,683.752136 
	C325.789795,674.877502 334.961945,668.870422 344.538452,669.056458 
	C347.849304,669.120728 351.160919,669.641968 354.452209,670.098572 
	C359.325470,670.774536 361.752930,673.736572 361.920776,678.582886 
	C362.220001,687.224182 362.478882,695.866943 362.760406,704.508911 
	C362.803741,705.838501 362.573730,707.278625 363.010193,708.469727 
	C363.647888,710.210144 364.472504,712.743958 365.773468,713.147644 
	C367.201630,713.590759 369.870483,712.497314 370.927002,711.200317 
	C373.744507,707.741516 376.220886,703.946106 378.417603,700.050354 
	C388.430908,682.291931 402.006500,668.079407 420.975922,660.292969 
	C431.724365,655.881042 443.036957,656.188232 454.327454,660.881897 
	C465.005768,665.321045 473.211456,672.362244 480.594177,680.858154 
	C481.659424,682.083984 483.858398,683.427063 485.091919,683.092224 
	C486.309540,682.761597 487.312622,680.475098 487.798462,678.862366 
	C488.755585,675.685425 488.852997,672.194092 490.138550,669.189026 
	C491.146057,666.833923 493.406006,663.335876 495.112762,663.334045 
	C498.009857,663.330872 501.145538,665.341553 503.741272,667.140381 
	C506.306091,668.917969 508.281158,673.274231 510.594635,673.332458 
	C515.642456,673.459473 520.740845,671.575439 526.071655,670.238464 
z"/>
<path fill="#000000" opacity="1.000000" stroke="none" 
	d="
M330.456238,724.896545 
	C327.616608,724.491089 324.749817,724.759216 322.858765,723.528320 
	C321.234253,722.470825 320.724457,719.700806 319.721741,717.688110 
	C321.861725,717.102661 324.146942,715.748657 326.106232,716.119019 
	C328.778198,716.623962 331.282043,718.309143 333.698700,719.754578 
	C334.953125,720.504883 335.864899,721.828064 336.931458,722.892334 
	C335.570038,723.572510 334.240173,724.331665 332.831818,724.894287 
	C332.260010,725.122803 331.517426,724.924072 330.456238,724.896545 
z"/>
<path fill="#000000" opacity="1.000000" stroke="none" 
	d="
M335.176575,731.959839 
	C340.018677,730.533752 344.619385,729.299377 349.281677,728.375671 
	C350.097717,728.214050 351.672913,729.161682 351.984528,729.955444 
	C352.285858,730.723145 351.710907,732.482422 350.997803,732.889099 
	C347.846222,734.686707 344.645142,736.654785 341.198425,737.611755 
	C337.009644,738.774536 334.724762,736.466553 335.176575,731.959839 
z"/>
<path fill="#000000" opacity="1.000000" stroke="none" 
	d="
M327.489868,711.450317 
	C324.676941,709.986633 321.560699,709.143311 319.943665,707.108582 
	C318.533783,705.334412 317.602722,701.455139 318.607849,699.855835 
	C320.525146,696.805176 323.360291,699.091248 325.263275,700.927429 
	C327.160828,702.758240 328.822571,704.879211 330.341797,707.045471 
	C332.440674,710.038269 331.671753,711.716003 327.489868,711.450317 
z"/>
<path fill="#000000" opacity="1.000000" stroke="none" 
	d="
M554.194092,697.635986 
	C557.471130,698.247864 560.417297,698.716309 563.242981,699.579407 
	C564.091858,699.838684 565.149475,701.216614 565.119812,702.046692 
	C565.089844,702.888000 563.956604,704.199158 563.091125,704.406921 
	C560.386475,705.056152 557.499634,705.844238 554.842896,705.464050 
	C553.196167,705.228333 551.366089,703.188171 550.589661,701.508850 
	C550.288330,700.857178 552.661926,698.968750 554.194092,697.635986 
z"/>
<path fill="#000000" opacity="1.000000" stroke="none" 
	d="
M489.615601,714.485962 
	C491.108368,713.750244 492.296539,712.867371 493.525116,712.807068 
	C495.201050,712.724792 496.907745,713.269348 498.601257,713.545105 
	C498.120056,715.425659 498.059265,717.597900 497.022217,719.092834 
	C496.219421,720.250061 494.216797,721.062988 492.708557,721.128174 
	C490.462463,721.225220 488.182068,720.528320 485.916290,720.169312 
	C487.053833,718.348022 488.191406,716.526794 489.615601,714.485962 
z"/>
<path fill="#000000" opacity="1.000000" stroke="none" 
	d="
M550.301636,719.531616 
	C549.515015,720.773315 548.260010,722.634033 547.806091,722.455688 
	C545.447144,721.528992 543.031067,720.364746 541.202271,718.670715 
	C540.521790,718.040405 540.926453,714.738770 541.633423,714.419312 
	C543.156982,713.730835 545.602234,713.530151 546.919250,714.344482 
	C548.436462,715.282654 549.143799,717.530762 550.301636,719.531616 
z"/>
<path fill="#000000" opacity="1.000000" stroke="none" 
	d="
M491.772644,699.904907 
	C491.777283,701.601624 491.976074,704.109131 491.237091,704.425293 
	C489.358948,705.229065 486.973053,705.484680 484.970001,705.077148 
	C484.030151,704.885925 483.504242,702.660095 482.790771,701.356323 
	C484.613953,700.424011 486.362823,699.239563 488.293121,698.670776 
	C489.194305,698.405396 490.446594,699.331726 491.772644,699.904907 
z"/>
<path fill="#000000" opacity="1.000000" stroke="none" 
	d="
M1412.734985,620.289062 
	C1416.878174,634.635193 1418.017090,648.718323 1415.096802,663.074585 
	C1413.863770,669.135925 1409.833252,672.719727 1404.738037,674.988464 
	C1403.209595,675.668945 1400.235840,674.221497 1398.448120,672.989014 
	C1393.437134,669.534058 1388.761475,665.596130 1383.812256,662.045715 
	C1382.517578,661.117004 1380.690430,660.426208 1379.139282,660.483093 
	C1377.046021,660.559753 1374.983154,661.465027 1372.907227,662.014771 
	C1374.279785,663.402222 1375.416382,665.529480 1377.063843,666.054993 
	C1386.522095,669.072327 1393.036743,675.429321 1397.519287,683.886536 
	C1399.000977,686.682129 1399.506104,690.218140 1399.642456,693.450012 
	C1399.830688,697.912109 1398.830200,702.429199 1399.069702,706.883362 
	C1399.836182,721.130798 1392.258301,727.860107 1377.847656,730.531921 
	C1367.148071,732.515747 1356.001831,731.481689 1345.308716,727.325012 
	C1350.136108,724.827942 1354.988281,722.674133 1359.419678,719.858276 
	C1361.307739,718.658569 1362.316162,716.074768 1363.724121,714.119812 
	C1361.397095,714.290894 1358.850464,713.906006 1356.778931,714.723999 
	C1343.930176,719.797791 1331.420410,725.832581 1318.353149,730.224121 
	C1301.307861,735.952576 1283.516235,737.272827 1265.599731,735.546875 
	C1259.820679,734.990173 1254.007324,734.155029 1248.386230,732.744019 
	C1240.440430,730.749451 1233.510254,726.811646 1229.128906,719.508789 
	C1228.134644,717.851318 1227.378540,715.862488 1227.169189,713.954224 
	C1226.120361,704.395325 1230.202759,700.164978 1239.535034,702.110840 
	C1246.655151,703.595520 1253.610596,706.123108 1260.429321,708.734863 
	C1268.585449,711.858826 1275.773804,710.254028 1283.395508,706.579163 
	C1295.349854,700.815308 1306.406006,694.213074 1315.640869,684.393005 
	C1318.775879,681.059387 1324.322632,680.036682 1328.682739,677.793396 
	C1330.702148,676.754395 1332.877075,675.647522 1334.366699,674.011597 
	C1342.029907,665.596863 1350.973633,660.453003 1362.800049,660.787415 
	C1367.994385,660.934204 1370.300659,657.255005 1369.742920,651.443970 
	C1369.552490,649.461975 1369.283569,647.484863 1369.180542,645.498779 
	C1369.149536,644.899841 1369.556030,644.278259 1370.089722,642.694458 
	C1373.430786,644.688416 1376.462402,646.484985 1379.480957,648.303284 
	C1381.617188,649.590149 1383.607422,651.277344 1385.909302,652.073669 
	C1387.353027,652.573120 1390.323120,652.249573 1390.710205,651.414978 
	C1391.374390,649.982727 1391.213867,647.282593 1390.219849,646.148804 
	C1388.070557,643.696716 1385.346436,641.616089 1382.537354,639.910583 
	C1379.512451,638.074097 1378.184692,635.783936 1377.907104,632.260559 
	C1377.555786,627.798279 1376.722656,623.344666 1375.690796,618.983459 
	C1375.390015,617.712402 1373.701172,616.769836 1372.648682,615.676636 
	C1371.802002,616.948120 1370.486572,618.125916 1370.209839,619.511230 
	C1369.693115,622.098999 1369.798706,624.808533 1369.609619,627.464844 
	C1369.435913,629.903809 1369.214966,632.339417 1368.966553,635.365356 
	C1364.088257,634.012878 1359.616699,632.260803 1354.990356,631.611328 
	C1348.159302,630.652344 1341.220215,630.168762 1334.322998,630.125366 
	C1331.681641,630.108704 1328.929077,631.651794 1326.406860,632.859375 
	C1323.260742,634.365662 1321.833252,633.405273 1321.099609,630.203491 
	C1319.131104,621.611572 1316.860474,613.085632 1315.041626,604.463501 
	C1312.733276,593.520447 1312.075195,592.669373 1301.375488,590.471375 
	C1304.857300,584.751526 1306.371216,584.098389 1312.080322,585.853638 
	C1324.092163,589.546509 1337.323364,585.142029 1344.330078,574.811096 
	C1345.227295,573.488037 1344.741333,571.226868 1344.896240,569.400391 
	C1343.190430,569.850769 1341.211914,569.896118 1339.829834,570.827087 
	C1335.587646,573.684570 1331.976318,577.847534 1327.392334,579.756470 
	C1315.916382,584.535339 1299.833618,577.140442 1295.309814,564.922791 
	C1290.701782,552.477234 1287.019165,539.683472 1283.123291,526.983398 
	C1282.033691,523.431030 1280.918945,519.649902 1281.026733,516.009583 
	C1281.399292,503.434021 1289.805542,496.904846 1300.204224,492.292969 
	C1303.381592,490.883850 1306.809570,490.019958 1310.154419,489.011444 
	C1333.748047,481.897858 1350.816895,492.833221 1365.540527,509.462860 
	C1378.331299,523.909607 1390.649170,538.697083 1406.270874,550.412781 
	C1413.892944,556.128906 1421.515503,562.321777 1424.981689,571.986450 
	C1429.037354,583.293945 1430.091675,594.355652 1423.380615,605.061768 
	C1422.333984,606.731567 1421.054688,608.326538 1419.608398,609.657837 
	C1417.524536,611.575928 1415.842163,611.219238 1414.679321,608.401733 
	C1412.902222,604.096313 1411.070190,599.799866 1408.986572,595.637207 
	C1403.147705,583.972351 1393.015747,577.104675 1381.536499,572.051514 
	C1379.141602,570.997253 1375.892090,570.988525 1373.262573,571.552673 
	C1368.087769,572.662842 1364.457886,570.882690 1361.636963,566.834351 
	C1359.836182,564.250061 1357.997803,561.641235 1356.618652,558.826721 
	C1354.840820,555.198181 1355.696777,552.062744 1358.392212,548.785706 
	C1360.558105,546.152222 1362.518433,542.581360 1362.772827,539.287537 
	C1363.545288,529.288330 1357.951294,525.084167 1348.767090,529.087891 
	C1336.042480,534.635010 1323.208618,533.275269 1310.571533,530.308777 
	C1304.464355,528.875122 1299.122314,524.389465 1293.227539,521.745300 
	C1290.774536,520.645020 1287.783569,520.744141 1285.037231,520.297852 
	C1286.515991,522.812378 1287.613159,525.690125 1289.571777,527.747925 
	C1291.930786,530.226257 1295.021851,532.007996 1297.853882,534.134888 
	C1293.269043,537.510254 1292.698242,540.148987 1297.325684,542.448730 
	C1307.267456,547.389526 1309.033325,555.217346 1308.170654,565.128540 
	C1307.650269,571.107422 1310.103394,572.479004 1315.884644,570.663208 
	C1317.790527,570.064575 1319.847778,569.765137 1321.572388,568.838501 
	C1322.677490,568.244629 1323.300293,566.753479 1324.139282,565.664551 
	C1323.031006,564.835999 1321.767334,563.147583 1320.839111,563.315308 
	C1313.605591,564.622437 1313.694946,559.636047 1313.047485,554.916138 
	C1312.346558,549.806580 1311.302734,544.744019 1310.291382,538.996033 
	C1311.328003,538.996033 1313.403687,538.990051 1315.479248,538.997070 
	C1327.008789,539.035889 1338.437866,538.492615 1349.351685,534.116394 
	C1351.979980,533.062500 1355.004883,532.160034 1356.870117,535.478333 
	C1358.701294,538.736145 1357.616455,541.475891 1355.003784,543.931396 
	C1345.988281,552.404419 1349.831421,570.233582 1361.757446,574.766296 
	C1365.742432,576.280762 1370.050049,576.924683 1374.122314,578.238708 
	C1377.263672,579.252258 1380.463379,580.353516 1383.300415,581.996887 
	C1398.193848,590.623779 1408.528687,602.866455 1412.734985,620.289062 
z"/>
<path fill="#000000" opacity="1.000000" stroke="none" 
	d="
M1288.063965,674.995483 
	C1271.268555,675.328308 1254.964233,675.724182 1238.657715,675.965332 
	C1231.238037,676.075073 1229.190308,674.707214 1227.446411,667.428223 
	C1224.696045,655.947571 1222.667969,644.292847 1219.871826,632.824524 
	C1217.904785,624.756836 1214.941162,616.935974 1212.842285,608.895386 
	C1210.727417,600.793213 1212.134888,598.256165 1220.482666,597.592285 
	C1230.581421,596.789062 1240.784546,596.917542 1250.929688,597.166138 
	C1266.222534,597.540710 1281.501099,598.460754 1296.791748,598.966980 
	C1304.999390,599.238770 1305.074097,599.449585 1307.032104,607.294617 
	C1310.817139,622.461243 1315.322388,637.454956 1318.820312,652.683105 
	C1320.161621,658.522522 1319.762329,664.806580 1319.776001,670.888916 
	C1319.783936,674.423950 1316.906494,674.950867 1314.045166,674.959045 
	C1305.548218,674.983276 1297.051147,674.984924 1288.063965,674.995483 
M1278.573975,637.494141 
	C1278.608032,635.650879 1279.351318,633.384949 1278.549683,632.039795 
	C1275.580933,627.058411 1257.610840,627.914734 1254.598022,632.969543 
	C1250.893677,639.184692 1252.301514,648.393433 1257.588013,652.527222 
	C1261.306519,655.434937 1272.537598,654.007385 1276.395874,650.009216 
	C1279.030273,647.279297 1281.451172,644.415894 1277.863281,640.562378 
	C1277.473022,640.143127 1278.035645,638.836548 1278.573975,637.494141 
M1266.746094,618.950134 
	C1263.680054,621.043762 1262.291870,623.858948 1265.228027,626.695068 
	C1267.899170,629.275269 1270.544556,627.203064 1272.342896,624.947021 
	C1273.321411,623.719482 1273.491577,621.847656 1274.026245,620.266357 
	C1271.820679,619.718262 1269.615234,619.170105 1266.746094,618.950134 
z"/>
<path fill="#000000" opacity="1.000000" stroke="none" 
	d="
M1226.906372,680.662720 
	C1232.827026,681.232971 1238.524902,682.464661 1244.010986,681.839294 
	C1259.876587,680.030518 1271.943359,688.718384 1285.287842,695.280334 
	C1276.922241,702.177673 1268.026978,703.647461 1258.296143,700.574707 
	C1253.389771,699.025391 1248.635620,696.833191 1243.634399,695.774353 
	C1227.895630,692.442261 1218.722534,702.213684 1222.575317,717.886169 
	C1223.035034,719.755920 1223.650269,721.587463 1224.193359,723.436707 
	C1223.682373,723.672180 1223.171387,723.907593 1222.660400,724.143005 
	C1221.563721,721.810547 1220.175049,719.568420 1219.420654,717.130005 
	C1216.183960,706.666443 1214.416138,696.097046 1218.406372,685.393555 
	C1218.981079,683.851929 1219.809326,682.394836 1220.614624,680.951294 
	C1222.343506,677.852356 1224.345337,677.482605 1226.906372,680.662720 
z"/>
<path fill="#000000" opacity="1.000000" stroke="none" 
	d="
M1344.125488,659.851868 
	C1342.662354,660.364502 1341.499146,660.719910 1339.070557,661.461792 
	C1340.735596,658.141846 1342.000244,656.052673 1342.817383,653.801147 
	C1343.201294,652.743774 1343.171509,650.906860 1342.512329,650.274536 
	C1341.830322,649.620239 1339.839966,649.484131 1338.979126,650.018616 
	C1336.266724,651.702881 1333.815430,653.808044 1331.263062,655.750366 
	C1330.890869,655.504150 1330.518555,655.257874 1330.146240,655.011658 
	C1331.625122,652.017700 1333.262817,649.087891 1334.509399,646.000122 
	C1335.052490,644.655029 1334.793213,642.985962 1334.898315,641.464050 
	C1333.485107,641.931458 1331.693237,642.016296 1330.745605,642.954163 
	C1329.242798,644.441406 1328.304321,646.498840 1326.894897,648.673157 
	C1323.479858,644.124451 1325.228149,642.146301 1327.312256,640.358826 
	C1332.123291,636.232422 1337.825317,634.873230 1344.006836,635.388428 
	C1346.811279,635.622192 1349.604126,636.104492 1352.373535,636.626831 
	C1359.322266,637.937622 1364.610718,644.788513 1363.433716,651.609009 
	C1363.201294,652.956177 1360.658691,654.272949 1358.926147,654.922302 
	C1354.165161,656.706787 1349.268311,658.129089 1344.125488,659.851868 
z"/>
<path fill="#000000" opacity="1.000000" stroke="none" 
	d="
M1305.180420,682.210327 
	C1302.342896,684.943909 1299.613037,687.806152 1296.596802,690.325806 
	C1295.783813,691.004883 1293.918945,691.106384 1292.849365,690.683228 
	C1286.994141,688.367004 1281.236328,685.804871 1275.444946,683.327209 
	C1275.492432,682.874695 1275.539917,682.422241 1275.587402,681.969727 
	C1285.070190,681.969727 1294.553101,681.969727 1304.555420,682.025635 
	C1305.074951,682.081482 1305.180420,682.210327 1305.180420,682.210327 
z"/>
<path fill="#000000" opacity="1.000000" stroke="none" 
	d="
M1343.956055,738.967896 
	C1334.156250,738.942566 1324.847656,738.920959 1315.539185,738.873108 
	C1315.282715,738.871765 1315.027710,738.588379 1315.146240,738.658752 
	C1327.867554,729.901428 1340.965454,733.037781 1354.642334,738.967957 
	C1350.877686,738.967957 1347.662476,738.967957 1343.956055,738.967896 
z"/>
<path fill="#000000" opacity="1.000000" stroke="none" 
	d="
M1305.022217,682.017090 
	C1305.250854,681.815735 1305.532227,681.678833 1305.813721,681.541992 
	C1305.683716,681.743164 1305.553833,681.944275 1305.302246,682.177856 
	C1305.180420,682.210327 1305.074951,682.081482 1305.022217,682.017090 
z"/>
<path fill="#000000" opacity="1.000000" stroke="none" 
	d="
M1336.484375,664.037354 
	C1336.451782,664.009094 1336.517090,664.065552 1336.484375,664.037354 
z"/>
<path fill="#000000" opacity="1.000000" stroke="none" 
	d="
M1227.037354,726.515320 
	C1227.009033,726.547974 1227.065552,726.482666 1227.037354,726.515320 
z"/>
<path fill="#000000" opacity="1.000000" stroke="none" 
	d="
M1278.365112,637.717896 
	C1278.035645,638.836548 1277.473022,640.143127 1277.863281,640.562378 
	C1281.451172,644.415894 1279.030273,647.279297 1276.395874,650.009216 
	C1272.537598,654.007385 1261.306519,655.434937 1257.588013,652.527222 
	C1252.301514,648.393433 1250.893677,639.184692 1254.598022,632.969543 
	C1257.610840,627.914734 1275.580933,627.058411 1278.549683,632.039795 
	C1279.351318,633.384949 1278.608032,635.650879 1278.365112,637.717896 
z"/>
<path fill="#000000" opacity="1.000000" stroke="none" 
	d="
M1267.077881,618.786072 
	C1269.615234,619.170105 1271.820679,619.718262 1274.026245,620.266357 
	C1273.491577,621.847656 1273.321411,623.719482 1272.342896,624.947021 
	C1270.544556,627.203064 1267.899170,629.275269 1265.228027,626.695068 
	C1262.291870,623.858948 1263.680054,621.043762 1267.077881,618.786072 
z"/>
</svg>