<svg version="1.1" id="Layer_1" xmlns="http://www.w3.org/2000/svg" xmlns:xlink="http://www.w3.org/1999/xlink" x="0px" y="0px"
	 width="100%" viewBox="0 0 1694 820" enable-background="new 0 0 1694 820" xml:space="preserve">
<path fill="none" opacity="1.000000" stroke="none" 
	d="
M1688.051270,821.000000 
	C1125.375977,821.000000 563.211670,821.000000 1.023660,821.000000 
	C1.023660,547.683594 1.023660,274.367157 1.023660,1.025371 
	C565.647400,1.025371 1130.294800,1.025371 1694.971069,1.025371 
	C1694.971069,274.312927 1694.971069,547.625854 1694.971069,821.000000 
	C1692.854126,821.000000 1690.708130,821.000000 1688.051270,821.000000 
M311.227661,712.140320 
	C309.611023,713.521057 307.994385,714.901794 306.377747,716.282471 
	C307.922577,717.828003 309.283691,720.402466 311.048248,720.717529 
	C315.544373,721.520386 320.220276,721.398926 324.825348,721.420898 
	C325.519684,721.424194 326.834137,720.150940 326.776306,719.577698 
	C326.684662,718.669556 325.856262,717.430481 325.023193,717.076904 
	C322.332703,715.934998 319.497833,715.133362 316.718597,714.200562 
	C317.138245,713.953308 317.557892,713.705994 317.977539,713.458740 
	C317.575531,710.751709 317.650085,707.861328 316.690704,705.368835 
	C312.038544,693.282288 313.941833,683.536011 322.729004,675.834717 
	C328.411041,670.854736 335.258087,670.881348 341.609283,672.864929 
	C347.366516,674.663147 347.969574,680.840393 348.890656,686.112915 
	C349.089661,687.252014 348.863892,688.469666 349.093048,689.598511 
	C349.982880,693.981873 350.338684,698.614807 352.054413,702.662598 
	C356.878113,714.042664 374.271851,715.680481 381.446747,705.681458 
	C382.123749,704.738037 382.649445,703.685608 383.240143,702.680786 
	C390.750122,689.904785 398.205750,677.094543 409.458740,667.067749 
	C421.006378,656.778381 436.956757,653.431519 448.184113,659.830261 
	C454.611542,663.493469 460.468079,668.242371 466.276947,672.883728 
	C472.286499,677.685486 478.119965,682.477295 485.970306,684.137329 
	C490.487762,685.092651 493.020508,683.367004 494.568634,679.481384 
	C496.046844,675.771301 497.239868,671.942444 498.835724,668.286865 
	C499.538910,666.676147 500.928680,665.365295 502.652588,663.051331 
	C504.441864,667.086487 505.309601,670.212097 507.084320,672.687439 
	C508.589325,674.786621 511.007080,677.343689 513.256042,677.594971 
	C520.967651,678.456848 529.070679,679.510437 534.754822,671.977722 
	C535.329041,671.216736 536.379639,670.830750 537.153442,670.202087 
	C539.664673,668.161743 541.220276,668.786987 542.382690,671.739014 
	C544.089111,676.072510 546.242981,680.237488 547.812927,684.615295 
	C549.998474,690.710266 554.446838,693.627808 560.549438,694.184692 
	C562.059448,694.322449 563.685303,693.190063 565.257935,692.641602 
	C564.377014,691.247498 563.682983,689.677979 562.574890,688.497070 
	C560.494385,686.279724 557.568298,684.645813 556.078064,682.127625 
	C552.794739,676.579590 550.309692,670.566162 547.261963,664.869446 
	C544.828857,660.321411 539.859436,659.762512 535.968018,663.340027 
	C533.765625,665.364746 531.600342,667.431091 529.362854,669.416138 
	C521.707031,676.208069 513.388550,674.298218 509.843353,664.966187 
	C509.370667,663.721924 508.974274,662.425659 508.327026,661.274658 
	C505.219604,655.748962 498.752625,655.633484 495.543152,661.113892 
	C493.863403,663.982117 492.428741,667.006104 491.047791,670.034729 
	C486.825989,679.293640 485.574799,679.544189 478.102295,672.399780 
	C477.741974,672.055237 477.437317,671.653198 477.084900,671.299744 
	C470.150238,664.345032 462.985748,658.221680 453.454407,654.337830 
	C440.778046,649.172485 428.754700,650.603943 417.293121,655.623535 
	C401.573395,662.508057 392.269104,676.516174 383.283661,690.441406 
	C381.030334,693.933472 379.044922,697.649597 376.416138,700.833069 
	C374.087158,703.653564 371.786926,707.083801 366.917480,705.603821 
	C361.614563,703.992188 359.141541,700.339417 358.118866,695.217041 
	C357.213287,690.680847 356.338013,686.125061 355.122803,681.666870 
	C351.294312,667.621155 332.614471,661.057739 320.945099,669.971130 
	C312.868073,676.140503 306.884491,684.076904 308.137726,695.011414 
	C308.787292,700.678406 310.814240,706.187500 312.086548,711.916809 
	C312.086548,711.916809 311.954865,712.066284 311.227661,712.140320 
M1207.500000,737.994812 
	C1156.531250,738.327087 1105.562988,738.758301 1054.593750,738.960205 
	C1014.269104,739.119934 973.942871,739.128235 933.618286,738.966614 
	C888.478699,738.785706 843.340027,738.363464 798.201294,737.997742 
	C761.394897,737.699585 724.588196,737.011230 687.783264,737.106506 
	C663.995422,737.168091 640.212219,738.410217 616.423218,738.961182 
	C606.809082,739.183838 597.167786,738.626587 587.571716,739.095581 
	C582.031738,739.366394 579.068787,737.496338 576.884033,732.468506 
	C575.953552,730.327087 572.800903,729.048462 570.458252,727.733826 
	C570.105103,727.535583 567.766113,729.434570 567.877991,730.109253 
	C568.271912,732.483948 569.341370,734.745239 570.132080,737.057190 
	C570.231018,737.346436 570.196106,737.681580 570.265442,738.483704 
	C568.868591,738.650208 567.451050,738.960510 566.032532,738.965515 
	C556.533875,738.999451 547.033325,738.861389 537.536926,739.007019 
	C533.302795,739.071899 531.061584,737.727417 530.766418,733.136292 
	C530.474915,728.601746 528.458984,724.673157 523.904541,722.946533 
	C522.589905,722.448181 520.473877,722.625427 519.393921,723.411560 
	C518.563477,724.016052 518.228455,726.266357 518.656799,727.419250 
	C519.382080,729.371216 520.791931,731.104431 522.079163,732.804565 
	C524.650085,736.200073 523.990295,738.219360 519.749634,738.969116 
	C516.809814,739.488892 513.804993,739.975952 510.835754,739.939758 
	C491.041321,739.698669 471.248444,739.325500 451.455994,738.945374 
	C450.114868,738.919556 448.781555,738.487366 447.444611,738.244141 
	C448.522949,736.393433 449.703430,735.617493 450.963898,735.006592 
	C461.249512,730.021667 466.539062,722.059692 464.860046,710.477539 
	C463.424408,700.574280 458.569672,692.675476 449.240814,688.279297 
	C447.835602,687.617065 445.681824,688.543274 443.874298,688.734741 
	C444.312531,690.370483 444.290710,692.389099 445.274323,693.570984 
	C448.351990,697.269043 451.719513,700.741516 455.138214,704.136780 
	C461.685272,710.638916 461.713013,720.490784 454.343414,725.864929 
	C450.430878,728.718079 445.479767,730.281311 440.822662,731.934387 
	C437.423218,733.141174 433.856476,733.672607 434.310089,738.308838 
	C406.447937,738.308838 378.978119,738.308838 350.344696,738.308838 
	C352.111176,735.528381 353.374298,733.840149 354.290985,731.981140 
	C354.813293,730.921936 355.331421,729.192932 354.831879,728.475464 
	C354.273834,727.673950 352.150330,727.001221 351.421326,727.444824 
	C348.091705,729.470276 343.900604,731.266846 342.121094,734.356445 
	C339.829742,738.334595 337.191559,739.097046 333.286896,739.017883 
	C313.813446,738.623291 294.337036,737.993896 274.863525,738.053162 
	C218.059555,738.225891 161.256287,738.664185 104.453583,739.104736 
	C101.685104,739.126160 98.924484,740.159180 96.160202,740.721191 
	C96.136246,741.538513 96.112297,742.355774 96.088341,743.173035 
	C100.147354,743.766235 104.194519,744.763245 108.267418,744.882629 
	C125.739296,745.394897 143.219818,745.986938 160.695236,745.931702 
	C207.169205,745.784790 253.642105,745.312805 300.115540,744.984009 
	C308.572906,744.924133 317.032349,745.027588 325.487915,744.883179 
	C337.934814,744.670654 350.380219,744.016235 362.824188,744.066101 
	C383.774048,744.149963 404.721497,744.820190 425.671478,744.917480 
	C461.791473,745.085144 497.912659,745.017883 534.033325,745.020264 
	C570.487366,745.022705 606.942017,744.865173 643.395325,745.018066 
	C666.315796,745.114197 689.233765,745.842957 712.154114,745.923767 
	C726.630066,745.974792 741.107605,745.311523 755.585815,745.045654 
	C776.561523,744.660339 797.539429,744.011169 818.514832,744.064758 
	C871.488220,744.200134 924.460693,744.656982 977.433472,745.000305 
	C1026.739868,745.319885 1076.045898,745.833618 1125.352783,745.923096 
	C1153.994263,745.975098 1182.637207,745.383911 1211.278931,745.037720 
	C1236.922119,744.727783 1262.563721,744.279480 1288.207397,744.041382 
	C1303.959717,743.895142 1319.715454,743.925598 1335.468140,744.062683 
	C1357.417847,744.253723 1379.365479,744.660767 1401.314941,744.899292 
	C1436.455811,745.281189 1471.596802,745.735107 1506.738892,745.883423 
	C1521.714722,745.946533 1536.692017,745.168518 1551.671143,745.037476 
	C1570.167480,744.875549 1588.667603,745.104065 1607.163330,744.902344 
	C1611.729614,744.852661 1616.284790,743.791748 1620.845215,743.195679 
	C1620.853394,742.458618 1620.861572,741.721497 1620.869751,740.984436 
	C1618.786499,740.369263 1616.723389,739.307983 1614.616699,739.213013 
	C1602.982666,738.688416 1591.338013,738.112854 1579.696899,738.105957 
	C1566.554810,738.098206 1553.412964,738.697449 1540.270142,738.990723 
	C1524.627930,739.339722 1508.984741,739.878662 1493.341553,739.895996 
	C1480.047974,739.910706 1466.754883,739.092834 1453.459351,739.013672 
	C1428.629883,738.865845 1403.798828,738.986694 1378.968506,738.995605 
	C1377.345459,738.996216 1375.722290,738.995667 1374.099243,738.995667 
	C1387.488281,738.730042 1405.235107,724.022644 1404.270508,709.311096 
	C1403.794189,702.048645 1404.833252,694.697388 1404.902344,687.383545 
	C1404.930420,684.421631 1405.524048,682.482727 1408.468262,681.066589 
	C1414.471558,678.179199 1418.397827,673.124878 1420.237427,666.847656 
	C1421.391846,662.908569 1421.791870,658.655151 1421.912842,654.524658 
	C1422.224609,643.882629 1422.648315,633.204285 1418.572754,622.973999 
	C1417.697144,620.776550 1417.011108,618.460510 1420.231323,616.638062 
	C1430.520752,610.814819 1436.037354,597.419800 1434.696899,585.408142 
	C1432.957031,569.818848 1425.363037,558.278015 1413.376221,548.526489 
	C1401.653076,538.989380 1390.606812,528.572083 1379.732910,518.055847 
	C1372.337769,510.903870 1366.012695,502.655396 1358.749756,495.354340 
	C1342.403320,478.922119 1323.132080,474.860016 1301.460815,483.078217 
	C1289.661743,487.552673 1278.385498,493.103729 1276.002319,507.237305 
	C1275.118286,512.479797 1276.853271,518.129272 1276.229248,523.456726 
	C1274.506836,538.160461 1280.109131,550.504761 1287.579590,562.407959 
	C1289.961182,566.202820 1291.941284,570.346130 1294.834229,573.701477 
	C1299.364868,578.956482 1299.617554,578.720947 1295.128662,583.630188 
	C1294.458496,584.363037 1293.799683,585.161987 1293.363281,586.043091 
	C1290.987915,590.839417 1287.152222,592.168457 1281.918091,592.098267 
	C1263.090454,591.845642 1244.257202,591.969910 1225.426270,592.013672 
	C1208.904175,592.052124 1204.463989,597.946289 1208.477661,613.864807 
	C1212.827759,631.118042 1217.048828,648.406555 1221.003174,665.753418 
	C1221.551392,668.158020 1221.163086,671.800537 1219.658325,673.488098 
	C1206.470093,688.279541 1205.374390,704.674927 1212.336914,722.358093 
	C1215.425903,730.203125 1222.812500,733.676758 1231.156616,731.407349 
	C1232.011841,731.174805 1233.201660,731.235291 1233.937866,731.667786 
	C1236.883179,733.398376 1239.710693,735.329285 1243.832153,737.994812 
	C1231.084229,737.994812 1219.792114,737.994812 1207.500000,737.994812 
M322.032867,732.681030 
	C327.684113,731.536072 333.361969,730.500671 338.960602,729.139221 
	C339.902649,728.910156 340.502014,727.271912 341.259705,726.284729 
	C340.096130,725.552002 338.924957,724.182434 337.770294,724.196228 
	C332.628387,724.257629 327.450836,724.433899 322.371887,725.164612 
	C320.287170,725.464478 318.418884,727.268677 316.452148,728.388611 
	C318.046326,729.758667 319.640472,731.128662 322.032867,732.681030 
M565.559204,708.814880 
	C568.478943,708.289795 571.451355,707.949585 574.290466,707.141235 
	C575.307251,706.851746 576.002258,705.432068 576.844177,704.528198 
	C575.933167,703.733093 575.129639,702.473877 574.090210,702.233215 
	C571.368835,701.602966 568.551819,701.216187 565.758972,701.114258 
	C563.217163,701.021484 559.899780,700.512268 559.497742,704.235779 
	C559.120239,707.732727 561.950867,708.465332 565.559204,708.814880 
M504.328735,718.626465 
	C503.609680,715.684570 502.025208,713.425171 498.751984,714.590393 
	C495.985779,715.575256 493.273743,717.132141 491.015381,719.010193 
	C488.564240,721.048523 489.735535,723.181702 492.454559,723.570618 
	C497.004822,724.221313 501.428345,723.700745 504.328735,718.626465 
M486.957397,704.810913 
	C489.705902,704.572021 492.473419,704.431763 495.167908,703.912598 
	C495.390594,703.869629 495.403015,700.116150 495.030457,700.023193 
	C492.356232,699.356628 489.543243,698.880066 486.803711,699.002380 
	C485.496399,699.060791 484.253387,700.558899 482.981232,701.404846 
	C484.072235,702.456787 485.163208,703.508667 486.957397,704.810913 
M558.459045,714.058411 
	C557.241638,715.719971 556.024170,717.381531 554.806702,719.043091 
	C557.007935,720.206665 559.115723,721.673584 561.453613,722.393677 
	C562.475281,722.708313 563.967651,721.494690 565.246216,720.975037 
	C564.074829,719.161804 563.015686,717.259338 561.678955,715.577576 
	C561.114441,714.867310 559.965454,714.621643 558.459045,714.058411 
z"/>
<path fill="#2D1909" opacity="1.000000" stroke="none" 
	d="
M1208.000000,737.994812 
	C1219.792114,737.994812 1231.084229,737.994812 1243.832153,737.994812 
	C1239.710693,735.329285 1236.883179,733.398376 1233.937866,731.667786 
	C1233.201660,731.235291 1232.011841,731.174805 1231.156616,731.407349 
	C1222.812500,733.676758 1215.425903,730.203125 1212.336914,722.358093 
	C1205.374390,704.674927 1206.470093,688.279541 1219.658325,673.488098 
	C1221.163086,671.800537 1221.551392,668.158020 1221.003174,665.753418 
	C1217.048828,648.406555 1212.827759,631.118042 1208.477661,613.864807 
	C1204.463989,597.946289 1208.904175,592.052124 1225.426270,592.013672 
	C1244.257202,591.969910 1263.090454,591.845642 1281.918091,592.098267 
	C1287.152222,592.168457 1290.987915,590.839417 1293.363281,586.043091 
	C1293.799683,585.161987 1294.458496,584.363037 1295.128662,583.630188 
	C1299.617554,578.720947 1299.364868,578.956482 1294.834229,573.701477 
	C1291.941284,570.346130 1289.961182,566.202820 1287.579590,562.407959 
	C1280.109131,550.504761 1274.506836,538.160461 1276.229248,523.456726 
	C1276.853271,518.129272 1275.118286,512.479797 1276.002319,507.237305 
	C1278.385498,493.103729 1289.661743,487.552673 1301.460815,483.078217 
	C1323.132080,474.860016 1342.403320,478.922119 1358.749756,495.354340 
	C1366.012695,502.655396 1372.337769,510.903870 1379.732910,518.055847 
	C1390.606812,528.572083 1401.653076,538.989380 1413.376221,548.526489 
	C1425.363037,558.278015 1432.957031,569.818848 1434.696899,585.408142 
	C1436.037354,597.419800 1430.520752,610.814819 1420.231323,616.638062 
	C1417.011108,618.460510 1417.697144,620.776550 1418.572754,622.973999 
	C1422.648315,633.204285 1422.224609,643.882629 1421.912842,654.524658 
	C1421.791870,658.655151 1421.391846,662.908569 1420.237427,666.847656 
	C1418.397827,673.124878 1414.471558,678.179199 1408.468262,681.066589 
	C1405.524048,682.482727 1404.930420,684.421631 1404.902344,687.383545 
	C1404.833252,694.697388 1403.794189,702.048645 1404.270508,709.311096 
	C1405.235107,724.022644 1387.488281,738.730042 1374.099243,738.995667 
	C1375.722290,738.995667 1377.345459,738.996216 1378.968506,738.995605 
	C1403.798828,738.986694 1428.629883,738.865845 1453.459351,739.013672 
	C1466.754883,739.092834 1480.047974,739.910706 1493.341553,739.895996 
	C1508.984741,739.878662 1524.627930,739.339722 1540.270142,738.990723 
	C1553.412964,738.697449 1566.554810,738.098206 1579.696899,738.105957 
	C1591.338013,738.112854 1602.982666,738.688416 1614.616699,739.213013 
	C1616.723389,739.307983 1618.786499,740.369263 1620.869751,740.984436 
	C1620.861572,741.721497 1620.853394,742.458618 1620.845215,743.195679 
	C1616.284790,743.791748 1611.729614,744.852661 1607.163330,744.902344 
	C1588.667603,745.104065 1570.167480,744.875549 1551.671143,745.037476 
	C1536.692017,745.168518 1521.714722,745.946533 1506.738892,745.883423 
	C1471.596802,745.735107 1436.455811,745.281189 1401.314941,744.899292 
	C1379.365479,744.660767 1357.417847,744.253723 1335.468140,744.062683 
	C1319.715454,743.925598 1303.959717,743.895142 1288.207397,744.041382 
	C1262.563721,744.279480 1236.922119,744.727783 1211.278931,745.037720 
	C1182.637207,745.383911 1153.994263,745.975098 1125.352783,745.923096 
	C1076.045898,745.833618 1026.739868,745.319885 977.433472,745.000305 
	C924.460693,744.656982 871.488220,744.200134 818.514832,744.064758 
	C797.539429,744.011169 776.561523,744.660339 755.585815,745.045654 
	C741.107605,745.311523 726.630066,745.974792 712.154114,745.923767 
	C689.233765,745.842957 666.315796,745.114197 643.395325,745.018066 
	C606.942017,744.865173 570.487366,745.022705 534.033325,745.020264 
	C497.912659,745.017883 461.791473,745.085144 425.671478,744.917480 
	C404.721497,744.820190 383.774048,744.149963 362.824188,744.066101 
	C350.380219,744.016235 337.934814,744.670654 325.487915,744.883179 
	C317.032349,745.027588 308.572906,744.924133 300.115540,744.984009 
	C253.642105,745.312805 207.169205,745.784790 160.695236,745.931702 
	C143.219818,745.986938 125.739296,745.394897 108.267418,744.882629 
	C104.194519,744.763245 100.147354,743.766235 96.088341,743.173035 
	C96.112297,742.355774 96.136246,741.538513 96.160202,740.721191 
	C98.924484,740.159180 101.685104,739.126160 104.453583,739.104736 
	C161.256287,738.664185 218.059555,738.225891 274.863525,738.053162 
	C294.337036,737.993896 313.813446,738.623291 333.286896,739.017883 
	C337.191559,739.097046 339.829742,738.334595 342.121094,734.356445 
	C343.900604,731.266846 348.091705,729.470276 351.421326,727.444824 
	C352.150330,727.001221 354.273834,727.673950 354.831879,728.475464 
	C355.331421,729.192932 354.813293,730.921936 354.290985,731.981140 
	C353.374298,733.840149 352.111176,735.528381 350.344696,738.308838 
	C378.978119,738.308838 406.447937,738.308838 434.310089,738.308838 
	C433.856476,733.672607 437.423218,733.141174 440.822662,731.934387 
	C445.479767,730.281311 450.430878,728.718079 454.343414,725.864929 
	C461.713013,720.490784 461.685272,710.638916 455.138214,704.136780 
	C451.719513,700.741516 448.351990,697.269043 445.274323,693.570984 
	C444.290710,692.389099 444.312531,690.370483 443.874298,688.734741 
	C445.681824,688.543274 447.835602,687.617065 449.240814,688.279297 
	C458.569672,692.675476 463.424408,700.574280 464.860046,710.477539 
	C466.539062,722.059692 461.249512,730.021667 450.963898,735.006592 
	C449.703430,735.617493 448.522949,736.393433 447.444611,738.244141 
	C448.781555,738.487366 450.114868,738.919556 451.455994,738.945374 
	C471.248444,739.325500 491.041321,739.698669 510.835754,739.939758 
	C513.804993,739.975952 516.809814,739.488892 519.749634,738.969116 
	C523.990295,738.219360 524.650085,736.200073 522.079163,732.804565 
	C520.791931,731.104431 519.382080,729.371216 518.656799,727.419250 
	C518.228455,726.266357 518.563477,724.016052 519.393921,723.411560 
	C520.473877,722.625427 522.589905,722.448181 523.904541,722.946533 
	C528.458984,724.673157 530.474915,728.601746 530.766418,733.136292 
	C531.061584,737.727417 533.302795,739.071899 537.536926,739.007019 
	C547.033325,738.861389 556.533875,738.999451 566.032532,738.965515 
	C567.451050,738.960510 568.868591,738.650208 570.265442,738.483704 
	C570.196106,737.681580 570.231018,737.346436 570.132080,737.057190 
	C569.341370,734.745239 568.271912,732.483948 567.877991,730.109253 
	C567.766113,729.434570 570.105103,727.535583 570.458252,727.733826 
	C572.800903,729.048462 575.953552,730.327087 576.884033,732.468506 
	C579.068787,737.496338 582.031738,739.366394 587.571716,739.095581 
	C597.167786,738.626587 606.809082,739.183838 616.423218,738.961182 
	C640.212219,738.410217 663.995422,737.168091 687.783264,737.106506 
	C724.588196,737.011230 761.394897,737.699585 798.201294,737.997742 
	C843.340027,738.363464 888.478699,738.785706 933.618286,738.966614 
	C973.942871,739.128235 1014.269104,739.119934 1054.593750,738.960205 
	C1105.562988,738.758301 1156.531250,738.327087 1208.000000,737.994812 
M1304.035889,681.969849 
	C1294.553101,681.969849 1285.070312,681.969849 1275.587524,681.969849 
	C1275.540649,682.422607 1275.493774,682.875366 1275.446899,683.328125 
	C1281.237549,685.805481 1286.994873,688.367249 1292.849365,690.683167 
	C1293.918945,691.106323 1295.783813,691.004761 1296.596680,690.325745 
	C1299.612915,687.806091 1302.343018,684.943909 1305.423828,682.145447 
	C1305.553711,681.944275 1305.683594,681.743164 1305.813477,681.541931 
	C1305.532104,681.678894 1305.250732,681.815796 1304.035889,681.969849 
M1351.202637,547.866455 
	C1352.463257,546.550232 1353.651001,545.153381 1355.000000,543.934753 
	C1357.662109,541.530029 1358.701172,538.741333 1356.872437,535.481873 
	C1355.009521,532.161743 1351.984497,533.061279 1349.355347,534.115234 
	C1338.441040,538.490662 1327.011963,539.036377 1315.481812,538.997070 
	C1313.405640,538.989929 1311.329468,538.996033 1310.290649,538.996033 
	C1311.302002,544.742432 1312.346558,549.804993 1313.047363,554.914795 
	C1313.694824,559.634827 1313.603882,564.621826 1320.838379,563.315186 
	C1321.766968,563.147400 1323.030762,564.835449 1324.139282,565.663757 
	C1323.300415,566.752869 1322.677979,568.244385 1321.572998,568.838196 
	C1319.848511,569.765015 1317.791016,570.064392 1315.885132,570.663025 
	C1310.103149,572.479065 1307.650391,571.107849 1308.170776,565.128662 
	C1309.033081,555.217224 1307.266724,547.389099 1297.324951,542.447998 
	C1292.697998,540.148376 1293.268677,537.511230 1297.636230,534.293579 
	C1293.845703,531.091858 1289.935059,528.016479 1286.345703,524.603210 
	C1285.399902,523.703796 1285.447021,521.760132 1285.038208,520.296021 
	C1286.577148,520.180969 1288.308716,519.557007 1289.616333,520.052551 
	C1292.714478,521.226501 1295.748535,522.710449 1298.566528,524.458923 
	C1314.201660,534.159668 1330.752319,535.681946 1347.718872,529.148560 
	C1359.250244,524.708069 1364.353394,531.335022 1362.718628,541.279907 
	C1362.275024,543.978088 1360.370972,546.740112 1358.434448,548.818054 
	C1355.514648,551.951111 1354.842529,555.205444 1356.621338,558.832703 
	C1358.001465,561.647095 1359.839844,564.255859 1361.640869,566.840088 
	C1364.463379,570.889587 1368.096680,572.661438 1373.270020,571.551392 
	C1375.899048,570.987305 1379.148682,570.999634 1381.543945,572.054321 
	C1393.023315,577.109314 1403.153809,583.979370 1408.991577,595.645142 
	C1411.074829,599.808228 1412.905518,604.105286 1414.683472,608.410645 
	C1415.850464,611.236511 1417.540405,611.566223 1419.615967,609.651306 
	C1421.060913,608.318176 1422.339844,606.723145 1423.386108,605.052979 
	C1430.093994,594.344238 1429.035645,583.282166 1424.977051,571.975586 
	C1421.508057,562.311768 1413.881836,556.123352 1406.260864,550.404724 
	C1390.642212,538.685059 1378.320557,523.900635 1365.530396,509.451691 
	C1350.807251,492.819061 1333.729980,481.893402 1310.137085,489.015228 
	C1306.792480,490.024841 1303.363647,490.887329 1300.187012,492.298004 
	C1289.789185,496.915405 1281.390381,503.453461 1281.025024,516.028809 
	C1280.919434,519.669739 1282.036255,523.450256 1283.126465,527.002991 
	C1287.024292,539.703186 1290.705444,552.498230 1295.317749,564.942627 
	C1299.843628,577.153503 1315.946655,584.538696 1327.414185,579.749634 
	C1331.997070,577.835693 1335.605225,573.669678 1339.847656,570.811707 
	C1341.224487,569.884216 1343.207275,569.856628 1344.913086,569.417419 
	C1344.747437,571.244385 1345.218140,573.505188 1344.315186,574.829346 
	C1337.263794,585.169617 1324.076904,589.548279 1312.055908,585.846741 
	C1306.410034,584.108215 1304.727905,584.840576 1301.395264,590.488403 
	C1312.050293,592.625061 1312.727783,593.498596 1315.047485,604.489807 
	C1316.798584,612.786194 1319.161621,620.954285 1320.879639,629.256592 
	C1321.776123,633.589050 1323.246948,633.883240 1327.366821,632.551025 
	C1332.915771,630.756653 1339.021606,629.279297 1344.726074,629.728271 
	C1351.739014,630.280334 1358.617676,632.840393 1365.486938,634.772278 
	C1368.403809,635.592529 1369.370239,635.107849 1369.328613,631.896790 
	C1369.274902,627.755432 1369.637573,623.580261 1370.216064,619.475342 
	C1370.406982,618.120544 1371.823608,616.938416 1372.679688,615.677246 
	C1373.724243,616.780334 1375.397827,617.735168 1375.698975,619.013367 
	C1376.726685,623.375916 1377.560425,627.829529 1377.908936,632.292114 
	C1378.184814,635.825073 1379.532349,638.115417 1382.568848,639.921875 
	C1385.254028,641.519348 1387.930664,643.431458 1389.912720,645.791321 
	C1390.997314,647.082764 1390.635010,649.589539 1390.925293,651.548279 
	C1389.074463,651.698853 1386.892822,652.548096 1385.438965,651.859985 
	C1382.006226,650.235229 1378.955322,647.819641 1375.678833,645.842041 
	C1373.937378,644.791077 1372.047241,643.986511 1368.993896,642.452576 
	C1369.320312,646.356506 1369.517944,648.918457 1369.752075,651.477051 
	C1370.283203,657.283264 1367.979370,660.939270 1362.765991,660.790527 
	C1350.933472,660.452820 1342.004639,665.628357 1334.341064,674.036072 
	C1332.852051,675.669556 1330.666992,676.760132 1328.647949,677.800110 
	C1324.288452,680.045410 1318.743408,681.078125 1315.613647,684.416626 
	C1306.389404,694.256104 1295.301392,700.813599 1283.362549,706.597473 
	C1275.737183,710.291687 1268.541382,711.835754 1260.392822,708.721558 
	C1253.572021,706.114746 1246.615601,703.594360 1239.495605,702.105713 
	C1230.286743,700.180176 1226.343384,704.127930 1227.151367,713.496460 
	C1227.329590,715.562561 1228.093018,717.749146 1229.161011,719.537415 
	C1233.526855,726.848389 1240.478516,730.766907 1248.426636,732.754578 
	C1254.049683,734.160828 1259.861938,735.003479 1265.641479,735.554565 
	C1283.558228,737.263000 1301.346802,735.939514 1318.395996,730.211365 
	C1331.307129,725.873596 1343.667480,719.912903 1356.368530,714.917847 
	C1358.583984,714.046509 1361.274414,714.382629 1363.745483,714.161133 
	C1362.180664,716.206116 1361.008179,718.864807 1358.969360,720.168701 
	C1354.693359,722.903442 1349.961426,724.925537 1345.229004,727.335876 
	C1356.721436,730.877014 1367.225098,732.698914 1377.417969,730.688477 
	C1391.852051,727.841492 1400.015381,721.157043 1399.035767,706.834534 
	C1398.809448,703.523560 1398.892578,700.152466 1399.227539,696.849060 
	C1400.341064,685.867188 1393.515259,673.716370 1383.363525,669.013245 
	C1380.795166,667.823425 1378.053223,666.951294 1375.633423,665.522583 
	C1374.443604,664.820190 1373.807251,663.179993 1372.920410,661.964233 
	C1374.181519,661.355591 1375.457520,660.220581 1376.700195,660.255981 
	C1378.807373,660.316040 1381.251343,660.581055 1382.922241,661.701599 
	C1388.246460,665.272095 1393.177734,669.426697 1398.482544,673.029175 
	C1400.275269,674.246704 1403.250977,675.653809 1404.786011,674.965820 
	C1409.877808,672.683960 1413.887573,669.088013 1415.109253,663.021545 
	C1417.757202,649.873352 1416.827271,636.936707 1413.880249,623.961731 
	C1409.585571,605.052734 1399.502686,590.391052 1382.143677,581.551636 
	C1375.911377,578.377991 1368.661621,577.258789 1362.002563,574.852722 
	C1352.854858,571.547424 1346.970093,557.358704 1351.202637,547.866455 
M1217.151978,623.381958 
	C1217.844360,625.602356 1218.700317,627.786499 1219.202026,630.049194 
	C1221.935669,642.379089 1224.401489,654.771301 1227.324707,667.055115 
	C1229.134521,674.660217 1231.164673,676.058105 1238.750488,675.972351 
	C1263.696899,675.690308 1288.642334,675.315247 1313.588135,674.971497 
	C1314.253052,674.962341 1315.123413,675.159424 1315.544922,674.820984 
	C1317.063599,673.600525 1319.610474,672.227173 1319.651855,670.847961 
	C1319.834229,664.786316 1320.156250,658.500122 1318.815430,652.665955 
	C1315.318848,637.452148 1310.816772,622.472656 1307.036255,607.319763 
	C1305.074097,599.454773 1304.999146,599.238525 1296.831421,598.967529 
	C1281.554932,598.460815 1266.290405,597.466003 1251.011841,597.193665 
	C1240.061035,596.998474 1229.073242,597.324402 1218.145386,598.061279 
	C1212.780518,598.423096 1211.213379,600.979065 1212.313843,606.333008 
	C1213.447876,611.850281 1215.314575,617.216980 1217.151978,623.381958 
M1221.832764,722.868286 
	C1222.552612,722.878723 1223.272461,722.889160 1223.992310,722.899597 
	C1223.678833,721.783203 1223.376709,720.663513 1223.050293,719.550903 
	C1218.004639,702.350464 1227.342163,692.152344 1244.900513,696.010437 
	C1249.899292,697.108887 1254.591064,699.536804 1259.544556,700.922974 
	C1268.879395,703.535400 1277.405518,701.953186 1284.983521,695.416626 
	C1270.654541,686.814636 1256.358643,679.455811 1239.189941,681.987427 
	C1238.537842,682.083618 1237.843628,682.091614 1237.194946,681.984375 
	C1232.521729,681.212463 1227.855103,680.400146 1223.186401,679.600647 
	C1223.017456,679.035522 1222.848511,678.470459 1222.679565,677.905334 
	C1221.235229,680.432800 1219.364014,682.811035 1218.419312,685.513184 
	C1213.984741,698.197266 1216.408569,710.409302 1221.832764,722.868286 
M1360.862549,641.708008 
	C1359.192383,640.232422 1357.697876,637.804932 1355.819458,637.458313 
	C1349.973145,636.379456 1343.908081,635.262939 1338.071533,635.780457 
	C1334.104004,636.132141 1330.175049,638.895142 1326.649658,641.218384 
	C1325.359497,642.068542 1325.282349,644.759521 1324.651978,646.610779 
	C1325.107910,646.796692 1325.563843,646.982544 1326.019897,647.168457 
	C1326.876099,646.419067 1327.644775,645.522095 1328.606812,644.950806 
	C1330.674683,643.722595 1332.842163,642.662231 1334.968872,641.533203 
	C1334.337402,643.939941 1333.840576,646.392944 1333.035034,648.739929 
	C1332.282715,650.932190 1331.202515,653.012024 1330.266602,655.141296 
	C1333.643921,653.959595 1335.775879,651.891907 1338.264648,650.432617 
	C1339.404297,649.764343 1341.245605,650.293091 1342.768677,650.278992 
	C1342.713379,651.674255 1342.968384,653.176514 1342.532471,654.440369 
	C1341.818481,656.509888 1340.655273,658.424377 1339.681396,660.404236 
	C1342.019653,660.652100 1343.432251,659.954224 1344.901855,659.410645 
	C1348.777832,657.976807 1352.581665,656.130066 1356.590332,655.319275 
	C1364.237427,653.772461 1364.819092,653.192688 1362.533203,645.633240 
	C1362.197876,644.524048 1361.640259,643.481995 1360.862549,641.708008 
M1334.500000,738.967957 
	C1341.023438,738.967957 1347.546875,738.967957 1354.629883,738.967957 
	C1340.955200,732.998596 1327.856323,729.941895 1314.676514,738.967773 
	C1321.012817,738.967773 1327.256592,738.967773 1334.500000,738.967957 
M1336.445923,664.053467 
	C1336.445923,664.053467 1336.451050,663.968140 1336.445923,664.053467 
M1227.018066,726.421814 
	C1227.018066,726.421814 1227.047241,726.502747 1227.018066,726.421814 
z"/>
<path fill="#2D1909" opacity="1.000000" stroke="none" 
	d="
M312.218872,711.767944 
	C310.814240,706.187500 308.787292,700.678406 308.137726,695.011414 
	C306.884491,684.076904 312.868073,676.140503 320.945099,669.971130 
	C332.614471,661.057739 351.294312,667.621155 355.122803,681.666870 
	C356.338013,686.125061 357.213287,690.680847 358.118866,695.217041 
	C359.141541,700.339417 361.614563,703.992188 366.917480,705.603821 
	C371.786926,707.083801 374.087158,703.653564 376.416138,700.833069 
	C379.044922,697.649597 381.030334,693.933472 383.283661,690.441406 
	C392.269104,676.516174 401.573395,662.508057 417.293121,655.623535 
	C428.754700,650.603943 440.778046,649.172485 453.454407,654.337830 
	C462.985748,658.221680 470.150238,664.345032 477.084900,671.299744 
	C477.437317,671.653198 477.741974,672.055237 478.102295,672.399780 
	C485.574799,679.544189 486.825989,679.293640 491.047791,670.034729 
	C492.428741,667.006104 493.863403,663.982117 495.543152,661.113892 
	C498.752625,655.633484 505.219604,655.748962 508.327026,661.274658 
	C508.974274,662.425659 509.370667,663.721924 509.843353,664.966187 
	C513.388550,674.298218 521.707031,676.208069 529.362854,669.416138 
	C531.600342,667.431091 533.765625,665.364746 535.968018,663.340027 
	C539.859436,659.762512 544.828857,660.321411 547.261963,664.869446 
	C550.309692,670.566162 552.794739,676.579590 556.078064,682.127625 
	C557.568298,684.645813 560.494385,686.279724 562.574890,688.497070 
	C563.682983,689.677979 564.377014,691.247498 565.257935,692.641602 
	C563.685303,693.190063 562.059448,694.322449 560.549438,694.184692 
	C554.446838,693.627808 549.998474,690.710266 547.812927,684.615295 
	C546.242981,680.237488 544.089111,676.072510 542.382690,671.739014 
	C541.220276,668.786987 539.664673,668.161743 537.153442,670.202087 
	C536.379639,670.830750 535.329041,671.216736 534.754822,671.977722 
	C529.070679,679.510437 520.967651,678.456848 513.256042,677.594971 
	C511.007080,677.343689 508.589325,674.786621 507.084320,672.687439 
	C505.309601,670.212097 504.441864,667.086487 502.652588,663.051331 
	C500.928680,665.365295 499.538910,666.676147 498.835724,668.286865 
	C497.239868,671.942444 496.046844,675.771301 494.568634,679.481384 
	C493.020508,683.367004 490.487762,685.092651 485.970306,684.137329 
	C478.119965,682.477295 472.286499,677.685486 466.276947,672.883728 
	C460.468079,668.242371 454.611542,663.493469 448.184113,659.830261 
	C436.956757,653.431519 421.006378,656.778381 409.458740,667.067749 
	C398.205750,677.094543 390.750122,689.904785 383.240143,702.680786 
	C382.649445,703.685608 382.123749,704.738037 381.446747,705.681458 
	C374.271851,715.680481 356.878113,714.042664 352.054413,702.662598 
	C350.338684,698.614807 349.982880,693.981873 349.093048,689.598511 
	C348.863892,688.469666 349.089661,687.252014 348.890656,686.112915 
	C347.969574,680.840393 347.366516,674.663147 341.609283,672.864929 
	C335.258087,670.881348 328.411041,670.854736 322.729004,675.834717 
	C313.941833,683.536011 312.038544,693.282288 316.690704,705.368835 
	C317.650085,707.861328 317.575531,710.751709 317.977539,713.458740 
	C317.557892,713.705994 317.138245,713.953308 316.718597,714.200562 
	C319.497833,715.133362 322.332703,715.934998 325.023193,717.076904 
	C325.856262,717.430481 326.684662,718.669556 326.776306,719.577698 
	C326.834137,720.150940 325.519684,721.424194 324.825348,721.420898 
	C320.220276,721.398926 315.544373,721.520386 311.048248,720.717529 
	C309.283691,720.402466 307.922577,717.828003 306.377747,716.282471 
	C307.994385,714.901794 309.611023,713.521057 311.659180,712.160339 
	C312.090698,712.180359 312.500031,712.143188 312.500031,712.143188 
	C312.500031,712.143188 312.218872,711.767944 312.218872,711.767944 
z"/>
<path fill="#2D1909" opacity="1.000000" stroke="none" 
	d="
M321.633728,732.589844 
	C319.640472,731.128662 318.046326,729.758667 316.452148,728.388611 
	C318.418884,727.268677 320.287170,725.464478 322.371887,725.164612 
	C327.450836,724.433899 332.628387,724.257629 337.770294,724.196228 
	C338.924957,724.182434 340.096130,725.552002 341.259705,726.284729 
	C340.502014,727.271912 339.902649,728.910156 338.960602,729.139221 
	C333.361969,730.500671 327.684113,731.536072 321.633728,732.589844 
z"/>
<path fill="#2D1909" opacity="1.000000" stroke="none" 
	d="
M565.153076,708.812439 
	C561.950867,708.465332 559.120239,707.732727 559.497742,704.235779 
	C559.899780,700.512268 563.217163,701.021484 565.758972,701.114258 
	C568.551819,701.216187 571.368835,701.602966 574.090210,702.233215 
	C575.129639,702.473877 575.933167,703.733093 576.844177,704.528198 
	C576.002258,705.432068 575.307251,706.851746 574.290466,707.141235 
	C571.451355,707.949585 568.478943,708.289795 565.153076,708.812439 
z"/>
<path fill="#2D1909" opacity="1.000000" stroke="none" 
	d="
M504.315002,718.966919 
	C501.428345,723.700745 497.004822,724.221313 492.454559,723.570618 
	C489.735535,723.181702 488.564240,721.048523 491.015381,719.010193 
	C493.273743,717.132141 495.985779,715.575256 498.751984,714.590393 
	C502.025208,713.425171 503.609680,715.684570 504.315002,718.966919 
z"/>
<path fill="#2D1909" opacity="1.000000" stroke="none" 
	d="
M486.605804,704.685791 
	C485.163208,703.508667 484.072235,702.456787 482.981262,701.404907 
	C484.253387,700.558899 485.496399,699.060791 486.803711,699.002380 
	C489.543243,698.880066 492.356232,699.356628 495.030457,700.023193 
	C495.403015,700.116150 495.390594,703.869629 495.167908,703.912598 
	C492.473419,704.431763 489.705902,704.572021 486.605804,704.685791 
z"/>
<path fill="#2D1909" opacity="1.000000" stroke="none" 
	d="
M558.770569,714.111572 
	C559.965454,714.621643 561.114441,714.867310 561.678955,715.577576 
	C563.015686,717.259338 564.074829,719.161804 565.246216,720.975098 
	C563.967651,721.494690 562.475281,722.708313 561.453613,722.393677 
	C559.115723,721.673584 557.007935,720.206665 554.806702,719.043091 
	C556.024170,717.381531 557.241638,715.719971 558.770569,714.111572 
z"/>
<path fill="#000000" opacity="1.000000" stroke="none" 
	d="
M1351.021729,548.197815 
	C1346.970093,557.358704 1352.854858,571.547424 1362.002563,574.852722 
	C1368.661621,577.258789 1375.911377,578.377991 1382.143677,581.551636 
	C1399.502686,590.391052 1409.585571,605.052734 1413.880249,623.961731 
	C1416.827271,636.936707 1417.757202,649.873352 1415.109253,663.021545 
	C1413.887573,669.088013 1409.877808,672.683960 1404.786011,674.965820 
	C1403.250977,675.653809 1400.275269,674.246704 1398.482544,673.029175 
	C1393.177734,669.426697 1388.246460,665.272095 1382.922241,661.701599 
	C1381.251343,660.581055 1378.807373,660.316040 1376.700195,660.255981 
	C1375.457520,660.220581 1374.181519,661.355591 1372.920410,661.964172 
	C1373.807251,663.179993 1374.443604,664.820190 1375.633423,665.522583 
	C1378.053223,666.951294 1380.795166,667.823425 1383.363525,669.013245 
	C1393.515259,673.716370 1400.341064,685.867188 1399.227539,696.849060 
	C1398.892578,700.152466 1398.809448,703.523560 1399.035767,706.834534 
	C1400.015381,721.157043 1391.852051,727.841492 1377.417969,730.688477 
	C1367.225098,732.698914 1356.721436,730.877014 1345.229004,727.335876 
	C1349.961426,724.925537 1354.693359,722.903442 1358.969360,720.168701 
	C1361.008179,718.864807 1362.180664,716.206116 1363.745483,714.161133 
	C1361.274414,714.382629 1358.583984,714.046509 1356.368530,714.917847 
	C1343.667480,719.912903 1331.307129,725.873596 1318.395996,730.211365 
	C1301.346802,735.939514 1283.558228,737.263000 1265.641479,735.554565 
	C1259.861938,735.003479 1254.049683,734.160828 1248.426636,732.754578 
	C1240.478516,730.766907 1233.526855,726.848389 1229.161011,719.537415 
	C1228.093018,717.749146 1227.329590,715.562561 1227.151367,713.496460 
	C1226.343384,704.127930 1230.286743,700.180176 1239.495605,702.105713 
	C1246.615601,703.594360 1253.572021,706.114746 1260.392822,708.721558 
	C1268.541382,711.835754 1275.737183,710.291687 1283.362549,706.597473 
	C1295.301392,700.813599 1306.389404,694.256104 1315.613647,684.416626 
	C1318.743408,681.078125 1324.288452,680.045410 1328.647949,677.800110 
	C1330.666992,676.760132 1332.852051,675.669556 1334.341064,674.036072 
	C1342.004639,665.628357 1350.933472,660.452820 1362.765991,660.790527 
	C1367.979370,660.939270 1370.283203,657.283264 1369.752075,651.477051 
	C1369.517944,648.918457 1369.320312,646.356506 1368.993896,642.452576 
	C1372.047241,643.986511 1373.937378,644.791077 1375.678833,645.842041 
	C1378.955322,647.819641 1382.006226,650.235229 1385.438965,651.859985 
	C1386.892822,652.548096 1389.074463,651.698853 1390.925293,651.548279 
	C1390.635010,649.589539 1390.997314,647.082764 1389.912720,645.791321 
	C1387.930664,643.431458 1385.254028,641.519348 1382.568848,639.921875 
	C1379.532349,638.115417 1378.184814,635.825073 1377.908936,632.292114 
	C1377.560425,627.829529 1376.726685,623.375916 1375.698975,619.013367 
	C1375.397827,617.735168 1373.724243,616.780334 1372.679688,615.677307 
	C1371.823608,616.938416 1370.406982,618.120544 1370.216064,619.475342 
	C1369.637573,623.580261 1369.274902,627.755432 1369.328613,631.896790 
	C1369.370239,635.107849 1368.403809,635.592529 1365.486938,634.772278 
	C1358.617676,632.840393 1351.739014,630.280334 1344.726074,629.728271 
	C1339.021606,629.279297 1332.915771,630.756653 1327.366821,632.551025 
	C1323.246948,633.883240 1321.776123,633.589050 1320.879639,629.256592 
	C1319.161621,620.954285 1316.798584,612.786194 1315.047485,604.489807 
	C1312.727783,593.498596 1312.050293,592.625061 1301.395264,590.488403 
	C1304.727905,584.840576 1306.410034,584.108215 1312.055908,585.846741 
	C1324.076904,589.548279 1337.263794,585.169617 1344.315186,574.829346 
	C1345.218140,573.505188 1344.747437,571.244385 1344.913086,569.417358 
	C1343.207275,569.856628 1341.224487,569.884216 1339.847656,570.811707 
	C1335.605225,573.669678 1331.997070,577.835693 1327.414185,579.749634 
	C1315.946655,584.538696 1299.843628,577.153503 1295.317749,564.942627 
	C1290.705444,552.498230 1287.024292,539.703186 1283.126465,527.002991 
	C1282.036255,523.450256 1280.919434,519.669739 1281.025024,516.028809 
	C1281.390381,503.453461 1289.789185,496.915405 1300.187012,492.298004 
	C1303.363647,490.887329 1306.792480,490.024841 1310.137085,489.015228 
	C1333.729980,481.893402 1350.807251,492.819061 1365.530396,509.451691 
	C1378.320557,523.900635 1390.642212,538.685059 1406.260864,550.404724 
	C1413.881836,556.123352 1421.508057,562.311768 1424.977051,571.975586 
	C1429.035645,583.282166 1430.093994,594.344238 1423.386108,605.052979 
	C1422.339844,606.723145 1421.060913,608.318176 1419.615967,609.651306 
	C1417.540405,611.566223 1415.850464,611.236511 1414.683472,608.410645 
	C1412.905518,604.105286 1411.074829,599.808228 1408.991577,595.645142 
	C1403.153809,583.979370 1393.023315,577.109314 1381.543945,572.054321 
	C1379.148682,570.999634 1375.899048,570.987305 1373.270020,571.551392 
	C1368.096680,572.661438 1364.463379,570.889587 1361.640869,566.840088 
	C1359.839844,564.255859 1358.001465,561.647095 1356.621338,558.832703 
	C1354.842529,555.205444 1355.514648,551.951111 1358.434448,548.818054 
	C1360.370972,546.740112 1362.275024,543.978088 1362.718628,541.279907 
	C1364.353394,531.335022 1359.250244,524.708069 1347.718872,529.148560 
	C1330.752319,535.681946 1314.201660,534.159668 1298.566528,524.458923 
	C1295.748535,522.710449 1292.714478,521.226501 1289.616333,520.052551 
	C1288.308716,519.557007 1286.577148,520.180969 1285.038208,520.296021 
	C1285.447021,521.760132 1285.399902,523.703796 1286.345703,524.603210 
	C1289.935059,528.016479 1293.845703,531.091858 1297.636230,534.293579 
	C1293.268677,537.511230 1292.697998,540.148376 1297.324951,542.447998 
	C1307.266724,547.389099 1309.033081,555.217224 1308.170776,565.128662 
	C1307.650391,571.107849 1310.103149,572.479065 1315.885132,570.663025 
	C1317.791016,570.064392 1319.848511,569.765015 1321.572998,568.838196 
	C1322.677979,568.244385 1323.300415,566.752869 1324.139282,565.663757 
	C1323.030762,564.835449 1321.766968,563.147400 1320.838379,563.315186 
	C1313.603882,564.621826 1313.694824,559.634827 1313.047363,554.914795 
	C1312.346558,549.804993 1311.302002,544.742432 1310.290649,538.996033 
	C1311.329468,538.996033 1313.405640,538.989929 1315.481812,538.997070 
	C1327.011963,539.036377 1338.441040,538.490662 1349.355347,534.115234 
	C1351.984497,533.061279 1355.009521,532.161743 1356.872437,535.481873 
	C1358.701172,538.741333 1357.662109,541.530029 1355.000000,543.934753 
	C1353.651001,545.153381 1352.463257,546.550232 1351.021729,548.197815 
z"/>
<path fill="#000000" opacity="1.000000" stroke="none" 
	d="
M1217.006348,623.015747 
	C1215.314575,617.216980 1213.447876,611.850281 1212.313843,606.333008 
	C1211.213379,600.979065 1212.780518,598.423096 1218.145386,598.061279 
	C1229.073242,597.324402 1240.061035,596.998474 1251.011841,597.193665 
	C1266.290405,597.466003 1281.554932,598.460815 1296.831421,598.967529 
	C1304.999146,599.238525 1305.074097,599.454773 1307.036255,607.319763 
	C1310.816772,622.472656 1315.318848,637.452148 1318.815430,652.665955 
	C1320.156250,658.500122 1319.834229,664.786316 1319.651855,670.847961 
	C1319.610474,672.227173 1317.063599,673.600525 1315.544922,674.820984 
	C1315.123413,675.159424 1314.253052,674.962341 1313.588135,674.971497 
	C1288.642334,675.315247 1263.696899,675.690308 1238.750488,675.972351 
	C1231.164673,676.058105 1229.134521,674.660217 1227.324707,667.055115 
	C1224.401489,654.771301 1221.935669,642.379089 1219.202026,630.049194 
	C1218.700317,627.786499 1217.844360,625.602356 1217.006348,623.015747 
M1268.549683,652.923584 
	C1277.632080,652.526123 1281.694946,646.366150 1277.386841,639.525146 
	C1280.776489,633.882874 1279.698730,630.164734 1273.949219,629.450317 
	C1269.224121,628.863220 1264.368042,629.185791 1259.579102,629.358765 
	C1258.380127,629.402100 1257.016479,630.194763 1256.071045,631.030579 
	C1251.981934,634.645203 1251.301758,643.091980 1254.506836,648.664734 
	C1257.701782,654.219666 1260.909180,655.251648 1268.549683,652.923584 
M1274.380249,621.460999 
	C1273.500366,617.979309 1270.681763,617.521301 1268.190430,618.555054 
	C1266.372803,619.309143 1264.759766,621.412354 1263.924927,623.298828 
	C1263.537354,624.174561 1265.119873,627.042053 1265.979980,627.119812 
	C1267.838257,627.287964 1269.971191,626.532593 1271.673218,625.583740 
	C1272.835693,624.935669 1273.459839,623.321960 1274.380249,621.460999 
z"/>
<path fill="#000000" opacity="1.000000" stroke="none" 
	d="
M1221.655884,722.612671 
	C1216.408569,710.409302 1213.984741,698.197266 1218.419312,685.513184 
	C1219.364014,682.811035 1221.235229,680.432800 1222.679565,677.905334 
	C1222.848511,678.470459 1223.017456,679.035522 1223.186401,679.600647 
	C1227.855103,680.400146 1232.521729,681.212463 1237.194946,681.984375 
	C1237.843628,682.091614 1238.537842,682.083618 1239.189941,681.987427 
	C1256.358643,679.455811 1270.654541,686.814636 1284.983521,695.416626 
	C1277.405518,701.953186 1268.879395,703.535400 1259.544556,700.922974 
	C1254.591064,699.536804 1249.899292,697.108887 1244.900513,696.010437 
	C1227.342163,692.152344 1218.004639,702.350464 1223.050293,719.550903 
	C1223.376709,720.663513 1223.678833,721.783203 1223.992310,722.899658 
	C1223.272461,722.889160 1222.552612,722.878723 1221.655884,722.612671 
z"/>
<path fill="#000000" opacity="1.000000" stroke="none" 
	d="
M1361.024048,642.058472 
	C1361.640259,643.481995 1362.197876,644.524048 1362.533203,645.633240 
	C1364.819092,653.192688 1364.237427,653.772461 1356.590332,655.319275 
	C1352.581665,656.130066 1348.777832,657.976807 1344.901855,659.410645 
	C1343.432251,659.954224 1342.019653,660.652100 1339.681396,660.404236 
	C1340.655273,658.424377 1341.818481,656.509888 1342.532471,654.440369 
	C1342.968384,653.176514 1342.713379,651.674255 1342.768799,650.278992 
	C1341.245605,650.293091 1339.404297,649.764343 1338.264648,650.432617 
	C1335.775879,651.891907 1333.643921,653.959595 1330.266602,655.141296 
	C1331.202515,653.012024 1332.282715,650.932190 1333.035034,648.739929 
	C1333.840576,646.392944 1334.337402,643.939941 1334.968872,641.533203 
	C1332.842163,642.662231 1330.674683,643.722595 1328.606812,644.950806 
	C1327.644775,645.522095 1326.876099,646.419067 1326.019897,647.168457 
	C1325.563843,646.982544 1325.107910,646.796692 1324.651978,646.610779 
	C1325.282349,644.759521 1325.359497,642.068542 1326.649658,641.218384 
	C1330.175049,638.895142 1334.104004,636.132141 1338.071533,635.780457 
	C1343.908081,635.262939 1349.973145,636.379456 1355.819458,637.458313 
	C1357.697876,637.804932 1359.192383,640.232422 1361.024048,642.058472 
z"/>
<path fill="#000000" opacity="1.000000" stroke="none" 
	d="
M1305.180420,682.210327 
	C1302.343018,684.943909 1299.612915,687.806091 1296.596680,690.325745 
	C1295.783813,691.004761 1293.918945,691.106323 1292.849365,690.683167 
	C1286.994873,688.367249 1281.237549,685.805481 1275.446899,683.328125 
	C1275.493774,682.875366 1275.540649,682.422607 1275.587524,681.969849 
	C1285.070312,681.969849 1294.553101,681.969849 1304.555420,682.025635 
	C1305.075073,682.081482 1305.180420,682.210327 1305.180420,682.210327 
z"/>
<path fill="#000000" opacity="1.000000" stroke="none" 
	d="
M1334.000122,738.967896 
	C1327.256592,738.967773 1321.012817,738.967773 1314.676514,738.967773 
	C1327.856323,729.941895 1340.955200,732.998596 1354.629883,738.967957 
	C1347.546875,738.967957 1341.023438,738.967957 1334.000122,738.967896 
z"/>
<path fill="#000000" opacity="1.000000" stroke="none" 
	d="
M1305.022217,682.017090 
	C1305.250732,681.815796 1305.532104,681.678894 1305.813477,681.541992 
	C1305.683594,681.743164 1305.553711,681.944275 1305.302124,682.177856 
	C1305.180420,682.210327 1305.075073,682.081482 1305.022217,682.017090 
z"/>
<path fill="#000000" opacity="1.000000" stroke="none" 
	d="
M1336.448486,664.010803 
	C1336.451050,663.968140 1336.445923,664.053467 1336.448486,664.010803 
z"/>
<path fill="#000000" opacity="1.000000" stroke="none" 
	d="
M1227.032715,726.462280 
	C1227.047241,726.502747 1227.018066,726.421814 1227.032715,726.462280 
z"/>
<path fill="#000000" opacity="1.000000" stroke="none" 
	d="
M312.152710,711.842407 
	C312.218872,711.767944 312.500031,712.143188 312.500031,712.143188 
	C312.500031,712.143188 312.090698,712.180359 312.022766,712.123291 
	C311.954865,712.066284 312.086548,711.916809 312.152710,711.842407 
z"/>
<path fill="#2D1909" opacity="1.000000" stroke="none" 
	d="
M1268.191650,652.938049 
	C1260.909180,655.251648 1257.701782,654.219666 1254.506836,648.664734 
	C1251.301758,643.091980 1251.981934,634.645203 1256.071045,631.030579 
	C1257.016479,630.194763 1258.380127,629.402100 1259.579102,629.358765 
	C1264.368042,629.185791 1269.224121,628.863220 1273.949219,629.450317 
	C1279.698730,630.164734 1280.776489,633.882874 1277.386841,639.525146 
	C1281.694946,646.366150 1277.632080,652.526123 1268.191650,652.938049 
z"/>
<path fill="#2D1909" opacity="1.000000" stroke="none" 
	d="
M1274.352539,621.800476 
	C1273.459839,623.321960 1272.835693,624.935669 1271.673218,625.583740 
	C1269.971191,626.532593 1267.838257,627.287964 1265.979980,627.119812 
	C1265.119873,627.042053 1263.537354,624.174561 1263.924927,623.298828 
	C1264.759766,621.412354 1266.372803,619.309143 1268.190430,618.555054 
	C1270.681763,617.521301 1273.500366,617.979309 1274.352539,621.800476 
z"/>
</svg>