<svg version="1.1" id="Layer_1" xmlns="http://www.w3.org/2000/svg" xmlns:xlink="http://www.w3.org/1999/xlink" x="0px" y="0px"
	 width="100%" viewBox="0 0 1694 820" enable-background="new 0 0 1694 820" xml:space="preserve">
<path fill="none" opacity="1.000000" stroke="none" 
	d="
M1688.051270,821.000000 
	C1125.375977,821.000000 563.211670,821.000000 1.023660,821.000000 
	C1.023660,547.683594 1.023660,274.367157 1.023660,1.025371 
	C565.647400,1.025371 1130.294800,1.025371 1694.971069,1.025371 
	C1694.971069,274.312927 1694.971069,547.625854 1694.971069,821.000000 
	C1692.854126,821.000000 1690.708130,821.000000 1688.051270,821.000000 
M1378.472656,737.936340 
	C1391.061890,734.723633 1404.005493,724.530151 1404.099609,710.452393 
	C1404.151855,702.639404 1404.550659,694.822388 1405.052612,687.023865 
	C1405.164551,685.283447 1405.892822,682.690247 1407.136963,682.054199 
	C1418.674683,676.156067 1421.795532,665.971313 1421.981079,654.157532 
	C1422.145874,643.670349 1422.594238,633.170410 1418.611572,623.096313 
	C1417.754517,620.928223 1416.906860,618.564148 1420.117920,616.697144 
	C1430.567017,610.621826 1436.058716,597.537048 1434.714478,585.531067 
	C1432.972168,569.970520 1425.619385,558.199341 1413.440063,548.636353 
	C1404.168945,541.356934 1395.310181,533.461548 1386.909912,525.188354 
	C1377.200806,515.626099 1368.424438,505.122711 1358.833740,495.433197 
	C1342.533081,478.964600 1323.244629,474.811096 1301.571777,483.059540 
	C1290.359131,487.326965 1279.149292,492.289948 1276.473389,505.704041 
	C1275.342407,511.373566 1276.892700,517.528625 1276.241577,523.353088 
	C1274.730957,536.862732 1279.099854,548.596130 1285.956055,559.765991 
	C1288.739624,564.301086 1291.075562,569.197571 1294.398315,573.294434 
	C1299.048462,579.027832 1299.355591,578.768311 1294.863770,583.928162 
	C1294.319458,584.553284 1293.771240,585.219604 1293.418213,585.959106 
	C1290.991943,591.040283 1286.880249,592.164185 1281.517700,592.098755 
	C1261.854980,591.858765 1242.185547,591.864990 1222.522217,592.090332 
	C1209.753052,592.236633 1205.101074,597.957458 1207.882324,610.320251 
	C1212.006592,628.653015 1216.734497,646.849792 1220.885498,665.176941 
	C1221.470215,667.758240 1221.262207,671.653625 1219.699829,673.408081 
	C1206.523438,688.205200 1205.353882,704.578735 1212.303589,722.281677 
	C1215.419189,730.217896 1222.881348,733.791809 1231.086426,731.446594 
	C1231.942139,731.201965 1233.140625,731.204041 1233.867310,731.627808 
	C1236.829834,733.355591 1239.670898,735.291870 1243.385376,737.685303 
	C1240.792358,737.810974 1239.184814,737.948914 1237.576538,737.958130 
	C1176.268677,738.311646 1114.960815,738.669495 1053.652832,738.988159 
	C1030.822510,739.106812 1007.991089,739.279602 985.161438,739.168579 
	C919.520752,738.849487 853.880920,738.348267 788.240234,738.021973 
	C760.242065,737.882812 732.242615,738.005554 704.243774,737.991516 
	C701.746155,737.990234 699.248962,737.843445 696.751038,737.788635 
	C686.606506,737.565979 676.455444,737.016846 666.318481,737.207886 
	C646.691101,737.577820 627.070496,738.331665 607.449951,739.009705 
	C603.344421,739.151611 600.666077,737.397827 598.308533,734.105347 
	C595.909546,730.754944 593.101074,727.569763 589.958740,724.920898 
	C587.541138,722.882996 583.697693,721.399780 581.782349,725.131470 
	C580.144104,728.323242 581.716125,731.527588 585.478149,733.159729 
	C587.548279,734.057861 589.415833,735.422852 591.374695,736.577332 
	C591.209229,737.131409 591.043762,737.685425 590.878296,738.239441 
	C588.842651,738.491455 586.808411,738.948181 584.771179,738.961426 
	C573.772095,739.032776 562.772339,739.005188 551.772766,738.989868 
	C544.130127,738.979187 544.113831,738.967896 542.099365,731.549316 
	C540.681641,726.328186 537.597046,722.602966 532.242981,721.387268 
	C530.952515,721.094299 528.873779,721.938049 527.999817,722.971436 
	C527.423157,723.653320 527.912659,725.970215 528.695435,726.919983 
	C530.472473,729.076294 532.874329,730.710144 534.720459,732.820374 
	C535.609131,733.836243 536.458435,735.638611 536.136475,736.735840 
	C535.851990,737.705322 533.944153,738.741638 532.706482,738.802612 
	C522.403748,739.309875 512.089539,739.903076 501.780243,739.878418 
	C487.484314,739.844238 473.188202,739.026611 458.895111,739.102112 
	C453.250031,739.131897 449.438049,737.143005 446.851990,733.259583 
	C451.267975,728.362000 455.525909,723.786499 459.620270,719.069031 
	C468.895355,708.382507 464.780121,697.396301 458.288818,689.675476 
	C457.393127,688.610168 455.570251,688.324402 454.176605,687.677734 
	C453.598938,689.248352 452.246674,691.017517 452.588745,692.352417 
	C453.616150,696.361816 455.560852,700.132324 456.643890,704.132446 
	C457.352753,706.750610 458.199554,710.048584 457.226105,712.272217 
	C454.148346,719.302246 449.250122,724.948608 441.517975,727.314026 
	C433.141632,729.876526 432.812775,731.096008 438.953583,737.468994 
	C439.089050,737.609558 438.892914,738.069641 438.771942,738.977295 
	C432.381317,738.977295 425.893250,739.298584 419.466431,738.811646 
	C417.056213,738.629089 414.376404,737.001526 412.547668,735.265625 
	C409.446564,732.321960 406.504425,732.595764 404.041046,736.056519 
	C402.973053,737.556946 400.489990,738.825500 398.625641,738.858948 
	C385.630463,739.092224 372.628998,738.973694 359.629547,738.968323 
	C356.855499,738.967224 354.081451,738.968140 351.068054,738.968140 
	C352.927307,735.695679 354.607300,733.094299 355.920776,730.319397 
	C357.067261,727.897461 355.614716,725.568848 353.412598,726.689514 
	C350.045013,728.403320 345.683350,731.035400 344.826111,734.131165 
	C343.568451,738.673218 341.419769,739.068420 337.832001,739.005554 
	C316.856445,738.637878 295.878998,737.994629 274.903961,738.054749 
	C218.095520,738.217590 161.287766,738.663879 104.480576,739.103516 
	C101.704376,739.125000 98.935951,740.151978 96.163910,740.710754 
	C96.142921,741.532715 96.121933,742.354675 96.100952,743.176636 
	C100.147354,743.768372 104.181961,744.763123 108.242218,744.882141 
	C125.715492,745.393982 143.197372,745.986877 160.674149,745.931702 
	C207.151779,745.784912 253.628342,745.312866 300.105438,744.984253 
	C308.563477,744.924438 317.023590,745.028015 325.479828,744.883606 
	C337.927704,744.671082 350.374115,744.016357 362.819061,744.066162 
	C383.770569,744.149902 404.719666,744.820251 425.671295,744.917480 
	C461.794159,745.085083 497.918152,745.017639 534.041687,745.020142 
	C570.498596,745.022644 606.956116,744.865417 643.412292,745.018433 
	C666.334595,745.114624 689.254395,745.843201 712.176575,745.923767 
	C726.653687,745.974670 741.132263,745.310730 755.611633,745.044922 
	C776.589050,744.659729 797.568542,744.010376 818.545654,744.064209 
	C873.689697,744.205811 928.833008,744.649292 983.976379,745.005310 
	C1030.953613,745.308594 1077.930176,745.839050 1124.907715,745.918823 
	C1153.718140,745.967773 1182.529907,745.381714 1211.340576,745.035461 
	C1236.985840,744.727234 1262.629395,744.212158 1288.275269,744.072815 
	C1301.546875,744.000671 1314.822021,744.770020 1328.095093,744.754272 
	C1343.881836,744.735596 1359.667847,744.086670 1375.454224,744.081848 
	C1387.099365,744.078247 1398.743896,744.912476 1410.390137,744.950623 
	C1447.679932,745.072876 1484.970337,744.999023 1522.260498,744.999634 
	C1549.092773,745.000122 1575.925049,745.046814 1602.757080,744.952148 
	C1607.400513,744.935791 1612.051880,744.410339 1616.678467,743.921204 
	C1618.114380,743.769470 1619.480957,742.961121 1620.879272,742.453369 
	C1620.872925,741.908875 1620.866577,741.364319 1620.860352,740.819824 
	C1618.582642,740.244019 1616.312256,739.203674 1614.026123,739.168518 
	C1600.241821,738.956543 1586.452881,738.833008 1572.667480,738.944824 
	C1542.523926,739.189453 1512.382324,739.723938 1482.238647,739.868042 
	C1469.778198,739.927612 1457.316040,739.094055 1444.852295,739.011230 
	C1423.020874,738.866150 1401.187744,738.986877 1379.355347,738.996094 
	C1377.558960,738.996826 1375.762573,738.996216 1373.966187,738.996216 
	C1373.958496,738.729126 1373.950806,738.461975 1373.943115,738.194885 
	C1375.200928,738.118774 1376.458618,738.042725 1378.472656,737.936340 
M344.000671,684.504517 
	C336.668274,671.291016 326.515991,663.576477 310.360870,665.965881 
	C301.855255,667.223938 294.250702,673.126953 293.210144,680.896790 
	C292.106293,689.139343 293.992950,696.849548 298.196655,703.889832 
	C299.373505,705.860840 301.762665,707.108093 303.595703,708.687317 
	C304.087463,708.340942 304.579193,707.994629 305.070953,707.648254 
	C304.730621,705.808350 304.455231,703.953552 304.036072,702.131775 
	C303.218170,698.576782 301.624023,695.039307 301.628510,691.496216 
	C301.634308,686.920471 299.713562,681.671997 303.955444,677.857788 
	C309.991852,672.430054 320.730652,671.415649 327.878326,675.293213 
	C336.567535,680.007080 340.296478,688.855896 345.771454,696.302246 
	C348.449493,699.944397 351.691376,703.537964 355.453644,705.937500 
	C362.350647,710.336365 368.204407,708.171875 371.826538,700.787964 
	C382.580688,678.864990 398.500183,662.084534 421.596436,653.455688 
	C435.905304,648.109863 450.369781,649.131714 462.578644,659.332520 
	C471.370667,666.678406 479.283539,675.080139 487.546570,683.054443 
	C493.523712,688.822754 501.773560,690.148254 507.718567,684.566833 
	C512.912476,679.690552 516.563110,673.160400 520.830627,667.313477 
	C522.118103,665.549622 523.188599,663.627319 524.890381,660.936584 
	C527.011475,664.225281 528.261230,666.779236 530.076172,668.833984 
	C532.864868,671.991089 535.566162,676.296509 539.157104,677.441895 
	C545.804504,679.562012 553.435852,681.070251 557.800293,672.533203 
	C557.894104,672.349670 558.404663,672.379150 559.561584,672.123413 
	C560.337219,674.435608 561.014404,676.908752 561.989685,679.258179 
	C563.571289,683.068787 565.176636,686.892883 567.161987,690.496460 
	C567.666687,691.412537 569.706604,691.984314 570.914490,691.814331 
	C571.587830,691.719543 572.639771,689.629150 572.428284,688.682190 
	C570.871582,681.712402 569.559143,674.607056 567.042969,667.971680 
	C566.004456,665.232788 562.311523,662.060913 559.609619,661.849426 
	C557.462402,661.681396 554.243164,665.313354 552.798340,667.965515 
	C548.822937,675.262817 541.899353,676.002136 537.093567,669.055420 
	C534.920410,665.914124 533.005249,662.583374 531.125366,659.252563 
	C527.611328,653.026489 522.835571,652.514709 518.886353,658.395325 
	C515.648804,663.216187 512.934875,668.396179 510.106140,673.482178 
	C507.151581,678.794434 498.559082,681.094055 494.171509,677.585083 
	C485.356628,670.535522 476.858307,663.045532 467.673889,656.518921 
	C461.938690,652.443298 455.523621,648.604187 448.833282,646.723389 
	C425.818481,640.253540 406.888519,650.195923 390.407410,664.604614 
	C380.858124,672.953003 373.603973,683.843506 368.108826,695.626221 
	C364.414886,703.546692 357.173889,704.015808 352.005646,696.835876 
	C349.286285,693.058044 346.933899,689.016052 344.000671,684.504517 
M320.938293,726.230164 
	C319.790253,727.946594 318.642181,729.663025 317.494171,731.379456 
	C319.286285,732.221191 321.412628,734.138611 322.808411,733.704895 
	C327.150360,732.355652 331.319611,730.305237 335.326080,728.107849 
	C336.579041,727.420654 337.102997,725.404480 337.960663,723.996643 
	C336.371124,723.646423 334.680817,722.768127 333.211609,723.048523 
	C329.327393,723.789795 325.538971,725.033020 320.938293,726.230164 
M304.877869,717.327515 
	C305.503021,718.782715 306.089783,721.476929 306.759369,721.497742 
	C312.289276,721.669128 317.878662,721.696533 323.354645,721.008423 
	C325.746246,720.707764 326.486755,717.525452 323.855774,716.817566 
	C317.796661,715.187073 311.464111,712.609375 304.877869,717.327515 
M498.829773,702.953247 
	C500.458405,703.231445 502.135437,703.888733 503.703033,703.688538 
	C505.521942,703.456482 507.515228,702.799011 508.887054,701.665588 
	C509.506073,701.154114 509.318726,698.323242 508.595764,697.806946 
	C507.020355,696.681946 504.897064,695.997314 502.940186,695.837891 
	C501.402100,695.712524 499.687836,696.456970 498.219696,697.163696 
	C496.982513,697.759277 495.986847,698.856384 494.884247,699.731506 
	C495.943512,700.764587 497.002747,701.797607 498.829773,702.953247 
M511.229492,710.924927 
	C508.133270,712.295776 504.968109,713.537659 501.989990,715.129395 
	C501.257782,715.520691 500.625580,717.216492 500.880737,718.013977 
	C501.121765,718.767212 502.615387,719.614624 503.514496,719.568665 
	C506.128326,719.434937 508.819031,719.173401 511.280975,718.360474 
	C512.600403,717.924866 514.348877,716.279846 514.386597,715.130859 
	C514.430054,713.806458 512.800171,712.427185 511.229492,710.924927 
M582.602905,700.719177 
	C581.005920,700.328491 579.421875,699.870178 577.809082,699.562012 
	C574.957336,699.016968 572.870300,700.315491 573.399780,703.117737 
	C573.720276,704.813965 575.682190,706.845276 577.366028,707.452942 
	C578.972046,708.032654 581.275208,707.222473 583.078491,706.524048 
	C584.290833,706.054565 585.166748,704.716248 586.193176,703.766663 
	C585.237122,702.819580 584.281067,701.872498 582.602905,700.719177 
M574.901611,721.470947 
	C574.190857,720.164307 573.784119,718.426697 572.693970,717.658020 
	C571.267761,716.652405 568.805481,715.492554 567.699707,716.088623 
	C566.464539,716.754395 565.245789,720.362427 565.768188,720.861938 
	C567.792725,722.798401 570.483643,724.067078 573.050537,725.332458 
	C573.196838,725.404602 574.448303,723.234924 574.901611,721.470947 
z"/>
<path fill="#000000" opacity="1.000000" stroke="none" 
	d="
M1378.094482,737.951538 
	C1376.458618,738.042725 1375.200928,738.118774 1373.943115,738.194885 
	C1373.950806,738.461975 1373.958496,738.729126 1373.966187,738.996216 
	C1375.762573,738.996216 1377.558960,738.996826 1379.355347,738.996094 
	C1401.187744,738.986877 1423.020874,738.866150 1444.852295,739.011230 
	C1457.316040,739.094055 1469.778198,739.927612 1482.238647,739.868042 
	C1512.382324,739.723938 1542.523926,739.189453 1572.667480,738.944824 
	C1586.452881,738.833008 1600.241821,738.956543 1614.026123,739.168518 
	C1616.312256,739.203674 1618.582642,740.244019 1620.860352,740.819824 
	C1620.866577,741.364319 1620.872925,741.908875 1620.879272,742.453369 
	C1619.480957,742.961121 1618.114380,743.769470 1616.678467,743.921204 
	C1612.051880,744.410339 1607.400513,744.935791 1602.757080,744.952148 
	C1575.925049,745.046814 1549.092773,745.000122 1522.260498,744.999634 
	C1484.970337,744.999023 1447.679932,745.072876 1410.390137,744.950623 
	C1398.743896,744.912476 1387.099365,744.078247 1375.454224,744.081848 
	C1359.667847,744.086670 1343.881836,744.735596 1328.095093,744.754272 
	C1314.822021,744.770020 1301.546875,744.000671 1288.275269,744.072815 
	C1262.629395,744.212158 1236.985840,744.727234 1211.340576,745.035461 
	C1182.529907,745.381714 1153.718140,745.967773 1124.907715,745.918823 
	C1077.930176,745.839050 1030.953613,745.308594 983.976379,745.005310 
	C928.833008,744.649292 873.689697,744.205811 818.545654,744.064209 
	C797.568542,744.010376 776.589050,744.659729 755.611633,745.044922 
	C741.132263,745.310730 726.653687,745.974670 712.176575,745.923767 
	C689.254395,745.843201 666.334595,745.114624 643.412292,745.018433 
	C606.956116,744.865417 570.498596,745.022644 534.041687,745.020142 
	C497.918152,745.017639 461.794159,745.085083 425.671295,744.917480 
	C404.719666,744.820251 383.770569,744.149902 362.819061,744.066162 
	C350.374115,744.016357 337.927704,744.671082 325.479828,744.883606 
	C317.023590,745.028015 308.563477,744.924438 300.105438,744.984253 
	C253.628342,745.312866 207.151779,745.784912 160.674149,745.931702 
	C143.197372,745.986877 125.715492,745.393982 108.242218,744.882141 
	C104.181961,744.763123 100.147354,743.768372 96.100952,743.176636 
	C96.121933,742.354675 96.142921,741.532715 96.163910,740.710754 
	C98.935951,740.151978 101.704376,739.125000 104.480576,739.103516 
	C161.287766,738.663879 218.095520,738.217590 274.903961,738.054749 
	C295.878998,737.994629 316.856445,738.637878 337.832001,739.005554 
	C341.419769,739.068420 343.568451,738.673218 344.826111,734.131165 
	C345.683350,731.035400 350.045013,728.403320 353.412598,726.689514 
	C355.614716,725.568848 357.067261,727.897461 355.920776,730.319397 
	C354.607300,733.094299 352.927307,735.695679 351.068054,738.968140 
	C354.081451,738.968140 356.855499,738.967224 359.629547,738.968323 
	C372.628998,738.973694 385.630463,739.092224 398.625641,738.858948 
	C400.489990,738.825500 402.973053,737.556946 404.041046,736.056519 
	C406.504425,732.595764 409.446564,732.321960 412.547668,735.265625 
	C414.376404,737.001526 417.056213,738.629089 419.466431,738.811646 
	C425.893250,739.298584 432.381317,738.977295 438.771942,738.977295 
	C438.892914,738.069641 439.089050,737.609558 438.953583,737.468994 
	C432.812775,731.096008 433.141632,729.876526 441.517975,727.314026 
	C449.250122,724.948608 454.148346,719.302246 457.226105,712.272217 
	C458.199554,710.048584 457.352753,706.750610 456.643890,704.132446 
	C455.560852,700.132324 453.616150,696.361816 452.588745,692.352417 
	C452.246674,691.017517 453.598938,689.248352 454.176636,687.677734 
	C455.570251,688.324402 457.393127,688.610168 458.288818,689.675476 
	C464.780121,697.396301 468.895355,708.382507 459.620270,719.069031 
	C455.525909,723.786499 451.267975,728.362000 446.851990,733.259583 
	C449.438049,737.143005 453.250031,739.131897 458.895111,739.102112 
	C473.188202,739.026611 487.484314,739.844238 501.780243,739.878418 
	C512.089539,739.903076 522.403748,739.309875 532.706482,738.802612 
	C533.944153,738.741638 535.851990,737.705322 536.136475,736.735840 
	C536.458435,735.638611 535.609131,733.836243 534.720459,732.820374 
	C532.874329,730.710144 530.472473,729.076294 528.695435,726.919983 
	C527.912659,725.970215 527.423157,723.653320 527.999817,722.971436 
	C528.873779,721.938049 530.952515,721.094299 532.242981,721.387268 
	C537.597046,722.602966 540.681641,726.328186 542.099365,731.549316 
	C544.113831,738.967896 544.130127,738.979187 551.772766,738.989868 
	C562.772339,739.005188 573.772095,739.032776 584.771179,738.961426 
	C586.808411,738.948181 588.842651,738.491455 590.878296,738.239441 
	C591.043762,737.685425 591.209229,737.131409 591.374695,736.577332 
	C589.415833,735.422852 587.548279,734.057861 585.478149,733.159729 
	C581.716125,731.527588 580.144104,728.323242 581.782349,725.131470 
	C583.697693,721.399780 587.541138,722.882996 589.958740,724.920898 
	C593.101074,727.569763 595.909546,730.754944 598.308533,734.105347 
	C600.666077,737.397827 603.344421,739.151611 607.449951,739.009705 
	C627.070496,738.331665 646.691101,737.577820 666.318481,737.207886 
	C676.455444,737.016846 686.606506,737.565979 696.751038,737.788635 
	C699.248962,737.843445 701.746155,737.990234 704.243774,737.991516 
	C732.242615,738.005554 760.242065,737.882812 788.240234,738.021973 
	C853.880920,738.348267 919.520752,738.849487 985.161438,739.168579 
	C1007.991089,739.279602 1030.822510,739.106812 1053.652832,738.988159 
	C1114.960815,738.669495 1176.268677,738.311646 1237.576538,737.958130 
	C1239.184814,737.948914 1240.792358,737.810974 1243.385376,737.685303 
	C1239.670898,735.291870 1236.829834,733.355591 1233.867310,731.627808 
	C1233.140625,731.204041 1231.942139,731.201965 1231.086426,731.446594 
	C1222.881348,733.791809 1215.419189,730.217896 1212.303589,722.281677 
	C1205.353882,704.578735 1206.523438,688.205200 1219.699829,673.408081 
	C1221.262207,671.653625 1221.470215,667.758240 1220.885498,665.176941 
	C1216.734497,646.849792 1212.006592,628.653015 1207.882324,610.320251 
	C1205.101074,597.957458 1209.753052,592.236633 1222.522217,592.090332 
	C1242.185547,591.864990 1261.854980,591.858765 1281.517700,592.098755 
	C1286.880249,592.164185 1290.991943,591.040283 1293.418213,585.959106 
	C1293.771240,585.219604 1294.319458,584.553284 1294.863770,583.928162 
	C1299.355591,578.768311 1299.048462,579.027832 1294.398315,573.294434 
	C1291.075562,569.197571 1288.739624,564.301086 1285.956055,559.765991 
	C1279.099854,548.596130 1274.730957,536.862732 1276.241577,523.353088 
	C1276.892700,517.528625 1275.342407,511.373566 1276.473389,505.704041 
	C1279.149292,492.289948 1290.359131,487.326965 1301.571777,483.059540 
	C1323.244629,474.811096 1342.533081,478.964600 1358.833740,495.433197 
	C1368.424438,505.122711 1377.200806,515.626099 1386.909912,525.188354 
	C1395.310181,533.461548 1404.168945,541.356934 1413.440063,548.636353 
	C1425.619385,558.199341 1432.972168,569.970520 1434.714478,585.531067 
	C1436.058716,597.537048 1430.567017,610.621826 1420.117920,616.697144 
	C1416.906860,618.564148 1417.754517,620.928223 1418.611572,623.096313 
	C1422.594238,633.170410 1422.145874,643.670349 1421.981079,654.157532 
	C1421.795532,665.971313 1418.674683,676.156067 1407.136963,682.054199 
	C1405.892822,682.690247 1405.164551,685.283447 1405.052612,687.023865 
	C1404.550659,694.822388 1404.151855,702.639404 1404.099609,710.452393 
	C1404.005493,724.530151 1391.061890,734.723633 1378.094482,737.951538 
M1304.035889,681.969849 
	C1294.553101,681.969849 1285.070312,681.969849 1275.587646,681.969849 
	C1275.540161,682.422363 1275.492676,682.874939 1275.445190,683.327454 
	C1281.236572,685.804993 1286.994385,688.367065 1292.849609,690.683167 
	C1293.919189,691.106262 1295.784180,691.004822 1296.596924,690.325745 
	C1299.613159,687.806030 1302.343018,684.943726 1305.423706,682.145264 
	C1305.553711,681.944214 1305.683594,681.743164 1305.813599,681.542175 
	C1305.532227,681.679077 1305.250854,681.815979 1304.035889,681.969849 
M1319.626099,531.975830 
	C1329.294189,533.206421 1338.835083,533.601074 1348.021606,529.249084 
	C1351.993408,527.367493 1356.313354,526.060852 1360.092529,529.841431 
	C1364.042725,533.793091 1363.402466,538.759399 1362.341309,543.474060 
	C1361.908325,545.397888 1360.205322,547.238647 1358.664062,548.668701 
	C1355.353149,551.740784 1354.805054,555.231873 1356.710449,559.053528 
	C1358.036377,561.712341 1359.791626,564.170288 1361.480347,566.632019 
	C1364.391479,570.875305 1368.106323,572.464294 1373.507080,571.580444 
	C1376.864014,571.031128 1380.864258,571.782349 1384.035889,573.177185 
	C1399.047485,579.778992 1408.741455,591.337708 1414.100342,606.741516 
	C1415.850220,611.771606 1417.723755,612.057007 1421.238647,608.128784 
	C1422.117676,607.146606 1422.828857,605.997925 1423.519531,604.866211 
	C1430.097046,594.089539 1429.008911,583.043945 1424.884888,571.768372 
	C1421.362549,562.137634 1413.702026,555.996826 1406.080444,550.272583 
	C1390.604736,538.649353 1378.373413,524.001770 1365.707275,509.669128 
	C1351.010986,493.039368 1334.052856,481.931671 1310.417480,488.953491 
	C1306.909546,489.995667 1303.305420,490.872925 1299.986572,492.363068 
	C1289.599243,497.027191 1281.290161,503.671539 1281.000366,516.235535 
	C1280.916260,519.880554 1282.063843,523.652832 1283.160278,527.208435 
	C1287.074951,539.902771 1290.751953,552.700134 1295.393799,565.131897 
	C1299.858032,577.088257 1315.802734,584.443054 1327.126221,579.828186 
	C1331.864502,577.896973 1335.624023,573.635315 1339.984741,570.662415 
	C1341.285278,569.775696 1343.115845,569.666565 1344.703613,569.201172 
	C1344.667969,571.019836 1345.318970,573.272278 1344.487549,574.588135 
	C1338.140381,584.633667 1324.292847,589.976318 1312.907959,585.850708 
	C1306.879639,583.666138 1304.220459,586.403687 1300.614746,590.419617 
	C1301.941650,590.699951 1302.702026,590.900513 1303.475098,591.017700 
	C1310.681763,592.110107 1312.678711,594.084473 1314.326050,601.264465 
	C1316.445923,610.504578 1318.714722,619.710449 1320.899902,628.935730 
	C1322.169556,634.296265 1322.585693,634.518616 1327.470459,632.264038 
	C1333.688110,629.394348 1340.105835,628.263489 1346.887939,629.888672 
	C1354.093750,631.615601 1361.317749,633.266296 1369.019165,635.063538 
	C1369.378174,629.912537 1369.550171,624.820862 1370.197998,619.790466 
	C1370.385986,618.330505 1371.936523,617.045959 1372.862427,615.681030 
	C1373.856079,616.842773 1375.432617,617.870361 1375.736572,619.190918 
	C1376.742065,623.558899 1376.936279,628.131470 1378.141724,632.429077 
	C1378.872681,635.034973 1380.566162,637.582092 1382.427979,639.601990 
	C1384.418701,641.761841 1387.496826,642.950317 1389.369995,645.177002 
	C1390.613647,646.655579 1390.574707,649.213013 1391.109863,651.287476 
	C1388.845703,651.351135 1386.250732,652.153015 1384.389038,651.318665 
	C1380.937988,649.772034 1377.961670,647.193420 1374.692993,645.199646 
	C1373.270264,644.331787 1371.613647,643.847351 1369.977661,643.152405 
	C1369.538940,644.301514 1369.192627,644.768555 1369.219238,645.213135 
	C1369.348022,647.362732 1369.588745,649.505310 1369.768921,651.652161 
	C1370.253418,657.425781 1367.905884,660.953369 1362.591064,660.807251 
	C1350.956421,660.487427 1342.152588,665.559814 1334.570190,673.801331 
	C1332.967773,675.543091 1330.631470,676.696960 1328.478271,677.826233 
	C1324.135742,680.103882 1318.625732,681.181091 1315.481812,684.525146 
	C1306.365479,694.221375 1295.487427,700.769714 1283.658813,706.447937 
	C1275.865601,710.189087 1268.566895,711.920837 1260.236328,708.669617 
	C1253.589233,706.075439 1246.790283,703.582153 1239.831543,702.143616 
	C1230.025024,700.116455 1225.372314,705.264709 1227.282593,715.144897 
	C1227.588745,716.728699 1228.361572,718.297852 1229.221313,719.686462 
	C1233.703491,726.924072 1240.626221,730.824280 1248.578735,732.794861 
	C1254.043701,734.149109 1259.690918,734.928955 1265.304199,735.492798 
	C1283.390381,737.309937 1301.340820,735.976562 1318.534180,730.150452 
	C1331.905762,725.619385 1344.718750,719.453857 1357.869629,714.240845 
	C1359.576050,713.564392 1361.818848,714.241272 1363.813232,714.291321 
	C1362.732910,715.940125 1362.022949,718.186584 1360.504028,719.127319 
	C1355.653931,722.131531 1350.503662,724.651123 1345.461914,727.361755 
	C1355.620605,731.368713 1366.202148,732.119934 1376.568115,730.715149 
	C1390.377563,728.843750 1400.164307,721.555420 1399.043213,707.194946 
	C1398.772461,703.724670 1398.888062,700.179749 1399.248291,696.713074 
	C1400.350342,686.108948 1393.538940,673.822754 1383.700073,669.154480 
	C1381.143799,667.941650 1378.407471,667.073486 1375.956421,665.688354 
	C1374.684937,664.969727 1373.856323,663.467285 1372.827515,662.319031 
	C1374.330322,661.596008 1375.834961,660.287109 1377.335449,660.291687 
	C1379.413330,660.297974 1381.823120,660.803528 1383.501831,661.954346 
	C1388.655151,665.487183 1393.414551,669.595215 1398.571899,673.121277 
	C1400.341675,674.331299 1403.350464,675.617615 1404.902222,674.911438 
	C1409.984619,672.598389 1413.941284,668.971436 1415.136230,662.896057 
	C1417.689941,649.914917 1416.820923,637.156616 1413.951416,624.329651 
	C1409.719482,605.412537 1399.802368,590.658691 1382.476929,581.732971 
	C1376.262695,578.531494 1369.022339,577.375793 1362.368408,574.961243 
	C1349.805786,570.402649 1345.900146,552.919250 1355.275879,543.706787 
	C1357.669800,541.354492 1358.606567,538.677612 1356.951294,535.599976 
	C1355.144775,532.241150 1352.273315,533.359253 1349.469727,534.008240 
	C1343.018921,535.501587 1336.596924,537.306396 1330.055786,538.171692 
	C1323.201538,539.078491 1316.221436,539.035400 1310.309570,539.353027 
	C1311.267212,544.787415 1312.318359,550.005127 1313.073853,555.265259 
	C1313.729492,559.830750 1313.784790,564.561401 1320.689087,563.299683 
	C1321.657471,563.122742 1322.953003,564.735962 1324.097046,565.520508 
	C1323.161987,566.694946 1322.444580,568.237610 1321.237183,568.951233 
	C1319.708130,569.855042 1317.772949,570.061096 1316.026001,570.609375 
	C1309.959717,572.513062 1307.639526,571.158936 1308.158081,564.779236 
	C1308.929688,555.285461 1307.738037,547.273560 1297.778809,542.946228 
	C1296.263916,542.287903 1294.725342,539.996521 1294.596558,538.350952 
	C1294.487061,536.950012 1296.392578,535.391602 1297.384766,533.935120 
	C1294.131348,531.309937 1290.586060,528.787964 1287.494873,525.796692 
	C1286.164307,524.509094 1285.774780,522.249023 1284.957764,520.430786 
	C1286.935059,520.445740 1289.120850,519.923279 1290.844849,520.591675 
	C1294.077881,521.845154 1297.236938,523.511841 1300.080200,525.501831 
	C1305.725830,529.453308 1311.947388,531.420288 1319.626099,531.975830 
M1237.498779,596.999023 
	C1231.518555,597.215393 1225.480103,596.986450 1219.572998,597.760986 
	C1212.202148,598.727417 1210.806152,600.993164 1212.712769,608.348389 
	C1214.714111,616.069275 1217.620361,623.561523 1219.499268,631.306946 
	C1222.399658,643.263916 1224.567383,655.397766 1227.425293,667.366028 
	C1229.172241,674.681458 1231.226318,676.054260 1238.591553,675.971313 
	C1263.559692,675.690186 1288.526855,675.318176 1313.494263,674.968628 
	C1314.490234,674.954712 1315.702271,675.145447 1316.431030,674.662903 
	C1317.698120,673.823792 1319.450317,672.638855 1319.615723,671.412354 
	C1320.165649,667.336060 1320.877075,663.023743 1320.100708,659.082825 
	C1318.693481,651.940247 1316.077515,645.045837 1314.295410,637.964966 
	C1311.492310,626.827026 1308.852051,615.644653 1306.377197,604.429382 
	C1305.545532,600.660950 1303.572388,599.137329 1299.845215,599.023926 
	C1279.393921,598.401978 1258.945435,597.684387 1237.498779,596.999023 
M1249.411133,682.000610 
	C1245.252930,682.000122 1241.094727,681.991821 1236.936523,682.001099 
	C1232.128174,682.011902 1227.181641,682.528809 1223.853638,678.020447 
	C1213.884033,686.169189 1213.844116,716.041321 1224.449463,724.414978 
	C1223.719238,721.869690 1223.230347,720.229614 1222.778442,718.579346 
	C1218.374634,702.498169 1227.633301,692.353516 1243.862305,695.822205 
	C1249.018433,696.924194 1253.891235,699.288757 1258.980225,700.780762 
	C1268.491821,703.569397 1277.193481,702.076294 1285.275879,695.174011 
	C1279.698242,692.368835 1274.469604,689.860779 1269.356567,687.135925 
	C1263.402222,683.962708 1257.312866,681.468567 1249.411133,682.000610 
M1349.379272,636.085632 
	C1347.731323,635.861572 1346.088867,635.580566 1344.434570,635.423523 
	C1338.042114,634.816772 1332.184692,636.157532 1327.226074,640.433716 
	C1325.147095,642.226624 1323.466797,644.219971 1326.537720,648.008240 
	C1327.947510,646.222717 1328.994873,644.455872 1330.466309,643.177002 
	C1331.574585,642.213562 1333.226196,641.875122 1334.635986,641.258545 
	C1334.589355,642.899536 1334.955688,644.695190 1334.410767,646.149414 
	C1333.260498,649.218689 1331.633545,652.109314 1330.202271,655.073303 
	C1330.598145,655.302368 1330.994141,655.531494 1331.390015,655.760559 
	C1333.818237,653.855957 1336.120117,651.742615 1338.740601,650.155579 
	C1339.707886,649.569763 1341.688721,649.817383 1342.699219,650.470642 
	C1343.268188,650.838684 1343.135254,652.930176 1342.731689,654.029968 
	C1341.920776,656.240112 1340.707764,658.302795 1339.636719,660.474976 
	C1347.360352,658.399292 1354.493042,656.621765 1361.500244,654.441223 
	C1362.493408,654.132263 1363.502197,651.832886 1363.439819,650.504639 
	C1363.025879,641.694885 1359.558105,638.072205 1349.379272,636.085632 
M1346.375000,738.967896 
	C1348.953491,738.967896 1351.531982,738.967896 1354.778931,738.967896 
	C1340.996216,733.260864 1327.903931,729.708618 1314.778931,738.967773 
	C1324.990601,738.967773 1335.202271,738.967773 1346.375000,738.967896 
M1336.445923,664.053467 
	C1336.445923,664.053467 1336.451050,663.968140 1336.445923,664.053467 
M1227.018066,726.421814 
	C1227.018066,726.421814 1227.047241,726.502686 1227.018066,726.421814 
z"/>
<path fill="#000000" opacity="1.000000" stroke="none" 
	d="
M344.208252,684.798950 
	C346.933899,689.016052 349.286285,693.058044 352.005646,696.835876 
	C357.173889,704.015808 364.414886,703.546692 368.108826,695.626221 
	C373.603973,683.843506 380.858124,672.953003 390.407410,664.604614 
	C406.888519,650.195923 425.818481,640.253540 448.833282,646.723389 
	C455.523621,648.604187 461.938690,652.443298 467.673889,656.518921 
	C476.858307,663.045532 485.356628,670.535522 494.171509,677.585083 
	C498.559082,681.094055 507.151581,678.794434 510.106140,673.482178 
	C512.934875,668.396179 515.648804,663.216187 518.886353,658.395325 
	C522.835571,652.514709 527.611328,653.026489 531.125366,659.252563 
	C533.005249,662.583374 534.920410,665.914124 537.093567,669.055420 
	C541.899353,676.002136 548.822937,675.262817 552.798340,667.965515 
	C554.243164,665.313354 557.462402,661.681396 559.609619,661.849426 
	C562.311523,662.060913 566.004456,665.232788 567.042969,667.971680 
	C569.559143,674.607056 570.871582,681.712402 572.428284,688.682190 
	C572.639771,689.629150 571.587830,691.719543 570.914490,691.814331 
	C569.706604,691.984314 567.666687,691.412537 567.161987,690.496460 
	C565.176636,686.892883 563.571289,683.068787 561.989685,679.258179 
	C561.014404,676.908752 560.337219,674.435608 559.561584,672.123413 
	C558.404663,672.379150 557.894104,672.349670 557.800293,672.533203 
	C553.435852,681.070251 545.804504,679.562012 539.157104,677.441895 
	C535.566162,676.296509 532.864868,671.991089 530.076172,668.833984 
	C528.261230,666.779236 527.011475,664.225281 524.890381,660.936584 
	C523.188599,663.627319 522.118103,665.549622 520.830627,667.313477 
	C516.563110,673.160400 512.912476,679.690552 507.718567,684.566833 
	C501.773560,690.148254 493.523712,688.822754 487.546570,683.054443 
	C479.283539,675.080139 471.370667,666.678406 462.578644,659.332520 
	C450.369781,649.131714 435.905304,648.109863 421.596436,653.455688 
	C398.500183,662.084534 382.580688,678.864990 371.826538,700.787964 
	C368.204407,708.171875 362.350647,710.336365 355.453644,705.937500 
	C351.691376,703.537964 348.449493,699.944397 345.771454,696.302246 
	C340.296478,688.855896 336.567535,680.007080 327.878326,675.293213 
	C320.730652,671.415649 309.991852,672.430054 303.955444,677.857788 
	C299.713562,681.671997 301.634308,686.920471 301.628510,691.496216 
	C301.624023,695.039307 303.218170,698.576782 304.036072,702.131775 
	C304.455231,703.953552 304.730621,705.808350 305.070953,707.648254 
	C304.579193,707.994629 304.087463,708.340942 303.595703,708.687317 
	C301.762665,707.108093 299.373505,705.860840 298.196655,703.889832 
	C293.992950,696.849548 292.106293,689.139343 293.210144,680.896790 
	C294.250702,673.126953 301.855255,667.223938 310.360870,665.965881 
	C326.515991,663.576477 336.668274,671.291016 344.208252,684.798950 
z"/>
<path fill="#000000" opacity="1.000000" stroke="none" 
	d="
M321.325378,726.153320 
	C325.538971,725.033020 329.327393,723.789795 333.211609,723.048523 
	C334.680817,722.768127 336.371124,723.646423 337.960663,723.996643 
	C337.102997,725.404480 336.579041,727.420654 335.326080,728.107849 
	C331.319611,730.305237 327.150360,732.355652 322.808411,733.704895 
	C321.412628,734.138611 319.286285,732.221191 317.494141,731.379456 
	C318.642181,729.663025 319.790253,727.946594 321.325378,726.153320 
z"/>
<path fill="#000000" opacity="1.000000" stroke="none" 
	d="
M305.077026,717.030029 
	C311.464111,712.609375 317.796661,715.187073 323.855774,716.817566 
	C326.486755,717.525452 325.746246,720.707764 323.354645,721.008423 
	C317.878662,721.696533 312.289276,721.669128 306.759369,721.497742 
	C306.089783,721.476929 305.503021,718.782715 305.077026,717.030029 
z"/>
<path fill="#000000" opacity="1.000000" stroke="none" 
	d="
M498.445862,702.891968 
	C497.002747,701.797607 495.943512,700.764587 494.884247,699.731506 
	C495.986847,698.856384 496.982513,697.759277 498.219696,697.163696 
	C499.687836,696.456970 501.402100,695.712524 502.940186,695.837891 
	C504.897064,695.997314 507.020355,696.681946 508.595764,697.806946 
	C509.318726,698.323242 509.506073,701.154114 508.887054,701.665588 
	C507.515228,702.799011 505.521942,703.456482 503.703033,703.688538 
	C502.135437,703.888733 500.458405,703.231445 498.445862,702.891968 
z"/>
<path fill="#000000" opacity="1.000000" stroke="none" 
	d="
M511.563232,710.998352 
	C512.800171,712.427185 514.430054,713.806458 514.386597,715.130859 
	C514.348877,716.279846 512.600403,717.924866 511.280975,718.360474 
	C508.819031,719.173401 506.128326,719.434937 503.514496,719.568665 
	C502.615387,719.614624 501.121765,718.767212 500.880737,718.013977 
	C500.625580,717.216492 501.257782,715.520691 501.989990,715.129395 
	C504.968109,713.537659 508.133270,712.295776 511.563232,710.998352 
z"/>
<path fill="#000000" opacity="1.000000" stroke="none" 
	d="
M582.963989,700.822266 
	C584.281067,701.872498 585.237122,702.819580 586.193115,703.766602 
	C585.166748,704.716248 584.290833,706.054565 583.078491,706.524048 
	C581.275208,707.222473 578.972046,708.032654 577.366028,707.452942 
	C575.682190,706.845276 573.720276,704.813965 573.399780,703.117737 
	C572.870300,700.315491 574.957336,699.016968 577.809082,699.562012 
	C579.421875,699.870178 581.005920,700.328491 582.963989,700.822266 
z"/>
<path fill="#000000" opacity="1.000000" stroke="none" 
	d="
M575.043457,721.789795 
	C574.448303,723.234924 573.196838,725.404602 573.050537,725.332458 
	C570.483643,724.067078 567.792725,722.798401 565.768188,720.861938 
	C565.245789,720.362427 566.464539,716.754395 567.699707,716.088623 
	C568.805481,715.492554 571.267761,716.652405 572.693970,717.658020 
	C573.784119,718.426697 574.190857,720.164307 575.043457,721.789795 
z"/>
<path fill="#000000" opacity="1.000000" stroke="none" 
	d="
M1319.174072,531.959717 
	C1311.947388,531.420288 1305.725830,529.453308 1300.080200,525.501831 
	C1297.236938,523.511841 1294.077881,521.845154 1290.844849,520.591675 
	C1289.120850,519.923279 1286.935059,520.445740 1284.957764,520.430725 
	C1285.774780,522.249023 1286.164307,524.509094 1287.494873,525.796692 
	C1290.586060,528.787964 1294.131348,531.309937 1297.384766,533.935120 
	C1296.392578,535.391602 1294.487061,536.950012 1294.596558,538.350952 
	C1294.725342,539.996521 1296.263916,542.287903 1297.778809,542.946228 
	C1307.738037,547.273560 1308.929688,555.285461 1308.158081,564.779236 
	C1307.639526,571.158936 1309.959717,572.513062 1316.026001,570.609375 
	C1317.772949,570.061096 1319.708130,569.855042 1321.237183,568.951233 
	C1322.444580,568.237610 1323.161987,566.694946 1324.097046,565.520508 
	C1322.953003,564.735962 1321.657471,563.122742 1320.689087,563.299683 
	C1313.784790,564.561401 1313.729492,559.830750 1313.073853,555.265259 
	C1312.318359,550.005127 1311.267212,544.787415 1310.309570,539.353027 
	C1316.221436,539.035400 1323.201538,539.078491 1330.055786,538.171692 
	C1336.596924,537.306396 1343.018921,535.501587 1349.469727,534.008240 
	C1352.273315,533.359253 1355.144775,532.241150 1356.951294,535.599976 
	C1358.606567,538.677612 1357.669800,541.354492 1355.275879,543.706787 
	C1345.900146,552.919250 1349.805786,570.402649 1362.368408,574.961243 
	C1369.022339,577.375793 1376.262695,578.531494 1382.476929,581.732971 
	C1399.802368,590.658691 1409.719482,605.412537 1413.951416,624.329651 
	C1416.820923,637.156616 1417.689941,649.914917 1415.136230,662.896057 
	C1413.941284,668.971436 1409.984619,672.598389 1404.902222,674.911438 
	C1403.350464,675.617615 1400.341675,674.331299 1398.571899,673.121277 
	C1393.414551,669.595215 1388.655151,665.487183 1383.501831,661.954346 
	C1381.823120,660.803528 1379.413330,660.297974 1377.335449,660.291687 
	C1375.834961,660.287109 1374.330322,661.596008 1372.827515,662.318970 
	C1373.856323,663.467285 1374.684937,664.969727 1375.956421,665.688354 
	C1378.407471,667.073486 1381.143799,667.941650 1383.700073,669.154480 
	C1393.538940,673.822754 1400.350342,686.108948 1399.248291,696.713074 
	C1398.888062,700.179749 1398.772461,703.724670 1399.043213,707.194946 
	C1400.164307,721.555420 1390.377563,728.843750 1376.568115,730.715149 
	C1366.202148,732.119934 1355.620605,731.368713 1345.461914,727.361755 
	C1350.503662,724.651123 1355.653931,722.131531 1360.504028,719.127319 
	C1362.022949,718.186584 1362.732910,715.940125 1363.813232,714.291260 
	C1361.818848,714.241272 1359.576050,713.564392 1357.869629,714.240845 
	C1344.718750,719.453857 1331.905762,725.619385 1318.534180,730.150452 
	C1301.340820,735.976562 1283.390381,737.309937 1265.304199,735.492798 
	C1259.690918,734.928955 1254.043701,734.149109 1248.578735,732.794861 
	C1240.626221,730.824280 1233.703491,726.924072 1229.221313,719.686462 
	C1228.361572,718.297852 1227.588745,716.728699 1227.282593,715.144897 
	C1225.372314,705.264709 1230.025024,700.116455 1239.831543,702.143616 
	C1246.790283,703.582153 1253.589233,706.075439 1260.236328,708.669617 
	C1268.566895,711.920837 1275.865601,710.189087 1283.658813,706.447937 
	C1295.487427,700.769714 1306.365479,694.221375 1315.481812,684.525146 
	C1318.625732,681.181091 1324.135742,680.103882 1328.478271,677.826233 
	C1330.631470,676.696960 1332.967773,675.543091 1334.570190,673.801331 
	C1342.152588,665.559814 1350.956421,660.487427 1362.591064,660.807251 
	C1367.905884,660.953369 1370.253418,657.425781 1369.768921,651.652161 
	C1369.588745,649.505310 1369.348022,647.362732 1369.219238,645.213135 
	C1369.192627,644.768555 1369.538940,644.301514 1369.977661,643.152405 
	C1371.613647,643.847351 1373.270264,644.331787 1374.692993,645.199646 
	C1377.961670,647.193420 1380.937988,649.772034 1384.389038,651.318665 
	C1386.250732,652.153015 1388.845703,651.351135 1391.109863,651.287476 
	C1390.574707,649.213013 1390.613647,646.655579 1389.369995,645.177002 
	C1387.496826,642.950317 1384.418701,641.761841 1382.427979,639.601990 
	C1380.566162,637.582092 1378.872681,635.034973 1378.141724,632.429077 
	C1376.936279,628.131470 1376.742065,623.558899 1375.736572,619.190918 
	C1375.432617,617.870361 1373.856079,616.842773 1372.862427,615.681030 
	C1371.936523,617.045959 1370.385986,618.330505 1370.197998,619.790466 
	C1369.550171,624.820862 1369.378174,629.912537 1369.019165,635.063538 
	C1361.317749,633.266296 1354.093750,631.615601 1346.887939,629.888672 
	C1340.105835,628.263489 1333.688110,629.394348 1327.470459,632.264038 
	C1322.585693,634.518616 1322.169556,634.296265 1320.899902,628.935730 
	C1318.714722,619.710449 1316.445923,610.504578 1314.326050,601.264465 
	C1312.678711,594.084473 1310.681763,592.110107 1303.475098,591.017700 
	C1302.702026,590.900513 1301.941650,590.699951 1300.614746,590.419617 
	C1304.220459,586.403687 1306.879639,583.666138 1312.907959,585.850708 
	C1324.292847,589.976318 1338.140381,584.633667 1344.487549,574.588135 
	C1345.318970,573.272278 1344.667969,571.019836 1344.703613,569.201172 
	C1343.115845,569.666565 1341.285278,569.775696 1339.984741,570.662415 
	C1335.624023,573.635315 1331.864502,577.896973 1327.126221,579.828186 
	C1315.802734,584.443054 1299.858032,577.088257 1295.393799,565.131897 
	C1290.751953,552.700134 1287.074951,539.902771 1283.160278,527.208435 
	C1282.063843,523.652832 1280.916260,519.880554 1281.000366,516.235535 
	C1281.290161,503.671539 1289.599243,497.027191 1299.986572,492.363068 
	C1303.305420,490.872925 1306.909546,489.995667 1310.417480,488.953491 
	C1334.052856,481.931671 1351.010986,493.039368 1365.707275,509.669128 
	C1378.373413,524.001770 1390.604736,538.649353 1406.080444,550.272583 
	C1413.702026,555.996826 1421.362549,562.137634 1424.884888,571.768372 
	C1429.008911,583.043945 1430.097046,594.089539 1423.519531,604.866211 
	C1422.828857,605.997925 1422.117676,607.146606 1421.238647,608.128784 
	C1417.723755,612.057007 1415.850220,611.771606 1414.100342,606.741516 
	C1408.741455,591.337708 1399.047485,579.778992 1384.035889,573.177185 
	C1380.864258,571.782349 1376.864014,571.031128 1373.507080,571.580444 
	C1368.106323,572.464294 1364.391479,570.875305 1361.480347,566.632019 
	C1359.791626,564.170288 1358.036377,561.712341 1356.710449,559.053528 
	C1354.805054,555.231873 1355.353149,551.740784 1358.664062,548.668701 
	C1360.205322,547.238647 1361.908325,545.397888 1362.341309,543.474060 
	C1363.402466,538.759399 1364.042725,533.793091 1360.092529,529.841431 
	C1356.313354,526.060852 1351.993408,527.367493 1348.021606,529.249084 
	C1338.835083,533.601074 1329.294189,533.206421 1319.174072,531.959717 
z"/>
<path fill="#000000" opacity="1.000000" stroke="none" 
	d="
M1237.997314,596.999268 
	C1258.945435,597.684387 1279.393921,598.401978 1299.845215,599.023926 
	C1303.572388,599.137329 1305.545532,600.660950 1306.377197,604.429382 
	C1308.852051,615.644653 1311.492310,626.827026 1314.295410,637.964966 
	C1316.077515,645.045837 1318.693481,651.940247 1320.100708,659.082825 
	C1320.877075,663.023743 1320.165649,667.336060 1319.615723,671.412354 
	C1319.450317,672.638855 1317.698120,673.823792 1316.431030,674.662903 
	C1315.702271,675.145447 1314.490234,674.954712 1313.494263,674.968628 
	C1288.526855,675.318176 1263.559692,675.690186 1238.591553,675.971313 
	C1231.226318,676.054260 1229.172241,674.681458 1227.425293,667.366028 
	C1224.567383,655.397766 1222.399658,643.263916 1219.499268,631.306946 
	C1217.620361,623.561523 1214.714111,616.069275 1212.712769,608.348389 
	C1210.806152,600.993164 1212.202148,598.727417 1219.572998,597.760986 
	C1225.480103,596.986450 1231.518555,597.215393 1237.997314,596.999268 
M1271.497314,629.106445 
	C1268.523071,629.097961 1265.512207,628.801208 1262.586060,629.172180 
	C1260.240112,629.469604 1257.465332,629.977905 1255.813232,631.443604 
	C1251.737061,635.059448 1251.391846,643.211609 1254.482300,648.621216 
	C1257.458008,653.830139 1259.732666,654.605286 1267.275513,653.053284 
	C1268.077148,652.888428 1268.925659,652.959045 1269.751221,652.902344 
	C1277.781128,652.351196 1281.291382,646.131470 1277.405884,639.343994 
	C1281.299561,633.259338 1280.024536,630.702332 1271.497314,629.106445 
M1264.645996,620.891235 
	C1265.064087,623.030579 1265.482056,625.169983 1265.900146,627.309265 
	C1268.174805,626.435669 1270.726685,625.935425 1272.611328,624.536377 
	C1273.603271,623.799927 1273.429199,621.492798 1273.781616,619.894897 
	C1271.376831,619.612671 1268.976562,619.255249 1266.563599,619.112976 
	C1266.091553,619.085144 1265.570190,619.891724 1264.645996,620.891235 
z"/>
<path fill="#000000" opacity="1.000000" stroke="none" 
	d="
M1249.894775,682.001343 
	C1257.312866,681.468567 1263.402222,683.962708 1269.356567,687.135925 
	C1274.469604,689.860779 1279.698242,692.368835 1285.275879,695.174011 
	C1277.193481,702.076294 1268.491821,703.569397 1258.980225,700.780762 
	C1253.891235,699.288757 1249.018433,696.924194 1243.862305,695.822205 
	C1227.633301,692.353516 1218.374634,702.498169 1222.778442,718.579346 
	C1223.230347,720.229614 1223.719238,721.869690 1224.449463,724.414978 
	C1213.844116,716.041321 1213.884033,686.169189 1223.853638,678.020447 
	C1227.181641,682.528809 1232.128174,682.011902 1236.936523,682.001099 
	C1241.094727,681.991821 1245.252930,682.000122 1249.894775,682.001343 
z"/>
<path fill="#000000" opacity="1.000000" stroke="none" 
	d="
M1349.800049,636.131958 
	C1359.558105,638.072205 1363.025879,641.694885 1363.439819,650.504639 
	C1363.502197,651.832886 1362.493408,654.132263 1361.500244,654.441223 
	C1354.493042,656.621765 1347.360352,658.399292 1339.636719,660.474976 
	C1340.707764,658.302795 1341.920776,656.240112 1342.731689,654.029968 
	C1343.135254,652.930176 1343.268188,650.838684 1342.699219,650.470642 
	C1341.688721,649.817383 1339.707886,649.569763 1338.740601,650.155579 
	C1336.120117,651.742615 1333.818237,653.855957 1331.390015,655.760559 
	C1330.994141,655.531494 1330.598145,655.302368 1330.202271,655.073303 
	C1331.633545,652.109314 1333.260498,649.218689 1334.410767,646.149414 
	C1334.955688,644.695190 1334.589355,642.899536 1334.635986,641.258545 
	C1333.226196,641.875122 1331.574585,642.213562 1330.466309,643.177002 
	C1328.994873,644.455872 1327.947510,646.222717 1326.537720,648.008240 
	C1323.466797,644.219971 1325.147095,642.226624 1327.226074,640.433716 
	C1332.184692,636.157532 1338.042114,634.816772 1344.434570,635.423523 
	C1346.088867,635.580566 1347.731323,635.861572 1349.800049,636.131958 
z"/>
<path fill="#000000" opacity="1.000000" stroke="none" 
	d="
M1305.180420,682.210083 
	C1302.343018,684.943726 1299.613159,687.806030 1296.596924,690.325745 
	C1295.784180,691.004822 1293.919189,691.106262 1292.849609,690.683167 
	C1286.994385,688.367065 1281.236572,685.804993 1275.445190,683.327454 
	C1275.492676,682.874939 1275.540161,682.422363 1275.587646,681.969849 
	C1285.070312,681.969849 1294.553101,681.969849 1304.555420,682.025635 
	C1305.075073,682.081360 1305.180420,682.210022 1305.180420,682.210083 
z"/>
<path fill="#000000" opacity="1.000000" stroke="none" 
	d="
M1345.894531,738.967834 
	C1335.202271,738.967773 1324.990601,738.967773 1314.784058,738.967529 
	C1327.903931,729.708618 1340.996216,733.260864 1354.778931,738.967896 
	C1351.531982,738.967896 1348.953491,738.967896 1345.894531,738.967834 
z"/>
<path fill="#000000" opacity="1.000000" stroke="none" 
	d="
M1305.022217,682.017151 
	C1305.250854,681.815979 1305.532227,681.679077 1305.813599,681.542114 
	C1305.683594,681.743164 1305.553711,681.944214 1305.302002,682.177612 
	C1305.180420,682.210022 1305.075073,682.081360 1305.022217,682.017151 
z"/>
<path fill="#000000" opacity="1.000000" stroke="none" 
	d="
M1336.448486,664.010803 
	C1336.451050,663.968140 1336.445923,664.053467 1336.448486,664.010803 
z"/>
<path fill="#000000" opacity="1.000000" stroke="none" 
	d="
M1227.032715,726.462280 
	C1227.047241,726.502686 1227.018066,726.421814 1227.032715,726.462280 
z"/>
<path fill="#000000" opacity="1.000000" stroke="none" 
	d="
M1271.906372,629.120850 
	C1280.024536,630.702332 1281.299561,633.259338 1277.405884,639.343994 
	C1281.291382,646.131470 1277.781128,652.351196 1269.751221,652.902344 
	C1268.925659,652.959045 1268.077148,652.888428 1267.275513,653.053284 
	C1259.732666,654.605286 1257.458008,653.830139 1254.482300,648.621216 
	C1251.391846,643.211609 1251.737061,635.059448 1255.813232,631.443604 
	C1257.465332,629.977905 1260.240112,629.469604 1262.586060,629.172180 
	C1265.512207,628.801208 1268.523071,629.097961 1271.906372,629.120850 
z"/>
<path fill="#000000" opacity="1.000000" stroke="none" 
	d="
M1264.858887,620.602356 
	C1265.570190,619.891724 1266.091553,619.085144 1266.563599,619.112976 
	C1268.976562,619.255249 1271.376831,619.612671 1273.781616,619.894897 
	C1273.429199,621.492798 1273.603271,623.799927 1272.611328,624.536377 
	C1270.726685,625.935425 1268.174805,626.435669 1265.900146,627.309326 
	C1265.482056,625.169983 1265.064087,623.030579 1264.858887,620.602356 
z"/>
</svg>