<svg version="1.1" id="Layer_1" xmlns="http://www.w3.org/2000/svg" xmlns:xlink="http://www.w3.org/1999/xlink" x="0px" y="0px"
	 width="100%" viewBox="0 0 1694 820" enable-background="new 0 0 1694 820" xml:space="preserve">
<path fill="none" opacity="1.000000" stroke="none" 
	d="
M1688.051270,821.000000 
	C1125.375977,821.000000 563.211670,821.000000 1.023660,821.000000 
	C1.023660,547.683594 1.023660,274.367157 1.023660,1.025371 
	C565.647400,1.025371 1130.294800,1.025371 1694.971069,1.025371 
	C1694.971069,274.312927 1694.971069,547.625854 1694.971069,821.000000 
	C1692.854126,821.000000 1690.708130,821.000000 1688.051270,821.000000 
M1137.500000,738.000549 
	C1105.193726,738.333679 1072.888062,738.759888 1040.580933,738.969360 
	C1016.586975,739.125000 992.590820,739.095215 968.596313,738.980408 
	C911.789124,738.708679 854.982117,738.381470 798.175598,737.989685 
	C761.533875,737.736877 724.893677,737.176514 688.251831,737.061035 
	C671.443054,737.008118 654.631958,737.691711 637.822083,738.050171 
	C636.990662,738.067871 636.142334,738.080322 635.333618,738.248230 
	C627.973450,739.776001 622.289551,738.921570 616.373413,732.532898 
	C608.894714,724.456909 596.682678,724.634705 586.766296,720.599487 
	C585.836121,720.220947 583.113953,721.690918 582.932434,722.632202 
	C582.665588,724.015686 583.505554,726.418274 584.644775,727.101624 
	C587.109985,728.580322 589.997314,729.555481 592.834778,730.166199 
	C597.036194,731.070435 601.483826,731.020813 605.557068,732.262085 
	C608.232910,733.077454 610.433655,735.451904 612.847168,737.128174 
	C612.595276,737.601990 612.343323,738.075867 612.091431,738.549683 
	C608.842407,738.549683 605.592041,738.605896 602.344727,738.532104 
	C599.690857,738.471863 597.037415,738.088135 594.389343,738.138855 
	C582.911011,738.359070 571.433228,738.639160 559.958435,738.998657 
	C555.706726,739.131775 554.136108,737.201294 553.837952,733.036987 
	C553.645630,730.351196 552.649048,727.432922 551.152893,725.193420 
	C548.406921,721.083374 524.626526,715.195068 520.037170,717.232300 
	C518.986206,717.698792 517.727966,718.934692 517.617554,719.932922 
	C517.508911,720.914795 518.526855,722.709839 519.416687,722.991577 
	C522.849304,724.078674 526.395081,724.941528 529.961243,725.440674 
	C534.661194,726.098511 539.544922,725.814514 544.115723,726.910767 
	C548.074707,727.860229 548.254883,731.706848 547.779541,735.194153 
	C547.291260,738.776245 544.490845,738.891785 541.731873,738.961914 
	C528.588257,739.296143 515.444153,739.914978 502.301086,739.893982 
	C485.839417,739.867615 469.377136,739.028381 452.917969,739.109863 
	C444.398346,739.151978 440.222290,732.504639 432.524109,729.019836 
	C435.606750,727.114807 437.375336,726.027649 439.138275,724.931396 
	C448.839752,718.898865 457.388672,712.096985 458.666870,699.469666 
	C459.325378,692.964233 455.968323,684.369141 450.560211,681.176575 
	C449.586639,680.601868 447.788025,680.397644 446.943115,680.930542 
	C446.151672,681.429688 445.597595,683.267883 445.858307,684.280029 
	C446.474426,686.671753 447.652924,688.916382 448.575958,691.231628 
	C451.835297,699.407288 452.879822,710.329834 441.960724,716.495300 
	C438.196472,718.620850 434.371216,720.641418 430.536194,722.637695 
	C425.320526,725.352539 424.746094,729.715332 429.153229,733.728455 
	C430.572418,735.020874 432.046844,736.252563 433.496033,737.512085 
	C433.380402,737.920349 433.264740,738.328613 433.149109,738.736877 
	C425.953552,738.736877 418.663361,739.394165 411.613861,738.379456 
	C409.154877,738.025574 407.290436,733.544983 405.152466,730.950684 
	C404.940704,730.693726 404.762787,730.328125 404.487335,730.218201 
	C403.177612,729.695923 401.441925,728.501221 400.607452,728.947449 
	C399.439697,729.571838 398.539062,731.358948 398.252014,732.794189 
	C397.914734,734.480530 398.356934,736.322815 398.477173,738.371460 
	C383.668060,738.371460 369.220245,738.371460 355.098663,738.371460 
	C356.089172,733.854614 357.086121,729.874023 357.740173,725.837830 
	C357.867584,725.051575 356.836487,723.742249 356.002228,723.268250 
	C355.541168,723.006287 354.137146,723.770447 353.575043,724.428284 
	C350.988342,727.455566 348.406525,730.506470 346.087219,733.738525 
	C342.031006,739.391174 339.498016,740.276062 331.544037,737.940063 
	C333.631683,734.999084 335.736176,732.289001 337.518768,729.381592 
	C338.122833,728.396362 338.162109,726.867554 337.947754,725.679504 
	C337.867462,725.234619 335.952362,724.521484 335.518066,724.831970 
	C330.976074,728.078430 325.623627,730.813843 322.442871,735.126892 
	C320.256012,738.092163 318.514496,739.057495 315.414551,738.983521 
	C301.771667,738.657715 288.127869,737.990723 274.486633,738.041992 
	C217.846664,738.254883 161.207306,738.660400 104.568527,739.099670 
	C101.767845,739.121460 98.974792,740.125916 96.178192,740.672852 
	C96.170311,741.277100 96.162437,741.881287 96.154556,742.485535 
	C99.759361,744.697266 104.087280,744.751587 108.153717,744.873108 
	C125.792564,745.399963 143.440796,745.986450 161.083694,745.931458 
	C207.393173,745.787109 253.701599,745.313293 300.010559,744.985107 
	C308.468323,744.925171 316.927856,745.018311 325.384308,744.891968 
	C341.497589,744.651367 357.609467,744.052673 373.721497,744.068054 
	C391.005341,744.084534 408.287781,744.835999 425.572418,744.912964 
	C461.694153,745.073914 497.816925,745.018860 533.939270,745.021606 
	C570.395020,745.024292 606.851379,744.863708 643.306396,745.016724 
	C666.394592,745.113586 689.480286,745.840759 712.568359,745.925476 
	C726.878296,745.978027 741.189880,745.313599 755.502136,745.048096 
	C776.312195,744.662048 797.124390,744.012512 817.934143,744.064819 
	C870.076660,744.195740 922.218262,744.663574 974.360352,744.985840 
	C1030.001953,745.329773 1085.643311,745.891663 1141.285034,745.925537 
	C1185.093750,745.952271 1228.903076,745.350525 1272.711304,744.949036 
	C1278.692017,744.894226 1284.669800,744.109619 1290.646729,744.137207 
	C1303.254395,744.195374 1315.861206,744.794189 1328.467163,744.756470 
	C1345.920166,744.704346 1363.371704,744.097717 1380.824585,744.064392 
	C1391.302124,744.044312 1401.780273,744.917114 1412.259521,744.950317 
	C1449.548096,745.068359 1486.837402,744.999084 1524.126343,744.999451 
	C1550.791016,744.999634 1577.455933,745.044617 1604.120361,744.949646 
	C1608.429810,744.934265 1612.751221,744.406006 1617.037231,743.874146 
	C1618.374756,743.708191 1619.614014,742.750793 1620.898193,742.155701 
	C1620.834473,741.698486 1620.770752,741.241211 1620.707031,740.783997 
	C1618.692261,740.236755 1616.694580,739.295837 1614.659912,739.207458 
	C1603.024170,738.702393 1591.379761,738.109253 1579.738159,738.104980 
	C1566.262207,738.100098 1552.786743,738.714172 1539.309570,738.986084 
	C1521.000366,739.355530 1502.690430,739.857178 1484.379517,739.913513 
	C1472.252563,739.950806 1460.124756,739.093018 1447.994995,739.014099 
	C1424.997681,738.864502 1401.998657,738.986572 1379.000366,738.995605 
	C1377.351440,738.996216 1375.702515,738.995728 1374.053589,738.995728 
	C1387.646362,738.616211 1405.418823,724.003784 1404.318359,708.841614 
	C1403.803589,701.751709 1404.845215,694.559998 1404.905151,687.412048 
	C1404.929932,684.465332 1405.475708,682.499023 1408.443115,681.078369 
	C1414.451050,678.202209 1418.384399,673.150757 1420.227783,666.872925 
	C1421.384277,662.934265 1421.790039,658.681396 1421.911987,654.551147 
	C1422.226685,643.908752 1422.650757,633.230103 1418.580322,622.997803 
	C1417.708496,620.806458 1416.990601,618.480713 1420.209473,616.649353 
	C1430.538086,610.772522 1436.041016,597.451416 1434.700439,585.430603 
	C1432.962158,569.843689 1425.573120,558.070923 1413.350586,548.586792 
	C1404.955444,542.072571 1396.842407,535.085632 1389.301758,527.605957 
	C1378.797485,517.186707 1369.177124,505.880463 1358.761963,495.366364 
	C1342.450562,478.899841 1323.149292,474.857727 1301.474487,483.073822 
	C1289.675293,487.546448 1278.393188,493.090759 1276.005615,507.225281 
	C1275.120239,512.467468 1276.853271,518.117310 1276.229248,523.445007 
	C1274.506958,538.148376 1280.098267,550.496582 1287.574219,562.399597 
	C1289.957397,566.194031 1291.934448,570.339722 1294.827148,573.695618 
	C1299.366089,578.961426 1299.618530,578.726196 1295.134766,583.624084 
	C1294.464233,584.356506 1293.804688,585.155151 1293.367920,586.036133 
	C1290.992432,590.828308 1287.163818,592.169006 1281.926025,592.098511 
	C1263.097412,591.844910 1244.263306,591.970032 1225.431396,592.013672 
	C1208.905762,592.051941 1204.464233,597.944031 1208.476562,613.861328 
	C1212.826172,631.115540 1217.048340,648.404724 1221.003052,665.752380 
	C1221.551147,668.157166 1221.163208,671.799011 1219.658813,673.487671 
	C1206.637207,688.104553 1205.368652,704.318542 1212.153687,721.895264 
	C1215.339111,730.147217 1222.567139,733.741821 1231.159302,731.406250 
	C1232.014282,731.173828 1233.203979,731.236389 1233.940430,731.669250 
	C1236.885254,733.399719 1239.712402,735.330627 1243.840698,738.000793 
	C1207.747559,738.000793 1173.123779,738.000793 1137.500000,738.000549 
M568.895447,678.492798 
	C570.269287,680.119629 571.643066,681.746460 573.016846,683.373291 
	C573.953552,681.311951 575.826538,679.165344 575.647888,677.205688 
	C575.152832,671.775818 574.179321,666.308960 572.589478,661.102661 
	C572.021973,659.244141 569.269958,657.166870 567.282410,656.895935 
	C565.558167,656.660828 563.069214,658.458008 561.699890,660.035461 
	C559.655579,662.390381 558.337463,665.366455 556.640259,668.033691 
	C551.973267,675.367981 545.105957,675.391113 540.168823,668.120544 
	C538.580505,665.781555 537.099121,663.357056 535.358093,661.136963 
	C530.094971,654.425659 524.903625,654.516968 519.509521,661.280212 
	C517.125427,664.269409 514.658142,667.193054 512.304382,670.205566 
	C506.333435,677.847595 502.059540,675.892395 494.710144,669.910950 
	C493.441010,668.878052 492.441437,667.470520 491.464539,666.128906 
	C483.405029,655.060242 472.535980,647.742310 460.268860,642.045288 
	C448.999634,636.811707 437.132690,637.974182 425.370728,638.071167 
	C410.286194,638.195557 399.701538,646.523865 391.959869,658.433533 
	C385.988312,667.620056 381.007568,677.477417 375.962616,687.231201 
	C371.736633,695.401672 364.212799,697.346313 356.316345,697.733765 
	C349.414703,698.072510 344.971130,693.449402 341.279114,687.841492 
	C338.119934,683.042908 334.929779,677.678284 330.399292,674.485107 
	C319.251160,666.627502 306.416351,668.586609 294.574463,678.619812 
	C285.993195,685.890381 287.006409,708.086487 296.212799,714.498779 
	C296.485870,714.688965 296.767883,715.036560 297.039490,715.030579 
	C298.577423,714.996521 300.113434,714.876831 301.650146,714.786255 
	C301.422577,713.416748 301.371216,711.983521 300.906738,710.699707 
	C300.586578,709.814941 299.538086,709.219482 299.081909,708.354065 
	C294.005554,698.725098 290.952454,687.378235 302.920837,678.715393 
	C313.465851,671.082764 327.994812,674.969910 333.259094,686.947937 
	C335.111115,691.161987 337.794403,695.079834 340.524536,698.821838 
	C344.192596,703.849304 349.334198,706.227905 355.666321,705.994690 
	C368.041809,705.538757 376.497803,698.743286 382.491760,688.729126 
	C387.269257,680.747314 390.987274,672.139038 395.550873,664.019775 
	C403.105927,650.578369 414.140961,642.579590 430.208344,642.983887 
	C434.203979,643.084473 438.236633,642.704773 442.191986,643.119995 
	C445.779449,643.496582 449.632202,643.979736 452.763855,645.590454 
	C463.911560,651.324158 474.401154,658.017334 482.098450,668.340881 
	C484.266876,671.249146 487.049774,673.757263 489.801727,676.161743 
	C498.800323,684.024231 512.281982,682.285950 518.970398,672.549438 
	C520.570923,670.219543 522.175110,667.882996 523.930176,665.670654 
	C526.547058,662.372009 529.093750,661.731873 531.681824,665.903076 
	C533.254822,668.438232 535.210266,670.744446 537.076233,673.087952 
	C542.679626,680.125061 553.762878,680.784729 560.021912,674.432190 
	C561.924927,672.500793 563.662781,670.406616 565.977295,667.829163 
	C567.051147,671.741516 567.874329,674.740601 568.895447,678.492798 
M313.936249,729.513977 
	C315.015289,727.894836 316.094330,726.275757 317.173401,724.656677 
	C315.364410,724.502991 313.547089,724.159851 311.748260,724.238464 
	C308.790619,724.367920 305.846649,724.789856 302.893707,725.052734 
	C299.926849,725.316956 296.661987,725.805542 297.552979,729.736572 
	C298.302765,733.044678 301.260254,734.388123 304.586121,733.380554 
	C307.567383,732.477417 310.396271,731.071350 313.936249,729.513977 
M499.331512,720.140198 
	C502.236664,719.669861 505.362091,719.717468 507.991699,718.599243 
	C511.345001,717.173096 511.930786,712.072998 509.061523,711.002441 
	C507.283844,710.339294 503.912567,710.687744 502.908661,711.923828 
	C501.103546,714.146423 495.558472,714.929688 499.331512,720.140198 
M506.684570,701.465210 
	C504.736877,697.124878 499.498535,696.088623 496.513092,699.587830 
	C495.946808,700.251587 495.743347,701.869629 496.155670,702.612793 
	C497.999023,705.934814 504.541809,705.583679 506.684570,701.465210 
M568.994507,722.366150 
	C571.140747,723.238159 573.286926,724.110107 575.433167,724.982117 
	C575.315430,722.845337 575.461365,720.651917 575.017395,718.585205 
	C574.367249,715.558960 572.031372,714.405762 569.359131,715.657837 
	C566.441833,717.024780 566.705261,719.488953 568.994507,722.366150 
M579.023621,707.341858 
	C581.205139,706.324158 585.404114,706.592834 583.817017,702.810730 
	C583.147644,701.215576 579.330688,700.399048 576.910583,700.324463 
	C575.809448,700.290466 574.626221,702.917664 573.480225,704.337769 
	C575.088562,705.391968 576.696899,706.446167 579.023621,707.341858 
z"/>
<path fill="#2D1909" opacity="1.000000" stroke="none" 
	d="
M1138.000000,738.000671 
	C1173.123779,738.000793 1207.747559,738.000793 1243.840698,738.000793 
	C1239.712402,735.330627 1236.885254,733.399719 1233.940430,731.669250 
	C1233.203979,731.236389 1232.014282,731.173828 1231.159302,731.406250 
	C1222.567139,733.741821 1215.339111,730.147217 1212.153687,721.895264 
	C1205.368652,704.318542 1206.637207,688.104553 1219.658813,673.487671 
	C1221.163208,671.799011 1221.551147,668.157166 1221.003052,665.752380 
	C1217.048340,648.404724 1212.826172,631.115540 1208.476562,613.861328 
	C1204.464233,597.944031 1208.905762,592.051941 1225.431396,592.013672 
	C1244.263306,591.970032 1263.097412,591.844910 1281.926025,592.098511 
	C1287.163818,592.169006 1290.992432,590.828308 1293.367920,586.036133 
	C1293.804688,585.155151 1294.464233,584.356506 1295.134766,583.624084 
	C1299.618530,578.726196 1299.366089,578.961426 1294.827148,573.695618 
	C1291.934448,570.339722 1289.957397,566.194031 1287.574219,562.399597 
	C1280.098267,550.496582 1274.506958,538.148376 1276.229248,523.445007 
	C1276.853271,518.117310 1275.120239,512.467468 1276.005615,507.225281 
	C1278.393188,493.090759 1289.675293,487.546448 1301.474487,483.073822 
	C1323.149292,474.857727 1342.450562,478.899841 1358.761963,495.366364 
	C1369.177124,505.880463 1378.797485,517.186707 1389.301758,527.605957 
	C1396.842407,535.085632 1404.955444,542.072571 1413.350586,548.586792 
	C1425.573120,558.070923 1432.962158,569.843689 1434.700439,585.430603 
	C1436.041016,597.451416 1430.538086,610.772522 1420.209473,616.649353 
	C1416.990601,618.480713 1417.708496,620.806458 1418.580322,622.997803 
	C1422.650757,633.230103 1422.226685,643.908752 1421.911987,654.551147 
	C1421.790039,658.681396 1421.384277,662.934265 1420.227783,666.872925 
	C1418.384399,673.150757 1414.451050,678.202209 1408.443115,681.078369 
	C1405.475708,682.499023 1404.929932,684.465332 1404.905151,687.412048 
	C1404.845215,694.559998 1403.803589,701.751709 1404.318359,708.841614 
	C1405.418823,724.003784 1387.646362,738.616211 1374.053589,738.995728 
	C1375.702515,738.995728 1377.351440,738.996216 1379.000366,738.995605 
	C1401.998657,738.986572 1424.997681,738.864502 1447.994995,739.014099 
	C1460.124756,739.093018 1472.252563,739.950806 1484.379517,739.913513 
	C1502.690430,739.857178 1521.000366,739.355530 1539.309570,738.986084 
	C1552.786743,738.714172 1566.262207,738.100098 1579.738159,738.104980 
	C1591.379761,738.109253 1603.024170,738.702393 1614.659912,739.207458 
	C1616.694580,739.295837 1618.692261,740.236755 1620.707031,740.783997 
	C1620.770752,741.241211 1620.834473,741.698486 1620.898193,742.155701 
	C1619.614014,742.750793 1618.374756,743.708191 1617.037231,743.874146 
	C1612.751221,744.406006 1608.429810,744.934265 1604.120361,744.949646 
	C1577.455933,745.044617 1550.791016,744.999634 1524.126343,744.999451 
	C1486.837402,744.999084 1449.548096,745.068359 1412.259521,744.950317 
	C1401.780273,744.917114 1391.302124,744.044312 1380.824585,744.064392 
	C1363.371704,744.097717 1345.920166,744.704346 1328.467163,744.756470 
	C1315.861206,744.794189 1303.254395,744.195374 1290.646729,744.137207 
	C1284.669800,744.109619 1278.692017,744.894226 1272.711304,744.949036 
	C1228.903076,745.350525 1185.093750,745.952271 1141.285034,745.925537 
	C1085.643311,745.891663 1030.001953,745.329773 974.360352,744.985840 
	C922.218262,744.663574 870.076660,744.195740 817.934143,744.064819 
	C797.124390,744.012512 776.312195,744.662048 755.502136,745.048096 
	C741.189880,745.313599 726.878296,745.978027 712.568359,745.925476 
	C689.480286,745.840759 666.394592,745.113586 643.306396,745.016724 
	C606.851379,744.863708 570.395020,745.024292 533.939270,745.021606 
	C497.816925,745.018860 461.694153,745.073914 425.572418,744.912964 
	C408.287781,744.835999 391.005341,744.084534 373.721497,744.068054 
	C357.609467,744.052673 341.497589,744.651367 325.384308,744.891968 
	C316.927856,745.018311 308.468323,744.925171 300.010559,744.985107 
	C253.701599,745.313293 207.393173,745.787109 161.083694,745.931458 
	C143.440796,745.986450 125.792564,745.399963 108.153717,744.873108 
	C104.087280,744.751587 99.759361,744.697266 96.154556,742.485535 
	C96.162437,741.881287 96.170311,741.277100 96.178192,740.672852 
	C98.974792,740.125916 101.767845,739.121460 104.568527,739.099670 
	C161.207306,738.660400 217.846664,738.254883 274.486633,738.041992 
	C288.127869,737.990723 301.771667,738.657715 315.414551,738.983521 
	C318.514496,739.057495 320.256012,738.092163 322.442871,735.126892 
	C325.623627,730.813843 330.976074,728.078430 335.518066,724.831970 
	C335.952362,724.521484 337.867462,725.234619 337.947754,725.679504 
	C338.162109,726.867554 338.122833,728.396362 337.518768,729.381592 
	C335.736176,732.289001 333.631683,734.999084 331.544037,737.940063 
	C339.498016,740.276062 342.031006,739.391174 346.087219,733.738525 
	C348.406525,730.506470 350.988342,727.455566 353.575043,724.428284 
	C354.137146,723.770447 355.541168,723.006287 356.002228,723.268250 
	C356.836487,723.742249 357.867584,725.051575 357.740173,725.837830 
	C357.086121,729.874023 356.089172,733.854614 355.098663,738.371460 
	C369.220245,738.371460 383.668060,738.371460 398.477173,738.371460 
	C398.356934,736.322815 397.914734,734.480530 398.252014,732.794189 
	C398.539062,731.358948 399.439697,729.571838 400.607452,728.947449 
	C401.441925,728.501221 403.177612,729.695923 404.487335,730.218201 
	C404.762787,730.328125 404.940704,730.693726 405.152466,730.950684 
	C407.290436,733.544983 409.154877,738.025574 411.613861,738.379456 
	C418.663361,739.394165 425.953552,738.736877 433.149109,738.736877 
	C433.264740,738.328613 433.380402,737.920349 433.496033,737.512085 
	C432.046844,736.252563 430.572418,735.020874 429.153229,733.728455 
	C424.746094,729.715332 425.320526,725.352539 430.536194,722.637695 
	C434.371216,720.641418 438.196472,718.620850 441.960724,716.495300 
	C452.879822,710.329834 451.835297,699.407288 448.575958,691.231628 
	C447.652924,688.916382 446.474426,686.671753 445.858307,684.280029 
	C445.597595,683.267883 446.151672,681.429688 446.943115,680.930542 
	C447.788025,680.397644 449.586639,680.601868 450.560211,681.176575 
	C455.968323,684.369141 459.325378,692.964233 458.666870,699.469666 
	C457.388672,712.096985 448.839752,718.898865 439.138275,724.931396 
	C437.375336,726.027649 435.606750,727.114807 432.524109,729.019836 
	C440.222290,732.504639 444.398346,739.151978 452.917969,739.109863 
	C469.377136,739.028381 485.839417,739.867615 502.301086,739.893982 
	C515.444153,739.914978 528.588257,739.296143 541.731873,738.961914 
	C544.490845,738.891785 547.291260,738.776245 547.779541,735.194153 
	C548.254883,731.706848 548.074707,727.860229 544.115723,726.910767 
	C539.544922,725.814514 534.661194,726.098511 529.961243,725.440674 
	C526.395081,724.941528 522.849304,724.078674 519.416687,722.991577 
	C518.526855,722.709839 517.508911,720.914795 517.617554,719.932922 
	C517.727966,718.934692 518.986206,717.698792 520.037170,717.232300 
	C524.626526,715.195068 548.406921,721.083374 551.152893,725.193420 
	C552.649048,727.432922 553.645630,730.351196 553.837952,733.036987 
	C554.136108,737.201294 555.706726,739.131775 559.958435,738.998657 
	C571.433228,738.639160 582.911011,738.359070 594.389343,738.138855 
	C597.037415,738.088135 599.690857,738.471863 602.344727,738.532104 
	C605.592041,738.605896 608.842407,738.549683 612.091431,738.549683 
	C612.343323,738.075867 612.595276,737.601990 612.847168,737.128174 
	C610.433655,735.451904 608.232910,733.077454 605.557068,732.262085 
	C601.483826,731.020813 597.036194,731.070435 592.834778,730.166199 
	C589.997314,729.555481 587.109985,728.580322 584.644775,727.101624 
	C583.505554,726.418274 582.665588,724.015686 582.932434,722.632202 
	C583.113953,721.690918 585.836121,720.220947 586.766296,720.599487 
	C596.682678,724.634705 608.894714,724.456909 616.373413,732.532898 
	C622.289551,738.921570 627.973450,739.776001 635.333618,738.248230 
	C636.142334,738.080322 636.990662,738.067871 637.822083,738.050171 
	C654.631958,737.691711 671.443054,737.008118 688.251831,737.061035 
	C724.893677,737.176514 761.533875,737.736877 798.175598,737.989685 
	C854.982117,738.381470 911.789124,738.708679 968.596313,738.980408 
	C992.590820,739.095215 1016.586975,739.125000 1040.580933,738.969360 
	C1072.888062,738.759888 1105.193726,738.333679 1138.000000,738.000671 
M1304.035889,681.969849 
	C1294.553101,681.969849 1285.070312,681.969849 1275.587524,681.969849 
	C1275.540649,682.422607 1275.493774,682.875427 1275.446899,683.328186 
	C1281.237549,685.805481 1286.994873,688.367371 1292.849365,690.683228 
	C1293.918945,691.106323 1295.783813,691.004761 1296.596680,690.325745 
	C1299.612915,687.806091 1302.343018,684.943909 1305.423828,682.145447 
	C1305.553711,681.944275 1305.683594,681.743164 1305.813477,681.541931 
	C1305.532104,681.678894 1305.250732,681.815796 1304.035889,681.969849 
M1309.838989,578.793945 
	C1316.896362,582.705017 1323.992920,582.328125 1330.721436,578.297424 
	C1333.958740,576.358154 1336.474731,573.247375 1339.599487,571.072632 
	C1341.057495,570.057861 1343.186523,570.006958 1345.011353,569.519165 
	C1344.675659,571.476196 1344.972290,573.917847 1343.903320,575.312683 
	C1336.106934,585.484680 1324.210571,589.937561 1312.959106,585.865540 
	C1306.962036,583.695068 1304.234009,586.334778 1300.725708,590.310608 
	C1301.743652,590.617920 1302.322754,590.868591 1302.926392,590.963623 
	C1310.979858,592.231384 1312.661133,593.876038 1314.439209,601.699646 
	C1316.577271,611.106934 1318.955200,620.460571 1321.014771,629.884338 
	C1321.881714,633.851318 1323.669189,634.296509 1327.010864,632.564758 
	C1329.194702,631.433167 1331.603516,630.600342 1334.006958,630.052185 
	C1344.396362,627.682678 1354.055176,631.255249 1363.806885,633.960510 
	C1365.429565,634.410645 1367.039917,634.904541 1369.048706,635.493286 
	C1369.430298,629.701172 1369.571655,624.735596 1370.193726,619.831116 
	C1370.380249,618.360046 1371.908447,617.059143 1372.821899,615.680237 
	C1373.854370,616.993408 1375.457031,618.169983 1375.810791,619.645874 
	C1376.816284,623.840881 1377.607300,628.136719 1377.917114,632.433716 
	C1378.175171,636.011841 1379.699463,638.192505 1382.692627,639.991577 
	C1385.369873,641.600830 1387.980713,643.560791 1390.020508,645.891418 
	C1391.067139,647.087219 1390.801880,649.431396 1391.129395,651.256653 
	C1389.167114,651.485168 1386.827637,652.505310 1385.316895,651.785767 
	C1381.589844,650.010376 1378.282959,647.370422 1374.723389,645.216736 
	C1373.290283,644.349670 1371.637817,643.845215 1370.001343,643.139587 
	C1369.554321,644.273376 1369.200317,644.737488 1369.225830,645.179688 
	C1369.350342,647.329285 1369.582031,649.472473 1369.765503,651.618896 
	C1370.258911,657.395081 1367.916504,660.948914 1362.623169,660.804626 
	C1350.992310,660.487610 1342.174072,665.531677 1334.591431,673.781311 
	C1332.988403,675.525330 1330.659668,676.692261 1328.505981,677.820984 
	C1324.162476,680.097473 1318.647705,681.165833 1315.502319,684.507751 
	C1306.381592,694.198669 1295.507690,700.754028 1283.679810,706.437500 
	C1275.885498,710.182678 1268.588745,711.922058 1260.256714,708.675537 
	C1253.607056,706.084656 1246.809814,703.585449 1239.850464,702.145691 
	C1230.031128,700.114197 1225.382812,705.242615 1227.279907,715.128357 
	C1227.583984,716.712646 1228.353516,718.283875 1229.212402,719.672729 
	C1233.690552,726.914246 1240.612549,730.818298 1248.565186,732.791382 
	C1254.030151,734.147217 1259.678345,734.923584 1265.291992,735.490723 
	C1283.380737,737.318604 1301.331909,735.974365 1318.527100,730.152527 
	C1331.901001,725.624634 1344.714478,719.455750 1357.866577,714.242126 
	C1359.573975,713.565308 1361.817017,714.240112 1363.812012,714.288818 
	C1362.732666,715.938049 1362.024048,718.185486 1360.505737,719.126099 
	C1355.655273,722.130981 1350.504150,724.650757 1345.461914,727.361816 
	C1355.621094,731.368835 1366.203857,732.121338 1376.570435,730.714783 
	C1390.386475,728.840210 1400.164673,721.552917 1399.043213,707.189026 
	C1398.772217,703.718567 1398.888428,700.173157 1399.249390,696.706299 
	C1400.353027,686.105591 1393.535278,673.817505 1383.690918,669.150635 
	C1381.134033,667.938477 1378.396973,667.070618 1375.946655,665.684082 
	C1374.677490,664.965942 1373.854858,663.458618 1372.830566,662.307922 
	C1374.336426,661.588684 1375.844727,660.285156 1377.347412,660.291626 
	C1379.425781,660.300476 1381.834839,660.807495 1383.513550,661.959229 
	C1388.666016,665.494385 1393.423584,669.605530 1398.581543,673.131775 
	C1400.349609,674.340454 1403.361694,675.613525 1404.915771,674.905151 
	C1409.998169,672.588562 1414.012695,668.972290 1415.127441,662.876648 
	C1417.343018,650.763062 1416.887817,638.875549 1414.406738,626.763916 
	C1410.683838,608.591370 1402.354736,593.768555 1386.345825,583.920044 
	C1382.442871,581.519043 1378.057983,579.803040 1373.731445,578.217468 
	C1369.564575,576.690369 1364.974609,576.220764 1360.941650,574.443970 
	C1349.377197,569.349365 1346.407593,552.463806 1355.299561,543.686462 
	C1357.687256,541.329468 1358.609741,538.642151 1356.934570,535.572571 
	C1355.108276,532.225708 1352.113037,533.018250 1349.460327,534.082703 
	C1338.386841,538.526306 1326.789185,539.054504 1315.091675,538.997559 
	C1313.158936,538.988159 1311.226074,538.996277 1310.262329,538.996277 
	C1311.281616,544.819641 1312.335693,550.039612 1313.074585,555.303833 
	C1313.720703,559.906494 1313.837158,564.590454 1320.729492,563.304443 
	C1321.682617,563.126465 1322.974243,564.762573 1324.109253,565.558838 
	C1323.157227,566.724548 1322.408936,568.219421 1321.199097,568.968628 
	C1319.835205,569.813171 1318.048096,569.962402 1316.458130,570.455994 
	C1309.742676,572.540710 1307.604980,571.263550 1308.148804,564.235779 
	C1308.855347,555.103394 1307.670654,547.432617 1298.136841,543.224792 
	C1296.481567,542.494202 1294.914062,540.118652 1294.604248,538.283630 
	C1294.390137,537.015869 1296.409546,535.370850 1297.286865,534.102722 
	C1293.445923,530.762512 1289.483032,527.474304 1285.755127,523.938354 
	C1285.028809,523.249451 1284.648071,521.204468 1285.137451,520.497070 
	C1285.656128,519.747375 1287.628052,519.290771 1288.571899,519.674255 
	C1292.108887,521.111084 1295.754272,522.552185 1298.874390,524.696594 
	C1311.576050,533.426208 1325.699341,533.656677 1340.093140,531.763306 
	C1344.140747,531.230896 1347.974854,529.170227 1351.946167,527.937683 
	C1356.232178,526.607483 1359.489258,528.250549 1361.704834,531.921021 
	C1364.084351,535.863281 1363.295898,543.507141 1360.343750,547.033691 
	C1354.220459,554.348328 1354.353394,556.697205 1360.044800,564.775452 
	C1363.729004,570.004700 1367.737671,573.281006 1374.648682,571.315796 
	C1376.711670,570.729187 1379.456665,571.086670 1381.458008,571.979004 
	C1393.086792,577.163696 1403.312012,584.136169 1409.193359,595.980652 
	C1411.116089,599.852661 1412.862915,603.827698 1414.425659,607.858154 
	C1415.856567,611.547974 1417.813843,611.632202 1420.287964,609.068604 
	C1421.544189,607.767151 1422.644287,606.266541 1423.583740,604.715820 
	C1430.120117,593.924683 1428.991699,582.889343 1424.823608,571.615295 
	C1421.326782,562.156677 1413.827515,556.076904 1406.342407,550.476318 
	C1390.702637,538.774048 1378.264160,524.089905 1365.637329,509.500275 
	C1356.395020,498.821350 1345.662354,489.707428 1331.468750,487.475098 
	C1315.697021,484.994537 1301.047485,489.800995 1288.457886,499.577942 
	C1282.082886,504.528595 1279.623291,512.435547 1280.878174,519.829102 
	C1282.672363,530.400146 1286.044800,540.808472 1289.737305,550.923462 
	C1293.671387,561.700378 1296.381104,573.755249 1309.838989,578.793945 
M1313.231567,674.983215 
	C1316.087891,674.875793 1319.610840,675.071472 1319.693359,671.195557 
	C1319.826172,664.959412 1320.125732,658.502808 1318.759277,652.502686 
	C1315.289673,637.266846 1310.790039,622.268921 1306.996460,607.102295 
	C1305.103271,599.533081 1304.928223,599.236877 1297.093506,598.972046 
	C1281.801147,598.455322 1266.519897,597.562805 1251.225220,597.179321 
	C1241.076538,596.924805 1230.872192,596.757019 1220.767822,597.530273 
	C1212.141479,598.190491 1210.704346,600.742310 1212.887329,609.100830 
	C1214.861328,616.658875 1217.737183,623.988220 1219.573975,631.573730 
	C1222.431152,643.372375 1224.550293,655.348877 1227.358521,667.160522 
	C1229.152222,674.704590 1231.182739,676.059875 1238.878296,675.973022 
	C1263.351196,675.696960 1287.823120,675.326904 1313.231567,674.983215 
M1269.330811,687.154419 
	C1263.167969,685.437500 1257.087769,683.238281 1250.814941,682.161926 
	C1246.124023,681.356934 1241.158691,682.309631 1236.363647,681.907166 
	C1231.975098,681.539001 1227.651123,680.402893 1222.164429,679.397278 
	C1213.965820,686.453552 1214.075317,717.086670 1224.273682,724.043701 
	C1223.707275,721.970703 1223.301636,720.436768 1222.869141,718.910461 
	C1218.240723,702.573792 1227.524536,692.340027 1244.059570,695.851135 
	C1248.736572,696.844360 1253.192261,698.870605 1257.759644,700.392212 
	C1267.650757,703.687378 1276.713257,702.329895 1285.364502,695.201660 
	C1280.026489,692.525391 1275.011108,690.010986 1269.330811,687.154419 
M1324.695801,644.798279 
	C1324.934692,645.552002 1325.173462,646.305664 1325.412354,647.059387 
	C1326.016846,647.542358 1326.621338,648.025330 1327.225708,648.508301 
	C1328.109375,646.882324 1328.684448,644.928467 1329.964600,643.723938 
	C1331.211914,642.550232 1333.180420,642.142883 1334.832275,641.399048 
	C1334.601074,643.206604 1334.673218,645.123352 1334.070557,646.797241 
	C1333.044312,649.648010 1331.593750,652.346069 1330.321411,655.108276 
	C1330.734497,655.314758 1331.147705,655.521301 1331.560791,655.727783 
	C1333.702026,653.967957 1335.696289,651.963806 1338.046021,650.551270 
	C1339.224731,649.842834 1341.051025,650.211731 1342.584473,650.093384 
	C1342.554321,651.616699 1342.848389,653.239746 1342.417603,654.639709 
	C1341.786377,656.690430 1340.635986,658.581299 1339.707031,660.540283 
	C1343.932373,659.771545 1347.084106,657.921570 1350.480835,656.843018 
	C1354.089111,655.697449 1357.976318,655.450256 1361.635254,654.429321 
	C1362.515869,654.183533 1363.463135,652.470032 1363.550781,651.365723 
	C1364.130737,644.057556 1359.307617,637.898438 1352.097534,636.558228 
	C1349.324707,636.042847 1346.521240,635.435791 1343.720703,635.375061 
	C1335.984863,635.207153 1328.772461,636.439209 1324.695801,644.798279 
M1334.068115,732.674500 
	C1327.574463,734.355225 1321.080688,736.035889 1314.587036,737.716614 
	C1314.653564,738.018311 1314.720093,738.320068 1314.786621,738.621826 
	C1327.870117,738.621826 1340.953613,738.621826 1354.949707,738.621826 
	C1350.844116,737.351440 1347.687866,736.313049 1344.494873,735.404053 
	C1341.292114,734.492371 1338.052612,733.709778 1334.068115,732.674500 
M1336.517090,664.065613 
	C1336.517090,664.065613 1336.451904,664.009277 1336.517090,664.065613 
M1226.926025,726.478516 
	C1226.926025,726.478516 1226.982178,726.413391 1226.926025,726.478516 
z"/>
<path fill="#2D1909" opacity="1.000000" stroke="none" 
	d="
M568.796509,678.116272 
	C567.874329,674.740601 567.051147,671.741516 565.977295,667.829163 
	C563.662781,670.406616 561.924927,672.500793 560.021912,674.432190 
	C553.762878,680.784729 542.679626,680.125061 537.076233,673.087952 
	C535.210266,670.744446 533.254822,668.438232 531.681824,665.903076 
	C529.093750,661.731873 526.547058,662.372009 523.930176,665.670654 
	C522.175110,667.882996 520.570923,670.219543 518.970398,672.549438 
	C512.281982,682.285950 498.800323,684.024231 489.801727,676.161743 
	C487.049774,673.757263 484.266876,671.249146 482.098450,668.340881 
	C474.401154,658.017334 463.911560,651.324158 452.763855,645.590454 
	C449.632202,643.979736 445.779449,643.496582 442.191986,643.119995 
	C438.236633,642.704773 434.203979,643.084473 430.208344,642.983887 
	C414.140961,642.579590 403.105927,650.578369 395.550873,664.019775 
	C390.987274,672.139038 387.269257,680.747314 382.491760,688.729126 
	C376.497803,698.743286 368.041809,705.538757 355.666321,705.994690 
	C349.334198,706.227905 344.192596,703.849304 340.524536,698.821838 
	C337.794403,695.079834 335.111115,691.161987 333.259094,686.947937 
	C327.994812,674.969910 313.465851,671.082764 302.920837,678.715393 
	C290.952454,687.378235 294.005554,698.725098 299.081909,708.354065 
	C299.538086,709.219482 300.586578,709.814941 300.906738,710.699707 
	C301.371216,711.983521 301.422577,713.416748 301.650146,714.786255 
	C300.113434,714.876831 298.577423,714.996521 297.039490,715.030579 
	C296.767883,715.036560 296.485870,714.688965 296.212799,714.498779 
	C287.006409,708.086487 285.993195,685.890381 294.574463,678.619812 
	C306.416351,668.586609 319.251160,666.627502 330.399292,674.485107 
	C334.929779,677.678284 338.119934,683.042908 341.279114,687.841492 
	C344.971130,693.449402 349.414703,698.072510 356.316345,697.733765 
	C364.212799,697.346313 371.736633,695.401672 375.962616,687.231201 
	C381.007568,677.477417 385.988312,667.620056 391.959869,658.433533 
	C399.701538,646.523865 410.286194,638.195557 425.370728,638.071167 
	C437.132690,637.974182 448.999634,636.811707 460.268860,642.045288 
	C472.535980,647.742310 483.405029,655.060242 491.464539,666.128906 
	C492.441437,667.470520 493.441010,668.878052 494.710144,669.910950 
	C502.059540,675.892395 506.333435,677.847595 512.304382,670.205566 
	C514.658142,667.193054 517.125427,664.269409 519.509521,661.280212 
	C524.903625,654.516968 530.094971,654.425659 535.358093,661.136963 
	C537.099121,663.357056 538.580505,665.781555 540.168823,668.120544 
	C545.105957,675.391113 551.973267,675.367981 556.640259,668.033691 
	C558.337463,665.366455 559.655579,662.390381 561.699890,660.035461 
	C563.069214,658.458008 565.558167,656.660828 567.282410,656.895935 
	C569.269958,657.166870 572.021973,659.244141 572.589478,661.102661 
	C574.179321,666.308960 575.152832,671.775818 575.647888,677.205688 
	C575.826538,679.165344 573.953552,681.311951 573.016846,683.373291 
	C571.643066,681.746460 570.269287,680.119629 568.796509,678.116272 
z"/>
<path fill="#2D1909" opacity="1.000000" stroke="none" 
	d="
M313.614319,729.700562 
	C310.396271,731.071350 307.567383,732.477417 304.586121,733.380554 
	C301.260254,734.388123 298.302765,733.044678 297.552979,729.736572 
	C296.661987,725.805542 299.926849,725.316956 302.893707,725.052734 
	C305.846649,724.789856 308.790619,724.367920 311.748260,724.238464 
	C313.547089,724.159851 315.364410,724.502991 317.173401,724.656677 
	C316.094330,726.275757 315.015289,727.894836 313.614319,729.700562 
z"/>
<path fill="#2D1909" opacity="1.000000" stroke="none" 
	d="
M499.033875,719.986572 
	C495.558472,714.929688 501.103546,714.146423 502.908661,711.923828 
	C503.912567,710.687744 507.283844,710.339294 509.061523,711.002441 
	C511.930786,712.072998 511.345001,717.173096 507.991699,718.599243 
	C505.362091,719.717468 502.236664,719.669861 499.033875,719.986572 
z"/>
<path fill="#2D1909" opacity="1.000000" stroke="none" 
	d="
M506.665985,701.819336 
	C504.541809,705.583679 497.999023,705.934814 496.155670,702.612793 
	C495.743347,701.869629 495.946808,700.251587 496.513092,699.587830 
	C499.498535,696.088623 504.736877,697.124878 506.665985,701.819336 
z"/>
<path fill="#2D1909" opacity="1.000000" stroke="none" 
	d="
M568.725952,722.116577 
	C566.705261,719.488953 566.441833,717.024780 569.359131,715.657837 
	C572.031372,714.405762 574.367249,715.558960 575.017395,718.585205 
	C575.461365,720.651917 575.315430,722.845337 575.433167,724.982117 
	C573.286926,724.110107 571.140747,723.238159 568.725952,722.116577 
z"/>
<path fill="#2D1909" opacity="1.000000" stroke="none" 
	d="
M578.664429,707.421143 
	C576.696899,706.446167 575.088562,705.391968 573.480225,704.337769 
	C574.626221,702.917664 575.809448,700.290466 576.910583,700.324463 
	C579.330688,700.399048 583.147644,701.215576 583.817017,702.810730 
	C585.404114,706.592834 581.205139,706.324158 578.664429,707.421143 
z"/>
<path fill="#000000" opacity="1.000000" stroke="none" 
	d="
M1309.512695,578.610229 
	C1296.381104,573.755249 1293.671387,561.700378 1289.737305,550.923462 
	C1286.044800,540.808472 1282.672363,530.400146 1280.878174,519.829102 
	C1279.623291,512.435547 1282.082886,504.528595 1288.457886,499.577942 
	C1301.047485,489.800995 1315.697021,484.994537 1331.468750,487.475098 
	C1345.662354,489.707428 1356.395020,498.821350 1365.637329,509.500275 
	C1378.264160,524.089905 1390.702637,538.774048 1406.342407,550.476318 
	C1413.827515,556.076904 1421.326782,562.156677 1424.823608,571.615295 
	C1428.991699,582.889343 1430.120117,593.924683 1423.583740,604.715820 
	C1422.644287,606.266541 1421.544189,607.767151 1420.287964,609.068604 
	C1417.813843,611.632202 1415.856567,611.547974 1414.425659,607.858154 
	C1412.862915,603.827698 1411.116089,599.852661 1409.193359,595.980652 
	C1403.312012,584.136169 1393.086792,577.163696 1381.458008,571.979004 
	C1379.456665,571.086670 1376.711670,570.729187 1374.648682,571.315796 
	C1367.737671,573.281006 1363.729004,570.004700 1360.044800,564.775452 
	C1354.353394,556.697205 1354.220459,554.348328 1360.343750,547.033691 
	C1363.295898,543.507141 1364.084351,535.863281 1361.704834,531.921021 
	C1359.489258,528.250549 1356.232178,526.607483 1351.946167,527.937683 
	C1347.974854,529.170227 1344.140747,531.230896 1340.093140,531.763306 
	C1325.699341,533.656677 1311.576050,533.426208 1298.874390,524.696594 
	C1295.754272,522.552185 1292.108887,521.111084 1288.571899,519.674255 
	C1287.628052,519.290771 1285.656128,519.747375 1285.137451,520.497070 
	C1284.648071,521.204468 1285.028809,523.249451 1285.755127,523.938354 
	C1289.483032,527.474304 1293.445923,530.762512 1297.286865,534.102722 
	C1296.409546,535.370850 1294.390137,537.015869 1294.604248,538.283630 
	C1294.914062,540.118652 1296.481567,542.494202 1298.136841,543.224792 
	C1307.670654,547.432617 1308.855347,555.103394 1308.148804,564.235779 
	C1307.604980,571.263550 1309.742676,572.540710 1316.458130,570.455994 
	C1318.048096,569.962402 1319.835205,569.813171 1321.199097,568.968628 
	C1322.408936,568.219421 1323.157227,566.724548 1324.109253,565.558838 
	C1322.974243,564.762573 1321.682617,563.126465 1320.729492,563.304443 
	C1313.837158,564.590454 1313.720703,559.906494 1313.074585,555.303833 
	C1312.335693,550.039612 1311.281616,544.819641 1310.262329,538.996277 
	C1311.226074,538.996277 1313.158936,538.988159 1315.091675,538.997559 
	C1326.789185,539.054504 1338.386841,538.526306 1349.460327,534.082703 
	C1352.113037,533.018250 1355.108276,532.225708 1356.934570,535.572571 
	C1358.609741,538.642151 1357.687256,541.329468 1355.299561,543.686462 
	C1346.407593,552.463806 1349.377197,569.349365 1360.941650,574.443970 
	C1364.974609,576.220764 1369.564575,576.690369 1373.731445,578.217468 
	C1378.057983,579.803040 1382.442871,581.519043 1386.345825,583.920044 
	C1402.354736,593.768555 1410.683838,608.591370 1414.406738,626.763916 
	C1416.887817,638.875549 1417.343018,650.763062 1415.127441,662.876648 
	C1414.012695,668.972290 1409.998169,672.588562 1404.915771,674.905151 
	C1403.361694,675.613525 1400.349609,674.340454 1398.581543,673.131775 
	C1393.423584,669.605530 1388.666016,665.494385 1383.513550,661.959229 
	C1381.834839,660.807495 1379.425781,660.300476 1377.347412,660.291626 
	C1375.844727,660.285156 1374.336426,661.588684 1372.830566,662.307861 
	C1373.854858,663.458618 1374.677490,664.965942 1375.946655,665.684082 
	C1378.396973,667.070618 1381.134033,667.938477 1383.690918,669.150635 
	C1393.535278,673.817505 1400.353027,686.105591 1399.249390,696.706299 
	C1398.888428,700.173157 1398.772217,703.718567 1399.043213,707.189026 
	C1400.164673,721.552917 1390.386475,728.840210 1376.570435,730.714783 
	C1366.203857,732.121338 1355.621094,731.368835 1345.461914,727.361816 
	C1350.504150,724.650757 1355.655273,722.130981 1360.505737,719.126099 
	C1362.024048,718.185486 1362.732666,715.938049 1363.812012,714.288818 
	C1361.817017,714.240112 1359.573975,713.565308 1357.866577,714.242126 
	C1344.714478,719.455750 1331.901001,725.624634 1318.527100,730.152527 
	C1301.331909,735.974365 1283.380737,737.318604 1265.291992,735.490723 
	C1259.678345,734.923584 1254.030151,734.147217 1248.565186,732.791382 
	C1240.612549,730.818298 1233.690552,726.914246 1229.212402,719.672729 
	C1228.353516,718.283875 1227.583984,716.712646 1227.279907,715.128357 
	C1225.382812,705.242615 1230.031128,700.114197 1239.850464,702.145691 
	C1246.809814,703.585449 1253.607056,706.084656 1260.256714,708.675537 
	C1268.588745,711.922058 1275.885498,710.182678 1283.679810,706.437500 
	C1295.507690,700.754028 1306.381592,694.198669 1315.502319,684.507751 
	C1318.647705,681.165833 1324.162476,680.097473 1328.505981,677.820984 
	C1330.659668,676.692261 1332.988403,675.525330 1334.591431,673.781311 
	C1342.174072,665.531677 1350.992310,660.487610 1362.623169,660.804626 
	C1367.916504,660.948914 1370.258911,657.395081 1369.765503,651.618896 
	C1369.582031,649.472473 1369.350342,647.329285 1369.225830,645.179688 
	C1369.200317,644.737488 1369.554321,644.273376 1370.001343,643.139587 
	C1371.637817,643.845215 1373.290283,644.349670 1374.723389,645.216736 
	C1378.282959,647.370422 1381.589844,650.010376 1385.316895,651.785767 
	C1386.827637,652.505310 1389.167114,651.485168 1391.129395,651.256653 
	C1390.801880,649.431396 1391.067139,647.087219 1390.020508,645.891418 
	C1387.980713,643.560791 1385.369873,641.600830 1382.692627,639.991577 
	C1379.699463,638.192505 1378.175171,636.011841 1377.917114,632.433716 
	C1377.607300,628.136719 1376.816284,623.840881 1375.810791,619.645874 
	C1375.457031,618.169983 1373.854370,616.993408 1372.821899,615.680237 
	C1371.908447,617.059143 1370.380249,618.360046 1370.193726,619.831116 
	C1369.571655,624.735596 1369.430298,629.701172 1369.048706,635.493286 
	C1367.039917,634.904541 1365.429565,634.410645 1363.806885,633.960510 
	C1354.055176,631.255249 1344.396362,627.682678 1334.006958,630.052185 
	C1331.603516,630.600342 1329.194702,631.433167 1327.010864,632.564758 
	C1323.669189,634.296509 1321.881714,633.851318 1321.014771,629.884338 
	C1318.955200,620.460571 1316.577271,611.106934 1314.439209,601.699646 
	C1312.661133,593.876038 1310.979858,592.231384 1302.926392,590.963623 
	C1302.322754,590.868591 1301.743652,590.617920 1300.725708,590.310608 
	C1304.234009,586.334778 1306.962036,583.695068 1312.959106,585.865540 
	C1324.210571,589.937561 1336.106934,585.484680 1343.903320,575.312683 
	C1344.972290,573.917847 1344.675659,571.476196 1345.011353,569.519165 
	C1343.186523,570.006958 1341.057495,570.057861 1339.599487,571.072632 
	C1336.474731,573.247375 1333.958740,576.358154 1330.721436,578.297424 
	C1323.992920,582.328125 1316.896362,582.705017 1309.512695,578.610229 
z"/>
<path fill="#000000" opacity="1.000000" stroke="none" 
	d="
M1312.763428,674.988159 
	C1287.823120,675.326904 1263.351196,675.696960 1238.878296,675.973022 
	C1231.182739,676.059875 1229.152222,674.704590 1227.358521,667.160522 
	C1224.550293,655.348877 1222.431152,643.372375 1219.573975,631.573730 
	C1217.737183,623.988220 1214.861328,616.658875 1212.887329,609.100830 
	C1210.704346,600.742310 1212.141479,598.190491 1220.767822,597.530273 
	C1230.872192,596.757019 1241.076538,596.924805 1251.225220,597.179321 
	C1266.519897,597.562805 1281.801147,598.455322 1297.093506,598.972046 
	C1304.928223,599.236877 1305.103271,599.533081 1306.996460,607.102295 
	C1310.790039,622.268921 1315.289673,637.266846 1318.759277,652.502686 
	C1320.125732,658.502808 1319.826172,664.959412 1319.693359,671.195557 
	C1319.610840,675.071472 1316.087891,674.875793 1312.763428,674.988159 
M1270.684204,629.112183 
	C1268.538574,629.126221 1266.386597,629.250977 1264.248535,629.130737 
	C1260.073730,628.895813 1256.288574,629.202209 1254.183594,633.673584 
	C1251.272583,639.857300 1251.916748,645.619751 1256.088379,650.915344 
	C1258.882568,654.462402 1262.383057,655.454163 1266.653931,653.291382 
	C1267.745728,652.738464 1269.250122,653.003906 1270.564453,652.886047 
	C1277.796997,652.237366 1281.196899,645.576965 1277.386719,639.523804 
	C1281.371338,632.894958 1279.848633,630.198730 1270.684204,629.112183 
M1266.148560,627.434082 
	C1267.814941,627.024963 1269.964355,627.115784 1271.030273,626.085449 
	C1272.494873,624.669800 1273.359497,622.467285 1273.928345,620.446289 
	C1274.029175,620.088135 1271.197998,618.099487 1270.131958,618.387268 
	C1267.976318,618.969116 1265.601318,620.221863 1264.317139,621.943970 
	C1263.637207,622.855469 1265.056396,625.332336 1266.148560,627.434082 
z"/>
<path fill="#000000" opacity="1.000000" stroke="none" 
	d="
M1269.663330,687.325500 
	C1275.011108,690.010986 1280.026489,692.525391 1285.364502,695.201660 
	C1276.713257,702.329895 1267.650757,703.687378 1257.759644,700.392212 
	C1253.192261,698.870605 1248.736572,696.844360 1244.059570,695.851135 
	C1227.524536,692.340027 1218.240723,702.573792 1222.869141,718.910461 
	C1223.301636,720.436768 1223.707275,721.970703 1224.273682,724.043701 
	C1214.075317,717.086670 1213.965820,686.453552 1222.164429,679.397278 
	C1227.651123,680.402893 1231.975098,681.539001 1236.363647,681.907166 
	C1241.158691,682.309631 1246.124023,681.356934 1250.814941,682.161926 
	C1257.087769,683.238281 1263.167969,685.437500 1269.663330,687.325500 
z"/>
<path fill="#000000" opacity="1.000000" stroke="none" 
	d="
M1324.681519,644.507141 
	C1328.772461,636.439209 1335.984863,635.207153 1343.720703,635.375061 
	C1346.521240,635.435791 1349.324707,636.042847 1352.097534,636.558228 
	C1359.307617,637.898438 1364.130737,644.057556 1363.550781,651.365723 
	C1363.463135,652.470032 1362.515869,654.183533 1361.635254,654.429321 
	C1357.976318,655.450256 1354.089111,655.697449 1350.480835,656.843018 
	C1347.084106,657.921570 1343.932373,659.771545 1339.707031,660.540283 
	C1340.635986,658.581299 1341.786377,656.690430 1342.417603,654.639709 
	C1342.848389,653.239746 1342.554321,651.616699 1342.584473,650.093384 
	C1341.051025,650.211731 1339.224731,649.842834 1338.046021,650.551270 
	C1335.696289,651.963806 1333.702026,653.967957 1331.560791,655.727783 
	C1331.147705,655.521301 1330.734497,655.314758 1330.321411,655.108276 
	C1331.593750,652.346069 1333.044312,649.648010 1334.070557,646.797241 
	C1334.673218,645.123352 1334.601074,643.206604 1334.832275,641.399048 
	C1333.180420,642.142883 1331.211914,642.550232 1329.964600,643.723938 
	C1328.684448,644.928467 1328.109375,646.882324 1327.225708,648.508301 
	C1326.621338,648.025330 1326.016846,647.542358 1325.412354,647.059387 
	C1325.173462,646.305664 1324.934692,645.552002 1324.681519,644.507141 
z"/>
<path fill="#000000" opacity="1.000000" stroke="none" 
	d="
M1305.180420,682.210327 
	C1302.343018,684.943909 1299.612915,687.806091 1296.596680,690.325745 
	C1295.783813,691.004761 1293.918945,691.106323 1292.849365,690.683228 
	C1286.994873,688.367371 1281.237549,685.805481 1275.446899,683.328186 
	C1275.493774,682.875427 1275.540649,682.422607 1275.587524,681.969849 
	C1285.070312,681.969849 1294.553101,681.969849 1304.555420,682.025635 
	C1305.075073,682.081482 1305.180420,682.210327 1305.180420,682.210327 
z"/>
<path fill="#000000" opacity="1.000000" stroke="none" 
	d="
M1334.448730,732.772583 
	C1338.052612,733.709778 1341.292114,734.492371 1344.494873,735.404053 
	C1347.687866,736.313049 1350.844116,737.351440 1354.949707,738.621826 
	C1340.953613,738.621826 1327.870117,738.621826 1314.786621,738.621826 
	C1314.720093,738.320068 1314.653564,738.018311 1314.587036,737.716614 
	C1321.080688,736.035889 1327.574463,734.355225 1334.448730,732.772583 
z"/>
<path fill="#000000" opacity="1.000000" stroke="none" 
	d="
M1305.022217,682.017090 
	C1305.250732,681.815796 1305.532104,681.678894 1305.813477,681.541992 
	C1305.683594,681.743164 1305.553711,681.944275 1305.302124,682.177856 
	C1305.180420,682.210327 1305.075073,682.081482 1305.022217,682.017090 
z"/>
<path fill="#000000" opacity="1.000000" stroke="none" 
	d="
M1336.484497,664.037476 
	C1336.451904,664.009277 1336.517090,664.065613 1336.484497,664.037476 
z"/>
<path fill="#000000" opacity="1.000000" stroke="none" 
	d="
M1226.954102,726.445923 
	C1226.982178,726.413391 1226.926025,726.478516 1226.954102,726.445923 
z"/>
<path fill="#2D1909" opacity="1.000000" stroke="none" 
	d="
M1271.093994,629.109619 
	C1279.848633,630.198730 1281.371338,632.894958 1277.386719,639.523804 
	C1281.196899,645.576965 1277.796997,652.237366 1270.564453,652.886047 
	C1269.250122,653.003906 1267.745728,652.738464 1266.653931,653.291382 
	C1262.383057,655.454163 1258.882568,654.462402 1256.088379,650.915344 
	C1251.916748,645.619751 1251.272583,639.857300 1254.183594,633.673584 
	C1256.288574,629.202209 1260.073730,628.895813 1264.248535,629.130737 
	C1266.386597,629.250977 1268.538574,629.126221 1271.093994,629.109619 
z"/>
<path fill="#2D1909" opacity="1.000000" stroke="none" 
	d="
M1265.838379,627.268311 
	C1265.056396,625.332336 1263.637207,622.855469 1264.317139,621.943970 
	C1265.601318,620.221863 1267.976318,618.969116 1270.131958,618.387268 
	C1271.197998,618.099487 1274.029175,620.088135 1273.928345,620.446289 
	C1273.359497,622.467285 1272.494873,624.669800 1271.030273,626.085449 
	C1269.964355,627.115784 1267.814941,627.024963 1265.838379,627.268311 
z"/>
</svg>