<svg version="1.1" id="Layer_1" xmlns="http://www.w3.org/2000/svg" xmlns:xlink="http://www.w3.org/1999/xlink" x="0px" y="0px"
	 width="100%" viewBox="0 0 1694 820" enable-background="new 0 0 1694 820" xml:space="preserve">
<path fill="none" opacity="1.000000" stroke="none" 
	d="
M1688.051270,821.000000 
	C1125.375977,821.000000 563.211670,821.000000 1.023660,821.000000 
	C1.023660,547.683594 1.023660,274.367157 1.023660,1.025371 
	C565.647400,1.025371 1130.294800,1.025371 1694.971069,1.025371 
	C1694.971069,274.312927 1694.971069,547.625854 1694.971069,821.000000 
	C1692.854126,821.000000 1690.708130,821.000000 1688.051270,821.000000 
M1122.500000,738.000793 
	C1099.861084,738.331116 1077.223022,738.802673 1054.582886,738.954163 
	C1029.422119,739.122498 1004.259033,739.080688 979.097534,738.987366 
	C900.124390,738.694519 821.151306,738.378723 742.178772,737.965759 
	C725.034668,737.876099 707.892517,737.071838 690.750000,737.091858 
	C672.773193,737.112854 654.797058,737.728577 636.820740,738.090393 
	C636.322266,738.100403 635.823853,738.167236 635.327881,738.227783 
	C628.756165,739.028931 628.411865,738.758728 627.974731,732.439087 
	C627.441345,724.726379 622.399170,721.233765 614.661255,722.296387 
	C608.480164,723.145325 602.164307,723.008057 595.908936,723.323975 
	C594.588806,723.390625 593.052551,723.134094 592.007385,723.722168 
	C590.599670,724.514160 588.963867,725.826782 588.611328,727.216614 
	C588.403748,728.035278 590.345459,730.198486 591.572632,730.431885 
	C595.278931,731.136963 599.187317,731.810242 602.868835,731.338989 
	C606.924194,730.819824 610.796997,728.954590 614.782715,727.790283 
	C619.223633,726.492981 621.975281,728.702332 621.893066,733.293091 
	C621.820801,737.327148 619.552185,739.004517 615.815002,738.919739 
	C608.339905,738.750244 600.867126,738.254456 593.394226,738.269775 
	C584.581177,738.287842 575.765869,738.907959 566.959045,738.774353 
	C565.225769,738.748108 562.613953,736.833252 561.975586,735.182800 
	C559.689026,729.270752 555.014709,726.085388 549.483948,725.741516 
	C541.424805,725.240295 534.309082,722.664001 527.103577,719.517273 
	C525.145081,718.661926 522.316833,719.797974 519.887756,720.020081 
	C521.041260,722.171143 521.685059,725.063232 523.472412,726.292786 
	C525.917114,727.974365 529.174255,728.686340 532.188416,729.271423 
	C535.436707,729.901917 538.848328,729.670166 542.112122,730.247375 
	C545.662537,730.875244 549.226685,731.740845 552.570129,733.050964 
	C553.737000,733.508179 554.264648,735.596802 555.084229,736.940430 
	C553.709778,737.612183 552.350952,738.832336 550.958557,738.872070 
	C534.652100,739.337219 518.341125,739.854187 502.030304,739.887268 
	C488.902710,739.913879 475.774902,739.243164 462.645111,738.988281 
	C454.288330,738.826050 445.545532,740.496704 438.973938,733.068420 
	C438.148468,732.135376 436.594360,731.886475 435.498413,731.142822 
	C434.194275,730.257996 433.020477,729.181030 431.168091,727.684814 
	C433.154419,726.351685 434.542694,725.558838 435.773560,724.570007 
	C441.337860,720.099548 447.241913,715.963196 452.300385,710.973389 
	C459.279236,704.089294 458.243866,690.173889 450.759003,684.503174 
	C449.624817,683.643921 447.385895,682.995667 446.397614,683.555542 
	C445.481842,684.074280 445.096588,686.410706 445.307648,687.822632 
	C445.595276,689.746948 446.637939,691.567200 447.413574,693.408203 
	C450.633057,701.049561 448.872253,708.575806 442.276794,713.388306 
	C438.406525,716.212341 434.208374,718.619629 430.017792,720.964233 
	C423.830658,724.425781 423.264252,729.442139 428.743652,734.037170 
	C430.264465,735.312500 431.832794,736.531250 433.379364,737.775940 
	C426.850525,738.853760 420.867432,739.119385 414.934875,738.688721 
	C413.199188,738.562744 411.269562,736.726135 410.038055,735.186279 
	C408.614899,733.406860 408.264496,730.692078 406.704620,729.122375 
	C405.281219,727.689880 402.863953,727.244934 400.884705,726.364807 
	C400.352295,728.233521 399.324707,730.127869 399.419952,731.963989 
	C399.525482,733.999451 400.656891,735.981628 401.478577,738.388245 
	C385.643433,738.388245 370.214081,738.388245 355.088470,738.388245 
	C356.083496,733.874634 357.084808,729.896118 357.743500,725.861694 
	C357.872894,725.069275 356.855194,723.757324 356.023895,723.272217 
	C355.567871,723.006104 354.149384,723.755493 353.589417,724.410156 
	C351.001160,727.436096 348.422913,730.489441 346.099823,733.719116 
	C342.009766,739.405518 339.595367,740.257629 331.536835,737.962280 
	C333.625793,735.015381 335.725616,732.305786 337.506653,729.400757 
	C338.112732,728.412170 338.165863,726.888000 337.958191,725.698181 
	C337.879883,725.249512 335.967957,724.519836 335.539124,724.825684 
	C330.993530,728.067688 325.643219,730.799805 322.451416,735.107422 
	C320.268951,738.052795 318.551208,739.060486 315.436340,738.985107 
	C301.793396,738.655090 288.149353,737.991089 274.507935,738.042297 
	C217.867233,738.254883 161.227158,738.660217 104.587646,739.098816 
	C101.783058,739.120483 98.986031,740.119568 96.185486,740.663574 
	C96.195847,741.197632 96.206207,741.731750 96.216568,742.265869 
	C99.692223,744.898499 104.097092,744.732910 108.135468,744.860107 
	C125.773354,745.415527 143.422470,745.986511 161.065598,745.931519 
	C207.375656,745.787292 253.684692,745.313416 299.994232,744.985291 
	C308.452118,744.925415 316.911804,745.019775 325.368347,744.891785 
	C341.148529,744.652954 356.927368,744.048523 372.706177,744.067993 
	C390.319580,744.089661 407.931488,744.833679 425.545593,744.912659 
	C461.667816,745.074585 497.791046,745.019226 533.913879,745.021912 
	C570.370117,745.024658 606.826904,744.863525 643.282410,745.016357 
	C666.370911,745.113159 689.456909,745.840515 712.545288,745.925476 
	C726.855408,745.978149 741.167175,745.315613 755.479614,745.048584 
	C776.123291,744.663330 796.769043,744.012329 817.412415,744.064636 
	C869.722229,744.197021 922.031250,744.662903 974.340637,744.985718 
	C1029.982910,745.329163 1085.625000,745.891541 1141.267456,745.925537 
	C1185.076782,745.952332 1228.886597,745.350647 1272.695435,744.949097 
	C1278.676270,744.894287 1284.654053,744.108765 1290.631104,744.136536 
	C1303.238892,744.195007 1315.845947,744.794800 1328.452026,744.757141 
	C1345.905273,744.705078 1363.356934,744.098022 1380.810059,744.064514 
	C1391.287720,744.044434 1401.765991,744.917053 1412.245361,744.950256 
	C1449.534424,745.068237 1486.824219,744.999023 1524.113647,744.999390 
	C1550.778687,744.999634 1577.443970,745.044556 1604.108765,744.949707 
	C1608.418213,744.934387 1612.739624,744.406616 1617.025879,743.875977 
	C1618.366577,743.709961 1619.609863,742.756958 1620.897827,742.164185 
	C1620.828491,741.703613 1620.759155,741.243042 1620.689697,740.782410 
	C1618.684448,740.236023 1616.696289,739.295959 1614.671143,739.208130 
	C1603.035156,738.703125 1591.390747,738.107666 1579.748901,738.104797 
	C1566.106079,738.101440 1552.463745,738.710693 1538.819824,738.986633 
	C1520.677124,739.353638 1502.533447,739.858582 1484.389038,739.913513 
	C1472.261963,739.950256 1460.134033,739.093140 1448.004150,739.014221 
	C1425.006470,738.864502 1402.007202,738.986572 1379.008545,738.995605 
	C1377.355835,738.996277 1375.703247,738.995728 1374.050537,738.995728 
	C1391.637817,736.706055 1402.232422,726.519775 1404.104126,708.850220 
	C1404.855591,701.755798 1404.843994,694.567322 1404.905640,687.419312 
	C1404.931152,684.476379 1405.463989,682.503357 1408.436890,681.081482 
	C1414.445679,678.207703 1418.381226,673.157227 1420.225342,666.879211 
	C1421.382202,662.940674 1421.789551,658.687988 1421.911865,654.557800 
	C1422.226929,643.915283 1422.649414,633.236755 1418.582031,623.003845 
	C1417.711548,620.813660 1416.985718,618.485657 1420.204102,616.652039 
	C1430.542114,610.762024 1436.042236,597.458801 1434.701416,585.436157 
	C1432.963135,569.850037 1425.578125,558.074341 1413.354370,548.589905 
	C1404.958984,542.075989 1396.845703,535.089050 1389.304932,527.609253 
	C1378.800537,517.189880 1369.179810,505.883728 1358.765015,495.369080 
	C1342.454224,478.901947 1323.153442,474.857178 1301.477661,483.072784 
	C1289.678345,487.544983 1278.395142,493.088013 1276.006470,507.222626 
	C1275.120605,512.464783 1276.853394,518.114685 1276.229126,523.442444 
	C1274.506714,538.145813 1280.096924,550.494629 1287.572998,562.398010 
	C1289.956299,566.192383 1291.932861,570.338501 1294.825562,573.694458 
	C1299.366333,578.962341 1299.618652,578.726990 1295.135742,583.622620 
	C1294.465210,584.354980 1293.805908,585.153809 1293.369019,586.034729 
	C1290.993408,590.825928 1287.166016,592.169189 1281.927490,592.098572 
	C1263.098633,591.844849 1244.264282,591.969971 1225.432129,592.013611 
	C1208.905151,592.051880 1204.464233,597.942932 1208.476685,613.860962 
	C1212.826050,631.115417 1217.048462,648.404846 1221.003052,665.752686 
	C1221.551392,668.157410 1221.162842,671.799194 1219.658447,673.487976 
	C1206.636719,688.105225 1205.368774,704.319702 1212.154053,721.896301 
	C1215.339233,730.147644 1222.565186,733.740112 1231.160522,731.405640 
	C1232.015625,731.173340 1233.205078,731.237061 1233.941772,731.669983 
	C1236.886353,733.400391 1239.713501,735.330811 1243.841431,738.000488 
	C1202.748047,738.000488 1163.124023,738.000488 1122.500000,738.000793 
M504.446198,684.978882 
	C511.935944,685.337219 516.962830,681.714844 520.721741,675.466370 
	C526.549133,665.779297 528.505798,665.742859 534.760010,674.590942 
	C542.563843,685.631409 556.412048,686.217712 565.145874,675.903076 
	C565.615295,675.348694 566.341736,675.011963 567.443420,674.216675 
	C568.481934,679.151855 569.217102,683.561890 570.425110,687.838257 
	C570.797119,689.155273 572.460632,690.107483 573.532715,691.226685 
	C574.406982,690.143982 575.746216,689.187134 576.078857,687.957825 
	C578.032959,680.737610 576.955078,673.674744 573.765625,667.080139 
	C571.659119,662.724731 567.843933,662.385681 564.549988,665.863647 
	C562.387268,668.147217 560.210510,670.503967 558.529846,673.140137 
	C554.651978,679.222778 545.982117,679.820618 541.480164,674.076355 
	C539.531372,671.589844 537.597656,669.083252 535.806458,666.482971 
	C531.456177,660.167664 525.022827,659.879822 520.089111,665.872437 
	C517.657043,668.826477 515.154297,671.730835 512.874756,674.799744 
	C510.237701,678.349915 506.572876,679.972656 502.862183,677.969116 
	C498.163422,675.432007 493.842041,672.024292 489.805328,668.482117 
	C485.961914,665.109558 483.053070,660.640259 479.104858,657.424866 
	C467.879822,648.283325 454.505432,644.674255 440.334747,643.344177 
	C421.609924,641.586609 405.147614,646.170654 393.159485,661.358643 
	C386.172089,670.211182 379.720123,679.609009 374.095734,689.376770 
	C369.398407,697.534424 361.868164,699.405762 354.242340,699.197388 
	C347.500946,699.013184 341.474365,695.385864 338.555817,687.966675 
	C336.820587,683.555542 334.060272,679.265625 330.805847,675.824341 
	C328.252747,673.124512 324.446350,671.036743 320.822296,670.044617 
	C313.736664,668.104614 307.420837,671.409607 301.502106,674.880310 
	C287.049011,683.355530 284.292450,704.393677 296.333435,714.569580 
	C298.625885,716.506958 301.710022,720.579834 304.713898,717.347046 
	C307.636932,714.201294 303.317230,711.719482 301.190826,709.826416 
	C292.095032,701.728882 293.267212,690.933105 300.046112,683.658508 
	C303.511719,679.939514 308.602661,677.275452 313.450745,675.417847 
	C319.873291,672.956909 324.251740,674.972656 327.774719,680.967163 
	C329.612823,684.094727 330.838226,687.601379 332.171539,691.003052 
	C336.685883,702.520325 348.107483,710.261902 358.148712,707.462952 
	C365.793243,705.332031 373.314941,702.079224 377.980957,694.953735 
	C383.627441,686.330872 388.812378,677.397522 394.655273,668.914062 
	C399.905548,661.291016 406.437531,654.793945 415.384644,651.532715 
	C438.633087,643.058716 463.762817,650.537659 479.689087,669.736328 
	C485.852051,677.165588 492.054962,685.481445 504.446198,684.978882 
M309.985046,731.662964 
	C311.975281,730.492126 314.117798,729.508362 315.887695,728.066956 
	C316.700653,727.404907 316.782501,725.845154 317.195862,724.692444 
	C316.035645,724.363159 314.848236,723.681824 313.720154,723.768921 
	C309.951141,724.059937 306.100891,724.250916 302.488708,725.237671 
	C300.554840,725.765991 299.044830,727.846069 297.343506,729.225769 
	C299.422363,730.699707 301.327576,732.755859 303.640289,733.445679 
	C305.217163,733.916016 307.363586,732.476624 309.985046,731.662964 
M505.835968,721.676514 
	C509.058441,720.876404 511.970642,719.319885 510.355377,715.552917 
	C508.736298,711.776978 505.399353,712.853638 502.779449,714.611450 
	C500.615387,716.063293 498.833160,718.084229 496.881744,719.852966 
	C499.589996,720.503845 502.298279,721.154663 505.835968,721.676514 
M509.150269,700.366455 
	C505.782379,696.533386 502.207672,698.945129 498.802399,700.214355 
	C498.202240,700.438049 497.833923,703.005676 497.892029,703.026794 
	C500.869690,704.111694 503.867340,705.334961 506.966553,705.730408 
	C507.587097,705.809692 508.618439,702.670776 509.150269,700.366455 
M574.010742,710.519836 
	C577.469666,713.598999 580.826355,711.255371 584.126587,710.179932 
	C584.698425,709.993591 584.871582,708.583740 585.228882,707.739075 
	C582.144104,706.593079 579.089050,704.642395 575.966187,704.526978 
	C572.827698,704.410950 572.358276,707.260803 574.010742,710.519836 
M571.470642,724.149231 
	C573.728760,724.076172 575.986877,724.003113 578.244995,723.930054 
	C576.994568,721.725952 576.049683,719.223816 574.338257,717.469421 
	C573.685181,716.799866 570.783936,717.299622 569.767212,718.218201 
	C567.537842,720.232361 568.386719,722.348877 571.470642,724.149231 
z"/>
<path fill="#2D1909" opacity="1.000000" stroke="none" 
	d="
M1123.000000,738.000610 
	C1163.124023,738.000488 1202.748047,738.000488 1243.841431,738.000488 
	C1239.713501,735.330811 1236.886353,733.400391 1233.941772,731.669983 
	C1233.205078,731.237061 1232.015625,731.173340 1231.160522,731.405640 
	C1222.565186,733.740112 1215.339233,730.147644 1212.154053,721.896301 
	C1205.368774,704.319702 1206.636719,688.105225 1219.658447,673.487976 
	C1221.162842,671.799194 1221.551392,668.157410 1221.003052,665.752686 
	C1217.048462,648.404846 1212.826050,631.115417 1208.476685,613.860962 
	C1204.464233,597.942932 1208.905151,592.051880 1225.432129,592.013611 
	C1244.264282,591.969971 1263.098633,591.844849 1281.927490,592.098572 
	C1287.166016,592.169189 1290.993408,590.825928 1293.369019,586.034729 
	C1293.805908,585.153809 1294.465210,584.354980 1295.135742,583.622620 
	C1299.618652,578.726990 1299.366333,578.962341 1294.825562,573.694458 
	C1291.932861,570.338501 1289.956299,566.192383 1287.572998,562.398010 
	C1280.096924,550.494629 1274.506714,538.145813 1276.229126,523.442444 
	C1276.853394,518.114685 1275.120605,512.464783 1276.006470,507.222626 
	C1278.395142,493.088013 1289.678345,487.544983 1301.477661,483.072784 
	C1323.153442,474.857178 1342.454224,478.901947 1358.765015,495.369080 
	C1369.179810,505.883728 1378.800537,517.189880 1389.304932,527.609253 
	C1396.845703,535.089050 1404.958984,542.075989 1413.354370,548.589905 
	C1425.578125,558.074341 1432.963135,569.850037 1434.701416,585.436157 
	C1436.042236,597.458801 1430.542114,610.762024 1420.204102,616.652039 
	C1416.985718,618.485657 1417.711548,620.813660 1418.582031,623.003845 
	C1422.649414,633.236755 1422.226929,643.915283 1421.911865,654.557800 
	C1421.789551,658.687988 1421.382202,662.940674 1420.225342,666.879211 
	C1418.381226,673.157227 1414.445679,678.207703 1408.436890,681.081482 
	C1405.463989,682.503357 1404.931152,684.476379 1404.905640,687.419312 
	C1404.843994,694.567322 1404.855591,701.755798 1404.104126,708.850220 
	C1402.232422,726.519775 1391.637817,736.706055 1374.050537,738.995728 
	C1375.703247,738.995728 1377.355835,738.996277 1379.008545,738.995605 
	C1402.007202,738.986572 1425.006470,738.864502 1448.004150,739.014221 
	C1460.134033,739.093140 1472.261963,739.950256 1484.389038,739.913513 
	C1502.533447,739.858582 1520.677124,739.353638 1538.819824,738.986633 
	C1552.463745,738.710693 1566.106079,738.101440 1579.748901,738.104797 
	C1591.390747,738.107666 1603.035156,738.703125 1614.671143,739.208130 
	C1616.696289,739.295959 1618.684448,740.236023 1620.689697,740.782410 
	C1620.759155,741.243042 1620.828491,741.703613 1620.897827,742.164185 
	C1619.609863,742.756958 1618.366577,743.709961 1617.025879,743.875977 
	C1612.739624,744.406616 1608.418213,744.934387 1604.108765,744.949707 
	C1577.443970,745.044556 1550.778687,744.999634 1524.113647,744.999390 
	C1486.824219,744.999023 1449.534424,745.068237 1412.245361,744.950256 
	C1401.765991,744.917053 1391.287720,744.044434 1380.810059,744.064514 
	C1363.356934,744.098022 1345.905273,744.705078 1328.452026,744.757141 
	C1315.845947,744.794800 1303.238892,744.195007 1290.631104,744.136536 
	C1284.654053,744.108765 1278.676270,744.894287 1272.695435,744.949097 
	C1228.886597,745.350647 1185.076782,745.952332 1141.267456,745.925537 
	C1085.625000,745.891541 1029.982910,745.329163 974.340637,744.985718 
	C922.031250,744.662903 869.722229,744.197021 817.412415,744.064636 
	C796.769043,744.012329 776.123291,744.663330 755.479614,745.048584 
	C741.167175,745.315613 726.855408,745.978149 712.545288,745.925476 
	C689.456909,745.840515 666.370911,745.113159 643.282410,745.016357 
	C606.826904,744.863525 570.370117,745.024658 533.913879,745.021912 
	C497.791046,745.019226 461.667816,745.074585 425.545593,744.912659 
	C407.931488,744.833679 390.319580,744.089661 372.706177,744.067993 
	C356.927368,744.048523 341.148529,744.652954 325.368347,744.891785 
	C316.911804,745.019775 308.452118,744.925415 299.994232,744.985291 
	C253.684692,745.313416 207.375656,745.787292 161.065598,745.931519 
	C143.422470,745.986511 125.773354,745.415527 108.135468,744.860107 
	C104.097092,744.732910 99.692223,744.898499 96.216568,742.265869 
	C96.206207,741.731750 96.195847,741.197632 96.185486,740.663574 
	C98.986031,740.119568 101.783058,739.120483 104.587646,739.098816 
	C161.227158,738.660217 217.867233,738.254883 274.507935,738.042297 
	C288.149353,737.991089 301.793396,738.655090 315.436340,738.985107 
	C318.551208,739.060486 320.268951,738.052795 322.451416,735.107422 
	C325.643219,730.799805 330.993530,728.067688 335.539124,724.825684 
	C335.967957,724.519836 337.879883,725.249512 337.958191,725.698181 
	C338.165863,726.888000 338.112732,728.412170 337.506653,729.400757 
	C335.725616,732.305786 333.625793,735.015381 331.536835,737.962280 
	C339.595367,740.257629 342.009766,739.405518 346.099823,733.719116 
	C348.422913,730.489441 351.001160,727.436096 353.589417,724.410156 
	C354.149384,723.755493 355.567871,723.006104 356.023895,723.272217 
	C356.855194,723.757324 357.872894,725.069275 357.743500,725.861694 
	C357.084808,729.896118 356.083496,733.874634 355.088470,738.388245 
	C370.214081,738.388245 385.643433,738.388245 401.478577,738.388245 
	C400.656891,735.981628 399.525482,733.999451 399.419952,731.963989 
	C399.324707,730.127869 400.352295,728.233521 400.884705,726.364807 
	C402.863953,727.244934 405.281219,727.689880 406.704620,729.122375 
	C408.264496,730.692078 408.614899,733.406860 410.038055,735.186279 
	C411.269562,736.726135 413.199188,738.562744 414.934875,738.688721 
	C420.867432,739.119385 426.850525,738.853760 433.379364,737.775940 
	C431.832794,736.531250 430.264465,735.312500 428.743652,734.037170 
	C423.264252,729.442139 423.830658,724.425781 430.017792,720.964233 
	C434.208374,718.619629 438.406525,716.212341 442.276794,713.388306 
	C448.872253,708.575806 450.633057,701.049561 447.413574,693.408203 
	C446.637939,691.567200 445.595276,689.746948 445.307648,687.822632 
	C445.096588,686.410706 445.481842,684.074280 446.397614,683.555542 
	C447.385895,682.995667 449.624817,683.643921 450.759003,684.503174 
	C458.243866,690.173889 459.279236,704.089294 452.300385,710.973389 
	C447.241913,715.963196 441.337860,720.099548 435.773560,724.570007 
	C434.542694,725.558838 433.154419,726.351685 431.168091,727.684814 
	C433.020477,729.181030 434.194275,730.257996 435.498413,731.142822 
	C436.594360,731.886475 438.148468,732.135376 438.973938,733.068420 
	C445.545532,740.496704 454.288330,738.826050 462.645111,738.988281 
	C475.774902,739.243164 488.902710,739.913879 502.030304,739.887268 
	C518.341125,739.854187 534.652100,739.337219 550.958557,738.872070 
	C552.350952,738.832336 553.709778,737.612183 555.084229,736.940430 
	C554.264648,735.596802 553.737000,733.508179 552.570129,733.050964 
	C549.226685,731.740845 545.662537,730.875244 542.112122,730.247375 
	C538.848328,729.670166 535.436707,729.901917 532.188416,729.271423 
	C529.174255,728.686340 525.917114,727.974365 523.472412,726.292786 
	C521.685059,725.063232 521.041260,722.171143 519.887756,720.020142 
	C522.316833,719.797974 525.145081,718.661926 527.103577,719.517273 
	C534.309082,722.664001 541.424805,725.240295 549.483948,725.741516 
	C555.014709,726.085388 559.689026,729.270752 561.975586,735.182800 
	C562.613953,736.833252 565.225769,738.748108 566.959045,738.774353 
	C575.765869,738.907959 584.581177,738.287842 593.394226,738.269775 
	C600.867126,738.254456 608.339905,738.750244 615.815002,738.919739 
	C619.552185,739.004517 621.820801,737.327148 621.893066,733.293091 
	C621.975281,728.702332 619.223633,726.492981 614.782715,727.790283 
	C610.796997,728.954590 606.924194,730.819824 602.868835,731.338989 
	C599.187317,731.810242 595.278931,731.136963 591.572632,730.431885 
	C590.345459,730.198486 588.403748,728.035278 588.611328,727.216614 
	C588.963867,725.826782 590.599670,724.514160 592.007385,723.722168 
	C593.052551,723.134094 594.588806,723.390625 595.908936,723.323975 
	C602.164307,723.008057 608.480164,723.145325 614.661255,722.296387 
	C622.399170,721.233765 627.441345,724.726379 627.974731,732.439087 
	C628.411865,738.758728 628.756165,739.028931 635.327881,738.227783 
	C635.823853,738.167236 636.322266,738.100403 636.820740,738.090393 
	C654.797058,737.728577 672.773193,737.112854 690.750000,737.091858 
	C707.892517,737.071838 725.034668,737.876099 742.178772,737.965759 
	C821.151306,738.378723 900.124390,738.694519 979.097534,738.987366 
	C1004.259033,739.080688 1029.422119,739.122498 1054.582886,738.954163 
	C1077.223022,738.802673 1099.861084,738.331116 1123.000000,738.000610 
M1304.035889,681.969849 
	C1294.553101,681.969849 1285.070312,681.969849 1275.587646,681.969849 
	C1275.540161,682.422363 1275.492676,682.874939 1275.445190,683.327454 
	C1281.236572,685.805054 1286.994385,688.367065 1292.849609,690.683167 
	C1293.919189,691.106262 1295.784180,691.004822 1296.596924,690.325745 
	C1299.613159,687.806030 1302.343018,684.943726 1305.423706,682.145264 
	C1305.553711,681.944214 1305.683594,681.743164 1305.813599,681.542175 
	C1305.532227,681.679077 1305.250854,681.815979 1304.035889,681.969849 
M1378.231689,634.832825 
	C1379.709839,636.515259 1381.052490,638.346436 1382.697388,639.845825 
	C1385.261719,642.183289 1388.288818,644.064636 1390.581909,646.621582 
	C1391.449829,647.589233 1391.414551,650.247864 1390.682129,651.472412 
	C1390.160645,652.344299 1387.537476,652.731079 1386.288696,652.235168 
	C1383.698120,651.206360 1381.404785,649.434814 1378.976807,647.989685 
	C1376.108276,646.282227 1373.226685,644.596863 1369.997803,642.693787 
	C1369.505493,644.353760 1369.136230,644.984924 1369.171631,645.592468 
	C1369.287109,647.578674 1369.570801,649.554321 1369.752563,651.537476 
	C1370.283813,657.333374 1367.955322,660.947632 1362.706299,660.795776 
	C1350.865356,660.453125 1341.962402,665.681335 1334.298584,674.076233 
	C1332.811035,675.705688 1330.609863,676.769775 1328.591675,677.810974 
	C1324.233398,680.059143 1318.693359,681.108704 1315.570801,684.453857 
	C1306.362061,694.319397 1295.234009,700.819031 1283.313843,706.623535 
	C1275.686157,710.337830 1268.483887,711.821533 1260.340698,708.704834 
	C1253.522217,706.095215 1246.562378,703.586670 1239.442383,702.099426 
	C1230.276367,700.184875 1226.319702,704.179749 1227.155029,713.551514 
	C1227.339111,715.616028 1228.118774,717.796448 1229.191162,719.583191 
	C1233.572388,726.883545 1240.530151,730.781799 1248.478760,732.769104 
	C1253.940063,734.134583 1259.590820,734.895813 1265.203613,735.474121 
	C1283.291992,737.337952 1301.242554,735.984253 1318.440063,730.183716 
	C1331.817505,725.671692 1344.627808,719.492798 1357.777100,714.273560 
	C1359.510132,713.585632 1361.758423,714.195618 1363.768066,714.204468 
	C1362.729858,715.864075 1362.075928,718.142700 1360.582764,719.069458 
	C1355.702148,722.098938 1350.515747,724.635803 1345.434570,727.368896 
	C1355.703125,731.392151 1366.472656,732.247498 1376.964966,730.667114 
	C1390.920044,728.565308 1400.040771,721.427368 1399.038818,707.289185 
	C1398.792480,703.814087 1398.882935,700.273315 1399.236084,696.805298 
	C1400.351562,685.855103 1393.505493,673.704590 1383.323608,668.997253 
	C1380.754395,667.809509 1378.011841,666.936768 1375.595825,665.503235 
	C1374.415161,664.802795 1373.801392,663.146790 1372.931030,661.923340 
	C1374.202515,661.328613 1375.491089,660.214539 1376.741699,660.255493 
	C1378.849243,660.324646 1381.289917,660.595398 1382.960449,661.718445 
	C1388.280762,665.294617 1393.206299,669.456116 1398.510742,673.057983 
	C1400.298218,674.271545 1403.282471,675.642395 1404.822388,674.948914 
	C1409.910889,672.657104 1413.969360,669.067566 1415.105591,662.979553 
	C1417.397217,650.700073 1416.845093,638.651550 1414.338989,626.376648 
	C1410.577881,607.954102 1401.793945,593.182190 1385.604370,583.436768 
	C1381.187500,580.778076 1375.920166,579.281433 1370.852661,578.011963 
	C1362.943604,576.030579 1355.890503,572.911438 1352.308960,565.180359 
	C1348.329712,556.591064 1347.256958,549.586853 1355.171265,543.703674 
	C1357.849609,541.712708 1358.599121,538.770813 1356.988647,535.670776 
	C1355.230103,532.285522 1352.243164,532.971375 1349.568848,534.050659 
	C1338.339111,538.582581 1326.570557,539.057007 1314.706665,539.011719 
	C1312.837646,539.004578 1310.967773,539.197449 1310.182983,539.239563 
	C1311.219604,544.483826 1312.163818,549.077637 1313.023193,553.687256 
	C1313.449341,555.973328 1313.449707,558.378235 1314.172974,560.552979 
	C1314.540649,561.658691 1315.968628,562.911560 1317.117310,563.155701 
	C1319.659180,563.695862 1323.600586,561.840271 1323.791748,565.953613 
	C1323.851807,567.247620 1319.738403,568.743835 1317.520874,570.124573 
	C1317.248657,570.294006 1316.886108,570.315796 1316.568115,570.414429 
	C1309.760742,572.525452 1307.546997,571.281128 1308.164917,564.356567 
	C1309.006714,554.926514 1307.177002,547.673584 1297.880005,542.926636 
	C1292.774414,540.319763 1293.189575,537.777161 1297.457886,534.133423 
	C1293.790894,531.052429 1289.986938,528.080078 1286.493896,524.778992 
	C1285.503540,523.843201 1285.419800,521.948181 1284.920410,520.493042 
	C1286.582520,520.344971 1288.461060,519.628845 1289.863159,520.163208 
	C1293.109863,521.400513 1296.326050,522.946777 1299.201294,524.890625 
	C1312.111816,533.619141 1326.403809,533.684570 1340.953003,531.603027 
	C1344.673584,531.070740 1348.156982,529.042480 1351.831421,527.987610 
	C1357.243408,526.433899 1361.974121,529.510437 1362.771973,535.086487 
	C1363.533203,540.407227 1362.639771,545.037231 1358.534058,549.281250 
	C1356.689819,551.187622 1356.118286,555.274841 1356.535522,558.144897 
	C1356.930786,560.865112 1359.330078,563.315247 1360.924927,565.835571 
	C1363.996338,570.688843 1367.980469,572.736328 1374.033569,571.472290 
	C1377.016113,570.849426 1380.710815,571.703003 1383.615723,572.964661 
	C1398.838867,579.576294 1408.696899,591.176941 1414.110596,606.771179 
	C1415.850098,611.781677 1417.740967,612.055664 1421.260376,608.105530 
	C1422.137207,607.121277 1422.844482,605.970276 1423.535034,604.838135 
	C1430.112549,594.055481 1428.986694,583.016418 1424.876465,571.735657 
	C1421.424194,562.260437 1413.936401,556.159241 1406.450806,550.553223 
	C1390.820679,538.847656 1378.457275,524.102356 1365.681763,509.641327 
	C1350.987305,493.008148 1334.008789,481.924225 1310.377808,488.962402 
	C1307.030029,489.959534 1303.612915,490.843475 1300.422607,492.228210 
	C1289.987061,496.757812 1281.501831,503.204224 1281.058472,515.783203 
	C1280.924683,519.582520 1282.040771,523.543274 1283.176392,527.248596 
	C1287.069336,539.950012 1290.754028,552.747559 1295.414429,565.172302 
	C1299.969482,577.316284 1316.282593,584.583313 1327.649170,579.677368 
	C1332.217773,577.705505 1335.813965,573.549927 1340.022583,570.633240 
	C1341.302368,569.746277 1343.149658,569.678589 1344.737061,569.235718 
	C1344.680908,571.055969 1345.302979,573.309937 1344.460571,574.627441 
	C1338.126831,584.532104 1324.557495,589.837158 1313.329346,585.994202 
	C1307.416870,583.970581 1304.179688,585.779297 1300.856689,590.425232 
	C1301.804810,590.669434 1302.407471,590.882751 1303.028198,590.975708 
	C1310.801025,592.139587 1312.645752,593.907410 1314.338501,601.314575 
	C1316.487549,610.719055 1318.910767,620.062988 1320.933228,629.493530 
	C1321.802368,633.545227 1323.367310,634.476868 1327.093506,632.505737 
	C1333.673096,629.025085 1340.670898,628.289185 1347.927612,630.061157 
	C1354.799805,631.739075 1361.684082,633.367065 1369.030762,635.129211 
	C1369.391846,629.873962 1369.556885,624.773254 1370.205444,619.734802 
	C1370.391235,618.291443 1371.975708,617.028076 1372.918945,615.682190 
	C1373.896973,616.862183 1375.468140,617.917603 1375.746826,619.244568 
	C1376.771362,624.120422 1377.366821,629.086487 1378.231689,634.832825 
M1226.903564,665.567261 
	C1229.648560,675.414429 1230.398438,676.090332 1240.700195,675.975647 
	C1264.813477,675.707214 1288.925415,675.324402 1313.037842,674.980103 
	C1314.034912,674.965881 1315.296021,675.237000 1315.972656,674.743103 
	C1317.424927,673.682983 1319.638062,672.232666 1319.667114,670.901062 
	C1319.800049,664.833923 1320.170044,658.549133 1318.829712,652.715942 
	C1315.334229,637.502686 1310.825195,622.525452 1307.045654,607.372986 
	C1305.070679,599.454834 1305.006104,599.238708 1296.886230,598.968506 
	C1281.610474,598.460266 1266.346558,597.516724 1251.068359,597.182495 
	C1240.607910,596.953552 1230.093140,596.963989 1219.675171,597.786011 
	C1212.264893,598.370667 1210.807251,600.998108 1212.683228,608.230530 
	C1214.767334,616.266235 1217.745972,624.075134 1219.716431,632.133972 
	C1222.359253,642.942688 1224.408325,653.896606 1226.903564,665.567261 
M1221.482910,722.359985 
	C1222.168823,722.849854 1222.854858,723.339783 1224.397217,724.441345 
	C1223.719238,721.979797 1223.349121,720.576477 1222.946411,719.182556 
	C1218.132690,702.523010 1227.398438,692.270813 1244.287598,695.902649 
	C1249.288086,696.978027 1254.003784,699.312805 1258.939209,700.768616 
	C1268.464233,703.578186 1277.178833,702.087585 1285.119995,695.304993 
	C1271.196045,687.772461 1257.921021,679.493164 1241.322510,681.970886 
	C1239.856079,682.189819 1238.300781,682.184326 1236.834351,681.964600 
	C1232.305786,681.286133 1227.800293,680.453430 1223.285889,679.680603 
	C1223.109497,679.065613 1222.933228,678.450623 1222.756836,677.835632 
	C1221.302490,680.342468 1219.420654,682.697388 1218.466919,685.382141 
	C1214.033081,697.864319 1216.352295,709.935730 1221.482910,722.359985 
M1340.048218,659.443420 
	C1341.265869,659.653015 1342.611450,660.305664 1343.679565,659.997375 
	C1349.040161,658.450256 1354.344482,656.700256 1359.629883,654.907227 
	C1360.950806,654.459167 1362.700317,653.900085 1363.269897,652.855713 
	C1365.415894,648.922180 1360.191406,638.121338 1355.584961,637.317810 
	C1350.061646,636.354370 1344.320679,635.179321 1338.860107,635.782532 
	C1334.565430,636.256836 1330.377686,639.002441 1326.519409,641.357117 
	C1325.306885,642.096985 1325.317261,644.840698 1324.767944,646.667236 
	C1325.498779,647.080872 1326.229614,647.494507 1326.960449,647.908081 
	C1328.129150,646.288452 1329.091187,644.442078 1330.535400,643.124512 
	C1331.598022,642.155090 1333.291382,641.877258 1334.703735,641.291199 
	C1334.623901,642.940125 1334.934937,644.735779 1334.382690,646.207397 
	C1333.239380,649.254028 1331.636719,652.128357 1330.222900,655.073486 
	C1330.654785,655.324890 1331.086670,655.576355 1331.518555,655.827820 
	C1333.341309,654.237183 1334.987183,652.338318 1337.045166,651.157593 
	C1338.574707,650.280029 1340.638306,650.333435 1342.464111,649.972168 
	C1342.331177,651.771118 1342.395630,653.615173 1341.998535,655.353821 
	C1341.713745,656.601868 1340.812256,657.709045 1340.048218,659.443420 
M1337.876709,733.741211 
	C1329.102905,730.025208 1322.526367,737.106323 1314.769653,738.968140 
	C1321.365479,738.968140 1327.961182,738.968201 1334.557007,738.968201 
	C1341.053833,738.968201 1347.550537,738.968140 1354.047363,738.968140 
	C1354.045288,738.710510 1354.043213,738.452820 1354.041016,738.195190 
	C1348.913696,736.771301 1343.786255,735.347351 1337.876709,733.741211 
M1336.577881,664.017944 
	C1336.577881,664.017944 1336.496948,664.046936 1336.577881,664.017944 
M1227.018066,726.421814 
	C1227.018066,726.421814 1227.047241,726.502686 1227.018066,726.421814 
z"/>
<path fill="#2D1909" opacity="1.000000" stroke="none" 
	d="
M504.001038,684.978882 
	C492.054962,685.481445 485.852051,677.165588 479.689087,669.736328 
	C463.762817,650.537659 438.633087,643.058716 415.384644,651.532715 
	C406.437531,654.793945 399.905548,661.291016 394.655273,668.914062 
	C388.812378,677.397522 383.627441,686.330872 377.980957,694.953735 
	C373.314941,702.079224 365.793243,705.332031 358.148712,707.462952 
	C348.107483,710.261902 336.685883,702.520325 332.171539,691.003052 
	C330.838226,687.601379 329.612823,684.094727 327.774719,680.967163 
	C324.251740,674.972656 319.873291,672.956909 313.450745,675.417847 
	C308.602661,677.275452 303.511719,679.939514 300.046112,683.658508 
	C293.267212,690.933105 292.095032,701.728882 301.190826,709.826416 
	C303.317230,711.719482 307.636932,714.201294 304.713898,717.347046 
	C301.710022,720.579834 298.625885,716.506958 296.333435,714.569580 
	C284.292450,704.393677 287.049011,683.355530 301.502106,674.880310 
	C307.420837,671.409607 313.736664,668.104614 320.822296,670.044617 
	C324.446350,671.036743 328.252747,673.124512 330.805847,675.824341 
	C334.060272,679.265625 336.820587,683.555542 338.555817,687.966675 
	C341.474365,695.385864 347.500946,699.013184 354.242340,699.197388 
	C361.868164,699.405762 369.398407,697.534424 374.095734,689.376770 
	C379.720123,679.609009 386.172089,670.211182 393.159485,661.358643 
	C405.147614,646.170654 421.609924,641.586609 440.334747,643.344177 
	C454.505432,644.674255 467.879822,648.283325 479.104858,657.424866 
	C483.053070,660.640259 485.961914,665.109558 489.805328,668.482117 
	C493.842041,672.024292 498.163422,675.432007 502.862183,677.969116 
	C506.572876,679.972656 510.237701,678.349915 512.874756,674.799744 
	C515.154297,671.730835 517.657043,668.826477 520.089111,665.872437 
	C525.022827,659.879822 531.456177,660.167664 535.806458,666.482971 
	C537.597656,669.083252 539.531372,671.589844 541.480164,674.076355 
	C545.982117,679.820618 554.651978,679.222778 558.529846,673.140137 
	C560.210510,670.503967 562.387268,668.147217 564.549988,665.863647 
	C567.843933,662.385681 571.659119,662.724731 573.765625,667.080139 
	C576.955078,673.674744 578.032959,680.737610 576.078857,687.957825 
	C575.746216,689.187134 574.406982,690.143982 573.532715,691.226685 
	C572.460632,690.107483 570.797119,689.155273 570.425110,687.838257 
	C569.217102,683.561890 568.481934,679.151855 567.443420,674.216675 
	C566.341736,675.011963 565.615295,675.348694 565.145874,675.903076 
	C556.412048,686.217712 542.563843,685.631409 534.760010,674.590942 
	C528.505798,665.742859 526.549133,665.779297 520.721741,675.466370 
	C516.962830,681.714844 511.935944,685.337219 504.001038,684.978882 
z"/>
<path fill="#2D1909" opacity="1.000000" stroke="none" 
	d="
M309.620209,731.777039 
	C307.363586,732.476624 305.217163,733.916016 303.640289,733.445679 
	C301.327576,732.755859 299.422363,730.699707 297.343506,729.225769 
	C299.044830,727.846069 300.554840,725.765991 302.488708,725.237671 
	C306.100891,724.250916 309.951141,724.059937 313.720154,723.768921 
	C314.848236,723.681824 316.035645,724.363159 317.195862,724.692444 
	C316.782501,725.845154 316.700653,727.404907 315.887695,728.066956 
	C314.117798,729.508362 311.975281,730.492126 309.620209,731.777039 
z"/>
<path fill="#2D1909" opacity="1.000000" stroke="none" 
	d="
M505.421265,721.741028 
	C502.298279,721.154663 499.589996,720.503845 496.881744,719.852966 
	C498.833160,718.084229 500.615387,716.063293 502.779449,714.611450 
	C505.399353,712.853638 508.736298,711.776978 510.355377,715.552917 
	C511.970642,719.319885 509.058441,720.876404 505.421265,721.741028 
z"/>
<path fill="#2D1909" opacity="1.000000" stroke="none" 
	d="
M509.305328,700.691040 
	C508.618439,702.670776 507.587097,705.809692 506.966553,705.730408 
	C503.867340,705.334961 500.869690,704.111694 497.892029,703.026794 
	C497.833923,703.005676 498.202240,700.438049 498.802399,700.214355 
	C502.207672,698.945129 505.782379,696.533386 509.305328,700.691040 
z"/>
<path fill="#2D1909" opacity="1.000000" stroke="none" 
	d="
M573.805054,710.264648 
	C572.358276,707.260803 572.827698,704.410950 575.966187,704.526978 
	C579.089050,704.642395 582.144104,706.593079 585.228882,707.739075 
	C584.871582,708.583740 584.698425,709.993591 584.126587,710.179932 
	C580.826355,711.255371 577.469666,713.598999 573.805054,710.264648 
z"/>
<path fill="#2D1909" opacity="1.000000" stroke="none" 
	d="
M571.143188,724.002930 
	C568.386719,722.348877 567.537842,720.232361 569.767212,718.218201 
	C570.783936,717.299622 573.685181,716.799866 574.338257,717.469421 
	C576.049683,719.223816 576.994568,721.725952 578.244995,723.930054 
	C575.986877,724.003113 573.728760,724.076172 571.143188,724.002930 
z"/>
<path fill="#000000" opacity="1.000000" stroke="none" 
	d="
M1378.177734,634.425659 
	C1377.366821,629.086487 1376.771362,624.120422 1375.746826,619.244568 
	C1375.468140,617.917603 1373.896973,616.862183 1372.918945,615.682129 
	C1371.975708,617.028076 1370.391235,618.291443 1370.205444,619.734802 
	C1369.556885,624.773254 1369.391846,629.873962 1369.030762,635.129211 
	C1361.684082,633.367065 1354.799805,631.739075 1347.927612,630.061157 
	C1340.670898,628.289185 1333.673096,629.025085 1327.093506,632.505737 
	C1323.367310,634.476868 1321.802368,633.545227 1320.933228,629.493530 
	C1318.910767,620.062988 1316.487549,610.719055 1314.338501,601.314575 
	C1312.645752,593.907410 1310.801025,592.139587 1303.028198,590.975708 
	C1302.407471,590.882751 1301.804810,590.669434 1300.856689,590.425232 
	C1304.179688,585.779297 1307.416870,583.970581 1313.329346,585.994202 
	C1324.557495,589.837158 1338.126831,584.532104 1344.460571,574.627441 
	C1345.302979,573.309937 1344.680908,571.055969 1344.737061,569.235718 
	C1343.149658,569.678589 1341.302368,569.746277 1340.022583,570.633240 
	C1335.813965,573.549927 1332.217773,577.705505 1327.649170,579.677368 
	C1316.282593,584.583313 1299.969482,577.316284 1295.414429,565.172302 
	C1290.754028,552.747559 1287.069336,539.950012 1283.176392,527.248596 
	C1282.040771,523.543274 1280.924683,519.582520 1281.058472,515.783203 
	C1281.501831,503.204224 1289.987061,496.757812 1300.422607,492.228210 
	C1303.612915,490.843475 1307.030029,489.959534 1310.377808,488.962402 
	C1334.008789,481.924225 1350.987305,493.008148 1365.681763,509.641327 
	C1378.457275,524.102356 1390.820679,538.847656 1406.450806,550.553223 
	C1413.936401,556.159241 1421.424194,562.260437 1424.876465,571.735657 
	C1428.986694,583.016418 1430.112549,594.055481 1423.535034,604.838135 
	C1422.844482,605.970276 1422.137207,607.121277 1421.260376,608.105530 
	C1417.740967,612.055664 1415.850098,611.781677 1414.110596,606.771179 
	C1408.696899,591.176941 1398.838867,579.576294 1383.615723,572.964661 
	C1380.710815,571.703003 1377.016113,570.849426 1374.033569,571.472290 
	C1367.980469,572.736328 1363.996338,570.688843 1360.924927,565.835571 
	C1359.330078,563.315247 1356.930786,560.865112 1356.535522,558.144897 
	C1356.118286,555.274841 1356.689819,551.187622 1358.534058,549.281250 
	C1362.639771,545.037231 1363.533203,540.407227 1362.771973,535.086487 
	C1361.974121,529.510437 1357.243408,526.433899 1351.831421,527.987610 
	C1348.156982,529.042480 1344.673584,531.070740 1340.953003,531.603027 
	C1326.403809,533.684570 1312.111816,533.619141 1299.201294,524.890625 
	C1296.326050,522.946777 1293.109863,521.400513 1289.863159,520.163208 
	C1288.461060,519.628845 1286.582520,520.344971 1284.920410,520.493042 
	C1285.419800,521.948181 1285.503540,523.843201 1286.493896,524.778992 
	C1289.986938,528.080078 1293.790894,531.052429 1297.457886,534.133423 
	C1293.189575,537.777161 1292.774414,540.319763 1297.880005,542.926636 
	C1307.177002,547.673584 1309.006714,554.926514 1308.164917,564.356567 
	C1307.546997,571.281128 1309.760742,572.525452 1316.568115,570.414429 
	C1316.886108,570.315796 1317.248657,570.294006 1317.520874,570.124573 
	C1319.738403,568.743835 1323.851807,567.247620 1323.791748,565.953613 
	C1323.600586,561.840271 1319.659180,563.695862 1317.117310,563.155701 
	C1315.968628,562.911560 1314.540649,561.658691 1314.172974,560.552979 
	C1313.449707,558.378235 1313.449341,555.973328 1313.023193,553.687256 
	C1312.163818,549.077637 1311.219604,544.483826 1310.182983,539.239563 
	C1310.967773,539.197449 1312.837646,539.004578 1314.706665,539.011719 
	C1326.570557,539.057007 1338.339111,538.582581 1349.568848,534.050659 
	C1352.243164,532.971375 1355.230103,532.285522 1356.988647,535.670776 
	C1358.599121,538.770813 1357.849609,541.712708 1355.171265,543.703674 
	C1347.256958,549.586853 1348.329712,556.591064 1352.308960,565.180359 
	C1355.890503,572.911438 1362.943604,576.030579 1370.852661,578.011963 
	C1375.920166,579.281433 1381.187500,580.778076 1385.604370,583.436768 
	C1401.793945,593.182190 1410.577881,607.954102 1414.338989,626.376648 
	C1416.845093,638.651550 1417.397217,650.700073 1415.105591,662.979553 
	C1413.969360,669.067566 1409.910889,672.657104 1404.822388,674.948914 
	C1403.282471,675.642395 1400.298218,674.271545 1398.510742,673.057983 
	C1393.206299,669.456116 1388.280762,665.294617 1382.960449,661.718445 
	C1381.289917,660.595398 1378.849243,660.324646 1376.741699,660.255493 
	C1375.491089,660.214539 1374.202515,661.328613 1372.931030,661.923340 
	C1373.801392,663.146790 1374.415161,664.802795 1375.595825,665.503235 
	C1378.011841,666.936768 1380.754395,667.809509 1383.323608,668.997253 
	C1393.505493,673.704590 1400.351562,685.855103 1399.236084,696.805298 
	C1398.882935,700.273315 1398.792480,703.814087 1399.038818,707.289185 
	C1400.040771,721.427368 1390.920044,728.565308 1376.964966,730.667114 
	C1366.472656,732.247498 1355.703125,731.392151 1345.434570,727.368896 
	C1350.515747,724.635803 1355.702148,722.098938 1360.582764,719.069458 
	C1362.075928,718.142700 1362.729858,715.864075 1363.768066,714.204468 
	C1361.758423,714.195618 1359.510132,713.585632 1357.777100,714.273560 
	C1344.627808,719.492798 1331.817505,725.671692 1318.440063,730.183716 
	C1301.242554,735.984253 1283.291992,737.337952 1265.203613,735.474121 
	C1259.590820,734.895813 1253.940063,734.134583 1248.478760,732.769104 
	C1240.530151,730.781799 1233.572388,726.883545 1229.191162,719.583191 
	C1228.118774,717.796448 1227.339111,715.616028 1227.155029,713.551514 
	C1226.319702,704.179749 1230.276367,700.184875 1239.442383,702.099426 
	C1246.562378,703.586670 1253.522217,706.095215 1260.340698,708.704834 
	C1268.483887,711.821533 1275.686157,710.337830 1283.313843,706.623535 
	C1295.234009,700.819031 1306.362061,694.319397 1315.570801,684.453857 
	C1318.693359,681.108704 1324.233398,680.059143 1328.591675,677.810974 
	C1330.609863,676.769775 1332.811035,675.705688 1334.298584,674.076233 
	C1341.962402,665.681335 1350.865356,660.453125 1362.706299,660.795776 
	C1367.955322,660.947632 1370.283813,657.333374 1369.752563,651.537476 
	C1369.570801,649.554321 1369.287109,647.578674 1369.171631,645.592468 
	C1369.136230,644.984924 1369.505493,644.353760 1369.997803,642.693787 
	C1373.226685,644.596863 1376.108276,646.282227 1378.976807,647.989685 
	C1381.404785,649.434814 1383.698120,651.206360 1386.288696,652.235168 
	C1387.537476,652.731079 1390.160645,652.344299 1390.682129,651.472412 
	C1391.414551,650.247864 1391.449829,647.589233 1390.581909,646.621582 
	C1388.288818,644.064636 1385.261719,642.183289 1382.697388,639.845825 
	C1381.052490,638.346436 1379.709839,636.515259 1378.177734,634.425659 
z"/>
<path fill="#000000" opacity="1.000000" stroke="none" 
	d="
M1226.807861,665.177734 
	C1224.408325,653.896606 1222.359253,642.942688 1219.716431,632.133972 
	C1217.745972,624.075134 1214.767334,616.266235 1212.683228,608.230530 
	C1210.807251,600.998108 1212.264893,598.370667 1219.675171,597.786011 
	C1230.093140,596.963989 1240.607910,596.953552 1251.068359,597.182495 
	C1266.346558,597.516724 1281.610474,598.460266 1296.886230,598.968506 
	C1305.006104,599.238708 1305.070679,599.454834 1307.045654,607.372986 
	C1310.825195,622.525452 1315.334229,637.502686 1318.829712,652.715942 
	C1320.170044,658.549133 1319.800049,664.833923 1319.667114,670.901062 
	C1319.638062,672.232666 1317.424927,673.682983 1315.972656,674.743103 
	C1315.296021,675.237000 1314.034912,674.965881 1313.037842,674.980103 
	C1288.925415,675.324402 1264.813477,675.707214 1240.700195,675.975647 
	C1230.398438,676.090332 1229.648560,675.414429 1226.807861,665.177734 
M1278.951904,632.450500 
	C1275.270996,628.843506 1260.396118,627.609497 1256.505493,630.588379 
	C1252.518188,633.641296 1251.279297,642.054932 1253.989624,647.673828 
	C1256.828735,653.559692 1260.000366,654.908142 1266.746826,653.212463 
	C1267.853394,652.934326 1269.044067,652.985901 1270.196899,652.897827 
	C1277.731079,652.322327 1281.178223,645.853271 1277.887573,640.209473 
	C1278.441284,637.341797 1278.850830,635.221313 1278.951904,632.450500 
M1263.960083,622.117676 
	C1264.894165,623.948242 1265.828369,625.778870 1266.762451,627.609497 
	C1269.139404,626.134888 1271.671143,624.842834 1273.780884,623.053345 
	C1274.289795,622.621704 1273.437256,619.408875 1273.151001,619.399963 
	C1270.586670,619.320129 1267.999023,619.600037 1265.444824,619.961670 
	C1264.988770,620.026245 1264.655029,620.955200 1263.960083,622.117676 
z"/>
<path fill="#000000" opacity="1.000000" stroke="none" 
	d="
M1221.345825,722.065552 
	C1216.352295,709.935730 1214.033081,697.864319 1218.466919,685.382141 
	C1219.420654,682.697388 1221.302490,680.342468 1222.756836,677.835632 
	C1222.933228,678.450623 1223.109497,679.065613 1223.285889,679.680603 
	C1227.800293,680.453430 1232.305786,681.286133 1236.834351,681.964600 
	C1238.300781,682.184326 1239.856079,682.189819 1241.322510,681.970886 
	C1257.921021,679.493164 1271.196045,687.772461 1285.119995,695.304993 
	C1277.178833,702.087585 1268.464233,703.578186 1258.939209,700.768616 
	C1254.003784,699.312805 1249.288086,696.978027 1244.287598,695.902649 
	C1227.398438,692.270813 1218.132690,702.523010 1222.946411,719.182556 
	C1223.349121,720.576477 1223.719238,721.979797 1224.397217,724.441345 
	C1222.854858,723.339783 1222.168823,722.849854 1221.345825,722.065552 
z"/>
<path fill="#000000" opacity="1.000000" stroke="none" 
	d="
M1340.116943,659.161255 
	C1340.812256,657.709045 1341.713745,656.601868 1341.998535,655.353821 
	C1342.395630,653.615173 1342.331177,651.771118 1342.464111,649.972168 
	C1340.638306,650.333435 1338.574707,650.280029 1337.045166,651.157593 
	C1334.987183,652.338318 1333.341309,654.237183 1331.518555,655.827820 
	C1331.086670,655.576355 1330.654785,655.324890 1330.222900,655.073486 
	C1331.636719,652.128357 1333.239380,649.254028 1334.382690,646.207397 
	C1334.934937,644.735779 1334.623901,642.940125 1334.703735,641.291199 
	C1333.291382,641.877258 1331.598022,642.155090 1330.535400,643.124512 
	C1329.091187,644.442078 1328.129150,646.288452 1326.960449,647.908081 
	C1326.229614,647.494507 1325.498779,647.080872 1324.767944,646.667236 
	C1325.317261,644.840698 1325.306885,642.096985 1326.519409,641.357117 
	C1330.377686,639.002441 1334.565430,636.256836 1338.860107,635.782532 
	C1344.320679,635.179321 1350.061646,636.354370 1355.584961,637.317810 
	C1360.191406,638.121338 1365.415894,648.922180 1363.269897,652.855713 
	C1362.700317,653.900085 1360.950806,654.459167 1359.629883,654.907227 
	C1354.344482,656.700256 1349.040161,658.450256 1343.679565,659.997375 
	C1342.611450,660.305664 1341.265869,659.653015 1340.116943,659.161255 
z"/>
<path fill="#000000" opacity="1.000000" stroke="none" 
	d="
M1305.180420,682.210083 
	C1302.343018,684.943726 1299.613159,687.806030 1296.596924,690.325745 
	C1295.784180,691.004822 1293.919189,691.106262 1292.849609,690.683167 
	C1286.994385,688.367065 1281.236572,685.805054 1275.445190,683.327454 
	C1275.492676,682.874939 1275.540161,682.422363 1275.587646,681.969849 
	C1285.070312,681.969849 1294.553101,681.969849 1304.555420,682.025635 
	C1305.075073,682.081360 1305.180420,682.210022 1305.180420,682.210083 
z"/>
<path fill="#000000" opacity="1.000000" stroke="none" 
	d="
M1338.267822,733.832336 
	C1343.786255,735.347351 1348.913696,736.771301 1354.041016,738.195190 
	C1354.043213,738.452820 1354.045288,738.710510 1354.047363,738.968140 
	C1347.550537,738.968140 1341.053833,738.968201 1334.557007,738.968201 
	C1327.961182,738.968201 1321.365479,738.968140 1314.769653,738.968140 
	C1322.526367,737.106323 1329.102905,730.025208 1338.267822,733.832336 
z"/>
<path fill="#000000" opacity="1.000000" stroke="none" 
	d="
M1305.022217,682.017151 
	C1305.250854,681.815979 1305.532227,681.679077 1305.813599,681.542114 
	C1305.683594,681.743164 1305.553711,681.944214 1305.302002,682.177612 
	C1305.180420,682.210022 1305.075073,682.081360 1305.022217,682.017151 
z"/>
<path fill="#000000" opacity="1.000000" stroke="none" 
	d="
M1336.537354,664.032471 
	C1336.496948,664.046936 1336.577881,664.017944 1336.537354,664.032471 
z"/>
<path fill="#000000" opacity="1.000000" stroke="none" 
	d="
M1227.032715,726.462280 
	C1227.047241,726.502686 1227.018066,726.421814 1227.032715,726.462280 
z"/>
<path fill="#2D1909" opacity="1.000000" stroke="none" 
	d="
M1279.106201,632.775635 
	C1278.850830,635.221313 1278.441284,637.341797 1277.887573,640.209473 
	C1281.178223,645.853271 1277.731079,652.322327 1270.196899,652.897827 
	C1269.044067,652.985901 1267.853394,652.934326 1266.746826,653.212463 
	C1260.000366,654.908142 1256.828735,653.559692 1253.989624,647.673828 
	C1251.279297,642.054932 1252.518188,633.641296 1256.505493,630.588379 
	C1260.396118,627.609497 1275.270996,628.843506 1279.106201,632.775635 
z"/>
<path fill="#2D1909" opacity="1.000000" stroke="none" 
	d="
M1264.112427,621.801392 
	C1264.655029,620.955200 1264.988770,620.026245 1265.444824,619.961670 
	C1267.999023,619.600037 1270.586670,619.320129 1273.151001,619.399963 
	C1273.437256,619.408875 1274.289795,622.621704 1273.780884,623.053345 
	C1271.671143,624.842834 1269.139404,626.134888 1266.762451,627.609497 
	C1265.828369,625.778870 1264.894165,623.948242 1264.112427,621.801392 
z"/>
</svg>