<svg version="1.1" id="Layer_1" xmlns="http://www.w3.org/2000/svg" xmlns:xlink="http://www.w3.org/1999/xlink" x="0px" y="0px"
	 width="100%" viewBox="0 0 1694 820" enable-background="new 0 0 1694 820" xml:space="preserve">
<path fill="none" opacity="1.000000" stroke="none" 
	d="
M1690.134766,821.000000 
	C1126.782593,821.000000 563.954651,821.000000 1.063349,821.000000 
	C1.063349,547.711548 1.063349,274.423004 1.063349,1.000000 
	C283.285797,1.000000 565.571594,1.000000 847.857422,1.000000 
	C1130.188110,1.000000 1412.518677,1.000000 1694.924683,1.000000 
	C1694.924683,274.280487 1694.924683,547.560974 1694.924683,821.000000 
	C1693.553955,821.000000 1692.106445,821.000000 1690.134766,821.000000 
M1234.372070,737.967896 
	C1174.402100,738.309570 1114.432373,738.758057 1054.461914,738.959534 
	C1005.135437,739.125305 955.807556,739.121887 906.481079,738.959045 
	C870.504883,738.840271 834.530029,738.321899 798.554260,738.014709 
	C756.579895,737.656311 714.605530,737.260864 672.630310,737.051575 
	C663.154724,737.004333 653.676697,737.699829 644.197205,737.956970 
	C642.317261,738.007996 640.425415,737.617737 637.876221,737.365356 
	C639.206421,734.536377 640.454224,732.555847 641.068420,730.395203 
	C641.741455,728.027954 642.113892,725.494629 642.116211,723.033264 
	C642.121887,717.040161 637.586609,712.972961 632.516052,714.581604 
	C624.157043,717.233582 615.885315,720.172302 607.650452,723.191162 
	C606.462708,723.626709 604.998596,725.135376 604.927307,726.229797 
	C604.866699,727.160645 606.477661,728.820068 607.611938,729.102966 
	C612.857239,730.411194 618.095581,730.992126 622.763794,727.091370 
	C625.183289,725.069702 627.733154,723.143127 630.451416,721.565002 
	C631.869141,720.741943 633.779358,720.767334 635.467163,720.409485 
	C635.775208,722.266602 636.654785,724.246155 636.288025,725.958801 
	C635.000488,731.970947 625.981018,738.966125 619.878967,738.983276 
	C607.259033,739.018860 594.638916,739.013184 582.019043,738.975952 
	C580.250793,738.970703 578.483337,738.692200 576.634338,738.533203 
	C577.104370,733.940979 577.924683,729.853943 577.851746,725.782898 
	C577.718811,718.366028 572.107605,714.922607 565.475281,718.202576 
	C558.678162,721.564087 551.655457,722.500305 544.168152,722.166138 
	C539.575378,721.961121 534.905884,722.687744 530.333252,723.397583 
	C529.253906,723.565125 527.723450,725.322815 527.683044,726.397156 
	C527.644287,727.429749 529.209656,729.385559 530.170471,729.450500 
	C535.731812,729.826416 541.482910,730.628174 546.863892,729.632568 
	C553.818359,728.345825 560.447266,725.368347 567.311157,723.459656 
	C568.531189,723.120422 571.104370,724.059570 571.532104,725.059082 
	C573.794006,730.344910 568.160583,738.781067 562.303711,738.909363 
	C542.162842,739.350342 522.018738,739.841736 501.874939,739.884766 
	C486.247559,739.918091 470.618988,739.079041 454.990601,739.067322 
	C444.279785,739.059265 438.060425,731.257690 430.338470,725.989258 
	C430.232788,725.917236 430.445618,725.378418 430.308899,726.062195 
	C436.380524,722.749451 442.184601,720.251160 447.243103,716.692993 
	C460.554291,707.329590 461.657104,689.346497 449.787689,679.455383 
	C448.713928,678.560547 446.922119,678.527344 445.463745,678.093994 
	C445.171326,679.624084 444.336365,681.299316 444.698792,682.654236 
	C445.467133,685.526917 446.884033,688.223083 447.992096,691.008667 
	C453.490112,704.829956 444.646759,718.177002 429.603760,719.042725 
	C426.965607,719.194580 424.384735,720.341858 421.777435,721.029419 
	C422.793457,723.891541 423.553406,726.884583 424.924805,729.564880 
	C425.704803,731.089478 427.438080,732.157349 428.825500,733.332458 
	C430.627960,734.859131 432.513336,736.287903 434.363037,737.758789 
	C425.973358,738.414673 417.531006,741.503662 410.664093,735.055603 
	C407.055420,731.666931 404.060303,727.630981 400.708618,723.959839 
	C399.097687,722.195374 397.302429,720.599243 395.590668,718.926880 
	C395.526031,721.716919 394.973785,724.611511 395.543243,727.265503 
	C396.044617,729.602051 397.810303,731.663940 398.997925,733.857849 
	C399.668518,735.096619 400.299316,736.356934 401.371796,738.424438 
	C385.981171,738.424438 371.506805,738.424438 356.568024,738.424438 
	C357.455780,736.218018 358.354034,734.451965 358.866882,732.580322 
	C359.383789,730.693665 359.746796,728.699158 359.721619,726.757874 
	C359.709381,725.813965 358.838501,724.402710 358.020782,724.095154 
	C357.332977,723.836548 355.862732,724.627014 355.252869,725.373230 
	C352.739777,728.447998 350.289124,731.592712 348.065704,734.880859 
	C345.009613,739.400391 341.802765,740.249756 335.935638,737.394409 
	C336.986084,735.372009 338.248718,733.432068 339.003021,731.311279 
	C339.482880,729.962280 339.208252,728.344788 339.271912,726.847717 
	C337.891205,727.073181 336.208801,726.874207 335.185028,727.601807 
	C331.798981,730.008423 328.215851,732.373413 325.536804,735.470886 
	C323.002899,738.400635 320.237030,739.097595 316.762848,739.005249 
	C303.120850,738.642456 289.476135,738.018982 275.834564,738.069763 
	C218.527496,738.282959 161.221039,738.683044 103.915169,739.118835 
	C101.319878,739.138550 98.732277,740.170044 96.141098,740.730347 
	C96.134338,741.544495 96.127571,742.358582 96.120811,743.172729 
	C100.182312,743.766479 104.231873,744.763123 108.307381,744.883911 
	C125.613564,745.396301 142.928528,745.986755 160.238297,745.931458 
	C206.881638,745.782532 253.523956,745.312500 300.166748,744.983398 
	C308.624573,744.923706 317.084473,745.024048 325.540558,744.881348 
	C338.321411,744.665833 351.100861,744.016785 363.878967,744.065308 
	C384.496765,744.143555 405.112091,744.823303 425.730011,744.918518 
	C461.852142,745.085388 497.975403,745.016846 534.098206,745.019287 
	C570.554382,745.021667 607.011169,744.866028 643.466614,745.019348 
	C666.388489,745.115784 689.307739,745.843872 712.229492,745.923950 
	C726.706299,745.974548 741.184509,745.304199 755.663635,745.044373 
	C777.307190,744.655884 798.953003,744.011108 820.596313,744.065063 
	C875.072632,744.200867 929.548218,744.650635 984.023865,745.004883 
	C1031.000122,745.310364 1077.975830,745.839539 1124.952393,745.919128 
	C1153.762207,745.968018 1182.573486,745.381775 1211.383423,745.033875 
	C1236.861450,744.726074 1262.338013,744.205994 1287.816650,744.069519 
	C1301.254639,743.997559 1314.696167,744.768188 1328.135620,744.753967 
	C1343.921997,744.737305 1359.707764,744.086243 1375.493774,744.081360 
	C1387.138672,744.077698 1398.782959,744.912415 1410.428955,744.950562 
	C1447.718018,745.072815 1485.007690,744.998901 1522.297119,744.999512 
	C1549.128784,745.000000 1575.960693,745.046875 1602.792114,744.951965 
	C1607.435425,744.935547 1612.086792,744.410034 1616.712769,743.916443 
	C1618.141724,743.764038 1619.498657,742.937927 1620.888550,742.420288 
	C1620.867188,741.795837 1620.845947,741.171448 1620.824585,740.547058 
	C1617.714478,740.036621 1614.608887,739.119507 1611.493530,739.085144 
	C1596.875488,738.923523 1582.253662,738.888672 1567.635254,739.025085 
	C1542.657837,739.258057 1517.682495,739.838379 1492.705200,739.909729 
	C1477.744873,739.952454 1462.783936,739.116089 1447.820801,739.012146 
	C1424.990112,738.853516 1402.157349,738.986816 1379.325439,738.996033 
	C1377.531738,738.996765 1375.738037,738.996155 1373.944336,738.996155 
	C1374.523804,738.197754 1375.131836,738.057800 1375.745850,738.022156 
	C1390.497070,737.164062 1403.003784,725.176147 1404.003906,710.667114 
	C1404.529785,703.037598 1404.817261,695.382751 1404.900146,687.735962 
	C1404.933960,684.619995 1405.843994,682.892212 1408.498291,680.892395 
	C1412.485107,677.888794 1416.569458,674.160278 1418.717407,669.805420 
	C1420.970703,665.236877 1421.576050,659.598022 1421.861084,654.370239 
	C1422.440796,643.735535 1422.563110,633.057556 1418.523438,622.831238 
	C1417.631104,620.572449 1417.163696,618.326965 1420.366211,616.565491 
	C1430.123657,611.198608 1435.991943,597.728271 1434.805664,586.245056 
	C1433.184814,570.556213 1426.148926,558.297974 1413.579590,548.814575 
	C1406.421021,543.413513 1399.384399,537.708496 1393.060425,531.374023 
	C1381.074585,519.368530 1369.867920,506.585541 1357.886841,494.575073 
	C1351.548462,488.221161 1344.223267,483.182312 1335.094360,480.817047 
	C1319.166260,476.690186 1304.732910,480.395325 1290.856201,487.894897 
	C1278.155884,494.758789 1272.919678,506.768433 1275.975952,521.182373 
	C1276.180420,522.146057 1276.363525,523.167480 1276.268433,524.133667 
	C1274.273193,544.389954 1284.963745,559.734924 1296.080811,574.818909 
	C1298.467896,578.057739 1300.276123,580.355713 1295.749268,583.112366 
	C1294.424072,583.919312 1293.465576,585.557861 1292.696899,587.005432 
	C1290.644531,590.870544 1287.528198,592.092041 1283.245728,592.058350 
	C1264.414795,591.910278 1245.581787,591.986206 1226.749634,592.005554 
	C1208.184326,592.024658 1204.162964,597.853149 1209.036133,615.969666 
	C1213.570679,632.827026 1217.427856,649.871216 1221.271606,666.903503 
	C1221.736206,668.961975 1220.965576,672.088684 1219.570679,673.654114 
	C1206.861450,687.917969 1205.396362,703.812439 1211.885864,721.124451 
	C1215.268311,730.148132 1221.810791,733.635620 1231.323853,731.321472 
	C1232.062378,731.141907 1233.068726,731.130127 1233.674561,731.496521 
	C1236.678955,733.313782 1239.590698,735.284302 1243.713257,737.967712 
	C1239.936890,737.967712 1237.623901,737.967712 1234.372070,737.967896 
M551.361755,664.194275 
	C546.545410,659.310486 544.704956,659.401001 539.681946,663.746033 
	C535.310608,667.527222 531.029053,671.877258 525.903870,674.208679 
	C518.872681,677.407227 510.942261,679.999146 503.508911,675.011536 
	C499.985840,672.647705 497.127472,669.239502 494.149872,666.130249 
	C490.594238,662.417419 487.682892,657.947876 483.701569,654.809326 
	C472.871124,646.271118 460.278412,642.064514 446.575745,640.303894 
	C426.419830,637.714233 408.505066,642.469299 394.526215,657.123535 
	C385.519958,666.564880 378.146698,677.654663 370.680573,688.447754 
	C363.897034,698.253967 352.286072,701.469543 342.051239,695.333496 
	C339.486115,693.795593 337.036316,692.062073 334.561981,690.376709 
	C325.251709,684.034668 314.842377,681.472961 303.759125,682.189819 
	C292.384949,682.925537 285.579620,690.736084 284.206665,703.723633 
	C283.405975,711.297852 289.801544,720.187195 298.307739,722.764404 
	C300.028229,723.285706 302.171478,722.411865 304.119812,722.181213 
	C303.132446,720.655457 302.248627,719.046448 301.115479,717.638000 
	C300.519897,716.897766 299.297729,716.667297 298.685822,715.933655 
	C295.856720,712.541748 291.673828,709.425781 290.686249,705.524841 
	C288.483398,696.824097 297.581940,686.889282 306.739410,687.323853 
	C316.854614,687.803894 326.768707,689.937317 334.707855,696.645691 
	C342.311615,703.070801 350.930328,705.318665 360.292969,703.751526 
	C366.278107,702.749634 373.231323,702.258057 377.105316,696.574707 
	C383.190613,687.647278 388.203583,677.964539 394.576874,669.265686 
	C399.314819,662.798828 404.603943,656.003540 411.199738,651.776672 
	C426.820770,641.765991 443.868439,643.058411 460.615417,649.401245 
	C472.383453,653.858276 480.761322,662.638733 488.290497,672.391418 
	C498.462402,685.567139 517.407959,689.231201 530.085938,680.295410 
	C534.116394,677.454590 537.424988,673.595154 541.093323,670.233887 
	C545.768616,665.950073 546.179871,665.811951 548.394531,671.610168 
	C551.568604,679.919983 556.395508,685.812805 565.522705,687.979431 
	C572.056702,689.530457 576.888123,687.655396 581.070190,682.875793 
	C582.193726,681.591797 583.414124,680.392639 585.619568,678.070435 
	C585.619568,686.398193 585.478027,693.138916 585.732666,699.864685 
	C585.786987,701.299438 587.280823,702.679749 588.111450,704.085144 
	C589.326782,703.012939 591.554138,701.976501 591.593445,700.862793 
	C591.851440,693.556702 592.239502,686.162842 591.386475,678.939148 
	C590.700012,673.125916 584.286682,671.102722 580.550720,675.306213 
	C576.031616,680.390747 571.358582,680.845154 564.946594,679.475037 
	C559.686584,678.351135 557.333618,675.518127 555.302673,671.388489 
	C554.202637,669.151794 552.950867,666.989746 551.361755,664.194275 
M302.509583,728.572937 
	C301.505585,730.228882 299.362427,732.301636 299.778290,733.437988 
	C300.330841,734.947815 302.885956,736.663269 304.568115,736.650391 
	C310.273651,736.606689 314.953003,733.813904 318.617340,729.489563 
	C319.109070,728.909302 319.254517,727.217285 318.851929,726.876282 
	C318.125702,726.261169 316.813171,725.941895 315.834625,726.089539 
	C311.638214,726.722961 307.474274,727.571411 302.509583,728.572937 
M524.214539,711.192078 
	C520.262573,712.180603 516.286560,713.087158 512.380493,714.232117 
	C511.666595,714.441345 510.644226,715.811646 510.804871,716.311523 
	C511.102173,717.236755 512.072815,718.447571 512.931580,718.601990 
	C516.319580,719.211060 519.794250,719.844604 523.192627,719.659363 
	C524.709290,719.576782 527.103394,717.737671 527.322021,716.404297 
	C527.571533,714.882324 525.841553,713.035828 524.214539,711.192078 
M598.187500,722.431335 
	C594.758850,721.406189 591.371887,719.887817 587.881592,719.593384 
	C586.441711,719.471924 583.862854,721.727417 583.419189,723.345337 
	C582.612671,726.286133 584.909424,728.441589 587.727295,727.697021 
	C591.351807,726.739258 594.684753,724.677856 598.187500,722.431335 
M512.720581,696.496826 
	C514.211731,701.714417 518.799561,702.485168 523.082947,703.352234 
	C524.040955,703.546082 526.050171,702.169434 526.337158,701.162720 
	C526.718567,699.825378 526.318665,697.829285 525.483948,696.671753 
	C523.749084,694.265747 515.787842,693.961914 512.720581,696.496826 
M582.272522,713.791382 
	C585.858826,717.109558 589.436157,715.178528 592.805969,713.492493 
	C593.460938,713.164856 593.690308,710.176086 593.394653,710.045166 
	C591.021240,708.995178 588.300354,707.429321 586.039734,707.863708 
	C584.419495,708.175110 583.344421,711.323608 582.272522,713.791382 
z"/>
<path fill="#2D1909" opacity="1.000000" stroke="none" 
	d="
M1234.841553,737.967773 
	C1237.623901,737.967712 1239.936890,737.967712 1243.713257,737.967712 
	C1239.590698,735.284302 1236.678955,733.313782 1233.674561,731.496521 
	C1233.068726,731.130127 1232.062378,731.141907 1231.323853,731.321472 
	C1221.810791,733.635620 1215.268311,730.148132 1211.885864,721.124451 
	C1205.396362,703.812439 1206.861450,687.917969 1219.570679,673.654114 
	C1220.965576,672.088684 1221.736206,668.961975 1221.271606,666.903503 
	C1217.427856,649.871216 1213.570679,632.827026 1209.036133,615.969666 
	C1204.162964,597.853149 1208.184326,592.024658 1226.749634,592.005554 
	C1245.581787,591.986206 1264.414795,591.910278 1283.245728,592.058350 
	C1287.528198,592.092041 1290.644531,590.870544 1292.696899,587.005432 
	C1293.465576,585.557861 1294.424072,583.919312 1295.749268,583.112366 
	C1300.276123,580.355713 1298.467896,578.057739 1296.080811,574.818909 
	C1284.963745,559.734924 1274.273193,544.389954 1276.268433,524.133667 
	C1276.363525,523.167480 1276.180420,522.146057 1275.975952,521.182373 
	C1272.919678,506.768433 1278.155884,494.758789 1290.856201,487.894897 
	C1304.732910,480.395325 1319.166260,476.690186 1335.094360,480.817047 
	C1344.223267,483.182312 1351.548462,488.221161 1357.886841,494.575073 
	C1369.867920,506.585541 1381.074585,519.368530 1393.060425,531.374023 
	C1399.384399,537.708496 1406.421021,543.413513 1413.579590,548.814575 
	C1426.148926,558.297974 1433.184814,570.556213 1434.805664,586.245056 
	C1435.991943,597.728271 1430.123657,611.198608 1420.366211,616.565491 
	C1417.163696,618.326965 1417.631104,620.572449 1418.523438,622.831238 
	C1422.563110,633.057556 1422.440796,643.735535 1421.861084,654.370239 
	C1421.576050,659.598022 1420.970703,665.236877 1418.717407,669.805420 
	C1416.569458,674.160278 1412.485107,677.888794 1408.498291,680.892395 
	C1405.843994,682.892212 1404.933960,684.619995 1404.900146,687.735962 
	C1404.817261,695.382751 1404.529785,703.037598 1404.003906,710.667114 
	C1403.003784,725.176147 1390.497070,737.164062 1375.745850,738.022156 
	C1375.131836,738.057800 1374.523804,738.197754 1373.944336,738.996155 
	C1375.738037,738.996155 1377.531738,738.996765 1379.325439,738.996033 
	C1402.157349,738.986816 1424.990112,738.853516 1447.820801,739.012146 
	C1462.783936,739.116089 1477.744873,739.952454 1492.705200,739.909729 
	C1517.682495,739.838379 1542.657837,739.258057 1567.635254,739.025085 
	C1582.253662,738.888672 1596.875488,738.923523 1611.493530,739.085144 
	C1614.608887,739.119507 1617.714478,740.036621 1620.824585,740.547058 
	C1620.845947,741.171448 1620.867188,741.795837 1620.888550,742.420288 
	C1619.498657,742.937927 1618.141724,743.764038 1616.712769,743.916443 
	C1612.086792,744.410034 1607.435425,744.935547 1602.792114,744.951965 
	C1575.960693,745.046875 1549.128784,745.000000 1522.297119,744.999512 
	C1485.007690,744.998901 1447.718018,745.072815 1410.428955,744.950562 
	C1398.782959,744.912415 1387.138672,744.077698 1375.493774,744.081360 
	C1359.707764,744.086243 1343.921997,744.737305 1328.135620,744.753967 
	C1314.696167,744.768188 1301.254639,743.997559 1287.816650,744.069519 
	C1262.338013,744.205994 1236.861450,744.726074 1211.383423,745.033875 
	C1182.573486,745.381775 1153.762207,745.968018 1124.952393,745.919128 
	C1077.975830,745.839539 1031.000122,745.310364 984.023865,745.004883 
	C929.548218,744.650635 875.072632,744.200867 820.596313,744.065063 
	C798.953003,744.011108 777.307190,744.655884 755.663635,745.044373 
	C741.184509,745.304199 726.706299,745.974548 712.229492,745.923950 
	C689.307739,745.843872 666.388489,745.115784 643.466614,745.019348 
	C607.011169,744.866028 570.554382,745.021667 534.098206,745.019287 
	C497.975403,745.016846 461.852142,745.085388 425.730011,744.918518 
	C405.112091,744.823303 384.496765,744.143555 363.878967,744.065308 
	C351.100861,744.016785 338.321411,744.665833 325.540558,744.881348 
	C317.084473,745.024048 308.624573,744.923706 300.166748,744.983398 
	C253.523956,745.312500 206.881638,745.782532 160.238297,745.931458 
	C142.928528,745.986755 125.613564,745.396301 108.307381,744.883911 
	C104.231873,744.763123 100.182312,743.766479 96.120811,743.172729 
	C96.127571,742.358582 96.134338,741.544495 96.141098,740.730347 
	C98.732277,740.170044 101.319878,739.138550 103.915169,739.118835 
	C161.221039,738.683044 218.527496,738.282959 275.834564,738.069763 
	C289.476135,738.018982 303.120850,738.642456 316.762848,739.005249 
	C320.237030,739.097595 323.002899,738.400635 325.536804,735.470886 
	C328.215851,732.373413 331.798981,730.008423 335.185028,727.601807 
	C336.208801,726.874207 337.891205,727.073181 339.271912,726.847717 
	C339.208252,728.344788 339.482880,729.962280 339.003021,731.311279 
	C338.248718,733.432068 336.986084,735.372009 335.935638,737.394409 
	C341.802765,740.249756 345.009613,739.400391 348.065704,734.880859 
	C350.289124,731.592712 352.739777,728.447998 355.252869,725.373230 
	C355.862732,724.627014 357.332977,723.836548 358.020782,724.095154 
	C358.838501,724.402710 359.709381,725.813965 359.721619,726.757874 
	C359.746796,728.699158 359.383789,730.693665 358.866882,732.580322 
	C358.354034,734.451965 357.455780,736.218018 356.568024,738.424438 
	C371.506805,738.424438 385.981171,738.424438 401.371796,738.424438 
	C400.299316,736.356934 399.668518,735.096619 398.997925,733.857849 
	C397.810303,731.663940 396.044617,729.602051 395.543243,727.265503 
	C394.973785,724.611511 395.526031,721.716919 395.590668,718.926880 
	C397.302429,720.599243 399.097687,722.195374 400.708618,723.959839 
	C404.060303,727.630981 407.055420,731.666931 410.664093,735.055603 
	C417.531006,741.503662 425.973358,738.414673 434.363037,737.758789 
	C432.513336,736.287903 430.627960,734.859131 428.825500,733.332458 
	C427.438080,732.157349 425.704803,731.089478 424.924805,729.564880 
	C423.553406,726.884583 422.793457,723.891541 421.777435,721.029419 
	C424.384735,720.341858 426.965607,719.194580 429.603760,719.042725 
	C444.646759,718.177002 453.490112,704.829956 447.992096,691.008667 
	C446.884033,688.223083 445.467133,685.526917 444.698792,682.654236 
	C444.336365,681.299316 445.171326,679.624084 445.463745,678.093994 
	C446.922119,678.527344 448.713928,678.560547 449.787689,679.455383 
	C461.657104,689.346497 460.554291,707.329590 447.243103,716.692993 
	C442.184601,720.251160 436.380524,722.749451 430.308899,726.062195 
	C430.445618,725.378418 430.232788,725.917236 430.338470,725.989258 
	C438.060425,731.257690 444.279785,739.059265 454.990601,739.067322 
	C470.618988,739.079041 486.247559,739.918091 501.874939,739.884766 
	C522.018738,739.841736 542.162842,739.350342 562.303711,738.909363 
	C568.160583,738.781067 573.794006,730.344910 571.532104,725.059082 
	C571.104370,724.059570 568.531189,723.120422 567.311157,723.459656 
	C560.447266,725.368347 553.818359,728.345825 546.863892,729.632568 
	C541.482910,730.628174 535.731812,729.826416 530.170471,729.450500 
	C529.209656,729.385559 527.644287,727.429749 527.683044,726.397156 
	C527.723450,725.322815 529.253906,723.565125 530.333252,723.397583 
	C534.905884,722.687744 539.575378,721.961121 544.168152,722.166138 
	C551.655457,722.500305 558.678162,721.564087 565.475281,718.202576 
	C572.107605,714.922607 577.718811,718.366028 577.851746,725.782898 
	C577.924683,729.853943 577.104370,733.940979 576.634338,738.533203 
	C578.483337,738.692200 580.250793,738.970703 582.019043,738.975952 
	C594.638916,739.013184 607.259033,739.018860 619.878967,738.983276 
	C625.981018,738.966125 635.000488,731.970947 636.288025,725.958801 
	C636.654785,724.246155 635.775208,722.266602 635.467163,720.409485 
	C633.779358,720.767334 631.869141,720.741943 630.451416,721.565002 
	C627.733154,723.143127 625.183289,725.069702 622.763794,727.091370 
	C618.095581,730.992126 612.857239,730.411194 607.611938,729.102966 
	C606.477661,728.820068 604.866699,727.160645 604.927307,726.229797 
	C604.998596,725.135376 606.462708,723.626709 607.650452,723.191162 
	C615.885315,720.172302 624.157043,717.233582 632.516052,714.581604 
	C637.586609,712.972961 642.121887,717.040161 642.116211,723.033264 
	C642.113892,725.494629 641.741455,728.027954 641.068420,730.395203 
	C640.454224,732.555847 639.206421,734.536377 637.876221,737.365356 
	C640.425415,737.617737 642.317261,738.007996 644.197205,737.956970 
	C653.676697,737.699829 663.154724,737.004333 672.630310,737.051575 
	C714.605530,737.260864 756.579895,737.656311 798.554260,738.014709 
	C834.530029,738.321899 870.504883,738.840271 906.481079,738.959045 
	C955.807556,739.121887 1005.135437,739.125305 1054.461914,738.959534 
	C1114.432373,738.758057 1174.402100,738.309570 1234.841553,737.967773 
M1304.036011,681.969727 
	C1294.553101,681.969727 1285.070190,681.969727 1275.587402,681.969727 
	C1275.539917,682.422302 1275.492432,682.874817 1275.444946,683.327393 
	C1281.236328,685.804993 1286.994141,688.367065 1292.849365,690.683167 
	C1293.918945,691.106262 1295.783813,691.004822 1296.596802,690.325684 
	C1299.612915,687.806030 1302.342896,684.943787 1305.423828,682.145386 
	C1305.553711,681.944275 1305.683716,681.743164 1305.813721,681.541992 
	C1305.532227,681.678833 1305.250854,681.815735 1304.036011,681.969727 
M1349.998047,558.418213 
	C1348.141235,552.388184 1350.110596,547.710938 1354.942505,543.914795 
	C1357.761230,541.700256 1358.697632,538.776917 1356.888672,535.508667 
	C1355.044556,532.177063 1352.022217,533.049805 1349.385620,534.105652 
	C1338.472290,538.476318 1327.045166,539.036682 1315.514893,538.997009 
	C1313.431641,538.989868 1311.348511,538.996033 1310.275879,538.996033 
	C1311.290039,544.719666 1312.452148,549.767761 1313.025146,554.881897 
	C1313.803101,561.825500 1313.879761,562.029419 1320.764038,563.261169 
	C1321.988892,563.480347 1323.014648,564.812195 1324.132202,565.630127 
	C1323.306763,566.726685 1322.707275,568.291870 1321.608521,568.821594 
	C1319.383423,569.894470 1316.904419,570.465149 1314.500122,571.135681 
	C1310.509644,572.248718 1308.440186,570.885071 1308.152100,566.647522 
	C1307.892944,562.834656 1308.037354,558.994934 1307.983276,555.167419 
	C1307.930054,551.388428 1306.640015,548.416443 1302.946167,546.707642 
	C1301.310547,545.951111 1299.771240,544.818542 1298.461060,543.570374 
	C1296.946655,542.127808 1294.945679,540.504211 1294.638794,538.705994 
	C1294.396118,537.284912 1296.395386,535.481079 1297.269897,534.057373 
	C1293.512573,530.830200 1289.632935,527.693298 1286.034790,524.261536 
	C1285.202637,523.467834 1285.332031,521.666016 1285.019043,520.328064 
	C1286.397095,520.138123 1287.990967,519.409546 1289.112793,519.859070 
	C1292.500366,521.216431 1295.948242,522.676819 1298.938232,524.729553 
	C1311.639893,533.449463 1325.773193,533.644287 1340.161743,531.751465 
	C1344.208984,531.219055 1348.032593,529.120056 1352.015381,527.929077 
	C1356.543579,526.574951 1359.869019,528.420349 1361.954224,532.429321 
	C1364.272217,536.885681 1363.076782,544.064209 1359.616455,547.815308 
	C1354.862915,552.968140 1354.511108,555.293579 1357.609131,561.084534 
	C1362.209717,569.684265 1366.260620,572.082947 1372.722900,571.697205 
	C1376.680176,571.461060 1381.094116,571.937866 1384.673462,573.519226 
	C1399.160522,579.919373 1408.498657,591.221069 1413.877197,605.998108 
	C1414.508179,607.731628 1415.880981,609.195068 1416.909912,610.783752 
	C1418.727295,609.463013 1420.998901,608.484375 1422.291016,606.768250 
	C1433.924927,591.316528 1426.492676,567.541748 1415.392334,558.198608 
	C1404.968994,549.425354 1394.509033,540.625854 1384.815308,531.076294 
	C1375.946899,522.339722 1368.543457,512.113892 1359.656128,503.399078 
	C1348.948730,492.899323 1336.484009,484.955872 1320.498047,487.178009 
	C1313.153931,488.198883 1305.747314,490.162201 1298.916260,493.010559 
	C1294.044189,495.041992 1289.210693,498.559937 1285.915405,502.663574 
	C1280.465088,509.450836 1279.529907,517.324402 1282.731079,526.040222 
	C1287.420044,538.807373 1290.621094,552.120728 1295.303955,564.890442 
	C1299.792603,577.131226 1315.870850,584.531128 1327.361450,579.765869 
	C1331.947144,577.864136 1335.562988,573.704956 1339.805176,570.847778 
	C1341.194702,569.911987 1343.167603,569.842529 1344.873779,569.376953 
	C1344.733398,571.202942 1345.239014,573.463257 1344.349854,574.785950 
	C1337.515503,584.952148 1324.330933,589.477478 1312.592651,585.997925 
	C1306.253418,584.118774 1305.050293,584.595276 1301.351196,590.450378 
	C1312.154785,592.734375 1312.729736,593.499268 1315.036621,604.431885 
	C1316.890259,613.216980 1319.137939,621.919067 1321.218872,630.656067 
	C1321.841919,633.271667 1323.220581,634.485596 1325.892456,633.016174 
	C1334.122925,628.489685 1342.694946,628.374390 1351.546143,630.815430 
	C1357.216553,632.379211 1362.952881,633.703979 1368.984863,635.217529 
	C1369.215088,632.371826 1369.431274,629.935425 1369.604248,627.495972 
	C1369.780762,625.005859 1369.644897,622.454651 1370.164185,620.041748 
	C1370.499756,618.482727 1371.767334,617.124329 1372.617188,615.676025 
	C1373.706543,616.923279 1375.416138,618.017639 1375.768433,619.446594 
	C1376.800903,623.633667 1377.581421,627.932129 1377.906982,632.228882 
	C1378.173584,635.745239 1379.427246,638.123901 1382.521851,639.879822 
	C1384.956543,641.261108 1387.520264,642.853455 1389.189941,645.002319 
	C1390.463379,646.641113 1390.425415,649.298950 1390.970825,651.503479 
	C1388.679443,651.451050 1386.090576,652.062378 1384.162842,651.198486 
	C1380.861694,649.719177 1378.013672,647.253174 1374.895752,645.330383 
	C1373.438232,644.431519 1371.795044,643.833740 1369.021851,642.527710 
	C1369.328125,646.315308 1369.506958,648.866638 1369.746094,651.412292 
	C1370.293457,657.241089 1368.014404,660.943909 1362.831665,660.782410 
	C1350.779297,660.406677 1341.785400,665.804749 1334.035400,674.343384 
	C1332.659424,675.859558 1330.598999,676.839233 1328.716309,677.793823 
	C1324.342529,680.011353 1318.803589,681.043274 1315.663940,684.372864 
	C1306.419556,694.176514 1295.390137,700.817322 1283.422119,706.564575 
	C1275.802368,710.223694 1268.620605,711.877380 1260.458130,708.745422 
	C1253.640747,706.129578 1246.685425,703.600403 1239.565308,702.114441 
	C1230.212891,700.162598 1226.136475,704.367371 1227.167603,713.926514 
	C1227.373535,715.835449 1228.121582,717.827454 1229.113892,719.485535 
	C1233.487427,726.793518 1240.414917,730.737854 1248.359375,732.737122 
	C1253.979492,734.151367 1259.793701,734.983459 1265.572754,735.541260 
	C1283.488647,737.270813 1301.285400,735.969727 1318.326782,730.231812 
	C1331.549194,725.779846 1344.202515,719.655029 1357.215088,714.544678 
	C1359.158569,713.781433 1361.685303,714.503967 1363.942261,714.539124 
	C1362.604980,716.252930 1361.601440,718.510010 1359.866089,719.575378 
	C1355.240723,722.414978 1350.300415,724.741821 1345.347046,727.345215 
	C1355.991699,731.476135 1367.126953,732.507080 1377.821289,730.535889 
	C1392.226807,727.880554 1399.836304,721.132812 1399.069702,706.910217 
	C1398.829590,702.455994 1399.825562,697.939087 1399.639771,693.476562 
	C1399.505127,690.243713 1399.025269,686.693054 1397.531982,683.910767 
	C1392.925903,675.328674 1386.309326,668.835938 1376.617798,665.892273 
	C1375.126221,665.439209 1374.127197,663.364990 1372.900391,662.040588 
	C1374.640869,661.429321 1376.369629,660.378113 1378.125122,660.331238 
	C1379.859863,660.285034 1381.898804,660.856201 1383.321533,661.848633 
	C1388.448853,665.425415 1393.270386,669.443298 1398.428467,672.971619 
	C1400.226196,674.201355 1403.188965,675.676514 1404.714355,674.999573 
	C1409.811646,672.737305 1413.918091,669.174744 1415.079712,663.097534 
	C1417.458496,650.652527 1416.802612,638.435120 1414.270752,626.003723 
	C1410.113037,605.589233 1399.409424,590.379211 1380.975342,580.731567 
	C1378.386230,579.376404 1375.387573,578.505737 1372.482544,578.104248 
	C1360.690552,576.474670 1352.613647,570.204102 1349.998047,558.418213 
M1308.256714,613.189514 
	C1307.947510,611.894897 1307.619019,610.604553 1307.332397,609.304993 
	C1305.062622,599.014893 1305.058838,599.239807 1294.342651,598.943542 
	C1280.064087,598.548889 1265.801514,597.525940 1251.522461,597.218384 
	C1240.896973,596.989502 1230.218872,596.982666 1219.635010,597.798096 
	C1212.251709,598.366882 1210.822510,601.004395 1212.691406,608.269775 
	C1214.593628,615.663879 1217.401489,622.830383 1219.194214,630.246033 
	C1222.160889,642.516785 1224.444824,654.952087 1227.379761,667.231201 
	C1229.171875,674.728882 1231.193237,676.060852 1238.932861,675.973328 
	C1263.709839,675.693054 1288.485840,675.321899 1313.262085,674.975830 
	C1314.257935,674.961914 1315.493408,675.192688 1316.196411,674.704041 
	C1317.559692,673.756531 1319.463989,672.496948 1319.653809,671.155640 
	C1320.229004,667.093140 1320.984375,662.720276 1320.074341,658.842712 
	C1316.546875,643.811768 1312.401001,628.926025 1308.256714,613.189514 
M1220.733643,720.510620 
	C1221.526489,721.679871 1222.319214,722.849060 1223.112061,724.018311 
	C1223.654785,721.660400 1223.128662,719.956482 1222.678589,718.232666 
	C1218.533813,702.361267 1227.769531,692.390320 1243.772217,695.804871 
	C1248.934814,696.906433 1253.817749,699.257446 1258.909546,700.763123 
	C1268.443237,703.582031 1277.162964,702.080933 1285.144409,695.310730 
	C1271.354492,687.958374 1258.322632,679.532715 1241.875000,681.964111 
	C1240.082397,682.229065 1238.182861,682.223633 1236.391602,681.953918 
	C1232.016113,681.294983 1227.675171,680.407410 1223.320312,679.611938 
	C1223.145386,679.009705 1222.970581,678.407410 1222.795654,677.805115 
	C1221.335571,680.302368 1219.459595,682.648376 1218.487183,685.322937 
	C1214.220337,697.058960 1216.190186,708.538757 1220.733643,720.510620 
M1325.312134,642.496338 
	C1325.215210,643.978638 1325.118164,645.460999 1325.021240,646.943298 
	C1325.734131,647.430237 1326.447144,647.917236 1327.160156,648.404175 
	C1328.313599,646.570251 1329.223755,644.496765 1330.708618,642.989258 
	C1331.650513,642.033020 1333.447632,641.919128 1334.861206,641.427490 
	C1334.777100,642.946777 1335.072266,644.619385 1334.532715,645.954590 
	C1333.281494,649.050598 1331.626709,651.983582 1330.135620,654.982666 
	C1330.518921,655.250549 1330.902100,655.518433 1331.285400,655.786377 
	C1333.669434,653.917725 1335.931152,651.849365 1338.497803,650.279297 
	C1339.518188,649.655151 1341.708008,649.589111 1342.458862,650.269531 
	C1343.166504,650.910583 1343.051880,652.991699 1342.640015,654.218018 
	C1341.905884,656.403381 1340.675049,658.421875 1339.711792,660.387817 
	C1347.303101,658.374939 1354.289917,656.660828 1361.157837,654.558716 
	C1362.245239,654.225952 1363.480469,652.145569 1363.485229,650.868896 
	C1363.515869,642.584106 1359.248779,637.703003 1351.132202,636.332947 
	C1349.169312,636.001709 1347.176514,635.851074 1345.201294,635.589233 
	C1337.678955,634.592041 1331.053711,636.318909 1325.312134,642.496338 
M1314.810059,738.504333 
	C1327.878052,738.504333 1340.946045,738.504333 1355.245117,738.504333 
	C1348.425293,736.627686 1342.866577,734.902893 1337.206787,733.627075 
	C1334.565552,733.031677 1331.575195,732.686462 1329.012695,733.319153 
	C1324.209473,734.505371 1319.602295,736.485596 1314.810059,738.504333 
M1336.460693,663.974121 
	C1336.460693,663.974121 1336.541748,663.946716 1336.460693,663.974121 
M1227.018066,726.421814 
	C1227.018066,726.421814 1227.047119,726.502747 1227.018066,726.421814 
z"/>
<path fill="#2D1909" opacity="1.000000" stroke="none" 
	d="
M551.564697,664.494141 
	C552.950867,666.989746 554.202637,669.151794 555.302673,671.388489 
	C557.333618,675.518127 559.686584,678.351135 564.946594,679.475037 
	C571.358582,680.845154 576.031616,680.390747 580.550720,675.306213 
	C584.286682,671.102722 590.700012,673.125916 591.386475,678.939148 
	C592.239502,686.162842 591.851440,693.556702 591.593445,700.862793 
	C591.554138,701.976501 589.326782,703.012939 588.111450,704.085144 
	C587.280823,702.679749 585.786987,701.299438 585.732666,699.864685 
	C585.478027,693.138916 585.619568,686.398193 585.619568,678.070435 
	C583.414124,680.392639 582.193726,681.591797 581.070190,682.875793 
	C576.888123,687.655396 572.056702,689.530457 565.522705,687.979431 
	C556.395508,685.812805 551.568604,679.919983 548.394531,671.610168 
	C546.179871,665.811951 545.768616,665.950073 541.093323,670.233887 
	C537.424988,673.595154 534.116394,677.454590 530.085938,680.295410 
	C517.407959,689.231201 498.462402,685.567139 488.290497,672.391418 
	C480.761322,662.638733 472.383453,653.858276 460.615417,649.401245 
	C443.868439,643.058411 426.820770,641.765991 411.199738,651.776672 
	C404.603943,656.003540 399.314819,662.798828 394.576874,669.265686 
	C388.203583,677.964539 383.190613,687.647278 377.105316,696.574707 
	C373.231323,702.258057 366.278107,702.749634 360.292969,703.751526 
	C350.930328,705.318665 342.311615,703.070801 334.707855,696.645691 
	C326.768707,689.937317 316.854614,687.803894 306.739410,687.323853 
	C297.581940,686.889282 288.483398,696.824097 290.686249,705.524841 
	C291.673828,709.425781 295.856720,712.541748 298.685822,715.933655 
	C299.297729,716.667297 300.519897,716.897766 301.115479,717.638000 
	C302.248627,719.046448 303.132446,720.655457 304.119812,722.181213 
	C302.171478,722.411865 300.028229,723.285706 298.307739,722.764404 
	C289.801544,720.187195 283.405975,711.297852 284.206665,703.723633 
	C285.579620,690.736084 292.384949,682.925537 303.759125,682.189819 
	C314.842377,681.472961 325.251709,684.034668 334.561981,690.376709 
	C337.036316,692.062073 339.486115,693.795593 342.051239,695.333496 
	C352.286072,701.469543 363.897034,698.253967 370.680573,688.447754 
	C378.146698,677.654663 385.519958,666.564880 394.526215,657.123535 
	C408.505066,642.469299 426.419830,637.714233 446.575745,640.303894 
	C460.278412,642.064514 472.871124,646.271118 483.701569,654.809326 
	C487.682892,657.947876 490.594238,662.417419 494.149872,666.130249 
	C497.127472,669.239502 499.985840,672.647705 503.508911,675.011536 
	C510.942261,679.999146 518.872681,677.407227 525.903870,674.208679 
	C531.029053,671.877258 535.310608,667.527222 539.681946,663.746033 
	C544.704956,659.401001 546.545410,659.310486 551.564697,664.494141 
z"/>
<path fill="#2D1909" opacity="1.000000" stroke="none" 
	d="
M302.904053,728.457214 
	C307.474274,727.571411 311.638214,726.722961 315.834625,726.089539 
	C316.813171,725.941895 318.125702,726.261169 318.851929,726.876282 
	C319.254517,727.217285 319.109070,728.909302 318.617340,729.489563 
	C314.953003,733.813904 310.273651,736.606689 304.568115,736.650391 
	C302.885956,736.663269 300.330841,734.947815 299.778290,733.437988 
	C299.362427,732.301636 301.505585,730.228882 302.904053,728.457214 
z"/>
<path fill="#2D1909" opacity="1.000000" stroke="none" 
	d="
M524.593140,711.261230 
	C525.841553,713.035828 527.571533,714.882324 527.322021,716.404297 
	C527.103394,717.737671 524.709290,719.576782 523.192627,719.659363 
	C519.794250,719.844604 516.319580,719.211060 512.931580,718.601990 
	C512.072815,718.447571 511.102173,717.236755 510.804871,716.311523 
	C510.644226,715.811646 511.666595,714.441345 512.380493,714.232117 
	C516.286560,713.087158 520.262573,712.180603 524.593140,711.261230 
z"/>
<path fill="#2D1909" opacity="1.000000" stroke="none" 
	d="
M598.165405,722.761597 
	C594.684753,724.677856 591.351807,726.739258 587.727295,727.697021 
	C584.909424,728.441589 582.612671,726.286133 583.419189,723.345337 
	C583.862854,721.727417 586.441711,719.471924 587.881592,719.593384 
	C591.371887,719.887817 594.758850,721.406189 598.165405,722.761597 
z"/>
<path fill="#2D1909" opacity="1.000000" stroke="none" 
	d="
M512.810791,696.180603 
	C515.787842,693.961914 523.749084,694.265747 525.483948,696.671753 
	C526.318665,697.829285 526.718567,699.825378 526.337158,701.162720 
	C526.050171,702.169434 524.040955,703.546082 523.082947,703.352234 
	C518.799561,702.485168 514.211731,701.714417 512.810791,696.180603 
z"/>
<path fill="#2D1909" opacity="1.000000" stroke="none" 
	d="
M582.149292,713.498901 
	C583.344421,711.323608 584.419495,708.175110 586.039734,707.863708 
	C588.300354,707.429321 591.021240,708.995178 593.394653,710.045166 
	C593.690308,710.176086 593.460938,713.164856 592.805969,713.492493 
	C589.436157,715.178528 585.858826,717.109558 582.149292,713.498901 
z"/>
<path fill="#000000" opacity="1.000000" stroke="none" 
	d="
M1350.064453,558.817810 
	C1352.613647,570.204102 1360.690552,576.474670 1372.482544,578.104248 
	C1375.387573,578.505737 1378.386230,579.376404 1380.975342,580.731567 
	C1399.409424,590.379211 1410.113037,605.589233 1414.270752,626.003723 
	C1416.802612,638.435120 1417.458496,650.652527 1415.079712,663.097534 
	C1413.918091,669.174744 1409.811646,672.737305 1404.714355,674.999573 
	C1403.188965,675.676514 1400.226196,674.201355 1398.428467,672.971619 
	C1393.270386,669.443298 1388.448853,665.425415 1383.321533,661.848633 
	C1381.898804,660.856201 1379.859863,660.285034 1378.125122,660.331238 
	C1376.369629,660.378113 1374.640869,661.429321 1372.900391,662.040527 
	C1374.127197,663.364990 1375.126221,665.439209 1376.617798,665.892273 
	C1386.309326,668.835938 1392.925903,675.328674 1397.531982,683.910767 
	C1399.025269,686.693054 1399.505127,690.243713 1399.639771,693.476562 
	C1399.825562,697.939087 1398.829590,702.455994 1399.069702,706.910217 
	C1399.836304,721.132812 1392.226807,727.880554 1377.821289,730.535889 
	C1367.126953,732.507080 1355.991699,731.476135 1345.347046,727.345215 
	C1350.300415,724.741821 1355.240723,722.414978 1359.866089,719.575378 
	C1361.601440,718.510010 1362.604980,716.252930 1363.942261,714.539185 
	C1361.685303,714.503967 1359.158569,713.781433 1357.215088,714.544678 
	C1344.202515,719.655029 1331.549194,725.779846 1318.326782,730.231812 
	C1301.285400,735.969727 1283.488647,737.270813 1265.572754,735.541260 
	C1259.793701,734.983459 1253.979492,734.151367 1248.359375,732.737122 
	C1240.414917,730.737854 1233.487427,726.793518 1229.113892,719.485535 
	C1228.121582,717.827454 1227.373535,715.835449 1227.167603,713.926514 
	C1226.136475,704.367371 1230.212891,700.162598 1239.565308,702.114441 
	C1246.685425,703.600403 1253.640747,706.129578 1260.458130,708.745422 
	C1268.620605,711.877380 1275.802368,710.223694 1283.422119,706.564575 
	C1295.390137,700.817322 1306.419556,694.176514 1315.663940,684.372864 
	C1318.803589,681.043274 1324.342529,680.011353 1328.716309,677.793823 
	C1330.598999,676.839233 1332.659424,675.859558 1334.035400,674.343384 
	C1341.785400,665.804749 1350.779297,660.406677 1362.831665,660.782410 
	C1368.014404,660.943909 1370.293457,657.241089 1369.746094,651.412292 
	C1369.506958,648.866638 1369.328125,646.315308 1369.021851,642.527710 
	C1371.795044,643.833740 1373.438232,644.431519 1374.895752,645.330383 
	C1378.013672,647.253174 1380.861694,649.719177 1384.162842,651.198486 
	C1386.090576,652.062378 1388.679443,651.451050 1390.970947,651.503479 
	C1390.425415,649.298950 1390.463379,646.641113 1389.189941,645.002319 
	C1387.520264,642.853455 1384.956543,641.261108 1382.521851,639.879822 
	C1379.427246,638.123901 1378.173584,635.745239 1377.906982,632.228882 
	C1377.581421,627.932129 1376.800903,623.633667 1375.768433,619.446594 
	C1375.416138,618.017639 1373.706543,616.923279 1372.617188,615.676025 
	C1371.767334,617.124329 1370.499756,618.482727 1370.164185,620.041748 
	C1369.644897,622.454651 1369.780762,625.005859 1369.604248,627.495972 
	C1369.431274,629.935425 1369.215088,632.371826 1368.984863,635.217529 
	C1362.952881,633.703979 1357.216553,632.379211 1351.546143,630.815430 
	C1342.694946,628.374390 1334.122925,628.489685 1325.892456,633.016174 
	C1323.220581,634.485596 1321.841919,633.271667 1321.218872,630.656067 
	C1319.137939,621.919067 1316.890259,613.216980 1315.036621,604.431885 
	C1312.729736,593.499268 1312.154785,592.734375 1301.351196,590.450378 
	C1305.050293,584.595276 1306.253418,584.118774 1312.592651,585.997925 
	C1324.330933,589.477478 1337.515503,584.952148 1344.349854,574.785950 
	C1345.239014,573.463257 1344.733398,571.202942 1344.873779,569.376953 
	C1343.167603,569.842529 1341.194702,569.911987 1339.805176,570.847778 
	C1335.562988,573.704956 1331.947144,577.864136 1327.361450,579.765869 
	C1315.870850,584.531128 1299.792603,577.131226 1295.303955,564.890442 
	C1290.621094,552.120728 1287.420044,538.807373 1282.731079,526.040222 
	C1279.529907,517.324402 1280.465088,509.450836 1285.915405,502.663574 
	C1289.210693,498.559937 1294.044189,495.041992 1298.916260,493.010559 
	C1305.747314,490.162201 1313.153931,488.198883 1320.498047,487.178009 
	C1336.484009,484.955872 1348.948730,492.899323 1359.656128,503.399078 
	C1368.543457,512.113892 1375.946899,522.339722 1384.815308,531.076294 
	C1394.509033,540.625854 1404.968994,549.425354 1415.392334,558.198608 
	C1426.492676,567.541748 1433.924927,591.316528 1422.291016,606.768250 
	C1420.998901,608.484375 1418.727295,609.463013 1416.909912,610.783752 
	C1415.880981,609.195068 1414.508179,607.731628 1413.877197,605.998108 
	C1408.498657,591.221069 1399.160522,579.919373 1384.673462,573.519226 
	C1381.094116,571.937866 1376.680176,571.461060 1372.722900,571.697205 
	C1366.260620,572.082947 1362.209717,569.684265 1357.609131,561.084534 
	C1354.511108,555.293579 1354.862915,552.968140 1359.616455,547.815308 
	C1363.076782,544.064209 1364.272217,536.885681 1361.954224,532.429321 
	C1359.869019,528.420349 1356.543579,526.574951 1352.015381,527.929077 
	C1348.032593,529.120056 1344.208984,531.219055 1340.161743,531.751465 
	C1325.773193,533.644287 1311.639893,533.449463 1298.938232,524.729553 
	C1295.948242,522.676819 1292.500366,521.216431 1289.112793,519.859070 
	C1287.990967,519.409546 1286.397095,520.138123 1285.019043,520.328064 
	C1285.332031,521.666016 1285.202637,523.467834 1286.034790,524.261536 
	C1289.632935,527.693298 1293.512573,530.830200 1297.269897,534.057373 
	C1296.395386,535.481079 1294.396118,537.284912 1294.638794,538.705994 
	C1294.945679,540.504211 1296.946655,542.127808 1298.461060,543.570374 
	C1299.771240,544.818542 1301.310547,545.951111 1302.946167,546.707642 
	C1306.640015,548.416443 1307.930054,551.388428 1307.983276,555.167419 
	C1308.037354,558.994934 1307.892944,562.834656 1308.152100,566.647522 
	C1308.440186,570.885071 1310.509644,572.248718 1314.500122,571.135681 
	C1316.904419,570.465149 1319.383423,569.894470 1321.608521,568.821594 
	C1322.707275,568.291870 1323.306763,566.726685 1324.132324,565.630127 
	C1323.014648,564.812195 1321.988892,563.480347 1320.764038,563.261169 
	C1313.879761,562.029419 1313.803101,561.825500 1313.025146,554.881897 
	C1312.452148,549.767761 1311.290039,544.719666 1310.275879,538.996033 
	C1311.348511,538.996033 1313.431641,538.989868 1315.514893,538.997009 
	C1327.045166,539.036682 1338.472290,538.476318 1349.385620,534.105652 
	C1352.022217,533.049805 1355.044556,532.177063 1356.888672,535.508667 
	C1358.697632,538.776917 1357.761230,541.700256 1354.942505,543.914795 
	C1350.110596,547.710938 1348.141235,552.388184 1350.064453,558.817810 
z"/>
<path fill="#000000" opacity="1.000000" stroke="none" 
	d="
M1308.371094,613.587891 
	C1312.401001,628.926025 1316.546875,643.811768 1320.074341,658.842712 
	C1320.984375,662.720276 1320.229004,667.093140 1319.653809,671.155640 
	C1319.463989,672.496948 1317.559692,673.756531 1316.196411,674.704041 
	C1315.493408,675.192688 1314.257935,674.961914 1313.262085,674.975830 
	C1288.485840,675.321899 1263.709839,675.693054 1238.932861,675.973328 
	C1231.193237,676.060852 1229.171875,674.728882 1227.379761,667.231201 
	C1224.444824,654.952087 1222.160889,642.516785 1219.194214,630.246033 
	C1217.401489,622.830383 1214.593628,615.663879 1212.691406,608.269775 
	C1210.822510,601.004395 1212.251709,598.366882 1219.635010,597.798096 
	C1230.218872,596.982666 1240.896973,596.989502 1251.522461,597.218384 
	C1265.801514,597.525940 1280.064087,598.548889 1294.342651,598.943542 
	C1305.058838,599.239807 1305.062622,599.014893 1307.332397,609.304993 
	C1307.619019,610.604553 1307.947510,611.894897 1308.371094,613.587891 
M1271.497314,629.106445 
	C1268.523071,629.097961 1265.512207,628.801208 1262.586060,629.172180 
	C1260.240112,629.469604 1257.465332,629.977966 1255.813354,631.443665 
	C1251.735718,635.061157 1251.390869,643.208862 1254.482422,648.621216 
	C1257.457642,653.830017 1259.732666,654.605164 1267.275635,653.053406 
	C1268.077271,652.888550 1268.925781,652.959106 1269.751343,652.902405 
	C1277.781006,652.351013 1281.291138,646.131287 1277.405884,639.343933 
	C1281.299561,633.259277 1280.024536,630.702332 1271.497314,629.106445 
M1274.330322,622.142029 
	C1274.023315,621.246094 1273.986328,620.015320 1273.362549,619.511963 
	C1270.622559,617.301147 1267.428467,617.524841 1265.512207,620.142883 
	C1264.415405,621.641235 1264.143433,625.279907 1265.192627,626.501953 
	C1267.597290,629.302917 1270.216675,627.218994 1272.286621,625.116516 
	C1272.972290,624.420044 1273.503418,623.571411 1274.330322,622.142029 
z"/>
<path fill="#000000" opacity="1.000000" stroke="none" 
	d="
M1220.589722,720.177368 
	C1216.190186,708.538757 1214.220337,697.058960 1218.487183,685.322937 
	C1219.459595,682.648376 1221.335571,680.302368 1222.795654,677.805115 
	C1222.970581,678.407410 1223.145386,679.009705 1223.320312,679.611938 
	C1227.675171,680.407410 1232.016113,681.294983 1236.391602,681.953918 
	C1238.182861,682.223633 1240.082397,682.229065 1241.875000,681.964111 
	C1258.322632,679.532715 1271.354492,687.958374 1285.144409,695.310730 
	C1277.162964,702.080933 1268.443237,703.582031 1258.909546,700.763123 
	C1253.817749,699.257446 1248.934814,696.906433 1243.772217,695.804871 
	C1227.769531,692.390320 1218.533813,702.361267 1222.678589,718.232666 
	C1223.128662,719.956482 1223.654785,721.660400 1223.112061,724.018311 
	C1222.319214,722.849060 1221.526489,721.679871 1220.589722,720.177368 
z"/>
<path fill="#000000" opacity="1.000000" stroke="none" 
	d="
M1325.511963,642.234131 
	C1331.053711,636.318909 1337.678955,634.592041 1345.201294,635.589233 
	C1347.176514,635.851074 1349.169312,636.001709 1351.132202,636.332947 
	C1359.248779,637.703003 1363.515869,642.584106 1363.485229,650.868896 
	C1363.480469,652.145569 1362.245239,654.225952 1361.157837,654.558716 
	C1354.289917,656.660828 1347.303101,658.374939 1339.711792,660.387817 
	C1340.675049,658.421875 1341.905884,656.403381 1342.640015,654.218018 
	C1343.051880,652.991699 1343.166504,650.910583 1342.458862,650.269531 
	C1341.708008,649.589111 1339.518188,649.655151 1338.497803,650.279297 
	C1335.931152,651.849365 1333.669434,653.917725 1331.285400,655.786377 
	C1330.902100,655.518433 1330.518921,655.250549 1330.135620,654.982666 
	C1331.626709,651.983582 1333.281494,649.050598 1334.532715,645.954590 
	C1335.072266,644.619385 1334.777100,642.946777 1334.861206,641.427490 
	C1333.447632,641.919128 1331.650513,642.033020 1330.708618,642.989258 
	C1329.223755,644.496765 1328.313599,646.570251 1327.160156,648.404175 
	C1326.447144,647.917236 1325.734131,647.430237 1325.021240,646.943298 
	C1325.118164,645.460999 1325.215210,643.978638 1325.511963,642.234131 
z"/>
<path fill="#000000" opacity="1.000000" stroke="none" 
	d="
M1305.180420,682.210205 
	C1302.342896,684.943787 1299.612915,687.806030 1296.596802,690.325684 
	C1295.783813,691.004822 1293.918945,691.106262 1292.849365,690.683167 
	C1286.994141,688.367065 1281.236328,685.804993 1275.444946,683.327393 
	C1275.492432,682.874817 1275.539917,682.422302 1275.587402,681.969727 
	C1285.070190,681.969727 1294.553101,681.969727 1304.555420,682.025635 
	C1305.074951,682.081482 1305.180420,682.210266 1305.180420,682.210205 
z"/>
<path fill="#000000" opacity="1.000000" stroke="none" 
	d="
M1314.861816,738.319946 
	C1319.602295,736.485596 1324.209473,734.505371 1329.012695,733.319153 
	C1331.575195,732.686462 1334.565552,733.031677 1337.206787,733.627075 
	C1342.866577,734.902893 1348.425293,736.627686 1355.245117,738.504333 
	C1340.946045,738.504333 1327.878052,738.504333 1314.861816,738.319946 
z"/>
<path fill="#000000" opacity="1.000000" stroke="none" 
	d="
M1305.022217,682.017090 
	C1305.250854,681.815735 1305.532227,681.678833 1305.813721,681.541992 
	C1305.683716,681.743164 1305.553711,681.944275 1305.302124,682.177856 
	C1305.180420,682.210266 1305.074951,682.081482 1305.022217,682.017090 
z"/>
<path fill="#000000" opacity="1.000000" stroke="none" 
	d="
M1336.501221,663.960449 
	C1336.541748,663.946716 1336.460693,663.974121 1336.501221,663.960449 
z"/>
<path fill="#000000" opacity="1.000000" stroke="none" 
	d="
M1227.032593,726.462280 
	C1227.047119,726.502747 1227.018066,726.421814 1227.032593,726.462280 
z"/>
<path fill="#2D1909" opacity="1.000000" stroke="none" 
	d="
M1271.906372,629.120850 
	C1280.024536,630.702332 1281.299561,633.259277 1277.405884,639.343933 
	C1281.291138,646.131287 1277.781006,652.351013 1269.751343,652.902405 
	C1268.925781,652.959106 1268.077271,652.888550 1267.275635,653.053406 
	C1259.732666,654.605164 1257.457642,653.830017 1254.482422,648.621216 
	C1251.390869,643.208862 1251.735718,635.061157 1255.813354,631.443665 
	C1257.465332,629.977966 1260.240112,629.469604 1262.586060,629.172180 
	C1265.512207,628.801208 1268.523071,629.097961 1271.906372,629.120850 
z"/>
<path fill="#2D1909" opacity="1.000000" stroke="none" 
	d="
M1274.217773,622.467163 
	C1273.503418,623.571411 1272.972290,624.420044 1272.286621,625.116516 
	C1270.216675,627.218994 1267.597290,629.302917 1265.192627,626.501953 
	C1264.143433,625.279907 1264.415405,621.641235 1265.512207,620.142883 
	C1267.428467,617.524841 1270.622559,617.301147 1273.362549,619.511963 
	C1273.986328,620.015320 1274.023315,621.246094 1274.217773,622.467163 
z"/>
</svg>