<svg version="1.1" id="Layer_1" xmlns="http://www.w3.org/2000/svg" xmlns:xlink="http://www.w3.org/1999/xlink" x="0px" y="0px"
	 width="100%" viewBox="0 0 1694 820" enable-background="new 0 0 1694 820" xml:space="preserve">
<path fill="none" opacity="1.000000" stroke="none" 
	d="
M1688.051270,821.000000 
	C1125.375977,821.000000 563.211670,821.000000 1.023660,821.000000 
	C1.023660,547.683594 1.023660,274.367157 1.023660,1.025371 
	C565.647400,1.025371 1130.294800,1.025371 1694.971069,1.025371 
	C1694.971069,274.312927 1694.971069,547.625854 1694.971069,821.000000 
	C1692.854126,821.000000 1690.708130,821.000000 1688.051270,821.000000 
M1147.500000,738.000000 
	C1116.697266,738.329102 1085.894897,738.726257 1055.091553,738.965088 
	C1031.763916,739.145935 1008.433838,739.279541 985.106262,739.163940 
	C922.137268,738.851929 859.168701,738.432129 796.200500,737.982300 
	C760.727112,737.728882 725.255188,737.164612 689.781799,737.069641 
	C672.140747,737.022400 654.485168,737.446533 636.863647,738.255249 
	C632.098816,738.473877 630.130798,737.382446 628.639038,732.916809 
	C625.938538,724.832214 621.473328,723.026550 613.228760,724.326599 
	C607.576721,725.217896 601.735474,724.954590 595.976074,725.093567 
	C594.159912,725.137390 592.214966,724.355042 590.549072,724.791260 
	C589.023499,725.190674 586.955322,726.546936 586.688354,727.811401 
	C586.454834,728.917480 588.100952,731.130737 589.425171,731.728394 
	C594.294739,733.926270 599.359192,733.907776 604.509216,732.217773 
	C608.290588,730.976929 612.182861,729.920837 616.108032,729.319275 
	C619.253601,728.837219 622.711548,732.414795 622.567749,735.539795 
	C622.397156,739.244690 619.467346,738.938660 617.032227,738.951111 
	C604.413330,739.015747 591.793823,739.020935 579.174805,738.979614 
	C572.591797,738.958130 571.736694,738.029419 570.970154,730.420044 
	C571.770020,730.372986 572.587463,730.445923 573.338196,730.255615 
	C574.918579,729.854919 576.463989,729.316101 578.023743,728.833984 
	C577.281982,727.470276 576.675598,726.004822 575.753418,724.776611 
	C575.076111,723.874512 574.028931,723.218750 573.070251,722.565186 
	C569.974060,720.454590 567.761841,721.254883 566.475586,724.715942 
	C566.094482,725.741394 565.832336,726.811035 565.489136,727.948669 
	C562.044495,727.734924 558.909790,727.580017 555.781799,727.337891 
	C549.878662,726.880981 543.975037,726.421326 538.080505,725.868103 
	C534.965759,725.575806 531.856384,724.726196 528.771057,724.841003 
	C527.332764,724.894531 525.957397,726.642273 524.553528,727.622070 
	C525.648743,728.898315 526.571960,731.041626 527.869324,731.299011 
	C533.165100,732.349426 538.558228,733.116211 543.947876,733.429932 
	C549.737488,733.766968 555.575989,733.274292 561.363403,733.629211 
	C562.584473,733.704102 563.676331,735.885010 564.827759,737.095581 
	C563.608643,737.714722 562.400696,738.849182 561.168701,738.875916 
	C541.195923,739.310852 521.220642,739.812317 501.244843,739.862061 
	C486.784912,739.898071 472.270325,738.414490 457.881378,739.284119 
	C448.399078,739.857178 441.624786,734.506348 433.634766,731.901917 
	C430.629364,730.922241 430.011078,728.460083 433.122742,725.851746 
	C437.064423,722.547607 440.649109,718.808594 444.303253,715.172241 
	C452.905701,706.611633 454.631897,693.898132 448.453247,683.247925 
	C447.337341,681.324341 445.481018,679.582886 443.555908,678.463379 
	C442.279083,677.720703 440.270905,678.235596 438.590118,678.187561 
	C438.743195,679.679260 438.649445,681.248962 439.092377,682.648987 
	C440.931366,688.461487 443.269775,694.137268 444.762695,700.031006 
	C445.875580,704.424316 444.721222,708.583740 440.864014,711.670959 
	C436.713959,714.992493 432.795227,718.605896 428.606232,721.875000 
	C424.010406,725.461548 423.238464,730.228516 426.846558,734.852234 
	C427.624817,735.849548 428.539978,736.739990 429.480713,737.777466 
	C420.670380,741.097534 411.844086,738.687195 406.505463,731.666138 
	C405.196381,729.944519 404.337769,727.748169 402.734863,726.417175 
	C400.891083,724.886353 398.450836,724.073792 396.269684,722.949219 
	C395.938629,725.512024 394.994080,728.197937 395.475311,730.597839 
	C395.844696,732.439819 397.972626,733.955994 399.394196,735.549622 
	C400.192535,736.444580 401.144531,737.202393 402.633392,738.584778 
	C400.535858,738.776917 399.397064,738.979614 398.259827,738.971069 
	C357.454285,738.664307 316.648560,738.041321 275.843597,738.085754 
	C218.540268,738.148071 161.237320,738.682861 103.935013,739.118042 
	C101.334267,739.137878 98.741165,740.165161 96.144508,740.723267 
	C96.134521,741.540588 96.124527,742.357971 96.114532,743.175354 
	C100.171066,743.768005 104.215683,744.762878 108.286194,744.883423 
	C125.591309,745.395691 142.905182,745.986633 160.213867,745.931396 
	C206.854309,745.782593 253.493713,745.312683 300.133606,744.983765 
	C308.590912,744.924133 317.050323,745.026184 325.505829,744.882629 
	C338.119293,744.668518 350.731323,744.016357 363.341919,744.065491 
	C384.125061,744.146484 404.905792,744.821533 425.689056,744.917847 
	C461.808929,745.085205 497.929993,745.017700 534.050537,745.020081 
	C570.504456,745.022522 606.958923,744.865479 643.412109,745.018433 
	C666.332520,745.114624 689.250366,745.843201 712.170654,745.923828 
	C726.646545,745.974792 741.123962,745.310913 755.602112,745.044983 
	C776.577759,744.659729 797.555603,744.011230 818.530945,744.064758 
	C871.337463,744.199646 924.143127,744.657104 976.949036,744.999451 
	C1026.421875,745.320129 1075.894409,745.833191 1125.367676,745.923340 
	C1154.009033,745.975525 1182.651855,745.383362 1211.293457,745.037170 
	C1236.936646,744.727173 1262.578125,744.279541 1288.221802,744.041443 
	C1303.973999,743.895264 1319.729736,743.925110 1335.482300,744.062256 
	C1357.431885,744.253357 1379.379517,744.661438 1401.328857,744.899963 
	C1436.469604,745.281799 1471.610474,745.738037 1506.752441,745.882751 
	C1522.061401,745.945801 1537.372192,745.173340 1552.684326,745.036804 
	C1570.847290,744.874878 1589.014160,745.106079 1607.176270,744.901978 
	C1611.739502,744.850830 1616.291260,743.787476 1620.848267,743.189270 
	C1620.854492,742.452026 1620.860718,741.714783 1620.866943,740.977539 
	C1618.780273,740.364319 1616.713501,739.306580 1614.603516,739.211670 
	C1602.969482,738.688049 1591.325073,738.114624 1579.683838,738.106262 
	C1566.708618,738.096985 1553.733398,738.701172 1540.757202,738.990173 
	C1524.948364,739.342346 1509.138550,739.877686 1493.328735,739.896484 
	C1480.035278,739.912292 1466.742065,739.092834 1453.446655,739.013672 
	C1428.617310,738.865723 1403.786377,738.986633 1378.956177,738.995605 
	C1377.338623,738.996155 1375.721069,738.995667 1374.103516,738.995667 
	C1391.308838,736.891968 1402.475952,726.277405 1404.072876,709.301025 
	C1404.757080,702.027527 1404.835449,694.685120 1404.901367,687.371399 
	C1404.928101,684.402405 1405.541992,682.471069 1408.479126,681.060791 
	C1414.130493,678.347412 1418.075928,673.690430 1419.870361,667.764221 
	C1421.154541,663.523376 1421.744019,658.958008 1421.897217,654.511719 
	C1422.263672,643.872742 1422.646729,633.192078 1418.569214,622.962585 
	C1417.691895,620.761841 1417.105103,618.545166 1420.228394,616.617676 
	C1431.399414,609.723389 1435.628906,599.121460 1434.702271,586.397461 
	C1433.558960,570.694214 1426.213257,558.471924 1413.706421,548.888733 
	C1405.536621,542.628601 1397.636230,535.895813 1390.338989,528.646179 
	C1379.488403,517.866638 1369.508301,506.214661 1358.741089,495.346680 
	C1342.428223,478.880951 1323.087646,474.780609 1301.465454,483.120483 
	C1291.180054,487.087646 1281.062378,491.485382 1276.966064,503.383850 
	C1274.633057,510.160217 1276.417114,516.838440 1275.996582,523.459900 
	C1275.060669,538.194763 1280.097534,550.527527 1287.598022,562.409180 
	C1290.158447,566.465271 1292.546143,570.699402 1295.615479,574.344849 
	C1298.437744,577.696838 1300.558350,580.298523 1295.489258,583.321472 
	C1294.560669,583.875305 1293.873779,585.032654 1293.363403,586.055176 
	C1290.970459,590.848145 1287.136963,592.166565 1281.907349,592.097839 
	C1262.912964,591.848145 1243.913330,591.958862 1224.915771,592.019470 
	C1209.055664,592.070129 1204.578857,597.933044 1208.374146,613.386047 
	C1212.618042,630.666260 1216.947021,647.927795 1220.900879,665.274475 
	C1221.485718,667.840210 1221.207275,671.714783 1219.637695,673.484070 
	C1206.648071,688.127380 1205.373169,704.329590 1212.156616,721.902893 
	C1215.338745,730.146545 1222.561890,733.732544 1231.165771,731.403564 
	C1232.020508,731.172119 1233.209351,731.239319 1233.946411,731.672668 
	C1236.889893,733.403076 1239.715942,735.332947 1243.839355,738.000000 
	C1211.081177,738.000000 1179.790649,738.000000 1147.500000,738.000000 
M488.252472,683.373596 
	C489.774658,684.049561 491.299927,684.718750 492.818512,685.402710 
	C501.045898,689.108459 508.904663,689.197205 516.230530,683.176636 
	C520.566284,679.613525 524.991821,676.159668 529.921814,672.221436 
	C531.253845,674.123535 533.074219,675.933777 533.951111,678.122070 
	C536.664001,684.891907 541.881958,687.430237 548.621216,686.902954 
	C555.112671,686.395142 561.550842,685.207581 568.703857,684.223511 
	C569.155090,687.970276 569.491455,692.404541 570.332031,696.741150 
	C570.583557,698.039062 572.243530,699.064087 573.258179,700.214111 
	C574.135620,699.006470 575.820251,697.752747 575.754395,696.598938 
	C575.424683,690.826355 575.046631,684.995422 573.883240,679.350281 
	C572.895264,674.556091 570.101074,674.190613 565.656921,676.534363 
	C561.468323,678.743408 556.977844,680.954651 552.382812,681.697754 
	C543.114319,683.196716 541.224365,681.710693 537.650818,673.097229 
	C537.013000,671.559875 536.555786,669.944519 535.870789,668.430542 
	C533.494629,663.178711 529.611572,662.077393 525.073181,665.597046 
	C519.683228,669.776978 514.119934,673.831726 509.293182,678.609009 
	C505.217346,682.643066 501.090302,682.539429 497.176971,679.802002 
	C491.357025,675.730713 485.576019,671.370850 480.666840,666.277466 
	C469.167938,654.346985 457.463226,643.310364 439.571594,642.351562 
	C427.115479,641.684021 415.162262,642.078674 403.924591,648.873291 
	C393.106293,655.414429 387.300720,665.845947 380.639465,675.749268 
	C375.391174,683.552002 371.438599,692.276001 362.938751,697.618469 
	C356.830658,701.457703 351.251038,700.746338 347.430511,694.801758 
	C342.979828,687.876648 339.238708,680.512512 332.196655,675.442139 
	C317.434662,664.813293 301.113068,670.667725 296.079193,688.302612 
	C292.312561,701.497925 303.293854,710.724060 311.904572,713.243591 
	C313.020996,713.570190 314.516998,712.599426 315.837158,712.229553 
	C315.297241,710.808838 315.156708,708.897095 314.136261,708.067139 
	C311.835297,706.195496 309.019562,704.974609 306.556641,703.280457 
	C301.822479,700.024170 299.975220,694.590942 301.600128,689.251709 
	C304.324310,680.300354 309.114166,675.343079 315.265594,675.279419 
	C316.565094,675.265991 318.129913,675.349792 319.125336,676.036743 
	C322.890991,678.635010 326.784058,681.181458 330.032898,684.357483 
	C333.094269,687.350281 335.408386,691.108398 338.043518,694.535767 
	C339.648041,696.622620 341.957336,698.504028 342.668427,700.863892 
	C343.778687,704.548645 346.091827,706.007874 349.417847,706.540588 
	C355.698395,707.546570 362.065277,707.562195 366.784973,702.719177 
	C372.183258,697.179688 377.405334,691.337097 381.838806,685.019165 
	C388.676056,675.275696 393.771515,664.549255 402.987793,656.242249 
	C418.802277,641.988037 449.589722,645.711609 462.025818,659.291565 
	C469.851776,667.837402 479.041779,675.134033 488.252472,683.373596 
M315.292816,719.599365 
	C311.290161,720.516724 307.394806,721.590759 305.833679,726.074768 
	C309.545959,726.592773 313.256897,727.121033 316.973114,727.609009 
	C317.262878,727.647095 317.735992,727.497131 317.876160,727.276855 
	C319.109863,725.338074 320.287415,723.363525 321.481537,721.399536 
	C319.649445,720.771057 317.817383,720.142639 315.292816,719.599365 
M501.354218,720.274963 
	C500.581818,723.262329 502.344208,723.838684 504.653168,723.491943 
	C506.929993,723.150146 509.208710,722.638367 511.394196,721.920044 
	C513.804382,721.127808 516.433228,720.024231 515.045105,716.711792 
	C513.591248,713.242371 510.527832,713.549377 507.922852,714.899841 
	C505.624908,716.091248 503.746399,718.091675 501.354218,720.274963 
M321.191254,733.788696 
	C322.964294,739.353943 326.940155,735.539490 329.809540,735.526123 
	C331.358337,735.518921 333.567963,733.878662 334.211914,732.416870 
	C334.658264,731.403503 333.290405,728.582397 332.108917,728.100952 
	C330.409912,727.408752 327.834137,727.517029 326.199188,728.369873 
	C324.271454,729.375366 322.948364,731.539978 321.191254,733.788696 
M504.114746,708.685303 
	C504.604156,708.744141 505.095581,708.866516 505.582672,708.851379 
	C508.462921,708.761414 511.953156,709.506226 512.506897,705.286804 
	C512.864014,702.566040 509.000275,700.742981 504.726654,701.391602 
	C504.402863,701.440796 504.041504,701.467651 503.774719,701.630859 
	C502.074127,702.671936 500.395233,703.748535 498.709137,704.813293 
	C500.249359,706.041443 501.789581,707.269592 504.114746,708.685303 
M577.904907,710.546265 
	C577.113037,710.296997 576.194702,709.661987 575.553406,709.872192 
	C573.768250,710.457275 572.098083,711.393188 570.382507,712.190491 
	C571.555847,713.952759 572.537842,715.903748 573.997559,717.383484 
	C574.573242,717.967041 576.279907,717.746155 577.356445,717.459473 
	C579.605286,716.860596 581.777466,715.974060 583.981140,715.205688 
	C582.184143,713.751770 580.387146,712.297791 577.904907,710.546265 
M343.151154,736.571411 
	C347.139435,738.201050 352.259521,736.486389 353.095551,732.729065 
	C353.406799,731.330078 351.968292,728.358643 350.806213,728.046692 
	C347.857178,727.255005 343.101868,732.383606 343.151154,736.571411 
z"/>
<path fill="#000000" opacity="1.000000" stroke="none" 
	d="
M1148.000000,738.000000 
	C1179.790649,738.000000 1211.081177,738.000000 1243.839355,738.000000 
	C1239.715942,735.332947 1236.889893,733.403076 1233.946411,731.672668 
	C1233.209351,731.239319 1232.020508,731.172119 1231.165771,731.403564 
	C1222.561890,733.732544 1215.338745,730.146545 1212.156616,721.902893 
	C1205.373169,704.329590 1206.648071,688.127380 1219.637695,673.484070 
	C1221.207275,671.714783 1221.485718,667.840210 1220.900879,665.274475 
	C1216.947021,647.927795 1212.618042,630.666260 1208.374146,613.386047 
	C1204.578857,597.933044 1209.055664,592.070129 1224.915771,592.019470 
	C1243.913330,591.958862 1262.912964,591.848145 1281.907349,592.097839 
	C1287.136963,592.166565 1290.970459,590.848145 1293.363403,586.055176 
	C1293.873779,585.032654 1294.560669,583.875305 1295.489258,583.321472 
	C1300.558350,580.298523 1298.437744,577.696838 1295.615479,574.344849 
	C1292.546143,570.699402 1290.158447,566.465271 1287.598022,562.409180 
	C1280.097534,550.527527 1275.060669,538.194763 1275.996582,523.459900 
	C1276.417114,516.838440 1274.633057,510.160217 1276.966064,503.383850 
	C1281.062378,491.485382 1291.180054,487.087646 1301.465454,483.120483 
	C1323.087646,474.780609 1342.428223,478.880951 1358.741089,495.346680 
	C1369.508301,506.214661 1379.488403,517.866638 1390.338989,528.646179 
	C1397.636230,535.895813 1405.536621,542.628601 1413.706421,548.888733 
	C1426.213257,558.471924 1433.558960,570.694214 1434.702271,586.397461 
	C1435.628906,599.121460 1431.399414,609.723389 1420.228394,616.617676 
	C1417.105103,618.545166 1417.691895,620.761841 1418.569214,622.962585 
	C1422.646729,633.192078 1422.263672,643.872742 1421.897217,654.511719 
	C1421.744019,658.958008 1421.154541,663.523376 1419.870361,667.764221 
	C1418.075928,673.690430 1414.130493,678.347412 1408.479126,681.060791 
	C1405.541992,682.471069 1404.928101,684.402405 1404.901367,687.371399 
	C1404.835449,694.685120 1404.757080,702.027527 1404.072876,709.301025 
	C1402.475952,726.277405 1391.308838,736.891968 1374.103516,738.995667 
	C1375.721069,738.995667 1377.338623,738.996155 1378.956177,738.995605 
	C1403.786377,738.986633 1428.617310,738.865723 1453.446655,739.013672 
	C1466.742065,739.092834 1480.035278,739.912292 1493.328735,739.896484 
	C1509.138550,739.877686 1524.948364,739.342346 1540.757202,738.990173 
	C1553.733398,738.701172 1566.708618,738.096985 1579.683838,738.106262 
	C1591.325073,738.114624 1602.969482,738.688049 1614.603516,739.211670 
	C1616.713501,739.306580 1618.780273,740.364319 1620.866943,740.977539 
	C1620.860718,741.714783 1620.854492,742.452026 1620.848267,743.189270 
	C1616.291260,743.787476 1611.739502,744.850830 1607.176270,744.901978 
	C1589.014160,745.106079 1570.847290,744.874878 1552.684326,745.036804 
	C1537.372192,745.173340 1522.061401,745.945801 1506.752441,745.882751 
	C1471.610474,745.738037 1436.469604,745.281799 1401.328857,744.899963 
	C1379.379517,744.661438 1357.431885,744.253357 1335.482300,744.062256 
	C1319.729736,743.925110 1303.973999,743.895264 1288.221802,744.041443 
	C1262.578125,744.279541 1236.936646,744.727173 1211.293457,745.037170 
	C1182.651855,745.383362 1154.009033,745.975525 1125.367676,745.923340 
	C1075.894409,745.833191 1026.421875,745.320129 976.949036,744.999451 
	C924.143127,744.657104 871.337463,744.199646 818.530945,744.064758 
	C797.555603,744.011230 776.577759,744.659729 755.602112,745.044983 
	C741.123962,745.310913 726.646545,745.974792 712.170654,745.923828 
	C689.250366,745.843201 666.332520,745.114624 643.412109,745.018433 
	C606.958923,744.865479 570.504456,745.022522 534.050537,745.020081 
	C497.929993,745.017700 461.808929,745.085205 425.689056,744.917847 
	C404.905792,744.821533 384.125061,744.146484 363.341919,744.065491 
	C350.731323,744.016357 338.119293,744.668518 325.505829,744.882629 
	C317.050323,745.026184 308.590912,744.924133 300.133606,744.983765 
	C253.493713,745.312683 206.854309,745.782593 160.213867,745.931396 
	C142.905182,745.986633 125.591309,745.395691 108.286194,744.883423 
	C104.215683,744.762878 100.171066,743.768005 96.114532,743.175354 
	C96.124527,742.357971 96.134521,741.540588 96.144508,740.723267 
	C98.741165,740.165161 101.334267,739.137878 103.935013,739.118042 
	C161.237320,738.682861 218.540268,738.148071 275.843597,738.085754 
	C316.648560,738.041321 357.454285,738.664307 398.259827,738.971069 
	C399.397064,738.979614 400.535858,738.776917 402.633392,738.584778 
	C401.144531,737.202393 400.192535,736.444580 399.394196,735.549622 
	C397.972626,733.955994 395.844696,732.439819 395.475311,730.597839 
	C394.994080,728.197937 395.938629,725.512024 396.269684,722.949219 
	C398.450836,724.073792 400.891083,724.886353 402.734863,726.417175 
	C404.337769,727.748169 405.196381,729.944519 406.505463,731.666138 
	C411.844086,738.687195 420.670380,741.097534 429.480713,737.777466 
	C428.539978,736.739990 427.624817,735.849548 426.846558,734.852234 
	C423.238464,730.228516 424.010406,725.461548 428.606232,721.875000 
	C432.795227,718.605896 436.713959,714.992493 440.864014,711.670959 
	C444.721222,708.583740 445.875580,704.424316 444.762695,700.031006 
	C443.269775,694.137268 440.931366,688.461487 439.092377,682.648987 
	C438.649445,681.248962 438.743195,679.679260 438.590118,678.187561 
	C440.270905,678.235596 442.279083,677.720703 443.555908,678.463379 
	C445.481018,679.582886 447.337341,681.324341 448.453247,683.247925 
	C454.631897,693.898132 452.905701,706.611633 444.303253,715.172241 
	C440.649109,718.808594 437.064423,722.547607 433.122742,725.851746 
	C430.011078,728.460083 430.629364,730.922241 433.634766,731.901917 
	C441.624786,734.506348 448.399078,739.857178 457.881378,739.284119 
	C472.270325,738.414490 486.784912,739.898071 501.244843,739.862061 
	C521.220642,739.812317 541.195923,739.310852 561.168701,738.875916 
	C562.400696,738.849182 563.608643,737.714722 564.827759,737.095581 
	C563.676331,735.885010 562.584473,733.704102 561.363403,733.629211 
	C555.575989,733.274292 549.737488,733.766968 543.947876,733.429932 
	C538.558228,733.116211 533.165100,732.349426 527.869324,731.299011 
	C526.571960,731.041626 525.648743,728.898315 524.553528,727.622070 
	C525.957397,726.642273 527.332764,724.894531 528.771057,724.841003 
	C531.856384,724.726196 534.965759,725.575806 538.080505,725.868103 
	C543.975037,726.421326 549.878662,726.880981 555.781799,727.337891 
	C558.909790,727.580017 562.044495,727.734924 565.489136,727.948669 
	C565.832336,726.811035 566.094482,725.741394 566.475586,724.715942 
	C567.761841,721.254883 569.974060,720.454590 573.070251,722.565186 
	C574.028931,723.218750 575.076111,723.874512 575.753418,724.776611 
	C576.675598,726.004822 577.281982,727.470276 578.023743,728.833984 
	C576.463989,729.316101 574.918579,729.854919 573.338196,730.255615 
	C572.587463,730.445923 571.770020,730.372986 570.970154,730.420044 
	C571.736694,738.029419 572.591797,738.958130 579.174805,738.979614 
	C591.793823,739.020935 604.413330,739.015747 617.032227,738.951111 
	C619.467346,738.938660 622.397156,739.244690 622.567749,735.539795 
	C622.711548,732.414795 619.253601,728.837219 616.108032,729.319275 
	C612.182861,729.920837 608.290588,730.976929 604.509216,732.217773 
	C599.359192,733.907776 594.294739,733.926270 589.425171,731.728394 
	C588.100952,731.130737 586.454834,728.917480 586.688354,727.811401 
	C586.955322,726.546936 589.023499,725.190674 590.549072,724.791260 
	C592.214966,724.355042 594.159912,725.137390 595.976074,725.093567 
	C601.735474,724.954590 607.576721,725.217896 613.228760,724.326599 
	C621.473328,723.026550 625.938538,724.832214 628.639038,732.916809 
	C630.130798,737.382446 632.098816,738.473877 636.863647,738.255249 
	C654.485168,737.446533 672.140747,737.022400 689.781799,737.069641 
	C725.255188,737.164612 760.727112,737.728882 796.200500,737.982300 
	C859.168701,738.432129 922.137268,738.851929 985.106262,739.163940 
	C1008.433838,739.279541 1031.763916,739.145935 1055.091553,738.965088 
	C1085.894897,738.726257 1116.697266,738.329102 1148.000000,738.000000 
M1304.035889,681.969849 
	C1294.553101,681.969849 1285.070312,681.969849 1275.587524,681.969849 
	C1275.540649,682.422607 1275.493774,682.875427 1275.446899,683.328186 
	C1281.237549,685.805481 1286.994873,688.367371 1292.849365,690.683228 
	C1293.918945,691.106323 1295.783813,691.004761 1296.596680,690.325745 
	C1299.612915,687.806091 1302.343018,684.943909 1305.423828,682.145447 
	C1305.553711,681.944275 1305.683594,681.743164 1305.813477,681.541931 
	C1305.532104,681.678894 1305.250732,681.815796 1304.035889,681.969849 
M1323.268555,532.107727 
	C1331.709473,533.879456 1339.812988,532.778992 1347.671997,529.335144 
	C1349.188843,528.670532 1350.812622,528.213379 1352.424194,527.808350 
	C1356.555664,526.769897 1359.617676,528.443604 1361.703979,531.915894 
	C1364.075073,535.861694 1363.298096,543.502625 1360.348267,547.028992 
	C1354.223633,554.350586 1354.354248,556.700684 1360.039795,564.768555 
	C1363.721802,569.993469 1367.691162,573.126831 1374.649780,571.378357 
	C1377.263428,570.721619 1380.662231,571.626465 1383.274292,572.785706 
	C1398.182739,579.402039 1408.355469,590.511353 1413.849487,605.923035 
	C1414.473389,607.672913 1415.818604,609.165710 1416.829346,610.777710 
	C1418.656982,609.480469 1420.948242,608.534668 1422.239990,606.831116 
	C1433.894409,591.460938 1426.604980,567.706421 1415.455688,558.254883 
	C1404.936523,549.337524 1394.343018,540.442871 1384.523804,530.784241 
	C1375.768555,522.172180 1368.488770,512.058594 1359.721436,503.460754 
	C1348.881348,492.830322 1336.275757,484.856720 1320.091553,487.199677 
	C1312.912109,488.238983 1305.667725,490.151611 1299.000244,492.965057 
	C1294.127563,495.021118 1289.259033,498.483643 1285.973145,502.587830 
	C1280.554321,509.356018 1279.420532,517.168030 1282.696655,525.952209 
	C1287.447754,538.691345 1290.594238,552.025757 1295.268677,564.797546 
	C1299.826294,577.250427 1316.198364,584.673218 1327.738647,579.649475 
	C1332.302856,577.662537 1335.885498,573.492065 1340.093994,570.573669 
	C1341.352051,569.701233 1343.215698,569.702026 1344.801880,569.302734 
	C1344.706177,571.125854 1345.273804,573.383850 1344.409180,574.703003 
	C1337.758301,584.849365 1324.254517,589.969788 1312.767456,585.825012 
	C1306.728882,583.646118 1304.186157,586.587036 1300.825562,590.277100 
	C1312.490479,592.979370 1312.686279,593.360291 1315.099487,604.818298 
	C1316.915527,613.440552 1319.167358,621.970520 1321.184814,630.551086 
	C1321.896118,633.576172 1323.487915,634.367737 1326.255127,632.870972 
	C1333.993286,628.685425 1342.071289,628.309692 1350.458740,630.585327 
	C1356.472900,632.217163 1362.555176,633.597595 1369.037720,635.196411 
	C1369.418457,629.641907 1369.648560,624.375610 1370.234741,619.149231 
	C1370.371704,617.929321 1371.716919,616.844971 1372.506226,615.698242 
	C1373.594849,616.736755 1375.354736,617.613464 1375.651123,618.842957 
	C1376.701172,623.198975 1377.578369,627.652710 1377.890015,632.113403 
	C1378.152222,635.866760 1379.656738,638.183594 1382.839233,640.092163 
	C1385.648804,641.776978 1388.277344,643.970703 1390.446289,646.417786 
	C1391.357910,647.446228 1391.595093,650.248047 1390.832764,651.251709 
	C1390.080566,652.242126 1387.496338,652.572937 1386.043091,652.126953 
	C1383.884888,651.464722 1382.011597,649.868835 1380.022827,648.660950 
	C1376.852051,646.735229 1373.685913,644.801880 1370.229492,642.696106 
	C1369.638550,644.171021 1369.181641,644.770691 1369.205688,645.350342 
	C1369.287842,647.335449 1369.525757,649.314819 1369.728027,651.294006 
	C1370.329956,657.184082 1368.101807,660.927856 1362.951904,660.770264 
	C1350.914551,660.401611 1341.890625,665.714905 1334.114136,674.249207 
	C1332.640991,675.865967 1330.362305,676.811584 1328.347046,677.858521 
	C1323.994141,680.119934 1318.534790,681.267212 1315.373291,684.613464 
	C1306.358276,694.155273 1295.628174,700.617554 1283.984009,706.288757 
	C1275.857056,710.247009 1268.279053,711.920532 1259.631226,708.464294 
	C1253.164795,705.880005 1246.495483,703.505676 1239.695679,702.125122 
	C1229.896973,700.135803 1224.928589,705.970215 1227.384399,715.774597 
	C1227.739380,717.191956 1228.504639,718.552917 1229.290283,719.808350 
	C1233.706787,726.865356 1240.475098,730.723999 1248.231079,732.704651 
	C1253.682861,734.096924 1259.340454,734.824402 1264.951538,735.424622 
	C1283.208496,737.377563 1301.293091,735.941711 1318.667847,730.109924 
	C1331.263672,725.882324 1343.310059,720.037598 1355.716309,715.208801 
	C1358.168213,714.254456 1361.143433,714.644470 1363.877319,714.414490 
	C1362.047729,716.515076 1360.564941,719.158630 1358.312500,720.597412 
	C1354.261597,723.185059 1349.749146,725.050171 1345.429443,727.217163 
	C1345.481934,727.838562 1345.534424,728.459961 1345.586914,729.081360 
	C1355.636230,729.705017 1365.754272,731.361267 1375.717896,730.697693 
	C1388.941772,729.816956 1400.446289,721.981445 1399.041870,707.056213 
	C1398.747192,703.923218 1398.528809,700.604614 1399.221313,697.588806 
	C1401.825317,686.248718 1395.163696,678.891785 1388.101440,672.112183 
	C1385.010132,669.144653 1380.177612,668.044250 1376.293579,665.820312 
	C1374.909912,665.027893 1373.992676,663.420898 1372.862427,662.185730 
	C1374.565430,661.522034 1376.263184,660.348938 1377.973145,660.330688 
	C1379.873169,660.310425 1382.088013,660.910583 1383.635254,661.996460 
	C1388.751221,665.587036 1393.530029,669.658569 1398.652710,673.238525 
	C1400.321533,674.404663 1403.146118,675.733459 1404.584229,675.084961 
	C1409.670288,672.791382 1413.876831,669.314514 1415.041626,663.246765 
	C1417.395386,650.986206 1416.917358,638.927490 1414.386353,626.648743 
	C1410.640381,608.476257 1402.233765,593.712524 1386.261353,583.845947 
	C1382.495361,581.519653 1378.292480,579.794434 1374.117188,578.267334 
	C1370.109009,576.801453 1365.750122,576.281860 1361.764771,574.768860 
	C1349.838013,570.240723 1345.982300,552.399597 1354.995972,543.937805 
	C1357.609741,541.484192 1358.699951,538.747864 1356.875610,535.487244 
	C1355.016968,532.165161 1351.992798,533.058838 1349.362183,534.113098 
	C1338.449097,538.486816 1327.021484,539.036133 1315.492432,538.997070 
	C1313.414062,538.989990 1311.335693,538.996033 1310.285156,538.996033 
	C1311.298340,544.738708 1312.460205,549.787720 1313.026611,554.902710 
	C1313.823486,562.099854 1314.013550,562.413757 1320.288330,563.236511 
	C1321.653687,563.415527 1322.859253,564.812805 1324.138428,565.648987 
	C1323.146729,566.794006 1322.366089,568.355652 1321.115356,568.989746 
	C1319.066284,570.028748 1316.727417,570.522034 1314.482300,571.142639 
	C1310.497803,572.244080 1308.436035,570.876099 1308.150269,566.629211 
	C1307.893677,562.816284 1308.036621,558.976990 1307.982178,555.149719 
	C1307.928345,551.367920 1306.623901,548.404663 1302.930786,546.700073 
	C1301.295044,545.945068 1299.756104,544.810181 1298.447632,543.560425 
	C1296.936035,542.116455 1294.940186,540.488464 1294.636963,538.690369 
	C1294.397705,537.271912 1296.403198,535.474915 1297.276245,534.064819 
	C1293.501343,530.820740 1289.622437,527.682983 1286.025635,524.249695 
	C1285.196411,523.458191 1285.333862,521.653870 1285.026611,520.315552 
	C1286.406616,520.131470 1288.011597,519.403442 1289.125000,519.863892 
	C1292.650879,521.322021 1296.269775,522.836304 1299.350098,525.033630 
	C1306.298584,529.990417 1313.967285,532.069275 1323.268555,532.107727 
M1223.142822,648.382812 
	C1224.647583,655.020142 1225.923340,661.720215 1227.721924,668.276978 
	C1229.504272,674.774841 1231.350098,676.040527 1238.037354,675.966614 
	C1263.144897,675.689209 1288.251343,675.318054 1313.358276,674.975891 
	C1314.189087,674.964539 1315.245483,675.194519 1315.805542,674.781494 
	C1317.262817,673.706787 1319.605469,672.366394 1319.640259,671.079163 
	C1319.804443,665.013306 1320.213867,658.723450 1318.879883,652.892273 
	C1315.287964,637.192871 1310.642334,621.737122 1306.871094,606.074768 
	C1305.634766,600.940247 1303.407837,598.814392 1298.076050,598.924072 
	C1288.101196,599.129272 1278.111572,598.946960 1268.135132,598.670593 
	C1253.192627,598.256653 1238.254883,597.188904 1223.317261,597.225220 
	C1212.257446,597.252075 1210.470581,600.188904 1213.247925,610.959167 
	C1216.398682,623.177185 1219.746094,635.344360 1223.142822,648.382812 
M1220.447266,719.841492 
	C1221.278198,721.252930 1222.109253,722.664368 1222.940308,724.075806 
	C1223.336548,723.894043 1223.732788,723.712280 1224.129028,723.530518 
	C1223.711792,721.997559 1223.308960,720.460571 1222.875122,718.932312 
	C1218.236206,702.591492 1227.512329,692.348816 1244.040161,695.843750 
	C1248.556519,696.798767 1252.877319,698.700684 1257.267822,700.225342 
	C1267.307617,703.711792 1276.520386,702.441895 1284.884399,695.617188 
	C1273.658447,687.105225 1258.890991,682.000549 1245.611938,681.999817 
	C1242.947632,681.999695 1240.250244,682.267029 1237.626343,681.941467 
	C1232.768188,681.338684 1227.953247,680.388916 1221.706909,679.348145 
	C1213.074341,691.225952 1215.468872,705.104614 1220.447266,719.841492 
M1361.851807,643.817993 
	C1359.796875,641.627136 1358.074951,638.138733 1355.619629,637.508423 
	C1350.064575,636.082581 1344.059448,635.195618 1338.407104,635.767517 
	C1334.273804,636.185730 1330.223999,638.983887 1326.532959,641.341309 
	C1325.309448,642.122620 1325.319214,644.834839 1324.765137,646.664246 
	C1325.496948,647.079041 1326.228760,647.493835 1326.960571,647.908630 
	C1328.132690,646.285645 1329.096436,644.433716 1330.545898,643.115784 
	C1331.609619,642.148499 1333.309937,641.881409 1334.726562,641.302246 
	C1334.632812,642.958557 1334.920044,644.757141 1334.365723,646.241455 
	C1333.232300,649.276489 1331.646729,652.142578 1330.247437,655.078247 
	C1330.670410,655.310608 1331.093262,655.542969 1331.516235,655.775330 
	C1333.505615,654.102844 1335.332886,652.152832 1337.544312,650.860352 
	C1338.902344,650.066589 1340.848267,650.278748 1342.530151,650.039246 
	C1342.444824,651.705566 1342.643311,653.452087 1342.201538,655.017822 
	C1341.660156,656.936340 1340.582642,658.703613 1339.584595,660.866577 
	C1340.940552,660.866577 1341.464111,660.988281 1341.904419,660.848267 
	C1348.178101,658.853821 1354.495850,656.972412 1360.660522,654.680786 
	C1361.935913,654.206787 1363.332886,652.225342 1363.431274,650.849731 
	C1363.578735,648.789795 1362.626099,646.651184 1361.851807,643.817993 
M1315.665283,738.912598 
	C1328.462158,738.912598 1341.259155,738.912598 1354.056030,738.912598 
	C1351.204224,737.445801 1348.373535,736.544739 1345.518066,735.730896 
	C1342.489380,734.867737 1339.435181,734.093811 1336.395264,733.269348 
	C1331.892822,732.047974 1319.323608,735.337463 1315.665283,738.912598 
M1336.521362,663.926208 
	C1336.521362,663.926208 1336.586426,663.982422 1336.521362,663.926208 
M1227.018066,726.421814 
	C1227.018066,726.421814 1227.047119,726.502747 1227.018066,726.421814 
z"/>
<path fill="#000000" opacity="1.000000" stroke="none" 
	d="
M487.936157,683.182373 
	C479.041779,675.134033 469.851776,667.837402 462.025818,659.291565 
	C449.589722,645.711609 418.802277,641.988037 402.987793,656.242249 
	C393.771515,664.549255 388.676056,675.275696 381.838806,685.019165 
	C377.405334,691.337097 372.183258,697.179688 366.784973,702.719177 
	C362.065277,707.562195 355.698395,707.546570 349.417847,706.540588 
	C346.091827,706.007874 343.778687,704.548645 342.668427,700.863892 
	C341.957336,698.504028 339.648041,696.622620 338.043518,694.535767 
	C335.408386,691.108398 333.094269,687.350281 330.032898,684.357483 
	C326.784058,681.181458 322.890991,678.635010 319.125336,676.036743 
	C318.129913,675.349792 316.565094,675.265991 315.265594,675.279419 
	C309.114166,675.343079 304.324310,680.300354 301.600128,689.251709 
	C299.975220,694.590942 301.822479,700.024170 306.556641,703.280457 
	C309.019562,704.974609 311.835297,706.195496 314.136261,708.067139 
	C315.156708,708.897095 315.297241,710.808838 315.837158,712.229553 
	C314.516998,712.599426 313.020996,713.570190 311.904572,713.243591 
	C303.293854,710.724060 292.312561,701.497925 296.079193,688.302612 
	C301.113068,670.667725 317.434662,664.813293 332.196655,675.442139 
	C339.238708,680.512512 342.979828,687.876648 347.430511,694.801758 
	C351.251038,700.746338 356.830658,701.457703 362.938751,697.618469 
	C371.438599,692.276001 375.391174,683.552002 380.639465,675.749268 
	C387.300720,665.845947 393.106293,655.414429 403.924591,648.873291 
	C415.162262,642.078674 427.115479,641.684021 439.571594,642.351562 
	C457.463226,643.310364 469.167938,654.346985 480.666840,666.277466 
	C485.576019,671.370850 491.357025,675.730713 497.176971,679.802002 
	C501.090302,682.539429 505.217346,682.643066 509.293182,678.609009 
	C514.119934,673.831726 519.683228,669.776978 525.073181,665.597046 
	C529.611572,662.077393 533.494629,663.178711 535.870789,668.430542 
	C536.555786,669.944519 537.013000,671.559875 537.650818,673.097229 
	C541.224365,681.710693 543.114319,683.196716 552.382812,681.697754 
	C556.977844,680.954651 561.468323,678.743408 565.656921,676.534363 
	C570.101074,674.190613 572.895264,674.556091 573.883240,679.350281 
	C575.046631,684.995422 575.424683,690.826355 575.754395,696.598938 
	C575.820251,697.752747 574.135620,699.006470 573.258179,700.214111 
	C572.243530,699.064087 570.583557,698.039062 570.332031,696.741150 
	C569.491455,692.404541 569.155090,687.970276 568.703857,684.223511 
	C561.550842,685.207581 555.112671,686.395142 548.621216,686.902954 
	C541.881958,687.430237 536.664001,684.891907 533.951111,678.122070 
	C533.074219,675.933777 531.253845,674.123535 529.921814,672.221436 
	C524.991821,676.159668 520.566284,679.613525 516.230530,683.176636 
	C508.904663,689.197205 501.045898,689.108459 492.818512,685.402710 
	C491.299927,684.718750 489.774658,684.049561 487.936157,683.182373 
z"/>
<path fill="#000000" opacity="1.000000" stroke="none" 
	d="
M315.639038,719.556763 
	C317.817383,720.142639 319.649445,720.771057 321.481567,721.399536 
	C320.287415,723.363525 319.109863,725.338074 317.876160,727.276855 
	C317.735992,727.497131 317.262878,727.647095 316.973114,727.609009 
	C313.256897,727.121033 309.545959,726.592773 305.833679,726.074707 
	C307.394806,721.590759 311.290161,720.516724 315.639038,719.556763 
z"/>
<path fill="#000000" opacity="1.000000" stroke="none" 
	d="
M501.518433,720.004944 
	C503.746399,718.091675 505.624908,716.091248 507.922852,714.899841 
	C510.527832,713.549377 513.591248,713.242371 515.045105,716.711792 
	C516.433228,720.024231 513.804382,721.127808 511.394196,721.920044 
	C509.208710,722.638367 506.929993,723.150146 504.653168,723.491943 
	C502.344208,723.838684 500.581818,723.262329 501.518433,720.004944 
z"/>
<path fill="#000000" opacity="1.000000" stroke="none" 
	d="
M321.277161,733.495361 
	C322.948364,731.539978 324.271454,729.375366 326.199188,728.369873 
	C327.834137,727.517029 330.409912,727.408752 332.108917,728.100952 
	C333.290405,728.582397 334.658264,731.403503 334.211914,732.416870 
	C333.567963,733.878662 331.358337,735.518921 329.809540,735.526123 
	C326.940155,735.539490 322.964294,739.353943 321.277161,733.495361 
z"/>
<path fill="#000000" opacity="1.000000" stroke="none" 
	d="
M503.722290,708.591553 
	C501.789581,707.269592 500.249359,706.041443 498.709137,704.813293 
	C500.395233,703.748535 502.074127,702.671936 503.774719,701.630859 
	C504.041504,701.467651 504.402863,701.440796 504.726654,701.391602 
	C509.000275,700.742981 512.864014,702.566040 512.506897,705.286804 
	C511.953156,709.506226 508.462921,708.761414 505.582672,708.851379 
	C505.095581,708.866516 504.604156,708.744141 503.722290,708.591553 
z"/>
<path fill="#000000" opacity="1.000000" stroke="none" 
	d="
M578.247559,710.695068 
	C580.387146,712.297791 582.184143,713.751770 583.981140,715.205688 
	C581.777466,715.974060 579.605286,716.860596 577.356445,717.459473 
	C576.279907,717.746155 574.573242,717.967041 573.997559,717.383484 
	C572.537842,715.903748 571.555847,713.952759 570.382507,712.190491 
	C572.098083,711.393188 573.768250,710.457275 575.553406,709.872192 
	C576.194702,709.661987 577.113037,710.296997 578.247559,710.695068 
z"/>
<path fill="#000000" opacity="1.000000" stroke="none" 
	d="
M342.978760,736.273682 
	C343.101868,732.383606 347.857178,727.255005 350.806213,728.046692 
	C351.968292,728.358643 353.406799,731.330078 353.095551,732.729065 
	C352.259521,736.486389 347.139435,738.201050 342.978760,736.273682 
z"/>
<path fill="#000000" opacity="1.000000" stroke="none" 
	d="
M1322.810547,532.082397 
	C1313.967285,532.069275 1306.298584,529.990417 1299.350098,525.033630 
	C1296.269775,522.836304 1292.650879,521.322021 1289.125000,519.863892 
	C1288.011597,519.403442 1286.406616,520.131470 1285.026611,520.315552 
	C1285.333862,521.653870 1285.196411,523.458191 1286.025635,524.249695 
	C1289.622437,527.682983 1293.501343,530.820740 1297.276245,534.064819 
	C1296.403198,535.474915 1294.397705,537.271912 1294.636963,538.690369 
	C1294.940186,540.488464 1296.936035,542.116455 1298.447632,543.560425 
	C1299.756104,544.810181 1301.295044,545.945068 1302.930786,546.700073 
	C1306.623901,548.404663 1307.928345,551.367920 1307.982178,555.149719 
	C1308.036621,558.976990 1307.893677,562.816284 1308.150269,566.629211 
	C1308.436035,570.876099 1310.497803,572.244080 1314.482300,571.142639 
	C1316.727417,570.522034 1319.066284,570.028748 1321.115356,568.989746 
	C1322.366089,568.355652 1323.146729,566.794006 1324.138428,565.648987 
	C1322.859253,564.812805 1321.653687,563.415527 1320.288330,563.236511 
	C1314.013550,562.413757 1313.823486,562.099854 1313.026611,554.902710 
	C1312.460205,549.787720 1311.298340,544.738708 1310.285156,538.996033 
	C1311.335693,538.996033 1313.414062,538.989990 1315.492432,538.997070 
	C1327.021484,539.036133 1338.449097,538.486816 1349.362183,534.113098 
	C1351.992798,533.058838 1355.016968,532.165161 1356.875610,535.487244 
	C1358.699951,538.747864 1357.609741,541.484192 1354.995972,543.937805 
	C1345.982300,552.399597 1349.838013,570.240723 1361.764771,574.768860 
	C1365.750122,576.281860 1370.109009,576.801453 1374.117188,578.267334 
	C1378.292480,579.794434 1382.495361,581.519653 1386.261353,583.845947 
	C1402.233765,593.712524 1410.640381,608.476257 1414.386353,626.648743 
	C1416.917358,638.927490 1417.395386,650.986206 1415.041626,663.246765 
	C1413.876831,669.314514 1409.670288,672.791382 1404.584229,675.084961 
	C1403.146118,675.733459 1400.321533,674.404663 1398.652710,673.238525 
	C1393.530029,669.658569 1388.751221,665.587036 1383.635254,661.996460 
	C1382.088013,660.910583 1379.873169,660.310425 1377.973145,660.330688 
	C1376.263184,660.348938 1374.565430,661.522034 1372.862427,662.185791 
	C1373.992676,663.420898 1374.909912,665.027893 1376.293579,665.820312 
	C1380.177612,668.044250 1385.010132,669.144653 1388.101440,672.112183 
	C1395.163696,678.891785 1401.825317,686.248718 1399.221313,697.588806 
	C1398.528809,700.604614 1398.747192,703.923218 1399.041870,707.056213 
	C1400.446289,721.981445 1388.941772,729.816956 1375.717896,730.697693 
	C1365.754272,731.361267 1355.636230,729.705017 1345.586914,729.081360 
	C1345.534424,728.459961 1345.481934,727.838562 1345.429443,727.217163 
	C1349.749146,725.050171 1354.261597,723.185059 1358.312500,720.597412 
	C1360.564941,719.158630 1362.047729,716.515076 1363.877319,714.414490 
	C1361.143433,714.644470 1358.168213,714.254456 1355.716309,715.208801 
	C1343.310059,720.037598 1331.263672,725.882324 1318.667847,730.109924 
	C1301.293091,735.941711 1283.208496,737.377563 1264.951538,735.424622 
	C1259.340454,734.824402 1253.682861,734.096924 1248.231079,732.704651 
	C1240.475098,730.723999 1233.706787,726.865356 1229.290283,719.808350 
	C1228.504639,718.552917 1227.739380,717.191956 1227.384399,715.774597 
	C1224.928589,705.970215 1229.896973,700.135803 1239.695679,702.125122 
	C1246.495483,703.505676 1253.164795,705.880005 1259.631226,708.464294 
	C1268.279053,711.920532 1275.857056,710.247009 1283.984009,706.288757 
	C1295.628174,700.617554 1306.358276,694.155273 1315.373291,684.613464 
	C1318.534790,681.267212 1323.994141,680.119934 1328.347046,677.858521 
	C1330.362305,676.811584 1332.640991,675.865967 1334.114136,674.249207 
	C1341.890625,665.714905 1350.914551,660.401611 1362.951904,660.770264 
	C1368.101807,660.927856 1370.329956,657.184082 1369.728027,651.294006 
	C1369.525757,649.314819 1369.287842,647.335449 1369.205688,645.350342 
	C1369.181641,644.770691 1369.638550,644.171021 1370.229492,642.696106 
	C1373.685913,644.801880 1376.852051,646.735229 1380.022827,648.660950 
	C1382.011597,649.868835 1383.884888,651.464722 1386.043091,652.126953 
	C1387.496338,652.572937 1390.080566,652.242126 1390.832764,651.251709 
	C1391.595093,650.248047 1391.357910,647.446228 1390.446289,646.417786 
	C1388.277344,643.970703 1385.648804,641.776978 1382.839233,640.092163 
	C1379.656738,638.183594 1378.152222,635.866760 1377.890015,632.113403 
	C1377.578369,627.652710 1376.701172,623.198975 1375.651123,618.842957 
	C1375.354736,617.613464 1373.594849,616.736755 1372.506226,615.698242 
	C1371.716919,616.844971 1370.371704,617.929321 1370.234741,619.149231 
	C1369.648560,624.375610 1369.418457,629.641907 1369.037720,635.196411 
	C1362.555176,633.597595 1356.472900,632.217163 1350.458740,630.585327 
	C1342.071289,628.309692 1333.993286,628.685425 1326.255127,632.870972 
	C1323.487915,634.367737 1321.896118,633.576172 1321.184814,630.551086 
	C1319.167358,621.970520 1316.915527,613.440552 1315.099487,604.818298 
	C1312.686279,593.360291 1312.490479,592.979370 1300.825562,590.277100 
	C1304.186157,586.587036 1306.728882,583.646118 1312.767456,585.825012 
	C1324.254517,589.969788 1337.758301,584.849365 1344.409180,574.703003 
	C1345.273804,573.383850 1344.706177,571.125854 1344.801880,569.302734 
	C1343.215698,569.702026 1341.352051,569.701233 1340.093994,570.573669 
	C1335.885498,573.492065 1332.302856,577.662537 1327.738647,579.649475 
	C1316.198364,584.673218 1299.826294,577.250427 1295.268677,564.797546 
	C1290.594238,552.025757 1287.447754,538.691345 1282.696655,525.952209 
	C1279.420532,517.168030 1280.554321,509.356018 1285.973145,502.587830 
	C1289.259033,498.483643 1294.127563,495.021118 1299.000244,492.965057 
	C1305.667725,490.151611 1312.912109,488.238983 1320.091553,487.199677 
	C1336.275757,484.856720 1348.881348,492.830322 1359.721436,503.460754 
	C1368.488770,512.058594 1375.768555,522.172180 1384.523804,530.784241 
	C1394.343018,540.442871 1404.936523,549.337524 1415.455688,558.254883 
	C1426.604980,567.706421 1433.894409,591.460938 1422.239990,606.831116 
	C1420.948242,608.534668 1418.656982,609.480469 1416.829346,610.777710 
	C1415.818604,609.165710 1414.473389,607.672913 1413.849487,605.923035 
	C1408.355469,590.511353 1398.182739,579.402039 1383.274292,572.785706 
	C1380.662231,571.626465 1377.263428,570.721619 1374.649780,571.378357 
	C1367.691162,573.126831 1363.721802,569.993469 1360.039795,564.768555 
	C1354.354248,556.700684 1354.223633,554.350586 1360.348267,547.028992 
	C1363.298096,543.502625 1364.075073,535.861694 1361.703979,531.915894 
	C1359.617676,528.443604 1356.555664,526.769897 1352.424194,527.808350 
	C1350.812622,528.213379 1349.188843,528.670532 1347.671997,529.335144 
	C1339.812988,532.778992 1331.709473,533.879456 1322.810547,532.082397 
z"/>
<path fill="#000000" opacity="1.000000" stroke="none" 
	d="
M1223.075439,647.958252 
	C1219.746094,635.344360 1216.398682,623.177185 1213.247925,610.959167 
	C1210.470581,600.188904 1212.257446,597.252075 1223.317261,597.225220 
	C1238.254883,597.188904 1253.192627,598.256653 1268.135132,598.670593 
	C1278.111572,598.946960 1288.101196,599.129272 1298.076050,598.924072 
	C1303.407837,598.814392 1305.634766,600.940247 1306.871094,606.074768 
	C1310.642334,621.737122 1315.287964,637.192871 1318.879883,652.892273 
	C1320.213867,658.723450 1319.804443,665.013306 1319.640259,671.079163 
	C1319.605469,672.366394 1317.262817,673.706787 1315.805542,674.781494 
	C1315.245483,675.194519 1314.189087,674.964539 1313.358276,674.975891 
	C1288.251343,675.318054 1263.144897,675.689209 1238.037354,675.966614 
	C1231.350098,676.040527 1229.504272,674.774841 1227.721924,668.276978 
	C1225.923340,661.720215 1224.647583,655.020142 1223.075439,647.958252 
M1273.920776,629.324402 
	C1270.452148,629.253052 1266.981934,629.225403 1263.515259,629.100891 
	C1257.283936,628.877136 1254.751465,630.698792 1253.030273,636.679932 
	C1251.476074,642.080811 1252.771606,646.914856 1256.242554,651.101135 
	C1258.604614,653.950134 1261.584961,655.433167 1265.493896,653.760559 
	C1266.956421,653.134766 1268.689453,653.053345 1270.315552,652.912720 
	C1277.076050,652.328308 1280.379272,646.926514 1277.870850,640.642456 
	C1277.576660,639.905640 1277.777954,638.770996 1278.139526,638.004883 
	C1280.440308,633.131653 1279.962524,631.872620 1273.920776,629.324402 
M1274.258423,620.788635 
	C1272.312622,619.970215 1270.160278,618.216187 1268.477051,618.587646 
	C1266.671997,618.985901 1264.879517,621.164368 1263.939209,623.004272 
	C1263.493530,623.876221 1264.994751,626.945801 1265.698853,626.975098 
	C1267.732056,627.059570 1270.020508,626.468933 1271.794434,625.433655 
	C1273.012939,624.722534 1273.540527,622.827698 1274.258423,620.788635 
z"/>
<path fill="#000000" opacity="1.000000" stroke="none" 
	d="
M1220.310791,719.499695 
	C1215.468872,705.104614 1213.074341,691.225952 1221.706909,679.348145 
	C1227.953247,680.388916 1232.768188,681.338684 1237.626343,681.941467 
	C1240.250244,682.267029 1242.947632,681.999695 1245.611938,681.999817 
	C1258.890991,682.000549 1273.658447,687.105225 1284.884399,695.617188 
	C1276.520386,702.441895 1267.307617,703.711792 1257.267822,700.225342 
	C1252.877319,698.700684 1248.556519,696.798767 1244.040161,695.843750 
	C1227.512329,692.348816 1218.236206,702.591492 1222.875122,718.932312 
	C1223.308960,720.460571 1223.711792,721.997559 1224.129028,723.530518 
	C1223.732788,723.712280 1223.336548,723.894043 1222.940308,724.075806 
	C1222.109253,722.664368 1221.278198,721.252930 1220.310791,719.499695 
z"/>
<path fill="#000000" opacity="1.000000" stroke="none" 
	d="
M1361.996582,644.182007 
	C1362.626099,646.651184 1363.578735,648.789795 1363.431274,650.849731 
	C1363.332886,652.225342 1361.935913,654.206787 1360.660522,654.680786 
	C1354.495850,656.972412 1348.178101,658.853821 1341.904419,660.848267 
	C1341.464111,660.988281 1340.940552,660.866577 1339.584595,660.866577 
	C1340.582642,658.703613 1341.660156,656.936340 1342.201538,655.017822 
	C1342.643311,653.452087 1342.444824,651.705566 1342.530273,650.039185 
	C1340.848267,650.278748 1338.902344,650.066589 1337.544312,650.860352 
	C1335.332886,652.152832 1333.505615,654.102844 1331.516235,655.775330 
	C1331.093262,655.542969 1330.670410,655.310608 1330.247437,655.078247 
	C1331.646729,652.142578 1333.232300,649.276489 1334.365723,646.241455 
	C1334.920044,644.757141 1334.632812,642.958557 1334.726562,641.302246 
	C1333.309937,641.881409 1331.609619,642.148499 1330.545898,643.115784 
	C1329.096436,644.433716 1328.132690,646.285645 1326.960571,647.908630 
	C1326.228760,647.493835 1325.496948,647.079041 1324.765137,646.664246 
	C1325.319214,644.834839 1325.309448,642.122620 1326.532959,641.341309 
	C1330.223999,638.983887 1334.273804,636.185730 1338.407104,635.767517 
	C1344.059448,635.195618 1350.064575,636.082581 1355.619629,637.508423 
	C1358.074951,638.138733 1359.796875,641.627136 1361.996582,644.182007 
z"/>
<path fill="#000000" opacity="1.000000" stroke="none" 
	d="
M1305.180420,682.210327 
	C1302.343018,684.943909 1299.612915,687.806091 1296.596680,690.325745 
	C1295.783813,691.004761 1293.918945,691.106323 1292.849365,690.683228 
	C1286.994873,688.367371 1281.237549,685.805481 1275.446899,683.328186 
	C1275.493774,682.875427 1275.540649,682.422607 1275.587524,681.969849 
	C1285.070312,681.969849 1294.553101,681.969849 1304.555420,682.025635 
	C1305.075073,682.081482 1305.180420,682.210327 1305.180420,682.210327 
z"/>
<path fill="#000000" opacity="1.000000" stroke="none" 
	d="
M1315.440674,738.866455 
	C1319.323608,735.337463 1331.892822,732.047974 1336.395264,733.269348 
	C1339.435181,734.093811 1342.489380,734.867737 1345.518066,735.730896 
	C1348.373535,736.544739 1351.204224,737.445801 1354.056030,738.912598 
	C1341.259155,738.912598 1328.462158,738.912598 1315.440674,738.866455 
z"/>
<path fill="#000000" opacity="1.000000" stroke="none" 
	d="
M1305.022217,682.017090 
	C1305.250732,681.815796 1305.532104,681.678894 1305.813477,681.541992 
	C1305.683594,681.743164 1305.553711,681.944275 1305.302124,682.177856 
	C1305.180420,682.210327 1305.075073,682.081482 1305.022217,682.017090 
z"/>
<path fill="#000000" opacity="1.000000" stroke="none" 
	d="
M1336.553955,663.954346 
	C1336.586426,663.982422 1336.521362,663.926208 1336.553955,663.954346 
z"/>
<path fill="#000000" opacity="1.000000" stroke="none" 
	d="
M1227.032593,726.462280 
	C1227.047119,726.502747 1227.018066,726.421814 1227.032593,726.462280 
z"/>
<path fill="#000000" opacity="1.000000" stroke="none" 
	d="
M1274.307007,629.422913 
	C1279.962524,631.872620 1280.440308,633.131653 1278.139526,638.004883 
	C1277.777954,638.770996 1277.576660,639.905640 1277.870850,640.642456 
	C1280.379272,646.926514 1277.076050,652.328308 1270.315552,652.912720 
	C1268.689453,653.053345 1266.956421,653.134766 1265.493896,653.760559 
	C1261.584961,655.433167 1258.604614,653.950134 1256.242554,651.101135 
	C1252.771606,646.914856 1251.476074,642.080811 1253.030273,636.679932 
	C1254.751465,630.698792 1257.283936,628.877136 1263.515259,629.100891 
	C1266.981934,629.225403 1270.452148,629.253052 1274.307007,629.422913 
z"/>
<path fill="#000000" opacity="1.000000" stroke="none" 
	d="
M1274.317627,621.125244 
	C1273.540527,622.827698 1273.012939,624.722534 1271.794434,625.433655 
	C1270.020508,626.468933 1267.732056,627.059570 1265.698853,626.975098 
	C1264.994751,626.945801 1263.493530,623.876221 1263.939209,623.004272 
	C1264.879517,621.164368 1266.671997,618.985901 1268.477051,618.587646 
	C1270.160278,618.216187 1272.312622,619.970215 1274.317627,621.125244 
z"/>
</svg>