<svg xmlns="http://www.w3.org/2000/svg" viewBox="0 -0.2 47 49.4" fill="none">
 <g fill="#00b96c">
  <path d="m20.235.578a8.513 8.513 0 0 1 6.165 0 61.048 61.048 0 0 1 6.584 3.022c.448.24.38.904-.1 1.07-11.807 4.134-20.274 15.372-20.274 28.588 0 4.116.822 8.042 2.31 11.62.21.504-.318 1.02-.804.767a60.896 60.896 0 0 1 -9.975-6.514 8.512 8.512 0 0 1 -3.082-5.34 60.903 60.903 0 0 1 -.71-9.29c0-3.16.243-6.263.71-9.29a8.512 8.512 0 0 1 3.084-5.34 60.9 60.9 0 0 1 7.69-5.26 60.897 60.897 0 0 1 8.4-4.032z"/>
  <path d="m42.553 9.872a61.284 61.284 0 0 0 -.836-.66 2.661 2.661 0 0 0 -2.106-.526c-12.825 2.342-22.548 13.574-22.548 27.075 0 4.197.938 8.174 2.618 11.734.26.55.74.963 1.316 1.164a8.513 8.513 0 0 0 5.463-.237 60.744 60.744 0 0 0 8.402-4.031 60.889 60.889 0 0 0 7.69-5.26 8.512 8.512 0 0 0 3.083-5.338c.467-3.03.71-6.132.71-9.29 0-3.161-.243-6.264-.71-9.292a8.512 8.512 0 0 0 -3.082-5.339z"/>
 </g>
</svg>
