<svg width="16" height="16" viewBox="0 0 16 16" fill="none" xmlns="http://www.w3.org/2000/svg">
<path fill-rule="evenodd" clip-rule="evenodd" d="M1.33333 5.3335C0.596954 5.3335 0 5.93045 0 6.66683V14.6668C0 15.4032 0.596953 16.0002 1.33333 16.0002H14.6667C15.403 16.0002 16 15.4032 16 14.6668V6.66683C16 5.93045 15.403 5.3335 14.6667 5.3335H1.33333ZM6.33333 9.00028C6.33333 8.4884 6.88632 8.16748 7.33076 8.42145L9.98705 9.93933C10.4349 10.1953 10.4349 10.8411 9.98705 11.097L7.33076 12.6149C6.88632 12.8688 6.33333 12.5479 6.33333 12.036V9.00028Z" fill="white"/>
<rect x="0.666016" y="2.6665" width="14.6667" height="1.33333" rx="0.666667" fill="white"/>
<rect x="1.33398" width="13.3333" height="1.33333" rx="0.666667" fill="white"/>
</svg>
